<svg width="172mm" height="78.3mm" viewBox="0 0 1000000 455233"><def><style>.C1 {stroke: #ff0000; stroke-width: 2907; stroke-opacity: 1.000; fill: none; fill-opacity: 1.000;}</style></def><path d="M 103.91077523159434 21.995611896635786 l -86.98293515358361 -21.995611896635786 l -16.89663578742077 59.98829839102876 l 77.88493417844954 44.99122379327157 l 25.99512432959532 -82.98391028766456" class="C1" /><path d="M 278.8766455387616 6.998537298878595 l -70.98586055582642 21.995611896635786 l -43.891272549975625 47.290589956118964 l 65.68698196001951 -7.498293515358362 l 49.19015114578254 -61.787908337396395" class="C1" /><path d="M 182.89566065333983 114.97757191613847 l -147.9707459775719 18.996099463676256 l 51.98976109215017 32.993661628473916 l 50.98976109215017 -17.296440760604582 l 44.99122379327157 -34.693320331545586" class="C1" /><path d="M 300.07264748902975 145.57142857142858 l -27.69478303266699 -94.88152120916627 l -36.99268649439298 171.26621160409556 l 51.68990736226231 -33.693320331545586 l 12.99756216479766 -42.691370063383715" class="C1" /><path d="M 464.8400780107265 149.6704046806436 l -15.296928327645052 45.590931253047295 l -48.69039492930278 14.397367137981472 l 80.6840565577767 7.598732325694783 l -16.696733300828864 -67.58654314968308" class="C1" /><path d="M 387.35543637250123 81.18381277425647 l -79.78449536811311 -20.495855680156023 l 15.796684544124817 80.48415407118479 l 80.6840565577767 7.598732325694783 l -16.696733300828864 -67.58654314968308" class="C1" /><path d="M 425.847879083374 0.499756216479766 l -68.18673817649928 46.19112627986348 l 70.78595806923452 41.49195514383228 l 59.08824963432472 -55.48902974158947 l -61.68795709410044 -32.19356411506582" class="C1" /></svg>