<?xml version="1.0" encoding="utf-8" standalone="no"?>
<!DOCTYPE svg PUBLIC "-//W3C//DTD SVG 1.1//EN"
  "http://www.w3.org/Graphics/SVG/1.1/DTD/svg11.dtd">
<svg xmlns:xlink="http://www.w3.org/1999/xlink" width="576pt" height="576pt" viewBox="0 0 576 576" xmlns="http://www.w3.org/2000/svg" version="1.1">
 <metadata>
  <rdf:RDF xmlns:dc="http://purl.org/dc/elements/1.1/" xmlns:cc="http://creativecommons.org/ns#" xmlns:rdf="http://www.w3.org/1999/02/22-rdf-syntax-ns#">
   <cc:Work>
    <dc:type rdf:resource="http://purl.org/dc/dcmitype/StillImage"/>
    <dc:date>2024-04-07T18:09:07.810509</dc:date>
    <dc:format>image/svg+xml</dc:format>
    <dc:creator>
     <cc:Agent>
      <dc:title>Matplotlib v3.8.3, https://matplotlib.org/</dc:title>
     </cc:Agent>
    </dc:creator>
   </cc:Work>
  </rdf:RDF>
 </metadata>
 <defs>
  <style type="text/css">*{stroke-linejoin: round; stroke-linecap: butt}</style>
 </defs>
 <g id="figure_1">
  <g id="patch_1">
   <path d="M 0 576 
L 576 576 
L 576 0 
L 0 0 
z
" style="fill: #ffffff"/>
  </g>
  <g id="axes_1">
   <g id="patch_2">
    <path d="M 0 576 
L 576 576 
L 576 0 
L 0 0 
z
" style="fill: #ffffff"/>
   </g>
   <g id="matplotlib.axis_1"/>
   <g id="matplotlib.axis_2"/>
   <g id="line2d_1">
    <path d="M 168.48 407.3472 
L 134.1504 285.4656 
L 292.4352 193.9968 
L 345.312 362.6496 
L 168.48 407.3472 
" clip-path="url(#p175d42b527)" style="fill: none; stroke: #088d7d; stroke-linecap: square"/>
   </g>
   <g id="line2d_2">
    <path d="M 67.8528 442.368 
L 214.272 479.4624 
L 308.3328 570.7584 
L 174.24 562.5792 
L 67.8528 442.368 
" clip-path="url(#p175d42b527)" style="fill: none; stroke: #84d7ca; stroke-linecap: square"/>
   </g>
   <g id="line2d_3">
    <path d="M 6.3936 145.728 
L 156.5568 409.1328 
L 39.3984 365.0688 
L 5.0688 261.2736 
L 6.3936 145.728 
" clip-path="url(#p175d42b527)" style="fill: none; stroke: #bc7b02; stroke-linecap: square"/>
   </g>
   <g id="line2d_4">
    <path d="M 90.3744 437.5296 
L 435.6288 350.2656 
L 370.8288 457.632 
L 285.0624 487.0656 
L 90.3744 437.5296 
" clip-path="url(#p175d42b527)" style="fill: none; stroke: #0122e2; stroke-linecap: square"/>
   </g>
   <g id="line2d_5">
    <path d="M 179.8272 405.1584 
L 82.1376 404.4096 
L 22.2336 488.448 
L 60.9984 328.3776 
L 179.8272 405.1584 
" clip-path="url(#p175d42b527)" style="fill: none; stroke: #ee572f; stroke-linecap: square"/>
   </g>
   <g id="line2d_6">
    <path d="M 292.8384 161.4528 
L 457.8624 184.896 
L 481.8816 347.8464 
L 342.8928 321.1776 
L 292.8384 161.4528 
" clip-path="url(#p175d42b527)" style="fill: none; stroke: #17782e; stroke-linecap: square"/>
   </g>
   <g id="line2d_7">
    <path d="M 249.2352 207.3024 
L 104.0832 290.7072 
L 91.3536 124.416 
L 245.376 65.952 
L 249.2352 207.3024 
" clip-path="url(#p175d42b527)" style="fill: none; stroke: #961bf9; stroke-linecap: square"/>
   </g>
   <g id="patch_3">
    <path d="M 0 576 
L 0 0 
" style="fill: none; stroke: #000000; stroke-width: 0.8; stroke-linejoin: miter; stroke-linecap: square"/>
   </g>
   <g id="patch_4">
    <path d="M 576 576 
L 576 0 
" style="fill: none; stroke: #000000; stroke-width: 0.8; stroke-linejoin: miter; stroke-linecap: square"/>
   </g>
   <g id="patch_5">
    <path d="M 0 576 
L 576 576 
" style="fill: none; stroke: #000000; stroke-width: 0.8; stroke-linejoin: miter; stroke-linecap: square"/>
   </g>
   <g id="patch_6">
    <path d="M 0 0 
L 576 0 
" style="fill: none; stroke: #000000; stroke-width: 0.8; stroke-linejoin: miter; stroke-linecap: square"/>
   </g>
  </g>
 </g>
 <defs>
  <clipPath id="p175d42b527">
   <rect x="0" y="0" width="576" height="576"/>
  </clipPath>
 </defs>
</svg>
