<?xml version="1.0" encoding="utf-8" standalone="no"?>
<!DOCTYPE svg PUBLIC "-//W3C//DTD SVG 1.1//EN"
  "http://www.w3.org/Graphics/SVG/1.1/DTD/svg11.dtd">
<svg xmlns:xlink="http://www.w3.org/1999/xlink" width="576pt" height="576pt" viewBox="0 0 576 576" xmlns="http://www.w3.org/2000/svg" version="1.1">
 <metadata>
  <rdf:RDF xmlns:dc="http://purl.org/dc/elements/1.1/" xmlns:cc="http://creativecommons.org/ns#" xmlns:rdf="http://www.w3.org/1999/02/22-rdf-syntax-ns#">
   <cc:Work>
    <dc:type rdf:resource="http://purl.org/dc/dcmitype/StillImage"/>
    <dc:date>2024-04-14T17:34:01.256854</dc:date>
    <dc:format>image/svg+xml</dc:format>
    <dc:creator>
     <cc:Agent>
      <dc:title>Matplotlib v3.8.3, https://matplotlib.org/</dc:title>
     </cc:Agent>
    </dc:creator>
   </cc:Work>
  </rdf:RDF>
 </metadata>
 <defs>
  <style type="text/css">*{stroke-linejoin: round; stroke-linecap: butt}</style>
 </defs>
 <g id="figure_1">
  <g id="patch_1">
   <path d="M 0 576 
L 576 576 
L 576 0 
L 0 0 
z
" style="fill: #ffffff"/>
  </g>
  <g id="axes_1">
   <g id="patch_2">
    <path d="M 0 576 
L 576 576 
L 576 0 
L 0 0 
z
" style="fill: #ffffff"/>
   </g>
   <g id="matplotlib.axis_1"/>
   <g id="matplotlib.axis_2"/>
   <g id="line2d_1">
    <path d="M 116.5248 530.1504 
L 82.1952 408.2688 
L 240.48 316.8 
L 293.3568 485.4528 
L 116.5248 530.1504 
" clip-path="url(#p3e95db174d)" style="fill: none; stroke: #47aab0; stroke-linecap: square"/>
   </g>
   <g id="line2d_2">
    <path d="M 293.36 485.4448 
L 293.36 485.4448 
L 293.36 485.4448 
L 293.36 485.4448 
L 293.36 485.4448 
L 293.36 485.4448 
L 293.36 485.4448 
L 293.36 485.4448 
L 293.36 485.4448 
L 293.36 485.4448 
L 293.36 485.4448 
L 293.36 485.4448 
L 293.36 485.4448 
L 293.36 485.4448 
L 293.36 485.4448 
L 293.36 485.4448 
L 293.36 485.4448 
L 293.36 485.4448 
L 293.36 485.4448 
L 293.36 485.4448 
L 293.36 485.4448 
L 293.36 485.4448 
L 293.36 485.4448 
L 293.36 485.4448 
L 293.36 485.4448 
L 293.36 485.4448 
L 293.36 485.4448 
L 293.36 485.4448 
L 293.36 485.4448 
L 293.36 485.4448 
L 293.36 485.4448 
L 293.36 485.4448 
L 293.36 485.4448 
L 293.36 485.4448 
L 293.36 485.4448 
L 293.36 485.4448 
L 293.36 485.4448 
L 293.36 485.4448 
L 293.36 485.4448 
L 293.36 485.4448 
L 293.36 485.4448 
L 293.36 485.4448 
L 293.36 485.4448 
L 293.36 485.4448 
L 293.36 485.4448 
L 293.36 485.4448 
L 293.36 485.4448 
L 293.36 485.4448 
L 293.36 485.4448 
L 293.36 485.4448 
L 293.36 485.4448 
L 293.36 485.4448 
L 293.36 485.4448 
L 293.36 485.4448 
L 293.36 485.4448 
L 293.36 485.4448 
L 293.36 485.4448 
L 293.36 485.4448 
L 293.36 485.4448 
L 293.36 485.4448 
L 293.36 485.4448 
L 293.36 485.4448 
L 293.36 485.4448 
L 293.36 485.4448 
L 293.36 485.4448 
L 293.36 485.4448 
L 293.36 485.4448 
L 293.36 485.4448 
L 293.36 485.4448 
L 293.36 485.4448 
L 293.36 485.4448 
L 293.36 485.4448 
L 293.36 485.4448 
L 293.36 485.4448 
L 293.36 485.4448 
L 293.36 485.4448 
L 293.36 485.4448 
L 293.36 485.4448 
L 293.36 485.4448 
L 293.36 485.4448 
L 293.36 485.4448 
L 293.36 485.4448 
L 293.36 485.4448 
L 293.36 485.4448 
L 293.36 485.4448 
L 293.36 485.4448 
L 293.36 485.4448 
L 293.36 485.4448 
L 293.36 485.4448 
L 293.36 485.4448 
L 293.36 485.4448 
L 293.36 485.4448 
L 293.36 485.4448 
L 293.36 485.4448 
L 293.36 485.4448 
L 293.36 485.4448 
L 293.36 485.4448 
L 293.36 485.4448 
L 293.36 485.4448 
L 293.36 485.4448 
" clip-path="url(#p3e95db174d)" style="fill: none; stroke: #000000; stroke-linecap: square"/>
   </g>
   <g id="line2d_3">
    <path d="M 293.36 485.4448 
L 292.826344 483.741204 
L 292.292687 482.037608 
L 291.75903 480.334012 
L 291.225374 478.630416 
L 290.691717 476.92682 
L 290.158061 475.223224 
L 289.624404 473.519628 
L 289.090748 471.816032 
L 288.557091 470.112436 
L 288.023435 468.40884 
L 287.489778 466.705244 
L 286.956121 465.001648 
L 286.422465 463.298052 
L 285.888808 461.594456 
L 285.355152 459.890861 
L 284.821495 458.187265 
L 284.287839 456.483669 
L 283.754182 454.780073 
L 283.220525 453.076477 
L 282.686869 451.372881 
L 282.153212 449.669285 
L 281.619556 447.965689 
L 281.085899 446.262093 
L 280.552243 444.558497 
L 280.018586 442.854901 
L 279.484929 441.151305 
L 278.951273 439.447709 
L 278.417616 437.744113 
L 277.88396 436.040517 
L 277.350303 434.336921 
L 276.816647 432.633325 
L 276.28299 430.929729 
L 275.749333 429.226133 
L 275.215677 427.522537 
L 274.68202 425.818941 
L 274.148364 424.115345 
L 273.614707 422.411749 
L 273.081051 420.708153 
L 272.547394 419.004557 
L 272.013738 417.300962 
L 271.480081 415.597366 
L 270.946424 413.89377 
L 270.412768 412.190174 
L 269.879111 410.486578 
L 269.345455 408.782982 
L 268.811798 407.079386 
L 268.278142 405.37579 
L 267.744485 403.672194 
L 267.210828 401.968598 
L 266.677172 400.265002 
L 266.143515 398.561406 
L 265.609859 396.85781 
L 265.076202 395.154214 
L 264.542546 393.450618 
L 264.008889 391.747022 
L 263.475232 390.043426 
L 262.941576 388.33983 
L 262.407919 386.636234 
L 261.874263 384.932638 
L 261.340606 383.229042 
L 260.80695 381.525446 
L 260.273293 379.82185 
L 259.739637 378.118254 
L 259.20598 376.414658 
L 258.672323 374.711062 
L 258.138667 373.007467 
L 257.60501 371.303871 
L 257.071354 369.600275 
L 256.537697 367.896679 
L 256.004041 366.193083 
L 255.470384 364.489487 
L 254.936727 362.785891 
L 254.403071 361.082295 
L 253.869414 359.378699 
L 253.335758 357.675103 
L 252.802101 355.971507 
L 252.268445 354.267911 
L 251.734788 352.564315 
L 251.201131 350.860719 
L 250.667475 349.157123 
L 250.133818 347.453527 
L 249.600162 345.749931 
L 249.066505 344.046335 
L 248.532849 342.342739 
L 247.999192 340.639143 
L 247.465535 338.935547 
L 246.931879 337.231951 
L 246.398222 335.528355 
L 245.864566 333.824759 
L 245.330909 332.121163 
L 244.797253 330.417568 
L 244.263596 328.713972 
L 243.72994 327.010376 
L 243.196283 325.30678 
L 242.662626 323.603184 
L 242.12897 321.899588 
L 241.595313 320.195992 
L 241.061657 318.492396 
L 240.528 316.7888 
" clip-path="url(#p3e95db174d)" style="fill: none; stroke: #000000; stroke-linecap: square"/>
   </g>
   <g id="line2d_4">
    <path d="M 240.528 316.7888 
L 238.929083 317.712436 
L 237.330166 318.636073 
L 235.731249 319.559709 
L 234.132331 320.483345 
L 232.533414 321.406982 
L 230.934497 322.330618 
L 229.33558 323.254254 
L 227.736663 324.177891 
L 226.137746 325.101527 
L 224.538828 326.025163 
L 222.939911 326.9488 
L 221.340994 327.872436 
L 219.742077 328.796073 
L 218.14316 329.719709 
L 216.544243 330.643345 
L 214.945325 331.566982 
L 213.346408 332.490618 
L 211.747491 333.414254 
L 210.148574 334.337891 
L 208.549657 335.261527 
L 206.95074 336.185163 
L 205.351822 337.1088 
L 203.752905 338.032436 
L 202.153988 338.956073 
L 200.555071 339.879709 
L 198.956154 340.803345 
L 197.357236 341.726982 
L 195.758319 342.650618 
L 194.159402 343.574254 
L 192.560485 344.497891 
L 190.961568 345.421527 
L 189.362651 346.345163 
L 187.763733 347.2688 
L 186.164816 348.192436 
L 184.565899 349.116073 
L 182.966982 350.039709 
L 181.368065 350.963345 
L 179.769148 351.886982 
L 178.17023 352.810618 
L 176.571313 353.734254 
L 174.972396 354.657891 
L 173.373479 355.581527 
L 171.774562 356.505163 
L 170.175645 357.4288 
L 168.576727 358.352436 
L 166.97781 359.276073 
L 165.378893 360.199709 
L 163.779976 361.123345 
L 162.181059 362.046982 
L 160.582142 362.970618 
L 158.983224 363.894254 
L 157.384307 364.817891 
L 155.78539 365.741527 
L 154.186473 366.665163 
L 152.587556 367.5888 
L 150.988638 368.512436 
L 149.389721 369.436073 
L 147.790804 370.359709 
L 146.191887 371.283345 
L 144.59297 372.206982 
L 142.994053 373.130618 
L 141.395135 374.054254 
L 139.796218 374.977891 
L 138.197301 375.901527 
L 136.598384 376.825163 
L 134.999467 377.7488 
L 133.40055 378.672436 
L 131.801632 379.596073 
L 130.202715 380.519709 
L 128.603798 381.443345 
L 127.004881 382.366982 
L 125.405964 383.290618 
L 123.807047 384.214254 
L 122.208129 385.137891 
L 120.609212 386.061527 
L 119.010295 386.985164 
L 117.411378 387.9088 
L 115.812461 388.832436 
L 114.213543 389.756073 
L 112.614626 390.679709 
L 111.015709 391.603345 
L 109.416792 392.526982 
L 107.817875 393.450618 
L 106.218958 394.374254 
L 104.62004 395.297891 
L 103.021123 396.221527 
L 101.422206 397.145164 
L 99.823289 398.0688 
L 98.224372 398.992436 
L 96.625455 399.916073 
L 95.026537 400.839709 
L 93.42762 401.763345 
L 91.828703 402.686982 
L 90.229786 403.610618 
L 88.630869 404.534254 
L 87.031952 405.457891 
L 85.433034 406.381527 
L 83.834117 407.305164 
L 82.2352 408.2288 
" clip-path="url(#p3e95db174d)" style="fill: none; stroke: #000000; stroke-linecap: square"/>
   </g>
   <g id="line2d_5">
    <path d="M 82.2352 408.2288 
L 82.582077 409.460315 
L 82.928954 410.69183 
L 83.27583 411.923345 
L 83.622707 413.15486 
L 83.969584 414.386376 
L 84.316461 415.617891 
L 84.663337 416.849406 
L 85.010214 418.080921 
L 85.357091 419.312436 
L 85.703968 420.543951 
L 86.050844 421.775467 
L 86.397721 423.006982 
L 86.744598 424.238497 
L 87.091475 425.470012 
L 87.438352 426.701527 
L 87.785228 427.933042 
L 88.132105 429.164557 
L 88.478982 430.396073 
L 88.825859 431.627588 
L 89.172735 432.859103 
L 89.519612 434.090618 
L 89.866489 435.322133 
L 90.213366 436.553648 
L 90.560242 437.785164 
L 90.907119 439.016679 
L 91.253996 440.248194 
L 91.600873 441.479709 
L 91.94775 442.711224 
L 92.294626 443.942739 
L 92.641503 445.174254 
L 92.98838 446.40577 
L 93.335257 447.637285 
L 93.682133 448.8688 
L 94.02901 450.100315 
L 94.375887 451.33183 
L 94.722764 452.563345 
L 95.06964 453.794861 
L 95.416517 455.026376 
L 95.763394 456.257891 
L 96.110271 457.489406 
L 96.457148 458.720921 
L 96.804024 459.952436 
L 97.150901 461.183951 
L 97.497778 462.415467 
L 97.844655 463.646982 
L 98.191531 464.878497 
L 98.538408 466.110012 
L 98.885285 467.341527 
L 99.232162 468.573042 
L 99.579038 469.804557 
L 99.925915 471.036073 
L 100.272792 472.267588 
L 100.619669 473.499103 
L 100.966546 474.730618 
L 101.313422 475.962133 
L 101.660299 477.193648 
L 102.007176 478.425164 
L 102.354053 479.656679 
L 102.700929 480.888194 
L 103.047806 482.119709 
L 103.394683 483.351224 
L 103.74156 484.582739 
L 104.088436 485.814254 
L 104.435313 487.04577 
L 104.78219 488.277285 
L 105.129067 489.5088 
L 105.475943 490.740315 
L 105.82282 491.97183 
L 106.169697 493.203345 
L 106.516574 494.434861 
L 106.863451 495.666376 
L 107.210327 496.897891 
L 107.557204 498.129406 
L 107.904081 499.360921 
L 108.250958 500.592436 
L 108.597834 501.823951 
L 108.944711 503.055467 
L 109.291588 504.286982 
L 109.638465 505.518497 
L 109.985341 506.750012 
L 110.332218 507.981527 
L 110.679095 509.213042 
L 111.025972 510.444558 
L 111.372849 511.676073 
L 111.719725 512.907588 
L 112.066602 514.139103 
L 112.413479 515.370618 
L 112.760356 516.602133 
L 113.107232 517.833648 
L 113.454109 519.065164 
L 113.800986 520.296679 
L 114.147863 521.528194 
L 114.494739 522.759709 
L 114.841616 523.991224 
L 115.188493 525.222739 
L 115.53537 526.454254 
L 115.882247 527.68577 
L 116.229123 528.917285 
L 116.576 530.1488 
" clip-path="url(#p3e95db174d)" style="fill: none; stroke: #000000; stroke-linecap: square"/>
   </g>
   <g id="line2d_6">
    <path d="M 116.576 530.1488 
L 118.361697 529.697244 
L 120.147394 529.245689 
L 121.933091 528.794133 
L 123.718788 528.342578 
L 125.504485 527.891022 
L 127.290182 527.439467 
L 129.075879 526.987911 
L 130.861576 526.536356 
L 132.647273 526.0848 
L 134.43297 525.633244 
L 136.218667 525.181689 
L 138.004364 524.730133 
L 139.790061 524.278578 
L 141.575758 523.827022 
L 143.361455 523.375467 
L 145.147152 522.923911 
L 146.932849 522.472356 
L 148.718546 522.0208 
L 150.504243 521.569244 
L 152.289939 521.117689 
L 154.075636 520.666133 
L 155.861333 520.214578 
L 157.64703 519.763022 
L 159.432727 519.311467 
L 161.218424 518.859911 
L 163.004121 518.408356 
L 164.789818 517.9568 
L 166.575515 517.505244 
L 168.361212 517.053689 
L 170.146909 516.602133 
L 171.932606 516.150578 
L 173.718303 515.699022 
L 175.504 515.247467 
L 177.289697 514.795911 
L 179.075394 514.344356 
L 180.861091 513.8928 
L 182.646788 513.441244 
L 184.432485 512.989689 
L 186.218182 512.538133 
L 188.003879 512.086578 
L 189.789576 511.635022 
L 191.575273 511.183467 
L 193.36097 510.731911 
L 195.146667 510.280355 
L 196.932364 509.8288 
L 198.718061 509.377244 
L 200.503758 508.925689 
L 202.289455 508.474133 
L 204.075152 508.022578 
L 205.860849 507.571022 
L 207.646546 507.119467 
L 209.432243 506.667911 
L 211.21794 506.216355 
L 213.003636 505.7648 
L 214.789333 505.313244 
L 216.57503 504.861689 
L 218.360727 504.410133 
L 220.146424 503.958578 
L 221.932121 503.507022 
L 223.717818 503.055467 
L 225.503515 502.603911 
L 227.289212 502.152355 
L 229.074909 501.7008 
L 230.860606 501.249244 
L 232.646303 500.797689 
L 234.432 500.346133 
L 236.217697 499.894578 
L 238.003394 499.443022 
L 239.789091 498.991467 
L 241.574788 498.539911 
L 243.360485 498.088355 
L 245.146182 497.6368 
L 246.931879 497.185244 
L 248.717576 496.733689 
L 250.503273 496.282133 
L 252.28897 495.830578 
L 254.074667 495.379022 
L 255.860364 494.927467 
L 257.646061 494.475911 
L 259.431758 494.024355 
L 261.217455 493.5728 
L 263.003152 493.121244 
L 264.788849 492.669689 
L 266.574546 492.218133 
L 268.360243 491.766578 
L 270.14594 491.315022 
L 271.931637 490.863467 
L 273.717333 490.411911 
L 275.50303 489.960355 
L 277.288727 489.5088 
L 279.074424 489.057244 
L 280.860121 488.605689 
L 282.645818 488.154133 
L 284.431515 487.702578 
L 286.217212 487.251022 
L 288.002909 486.799467 
L 289.788606 486.347911 
L 291.574303 485.896355 
L 293.36 485.4448 
" clip-path="url(#p3e95db174d)" style="fill: none; stroke: #000000; stroke-linecap: square"/>
   </g>
   <g id="line2d_7">
    <path d="M 293.36 485.4448 
L 293.36 485.4448 
L 293.36 485.4448 
L 293.36 485.4448 
L 293.36 485.4448 
L 293.36 485.4448 
L 293.36 485.4448 
L 293.36 485.4448 
L 293.36 485.4448 
L 293.36 485.4448 
L 293.36 485.4448 
L 293.36 485.4448 
L 293.36 485.4448 
L 293.36 485.4448 
L 293.36 485.4448 
L 293.36 485.4448 
L 293.36 485.4448 
L 293.36 485.4448 
L 293.36 485.4448 
L 293.36 485.4448 
L 293.36 485.4448 
L 293.36 485.4448 
L 293.36 485.4448 
L 293.36 485.4448 
L 293.36 485.4448 
L 293.36 485.4448 
L 293.36 485.4448 
L 293.36 485.4448 
L 293.36 485.4448 
L 293.36 485.4448 
L 293.36 485.4448 
L 293.36 485.4448 
L 293.36 485.4448 
L 293.36 485.4448 
L 293.36 485.4448 
L 293.36 485.4448 
L 293.36 485.4448 
L 293.36 485.4448 
L 293.36 485.4448 
L 293.36 485.4448 
L 293.36 485.4448 
L 293.36 485.4448 
L 293.36 485.4448 
L 293.36 485.4448 
L 293.36 485.4448 
L 293.36 485.4448 
L 293.36 485.4448 
L 293.36 485.4448 
L 293.36 485.4448 
L 293.36 485.4448 
L 293.36 485.4448 
L 293.36 485.4448 
L 293.36 485.4448 
L 293.36 485.4448 
L 293.36 485.4448 
L 293.36 485.4448 
L 293.36 485.4448 
L 293.36 485.4448 
L 293.36 485.4448 
L 293.36 485.4448 
L 293.36 485.4448 
L 293.36 485.4448 
L 293.36 485.4448 
L 293.36 485.4448 
L 293.36 485.4448 
L 293.36 485.4448 
L 293.36 485.4448 
L 293.36 485.4448 
L 293.36 485.4448 
L 293.36 485.4448 
L 293.36 485.4448 
L 293.36 485.4448 
L 293.36 485.4448 
L 293.36 485.4448 
L 293.36 485.4448 
L 293.36 485.4448 
L 293.36 485.4448 
L 293.36 485.4448 
L 293.36 485.4448 
L 293.36 485.4448 
L 293.36 485.4448 
L 293.36 485.4448 
L 293.36 485.4448 
L 293.36 485.4448 
L 293.36 485.4448 
L 293.36 485.4448 
L 293.36 485.4448 
L 293.36 485.4448 
L 293.36 485.4448 
L 293.36 485.4448 
L 293.36 485.4448 
L 293.36 485.4448 
L 293.36 485.4448 
L 293.36 485.4448 
L 293.36 485.4448 
L 293.36 485.4448 
L 293.36 485.4448 
L 293.36 485.4448 
L 293.36 485.4448 
L 293.36 485.4448 
" clip-path="url(#p3e95db174d)" style="fill: none; stroke: #000000; stroke-linecap: square"/>
   </g>
   <g id="line2d_8">
    <path d="M 345.9456 217.8432 
L 353.2608 368.7552 
L 293.472 485.3952 
L 262.08 354.7584 
L 345.9456 217.8432 
" clip-path="url(#p3e95db174d)" style="fill: none; stroke: #3a9e01; stroke-linecap: square"/>
   </g>
   <g id="line2d_9">
    <path d="M 345.852993 217.810391 
L 345.852993 217.810391 
L 345.852993 217.810391 
L 345.852993 217.810391 
L 345.852993 217.810391 
L 345.852993 217.810391 
L 345.852993 217.810391 
L 345.852993 217.810391 
L 345.852993 217.810391 
L 345.852993 217.810391 
L 345.852993 217.810391 
L 345.852993 217.810391 
L 345.852993 217.810391 
L 345.852993 217.810391 
L 345.852993 217.810391 
L 345.852993 217.810391 
L 345.852993 217.810391 
L 345.852993 217.810391 
L 345.852993 217.810391 
L 345.852993 217.810391 
L 345.852993 217.810391 
L 345.852993 217.810391 
L 345.852993 217.810391 
L 345.852993 217.810391 
L 345.852993 217.810391 
L 345.852993 217.810391 
L 345.852993 217.810391 
L 345.852993 217.810391 
L 345.852993 217.810391 
L 345.852993 217.810391 
L 345.852993 217.810391 
L 345.852993 217.810391 
L 345.852993 217.810391 
L 345.852993 217.810391 
L 345.852993 217.810391 
L 345.852993 217.810391 
L 345.852993 217.810391 
L 345.852993 217.810391 
L 345.852993 217.810391 
L 345.852993 217.810391 
L 345.852993 217.810391 
L 345.852993 217.810391 
L 345.852993 217.810391 
L 345.852993 217.810391 
L 345.852993 217.810391 
L 345.852993 217.810391 
L 345.852993 217.810391 
L 345.852993 217.810391 
L 345.852993 217.810391 
L 345.852993 217.810391 
L 345.852993 217.810391 
L 345.852993 217.810391 
L 345.852993 217.810391 
L 345.852993 217.810391 
L 345.852993 217.810391 
L 345.852993 217.810391 
L 345.852993 217.810391 
L 345.852993 217.810391 
L 345.852993 217.810391 
L 345.852993 217.810391 
L 345.852993 217.810391 
L 345.852993 217.810391 
L 345.852993 217.810391 
L 345.852993 217.810391 
L 345.852993 217.810391 
L 345.852993 217.810391 
L 345.852993 217.810391 
L 345.852993 217.810391 
L 345.852993 217.810391 
L 345.852993 217.810391 
L 345.852993 217.810391 
L 345.852993 217.810391 
L 345.852993 217.810391 
L 345.852993 217.810391 
L 345.852993 217.810391 
L 345.852993 217.810391 
L 345.852993 217.810391 
L 345.852993 217.810391 
L 345.852993 217.810391 
L 345.852993 217.810391 
L 345.852993 217.810391 
L 345.852993 217.810391 
L 345.852993 217.810391 
L 345.852993 217.810391 
L 345.852993 217.810391 
L 345.852993 217.810391 
L 345.852993 217.810391 
L 345.852993 217.810391 
L 345.852993 217.810391 
L 345.852993 217.810391 
L 345.852993 217.810391 
L 345.852993 217.810391 
L 345.852993 217.810391 
L 345.852993 217.810391 
L 345.852993 217.810391 
L 345.852993 217.810391 
L 345.852993 217.810391 
L 345.852993 217.810391 
L 345.852993 217.810391 
L 345.852993 217.810391 
" clip-path="url(#p3e95db174d)" style="fill: none; stroke: #000000; stroke-linecap: square"/>
   </g>
   <g id="line2d_10">
    <path d="M 345.852993 217.810391 
L 345.006416 219.193171 
L 344.15984 220.575952 
L 343.313263 221.958732 
L 342.466687 223.341513 
L 341.62011 224.724294 
L 340.773533 226.107074 
L 339.926957 227.489855 
L 339.08038 228.872635 
L 338.233803 230.255416 
L 337.387227 231.638196 
L 336.54065 233.020977 
L 335.694074 234.403757 
L 334.847497 235.786538 
L 334.00092 237.169319 
L 333.154344 238.552099 
L 332.307767 239.93488 
L 331.46119 241.31766 
L 330.614614 242.700441 
L 329.768037 244.083221 
L 328.921461 245.466002 
L 328.074884 246.848782 
L 327.228307 248.231563 
L 326.381731 249.614344 
L 325.535154 250.997124 
L 324.688577 252.379905 
L 323.842001 253.762685 
L 322.995424 255.145466 
L 322.148848 256.528246 
L 321.302271 257.911027 
L 320.455694 259.293807 
L 319.609118 260.676588 
L 318.762541 262.059369 
L 317.915965 263.442149 
L 317.069388 264.82493 
L 316.222811 266.20771 
L 315.376235 267.590491 
L 314.529658 268.973271 
L 313.683081 270.356052 
L 312.836505 271.738832 
L 311.989928 273.121613 
L 311.143352 274.504393 
L 310.296775 275.887174 
L 309.450198 277.269955 
L 308.603622 278.652735 
L 307.757045 280.035516 
L 306.910468 281.418296 
L 306.063892 282.801077 
L 305.217315 284.183857 
L 304.370739 285.566638 
L 303.524162 286.949418 
L 302.677585 288.332199 
L 301.831009 289.71498 
L 300.984432 291.09776 
L 300.137855 292.480541 
L 299.291279 293.863321 
L 298.444702 295.246102 
L 297.598126 296.628882 
L 296.751549 298.011663 
L 295.904972 299.394443 
L 295.058396 300.777224 
L 294.211819 302.160005 
L 293.365243 303.542785 
L 292.518666 304.925566 
L 291.672089 306.308346 
L 290.825513 307.691127 
L 289.978936 309.073907 
L 289.132359 310.456688 
L 288.285783 311.839468 
L 287.439206 313.222249 
L 286.59263 314.60503 
L 285.746053 315.98781 
L 284.899476 317.370591 
L 284.0529 318.753371 
L 283.206323 320.136152 
L 282.359746 321.518932 
L 281.51317 322.901713 
L 280.666593 324.284493 
L 279.820017 325.667274 
L 278.97344 327.050055 
L 278.126863 328.432835 
L 277.280287 329.815616 
L 276.43371 331.198396 
L 275.587133 332.581177 
L 274.740557 333.963957 
L 273.89398 335.346738 
L 273.047404 336.729518 
L 272.200827 338.112299 
L 271.35425 339.49508 
L 270.507674 340.87786 
L 269.661097 342.260641 
L 268.814521 343.643421 
L 267.967944 345.026202 
L 267.121367 346.408982 
L 266.274791 347.791763 
L 265.428214 349.174543 
L 264.581637 350.557324 
L 263.735061 351.940104 
L 262.888484 353.322885 
L 262.041908 354.705666 
" clip-path="url(#p3e95db174d)" style="fill: none; stroke: #000000; stroke-linecap: square"/>
   </g>
   <g id="line2d_11">
    <path d="M 262.041908 354.705666 
L 262.358469 356.0255 
L 262.675031 357.345334 
L 262.991592 358.665169 
L 263.308154 359.985003 
L 263.624715 361.304838 
L 263.941277 362.624672 
L 264.257838 363.944507 
L 264.5744 365.264341 
L 264.890962 366.584175 
L 265.207523 367.90401 
L 265.524085 369.223844 
L 265.840646 370.543679 
L 266.157208 371.863513 
L 266.473769 373.183347 
L 266.790331 374.503182 
L 267.106892 375.823016 
L 267.423454 377.142851 
L 267.740016 378.462685 
L 268.056577 379.782519 
L 268.373139 381.102354 
L 268.6897 382.422188 
L 269.006262 383.742023 
L 269.322823 385.061857 
L 269.639385 386.381692 
L 269.955947 387.701526 
L 270.272508 389.02136 
L 270.58907 390.341195 
L 270.905631 391.661029 
L 271.222193 392.980864 
L 271.538754 394.300698 
L 271.855316 395.620532 
L 272.171877 396.940367 
L 272.488439 398.260201 
L 272.805001 399.580036 
L 273.121562 400.89987 
L 273.438124 402.219705 
L 273.754685 403.539539 
L 274.071247 404.859373 
L 274.387808 406.179208 
L 274.70437 407.499042 
L 275.020931 408.818877 
L 275.337493 410.138711 
L 275.654055 411.458545 
L 275.970616 412.77838 
L 276.287178 414.098214 
L 276.603739 415.418049 
L 276.920301 416.737883 
L 277.236862 418.057718 
L 277.553424 419.377552 
L 277.869986 420.697386 
L 278.186547 422.017221 
L 278.503109 423.337055 
L 278.81967 424.65689 
L 279.136232 425.976724 
L 279.452793 427.296558 
L 279.769355 428.616393 
L 280.085916 429.936227 
L 280.402478 431.256062 
L 280.71904 432.575896 
L 281.035601 433.895731 
L 281.352163 435.215565 
L 281.668724 436.535399 
L 281.985286 437.855234 
L 282.301847 439.175068 
L 282.618409 440.494903 
L 282.934971 441.814737 
L 283.251532 443.134571 
L 283.568094 444.454406 
L 283.884655 445.77424 
L 284.201217 447.094075 
L 284.517778 448.413909 
L 284.83434 449.733744 
L 285.150901 451.053578 
L 285.467463 452.373412 
L 285.784025 453.693247 
L 286.100586 455.013081 
L 286.417148 456.332916 
L 286.733709 457.65275 
L 287.050271 458.972584 
L 287.366832 460.292419 
L 287.683394 461.612253 
L 287.999955 462.932088 
L 288.316517 464.251922 
L 288.633079 465.571757 
L 288.94964 466.891591 
L 289.266202 468.211425 
L 289.582763 469.53126 
L 289.899325 470.851094 
L 290.215886 472.170929 
L 290.532448 473.490763 
L 290.84901 474.810597 
L 291.165571 476.130432 
L 291.482133 477.450266 
L 291.798694 478.770101 
L 292.115256 480.089935 
L 292.431817 481.40977 
L 292.748379 482.729604 
L 293.06494 484.049438 
L 293.381502 485.369273 
" clip-path="url(#p3e95db174d)" style="fill: none; stroke: #000000; stroke-linecap: square"/>
   </g>
   <g id="line2d_12">
    <path d="M 293.381502 485.369273 
L 293.985617 484.190506 
L 294.589732 483.01174 
L 295.193848 481.832973 
L 295.797963 480.654207 
L 296.402078 479.47544 
L 297.006193 478.296674 
L 297.610308 477.117908 
L 298.214423 475.939141 
L 298.818539 474.760375 
L 299.422654 473.581608 
L 300.026769 472.402842 
L 300.630884 471.224075 
L 301.234999 470.045309 
L 301.839114 468.866542 
L 302.44323 467.687776 
L 303.047345 466.509009 
L 303.65146 465.330243 
L 304.255575 464.151477 
L 304.85969 462.97271 
L 305.463805 461.793944 
L 306.067921 460.615177 
L 306.672036 459.436411 
L 307.276151 458.257644 
L 307.880266 457.078878 
L 308.484381 455.900111 
L 309.088497 454.721345 
L 309.692612 453.542578 
L 310.296727 452.363812 
L 310.900842 451.185045 
L 311.504957 450.006279 
L 312.109072 448.827513 
L 312.713188 447.648746 
L 313.317303 446.46998 
L 313.921418 445.291213 
L 314.525533 444.112447 
L 315.129648 442.93368 
L 315.733763 441.754914 
L 316.337879 440.576147 
L 316.941994 439.397381 
L 317.546109 438.218614 
L 318.150224 437.039848 
L 318.754339 435.861081 
L 319.358454 434.682315 
L 319.96257 433.503549 
L 320.566685 432.324782 
L 321.1708 431.146016 
L 321.774915 429.967249 
L 322.37903 428.788483 
L 322.983146 427.609716 
L 323.587261 426.43095 
L 324.191376 425.252183 
L 324.795491 424.073417 
L 325.399606 422.89465 
L 326.003721 421.715884 
L 326.607837 420.537117 
L 327.211952 419.358351 
L 327.816067 418.179585 
L 328.420182 417.000818 
L 329.024297 415.822052 
L 329.628412 414.643285 
L 330.232528 413.464519 
L 330.836643 412.285752 
L 331.440758 411.106986 
L 332.044873 409.928219 
L 332.648988 408.749453 
L 333.253103 407.570686 
L 333.857219 406.39192 
L 334.461334 405.213153 
L 335.065449 404.034387 
L 335.669564 402.855621 
L 336.273679 401.676854 
L 336.877795 400.498088 
L 337.48191 399.319321 
L 338.086025 398.140555 
L 338.69014 396.961788 
L 339.294255 395.783022 
L 339.89837 394.604255 
L 340.502486 393.425489 
L 341.106601 392.246722 
L 341.710716 391.067956 
L 342.314831 389.889189 
L 342.918946 388.710423 
L 343.523061 387.531657 
L 344.127177 386.35289 
L 344.731292 385.174124 
L 345.335407 383.995357 
L 345.939522 382.816591 
L 346.543637 381.637824 
L 347.147752 380.459058 
L 347.751868 379.280291 
L 348.355983 378.101525 
L 348.960098 376.922758 
L 349.564213 375.743992 
L 350.168328 374.565225 
L 350.772444 373.386459 
L 351.376559 372.207693 
L 351.980674 371.028926 
L 352.584789 369.85016 
L 353.188904 368.671393 
" clip-path="url(#p3e95db174d)" style="fill: none; stroke: #000000; stroke-linecap: square"/>
   </g>
   <g id="line2d_13">
    <path d="M 353.188904 368.671393 
L 353.114804 367.147545 
L 353.040704 365.623696 
L 352.966604 364.099848 
L 352.892504 362.575999 
L 352.818404 361.052151 
L 352.744304 359.528302 
L 352.670203 358.004454 
L 352.596103 356.480605 
L 352.522003 354.956757 
L 352.447903 353.432908 
L 352.373803 351.90906 
L 352.299703 350.385211 
L 352.225603 348.861363 
L 352.151503 347.337514 
L 352.077403 345.813666 
L 352.003302 344.289817 
L 351.929202 342.765969 
L 351.855102 341.24212 
L 351.781002 339.718272 
L 351.706902 338.194423 
L 351.632802 336.670574 
L 351.558702 335.146726 
L 351.484602 333.622877 
L 351.410502 332.099029 
L 351.336401 330.57518 
L 351.262301 329.051332 
L 351.188201 327.527483 
L 351.114101 326.003635 
L 351.040001 324.479786 
L 350.965901 322.955938 
L 350.891801 321.432089 
L 350.817701 319.908241 
L 350.7436 318.384392 
L 350.6695 316.860544 
L 350.5954 315.336695 
L 350.5213 313.812847 
L 350.4472 312.288998 
L 350.3731 310.76515 
L 350.299 309.241301 
L 350.2249 307.717453 
L 350.1508 306.193604 
L 350.076699 304.669756 
L 350.002599 303.145907 
L 349.928499 301.622059 
L 349.854399 300.09821 
L 349.780299 298.574362 
L 349.706199 297.050513 
L 349.632099 295.526665 
L 349.557999 294.002816 
L 349.483899 292.478968 
L 349.409798 290.955119 
L 349.335698 289.431271 
L 349.261598 287.907422 
L 349.187498 286.383574 
L 349.113398 284.859725 
L 349.039298 283.335877 
L 348.965198 281.812028 
L 348.891098 280.28818 
L 348.816998 278.764331 
L 348.742897 277.240483 
L 348.668797 275.716634 
L 348.594697 274.192786 
L 348.520597 272.668937 
L 348.446497 271.145089 
L 348.372397 269.62124 
L 348.298297 268.097392 
L 348.224197 266.573543 
L 348.150097 265.049695 
L 348.075996 263.525846 
L 348.001896 262.001998 
L 347.927796 260.478149 
L 347.853696 258.954301 
L 347.779596 257.430452 
L 347.705496 255.906604 
L 347.631396 254.382755 
L 347.557296 252.858907 
L 347.483196 251.335058 
L 347.409095 249.811209 
L 347.334995 248.287361 
L 347.260895 246.763512 
L 347.186795 245.239664 
L 347.112695 243.715815 
L 347.038595 242.191967 
L 346.964495 240.668118 
L 346.890395 239.14427 
L 346.816294 237.620421 
L 346.742194 236.096573 
L 346.668094 234.572724 
L 346.593994 233.048876 
L 346.519894 231.525027 
L 346.445794 230.001179 
L 346.371694 228.47733 
L 346.297594 226.953482 
L 346.223494 225.429633 
L 346.149393 223.905785 
L 346.075293 222.381936 
L 346.001193 220.858088 
L 345.927093 219.334239 
L 345.852993 217.810391 
" clip-path="url(#p3e95db174d)" style="fill: none; stroke: #000000; stroke-linecap: square"/>
   </g>
   <g id="line2d_14">
    <path d="M 345.852993 217.810391 
L 345.852993 217.810391 
L 345.852993 217.810391 
L 345.852993 217.810391 
L 345.852993 217.810391 
L 345.852993 217.810391 
L 345.852993 217.810391 
L 345.852993 217.810391 
L 345.852993 217.810391 
L 345.852993 217.810391 
L 345.852993 217.810391 
L 345.852993 217.810391 
L 345.852993 217.810391 
L 345.852993 217.810391 
L 345.852993 217.810391 
L 345.852993 217.810391 
L 345.852993 217.810391 
L 345.852993 217.810391 
L 345.852993 217.810391 
L 345.852993 217.810391 
L 345.852993 217.810391 
L 345.852993 217.810391 
L 345.852993 217.810391 
L 345.852993 217.810391 
L 345.852993 217.810391 
L 345.852993 217.810391 
L 345.852993 217.810391 
L 345.852993 217.810391 
L 345.852993 217.810391 
L 345.852993 217.810391 
L 345.852993 217.810391 
L 345.852993 217.810391 
L 345.852993 217.810391 
L 345.852993 217.810391 
L 345.852993 217.810391 
L 345.852993 217.810391 
L 345.852993 217.810391 
L 345.852993 217.810391 
L 345.852993 217.810391 
L 345.852993 217.810391 
L 345.852993 217.810391 
L 345.852993 217.810391 
L 345.852993 217.810391 
L 345.852993 217.810391 
L 345.852993 217.810391 
L 345.852993 217.810391 
L 345.852993 217.810391 
L 345.852993 217.810391 
L 345.852993 217.810391 
L 345.852993 217.810391 
L 345.852993 217.810391 
L 345.852993 217.810391 
L 345.852993 217.810391 
L 345.852993 217.810391 
L 345.852993 217.810391 
L 345.852993 217.810391 
L 345.852993 217.810391 
L 345.852993 217.810391 
L 345.852993 217.810391 
L 345.852993 217.810391 
L 345.852993 217.810391 
L 345.852993 217.810391 
L 345.852993 217.810391 
L 345.852993 217.810391 
L 345.852993 217.810391 
L 345.852993 217.810391 
L 345.852993 217.810391 
L 345.852993 217.810391 
L 345.852993 217.810391 
L 345.852993 217.810391 
L 345.852993 217.810391 
L 345.852993 217.810391 
L 345.852993 217.810391 
L 345.852993 217.810391 
L 345.852993 217.810391 
L 345.852993 217.810391 
L 345.852993 217.810391 
L 345.852993 217.810391 
L 345.852993 217.810391 
L 345.852993 217.810391 
L 345.852993 217.810391 
L 345.852993 217.810391 
L 345.852993 217.810391 
L 345.852993 217.810391 
L 345.852993 217.810391 
L 345.852993 217.810391 
L 345.852993 217.810391 
L 345.852993 217.810391 
L 345.852993 217.810391 
L 345.852993 217.810391 
L 345.852993 217.810391 
L 345.852993 217.810391 
L 345.852993 217.810391 
L 345.852993 217.810391 
L 345.852993 217.810391 
L 345.852993 217.810391 
L 345.852993 217.810391 
L 345.852993 217.810391 
L 345.852993 217.810391 
L 345.852993 217.810391 
" clip-path="url(#p3e95db174d)" style="fill: none; stroke: #000000; stroke-linecap: square"/>
   </g>
   <g id="line2d_15">
    <path d="M 67.2768 544.7808 
L 360.576 467.8848 
L 287.7696 569.664 
L 178.5024 575.8848 
L 67.2768 544.7808 
" clip-path="url(#p3e95db174d)" style="fill: none; stroke: #29ad6c; stroke-linecap: square"/>
   </g>
   <g id="line2d_16">
    <path d="M 67.271129 544.835742 
L 67.271129 544.835742 
L 67.271129 544.835742 
L 67.271129 544.835742 
L 67.271129 544.835742 
L 67.271129 544.835742 
L 67.271129 544.835742 
L 67.271129 544.835742 
L 67.271129 544.835742 
L 67.271129 544.835742 
L 67.271129 544.835742 
L 67.271129 544.835742 
L 67.271129 544.835742 
L 67.271129 544.835742 
L 67.271129 544.835742 
L 67.271129 544.835742 
L 67.271129 544.835742 
L 67.271129 544.835742 
L 67.271129 544.835742 
L 67.271129 544.835742 
L 67.271129 544.835742 
L 67.271129 544.835742 
L 67.271129 544.835742 
L 67.271129 544.835742 
L 67.271129 544.835742 
L 67.271129 544.835742 
L 67.271129 544.835742 
L 67.271129 544.835742 
L 67.271129 544.835742 
L 67.271129 544.835742 
L 67.271129 544.835742 
L 67.271129 544.835742 
L 67.271129 544.835742 
L 67.271129 544.835742 
L 67.271129 544.835742 
L 67.271129 544.835742 
L 67.271129 544.835742 
L 67.271129 544.835742 
L 67.271129 544.835742 
L 67.271129 544.835742 
L 67.271129 544.835742 
L 67.271129 544.835742 
L 67.271129 544.835742 
L 67.271129 544.835742 
L 67.271129 544.835742 
L 67.271129 544.835742 
L 67.271129 544.835742 
L 67.271129 544.835742 
L 67.271129 544.835742 
L 67.271129 544.835742 
L 67.271129 544.835742 
L 67.271129 544.835742 
L 67.271129 544.835742 
L 67.271129 544.835742 
L 67.271129 544.835742 
L 67.271129 544.835742 
L 67.271129 544.835742 
L 67.271129 544.835742 
L 67.271129 544.835742 
L 67.271129 544.835742 
L 67.271129 544.835742 
L 67.271129 544.835742 
L 67.271129 544.835742 
L 67.271129 544.835742 
L 67.271129 544.835742 
L 67.271129 544.835742 
L 67.271129 544.835742 
L 67.271129 544.835742 
L 67.271129 544.835742 
L 67.271129 544.835742 
L 67.271129 544.835742 
L 67.271129 544.835742 
L 67.271129 544.835742 
L 67.271129 544.835742 
L 67.271129 544.835742 
L 67.271129 544.835742 
L 67.271129 544.835742 
L 67.271129 544.835742 
L 67.271129 544.835742 
L 67.271129 544.835742 
L 67.271129 544.835742 
L 67.271129 544.835742 
L 67.271129 544.835742 
L 67.271129 544.835742 
L 67.271129 544.835742 
L 67.271129 544.835742 
L 67.271129 544.835742 
L 67.271129 544.835742 
L 67.271129 544.835742 
L 67.271129 544.835742 
L 67.271129 544.835742 
L 67.271129 544.835742 
L 67.271129 544.835742 
L 67.271129 544.835742 
L 67.271129 544.835742 
L 67.271129 544.835742 
L 67.271129 544.835742 
L 67.271129 544.835742 
L 67.271129 544.835742 
L 67.271129 544.835742 
" clip-path="url(#p3e95db174d)" style="fill: none; stroke: #000000; stroke-linecap: square"/>
   </g>
   <g id="line2d_17">
    <path d="M 67.271129 544.835742 
L 68.394314 545.150106 
L 69.5175 545.464471 
L 70.640685 545.778835 
L 71.763871 546.0932 
L 72.887056 546.407564 
L 74.010241 546.721928 
L 75.133427 547.036293 
L 76.256612 547.350657 
L 77.379798 547.665022 
L 78.502983 547.979386 
L 79.626168 548.293751 
L 80.749354 548.608115 
L 81.872539 548.922479 
L 82.995724 549.236844 
L 84.11891 549.551208 
L 85.242095 549.865573 
L 86.365281 550.179937 
L 87.488466 550.494302 
L 88.611651 550.808666 
L 89.734837 551.12303 
L 90.858022 551.437395 
L 91.981207 551.751759 
L 93.104393 552.066124 
L 94.227578 552.380488 
L 95.350764 552.694852 
L 96.473949 553.009217 
L 97.597134 553.323581 
L 98.72032 553.637946 
L 99.843505 553.95231 
L 100.96669 554.266675 
L 102.089876 554.581039 
L 103.213061 554.895403 
L 104.336247 555.209768 
L 105.459432 555.524132 
L 106.582617 555.838497 
L 107.705803 556.152861 
L 108.828988 556.467226 
L 109.952173 556.78159 
L 111.075359 557.095954 
L 112.198544 557.410319 
L 113.32173 557.724683 
L 114.444915 558.039048 
L 115.5681 558.353412 
L 116.691286 558.667776 
L 117.814471 558.982141 
L 118.937657 559.296505 
L 120.060842 559.61087 
L 121.184027 559.925234 
L 122.307213 560.239599 
L 123.430398 560.553963 
L 124.553583 560.868327 
L 125.676769 561.182692 
L 126.799954 561.497056 
L 127.92314 561.811421 
L 129.046325 562.125785 
L 130.16951 562.440149 
L 131.292696 562.754514 
L 132.415881 563.068878 
L 133.539066 563.383243 
L 134.662252 563.697607 
L 135.785437 564.011972 
L 136.908623 564.326336 
L 138.031808 564.6407 
L 139.154993 564.955065 
L 140.278179 565.269429 
L 141.401364 565.583794 
L 142.524549 565.898158 
L 143.647735 566.212523 
L 144.77092 566.526887 
L 145.894106 566.841251 
L 147.017291 567.155616 
L 148.140476 567.46998 
L 149.263662 567.784345 
L 150.386847 568.098709 
L 151.510032 568.413073 
L 152.633218 568.727438 
L 153.756403 569.041802 
L 154.879589 569.356167 
L 156.002774 569.670531 
L 157.125959 569.984896 
L 158.249145 570.29926 
L 159.37233 570.613624 
L 160.495516 570.927989 
L 161.618701 571.242353 
L 162.741886 571.556718 
L 163.865072 571.871082 
L 164.988257 572.185447 
L 166.111442 572.499811 
L 167.234628 572.814175 
L 168.357813 573.12854 
L 169.480999 573.442904 
L 170.604184 573.757269 
L 171.727369 574.071633 
L 172.850555 574.385997 
L 173.97374 574.700362 
L 175.096925 575.014726 
L 176.220111 575.329091 
L 177.343296 575.643455 
L 178.466482 575.95782 
" clip-path="url(#p3e95db174d)" style="fill: none; stroke: #000000; stroke-linecap: square"/>
   </g>
   <g id="line2d_18">
    <path d="M 178.466482 575.95782 
L 179.570064 575.894917 
L 180.673647 575.832014 
L 181.77723 575.769111 
L 182.880812 575.706208 
L 183.984395 575.643305 
L 185.087978 575.580403 
L 186.19156 575.5175 
L 187.295143 575.454597 
L 188.398726 575.391694 
L 189.502309 575.328791 
L 190.605891 575.265888 
L 191.709474 575.202986 
L 192.813057 575.140083 
L 193.916639 575.07718 
L 195.020222 575.014277 
L 196.123805 574.951374 
L 197.227388 574.888471 
L 198.33097 574.825569 
L 199.434553 574.762666 
L 200.538136 574.699763 
L 201.641718 574.63686 
L 202.745301 574.573957 
L 203.848884 574.511054 
L 204.952466 574.448152 
L 206.056049 574.385249 
L 207.159632 574.322346 
L 208.263215 574.259443 
L 209.366797 574.19654 
L 210.47038 574.133637 
L 211.573963 574.070735 
L 212.677545 574.007832 
L 213.781128 573.944929 
L 214.884711 573.882026 
L 215.988293 573.819123 
L 217.091876 573.756221 
L 218.195459 573.693318 
L 219.299042 573.630415 
L 220.402624 573.567512 
L 221.506207 573.504609 
L 222.60979 573.441706 
L 223.713372 573.378804 
L 224.816955 573.315901 
L 225.920538 573.252998 
L 227.024121 573.190095 
L 228.127703 573.127192 
L 229.231286 573.064289 
L 230.334869 573.001387 
L 231.438451 572.938484 
L 232.542034 572.875581 
L 233.645617 572.812678 
L 234.749199 572.749775 
L 235.852782 572.686872 
L 236.956365 572.62397 
L 238.059948 572.561067 
L 239.16353 572.498164 
L 240.267113 572.435261 
L 241.370696 572.372358 
L 242.474278 572.309455 
L 243.577861 572.246553 
L 244.681444 572.18365 
L 245.785026 572.120747 
L 246.888609 572.057844 
L 247.992192 571.994941 
L 249.095775 571.932038 
L 250.199357 571.869136 
L 251.30294 571.806233 
L 252.406523 571.74333 
L 253.510105 571.680427 
L 254.613688 571.617524 
L 255.717271 571.554621 
L 256.820854 571.491719 
L 257.924436 571.428816 
L 259.028019 571.365913 
L 260.131602 571.30301 
L 261.235184 571.240107 
L 262.338767 571.177204 
L 263.44235 571.114302 
L 264.545932 571.051399 
L 265.649515 570.988496 
L 266.753098 570.925593 
L 267.856681 570.86269 
L 268.960263 570.799788 
L 270.063846 570.736885 
L 271.167429 570.673982 
L 272.271011 570.611079 
L 273.374594 570.548176 
L 274.478177 570.485273 
L 275.581759 570.422371 
L 276.685342 570.359468 
L 277.788925 570.296565 
L 278.892508 570.233662 
L 279.99609 570.170759 
L 281.099673 570.107856 
L 282.203256 570.044954 
L 283.306838 569.982051 
L 284.410421 569.919148 
L 285.514004 569.856245 
L 286.617586 569.793342 
L 287.721169 569.730439 
" clip-path="url(#p3e95db174d)" style="fill: none; stroke: #000000; stroke-linecap: square"/>
   </g>
   <g id="line2d_19">
    <path d="M 287.721169 569.730439 
L 288.457031 568.702604 
L 289.192893 567.674769 
L 289.928755 566.646934 
L 290.664617 565.619099 
L 291.400479 564.591264 
L 292.136341 563.563429 
L 292.872203 562.535594 
L 293.608065 561.507759 
L 294.343927 560.479924 
L 295.079789 559.452089 
L 295.815651 558.424254 
L 296.551513 557.396419 
L 297.287375 556.368584 
L 298.023237 555.340748 
L 298.759099 554.312913 
L 299.494961 553.285078 
L 300.230823 552.257243 
L 300.966685 551.229408 
L 301.702547 550.201573 
L 302.438409 549.173738 
L 303.174271 548.145903 
L 303.910133 547.118068 
L 304.645995 546.090233 
L 305.381857 545.062398 
L 306.117718 544.034563 
L 306.85358 543.006728 
L 307.589442 541.978893 
L 308.325304 540.951058 
L 309.061166 539.923222 
L 309.797028 538.895387 
L 310.53289 537.867552 
L 311.268752 536.839717 
L 312.004614 535.811882 
L 312.740476 534.784047 
L 313.476338 533.756212 
L 314.2122 532.728377 
L 314.948062 531.700542 
L 315.683924 530.672707 
L 316.419786 529.644872 
L 317.155648 528.617037 
L 317.89151 527.589202 
L 318.627372 526.561367 
L 319.363234 525.533531 
L 320.099096 524.505696 
L 320.834958 523.477861 
L 321.57082 522.450026 
L 322.306682 521.422191 
L 323.042544 520.394356 
L 323.778406 519.366521 
L 324.514268 518.338686 
L 325.25013 517.310851 
L 325.985992 516.283016 
L 326.721854 515.255181 
L 327.457716 514.227346 
L 328.193578 513.199511 
L 328.92944 512.171676 
L 329.665302 511.143841 
L 330.401164 510.116005 
L 331.137025 509.08817 
L 331.872887 508.060335 
L 332.608749 507.0325 
L 333.344611 506.004665 
L 334.080473 504.97683 
L 334.816335 503.948995 
L 335.552197 502.92116 
L 336.288059 501.893325 
L 337.023921 500.86549 
L 337.759783 499.837655 
L 338.495645 498.80982 
L 339.231507 497.781985 
L 339.967369 496.75415 
L 340.703231 495.726315 
L 341.439093 494.698479 
L 342.174955 493.670644 
L 342.910817 492.642809 
L 343.646679 491.614974 
L 344.382541 490.587139 
L 345.118403 489.559304 
L 345.854265 488.531469 
L 346.590127 487.503634 
L 347.325989 486.475799 
L 348.061851 485.447964 
L 348.797713 484.420129 
L 349.533575 483.392294 
L 350.269437 482.364459 
L 351.005299 481.336624 
L 351.741161 480.308789 
L 352.477023 479.280953 
L 353.212885 478.253118 
L 353.948747 477.225283 
L 354.684609 476.197448 
L 355.420471 475.169613 
L 356.156332 474.141778 
L 356.892194 473.113943 
L 357.628056 472.086108 
L 358.363918 471.058273 
L 359.09978 470.030438 
L 359.835642 469.002603 
L 360.571504 467.974768 
" clip-path="url(#p3e95db174d)" style="fill: none; stroke: #000000; stroke-linecap: square"/>
   </g>
   <g id="line2d_20">
    <path d="M 360.571504 467.974768 
L 357.608874 468.751141 
L 354.646244 469.527515 
L 351.683614 470.303888 
L 348.720984 471.080262 
L 345.758354 471.856635 
L 342.795724 472.633009 
L 339.833094 473.409382 
L 336.870464 474.185756 
L 333.907834 474.962129 
L 330.945204 475.738502 
L 327.982574 476.514876 
L 325.019944 477.291249 
L 322.057314 478.067623 
L 319.094684 478.843996 
L 316.132054 479.62037 
L 313.169423 480.396743 
L 310.206793 481.173117 
L 307.244163 481.94949 
L 304.281533 482.725864 
L 301.318903 483.502237 
L 298.356273 484.278611 
L 295.393643 485.054984 
L 292.431013 485.831358 
L 289.468383 486.607731 
L 286.505753 487.384105 
L 283.543123 488.160478 
L 280.580493 488.936852 
L 277.617863 489.713225 
L 274.655233 490.489599 
L 271.692603 491.265972 
L 268.729973 492.042345 
L 265.767343 492.818719 
L 262.804713 493.595092 
L 259.842083 494.371466 
L 256.879452 495.147839 
L 253.916822 495.924213 
L 250.954192 496.700586 
L 247.991562 497.47696 
L 245.028932 498.253333 
L 242.066302 499.029707 
L 239.103672 499.80608 
L 236.141042 500.582454 
L 233.178412 501.358827 
L 230.215782 502.135201 
L 227.253152 502.911574 
L 224.290522 503.687948 
L 221.327892 504.464321 
L 218.365262 505.240695 
L 215.402632 506.017068 
L 212.440002 506.793442 
L 209.477372 507.569815 
L 206.514742 508.346189 
L 203.552112 509.122562 
L 200.589481 509.898935 
L 197.626851 510.675309 
L 194.664221 511.451682 
L 191.701591 512.228056 
L 188.738961 513.004429 
L 185.776331 513.780803 
L 182.813701 514.557176 
L 179.851071 515.33355 
L 176.888441 516.109923 
L 173.925811 516.886297 
L 170.963181 517.66267 
L 168.000551 518.439044 
L 165.037921 519.215417 
L 162.075291 519.991791 
L 159.112661 520.768164 
L 156.150031 521.544538 
L 153.187401 522.320911 
L 150.224771 523.097285 
L 147.262141 523.873658 
L 144.29951 524.650032 
L 141.33688 525.426405 
L 138.37425 526.202779 
L 135.41162 526.979152 
L 132.44899 527.755525 
L 129.48636 528.531899 
L 126.52373 529.308272 
L 123.5611 530.084646 
L 120.59847 530.861019 
L 117.63584 531.637393 
L 114.67321 532.413766 
L 111.71058 533.19014 
L 108.74795 533.966513 
L 105.78532 534.742887 
L 102.82269 535.51926 
L 99.86006 536.295634 
L 96.89743 537.072007 
L 93.9348 537.848381 
L 90.97217 538.624754 
L 88.009539 539.401128 
L 85.046909 540.177501 
L 82.084279 540.953875 
L 79.121649 541.730248 
L 76.159019 542.506622 
L 73.196389 543.282995 
L 70.233759 544.059368 
L 67.271129 544.835742 
" clip-path="url(#p3e95db174d)" style="fill: none; stroke: #000000; stroke-linecap: square"/>
   </g>
   <g id="line2d_21">
    <path d="M 67.271129 544.835742 
L 67.271129 544.835742 
L 67.271129 544.835742 
L 67.271129 544.835742 
L 67.271129 544.835742 
L 67.271129 544.835742 
L 67.271129 544.835742 
L 67.271129 544.835742 
L 67.271129 544.835742 
L 67.271129 544.835742 
L 67.271129 544.835742 
L 67.271129 544.835742 
L 67.271129 544.835742 
L 67.271129 544.835742 
L 67.271129 544.835742 
L 67.271129 544.835742 
L 67.271129 544.835742 
L 67.271129 544.835742 
L 67.271129 544.835742 
L 67.271129 544.835742 
L 67.271129 544.835742 
L 67.271129 544.835742 
L 67.271129 544.835742 
L 67.271129 544.835742 
L 67.271129 544.835742 
L 67.271129 544.835742 
L 67.271129 544.835742 
L 67.271129 544.835742 
L 67.271129 544.835742 
L 67.271129 544.835742 
L 67.271129 544.835742 
L 67.271129 544.835742 
L 67.271129 544.835742 
L 67.271129 544.835742 
L 67.271129 544.835742 
L 67.271129 544.835742 
L 67.271129 544.835742 
L 67.271129 544.835742 
L 67.271129 544.835742 
L 67.271129 544.835742 
L 67.271129 544.835742 
L 67.271129 544.835742 
L 67.271129 544.835742 
L 67.271129 544.835742 
L 67.271129 544.835742 
L 67.271129 544.835742 
L 67.271129 544.835742 
L 67.271129 544.835742 
L 67.271129 544.835742 
L 67.271129 544.835742 
L 67.271129 544.835742 
L 67.271129 544.835742 
L 67.271129 544.835742 
L 67.271129 544.835742 
L 67.271129 544.835742 
L 67.271129 544.835742 
L 67.271129 544.835742 
L 67.271129 544.835742 
L 67.271129 544.835742 
L 67.271129 544.835742 
L 67.271129 544.835742 
L 67.271129 544.835742 
L 67.271129 544.835742 
L 67.271129 544.835742 
L 67.271129 544.835742 
L 67.271129 544.835742 
L 67.271129 544.835742 
L 67.271129 544.835742 
L 67.271129 544.835742 
L 67.271129 544.835742 
L 67.271129 544.835742 
L 67.271129 544.835742 
L 67.271129 544.835742 
L 67.271129 544.835742 
L 67.271129 544.835742 
L 67.271129 544.835742 
L 67.271129 544.835742 
L 67.271129 544.835742 
L 67.271129 544.835742 
L 67.271129 544.835742 
L 67.271129 544.835742 
L 67.271129 544.835742 
L 67.271129 544.835742 
L 67.271129 544.835742 
L 67.271129 544.835742 
L 67.271129 544.835742 
L 67.271129 544.835742 
L 67.271129 544.835742 
L 67.271129 544.835742 
L 67.271129 544.835742 
L 67.271129 544.835742 
L 67.271129 544.835742 
L 67.271129 544.835742 
L 67.271129 544.835742 
L 67.271129 544.835742 
L 67.271129 544.835742 
L 67.271129 544.835742 
L 67.271129 544.835742 
L 67.271129 544.835742 
L 67.271129 544.835742 
" clip-path="url(#p3e95db174d)" style="fill: none; stroke: #000000; stroke-linecap: square"/>
   </g>
   <g id="line2d_22">
    <path d="M 307.8144 276.8832 
L 0 455.9616 
L 32.6592 334.944 
L 107.0208 282.9888 
L 307.8144 276.8832 
" clip-path="url(#p3e95db174d)" style="fill: none; stroke: #1dce5a; stroke-linecap: square"/>
   </g>
   <g id="line2d_23">
    <path d="M 106.951035 282.926656 
L 106.951035 282.926656 
L 106.951035 282.926656 
L 106.951035 282.926656 
L 106.951035 282.926656 
L 106.951035 282.926656 
L 106.951035 282.926656 
L 106.951035 282.926656 
L 106.951035 282.926656 
L 106.951035 282.926656 
L 106.951035 282.926656 
L 106.951035 282.926656 
L 106.951035 282.926656 
L 106.951035 282.926656 
L 106.951035 282.926656 
L 106.951035 282.926656 
L 106.951035 282.926656 
L 106.951035 282.926656 
L 106.951035 282.926656 
L 106.951035 282.926656 
L 106.951035 282.926656 
L 106.951035 282.926656 
L 106.951035 282.926656 
L 106.951035 282.926656 
L 106.951035 282.926656 
L 106.951035 282.926656 
L 106.951035 282.926656 
L 106.951035 282.926656 
L 106.951035 282.926656 
L 106.951035 282.926656 
L 106.951035 282.926656 
L 106.951035 282.926656 
L 106.951035 282.926656 
L 106.951035 282.926656 
L 106.951035 282.926656 
L 106.951035 282.926656 
L 106.951035 282.926656 
L 106.951035 282.926656 
L 106.951035 282.926656 
L 106.951035 282.926656 
L 106.951035 282.926656 
L 106.951035 282.926656 
L 106.951035 282.926656 
L 106.951035 282.926656 
L 106.951035 282.926656 
L 106.951035 282.926656 
L 106.951035 282.926656 
L 106.951035 282.926656 
L 106.951035 282.926656 
L 106.951035 282.926656 
L 106.951035 282.926656 
L 106.951035 282.926656 
L 106.951035 282.926656 
L 106.951035 282.926656 
L 106.951035 282.926656 
L 106.951035 282.926656 
L 106.951035 282.926656 
L 106.951035 282.926656 
L 106.951035 282.926656 
L 106.951035 282.926656 
L 106.951035 282.926656 
L 106.951035 282.926656 
L 106.951035 282.926656 
L 106.951035 282.926656 
L 106.951035 282.926656 
L 106.951035 282.926656 
L 106.951035 282.926656 
L 106.951035 282.926656 
L 106.951035 282.926656 
L 106.951035 282.926656 
L 106.951035 282.926656 
L 106.951035 282.926656 
L 106.951035 282.926656 
L 106.951035 282.926656 
L 106.951035 282.926656 
L 106.951035 282.926656 
L 106.951035 282.926656 
L 106.951035 282.926656 
L 106.951035 282.926656 
L 106.951035 282.926656 
L 106.951035 282.926656 
L 106.951035 282.926656 
L 106.951035 282.926656 
L 106.951035 282.926656 
L 106.951035 282.926656 
L 106.951035 282.926656 
L 106.951035 282.926656 
L 106.951035 282.926656 
L 106.951035 282.926656 
L 106.951035 282.926656 
L 106.951035 282.926656 
L 106.951035 282.926656 
L 106.951035 282.926656 
L 106.951035 282.926656 
L 106.951035 282.926656 
L 106.951035 282.926656 
L 106.951035 282.926656 
L 106.951035 282.926656 
L 106.951035 282.926656 
L 106.951035 282.926656 
" clip-path="url(#p3e95db174d)" style="fill: none; stroke: #000000; stroke-linecap: square"/>
   </g>
   <g id="line2d_24">
    <path d="M 106.951035 282.926656 
L 106.199957 283.451256 
L 105.448878 283.975856 
L 104.6978 284.500456 
L 103.946722 285.025056 
L 103.195643 285.549656 
L 102.444565 286.074256 
L 101.693487 286.598856 
L 100.942408 287.123456 
L 100.19133 287.648056 
L 99.440252 288.172656 
L 98.689173 288.697256 
L 97.938095 289.221856 
L 97.187016 289.746456 
L 96.435938 290.271056 
L 95.68486 290.795656 
L 94.933781 291.320256 
L 94.182703 291.844856 
L 93.431625 292.369456 
L 92.680546 292.894056 
L 91.929468 293.418656 
L 91.17839 293.943256 
L 90.427311 294.467856 
L 89.676233 294.992456 
L 88.925155 295.517056 
L 88.174076 296.041656 
L 87.422998 296.566256 
L 86.671919 297.090856 
L 85.920841 297.615456 
L 85.169763 298.140056 
L 84.418684 298.664656 
L 83.667606 299.189256 
L 82.916528 299.713856 
L 82.165449 300.238456 
L 81.414371 300.763056 
L 80.663293 301.287656 
L 79.912214 301.812256 
L 79.161136 302.336856 
L 78.410058 302.861456 
L 77.658979 303.386056 
L 76.907901 303.910656 
L 76.156822 304.435256 
L 75.405744 304.959856 
L 74.654666 305.484456 
L 73.903587 306.009056 
L 73.152509 306.533656 
L 72.401431 307.058256 
L 71.650352 307.582856 
L 70.899274 308.107456 
L 70.148196 308.632056 
L 69.397117 309.156656 
L 68.646039 309.681256 
L 67.894961 310.205856 
L 67.143882 310.730456 
L 66.392804 311.255056 
L 65.641726 311.779656 
L 64.890647 312.304256 
L 64.139569 312.828856 
L 63.38849 313.353456 
L 62.637412 313.878056 
L 61.886334 314.402656 
L 61.135255 314.927256 
L 60.384177 315.451857 
L 59.633099 315.976457 
L 58.88202 316.501057 
L 58.130942 317.025657 
L 57.379864 317.550257 
L 56.628785 318.074857 
L 55.877707 318.599457 
L 55.126629 319.124057 
L 54.37555 319.648657 
L 53.624472 320.173257 
L 52.873393 320.697857 
L 52.122315 321.222457 
L 51.371237 321.747057 
L 50.620158 322.271657 
L 49.86908 322.796257 
L 49.118002 323.320857 
L 48.366923 323.845457 
L 47.615845 324.370057 
L 46.864767 324.894657 
L 46.113688 325.419257 
L 45.36261 325.943857 
L 44.611532 326.468457 
L 43.860453 326.993057 
L 43.109375 327.517657 
L 42.358296 328.042257 
L 41.607218 328.566857 
L 40.85614 329.091457 
L 40.105061 329.616057 
L 39.353983 330.140657 
L 38.602905 330.665257 
L 37.851826 331.189857 
L 37.100748 331.714457 
L 36.34967 332.239057 
L 35.598591 332.763657 
L 34.847513 333.288257 
L 34.096435 333.812857 
L 33.345356 334.337457 
L 32.594278 334.862057 
" clip-path="url(#p3e95db174d)" style="fill: none; stroke: #000000; stroke-linecap: square"/>
   </g>
   <g id="line2d_25">
    <path d="M 32.594278 334.862057 
L 32.264346 336.085023 
L 31.934415 337.307989 
L 31.604483 338.530956 
L 31.274551 339.753922 
L 30.94462 340.976888 
L 30.614688 342.199855 
L 30.284756 343.422821 
L 29.954825 344.645787 
L 29.624893 345.868753 
L 29.294961 347.09172 
L 28.96503 348.314686 
L 28.635098 349.537652 
L 28.305166 350.760618 
L 27.975235 351.983585 
L 27.645303 353.206551 
L 27.315371 354.429517 
L 26.98544 355.652484 
L 26.655508 356.87545 
L 26.325576 358.098416 
L 25.995645 359.321382 
L 25.665713 360.544349 
L 25.335781 361.767315 
L 25.00585 362.990281 
L 24.675918 364.213247 
L 24.345987 365.436214 
L 24.016055 366.65918 
L 23.686123 367.882146 
L 23.356192 369.105113 
L 23.02626 370.328079 
L 22.696328 371.551045 
L 22.366397 372.774011 
L 22.036465 373.996978 
L 21.706533 375.219944 
L 21.376602 376.44291 
L 21.04667 377.665877 
L 20.716738 378.888843 
L 20.386807 380.111809 
L 20.056875 381.334775 
L 19.726943 382.557742 
L 19.397012 383.780708 
L 19.06708 385.003674 
L 18.737148 386.22664 
L 18.407217 387.449607 
L 18.077285 388.672573 
L 17.747353 389.895539 
L 17.417422 391.118506 
L 17.08749 392.341472 
L 16.757559 393.564438 
L 16.427627 394.787404 
L 16.097695 396.010371 
L 15.767764 397.233337 
L 15.437832 398.456303 
L 15.1079 399.679269 
L 14.777969 400.902236 
L 14.448037 402.125202 
L 14.118105 403.348168 
L 13.788174 404.571135 
L 13.458242 405.794101 
L 13.12831 407.017067 
L 12.798379 408.240033 
L 12.468447 409.463 
L 12.138515 410.685966 
L 11.808584 411.908932 
L 11.478652 413.131898 
L 11.14872 414.354865 
L 10.818789 415.577831 
L 10.488857 416.800797 
L 10.158925 418.023764 
L 9.828994 419.24673 
L 9.499062 420.469696 
L 9.16913 421.692662 
L 8.839199 422.915629 
L 8.509267 424.138595 
L 8.179336 425.361561 
L 7.849404 426.584527 
L 7.519472 427.807494 
L 7.189541 429.03046 
L 6.859609 430.253426 
L 6.529677 431.476393 
L 6.199746 432.699359 
L 5.869814 433.922325 
L 5.539882 435.145291 
L 5.209951 436.368258 
L 4.880019 437.591224 
L 4.550087 438.81419 
L 4.220156 440.037156 
L 3.890224 441.260123 
L 3.560292 442.483089 
L 3.230361 443.706055 
L 2.900429 444.929022 
L 2.570497 446.151988 
L 2.240566 447.374954 
L 1.910634 448.59792 
L 1.580702 449.820887 
L 1.250771 451.043853 
L 0.920839 452.266819 
L 0.590908 453.489785 
L 0.260976 454.712752 
L -0.068956 455.935718 
" clip-path="url(#p3e95db174d)" style="fill: none; stroke: #000000; stroke-linecap: square"/>
   </g>
   <g id="line2d_26">
    <path d="M -0.068956 455.935718 
L 3.040258 454.126957 
L 6.149471 452.318196 
L 9.258685 450.509434 
L 12.367898 448.700673 
L 15.477112 446.891912 
L 18.586325 445.083151 
L 21.695539 443.274389 
L 24.804753 441.465628 
L 27.913966 439.656867 
L 31.02318 437.848106 
L 34.132393 436.039344 
L 37.241607 434.230583 
L 40.35082 432.421822 
L 43.460034 430.613061 
L 46.569247 428.804299 
L 49.678461 426.995538 
L 52.787674 425.186777 
L 55.896888 423.378016 
L 59.006101 421.569254 
L 62.115315 419.760493 
L 65.224529 417.951732 
L 68.333742 416.142971 
L 71.442956 414.334209 
L 74.552169 412.525448 
L 77.661383 410.716687 
L 80.770596 408.907926 
L 83.87981 407.099164 
L 86.989023 405.290403 
L 90.098237 403.481642 
L 93.20745 401.672881 
L 96.316664 399.864119 
L 99.425877 398.055358 
L 102.535091 396.246597 
L 105.644305 394.437836 
L 108.753518 392.629075 
L 111.862732 390.820313 
L 114.971945 389.011552 
L 118.081159 387.202791 
L 121.190372 385.39403 
L 124.299586 383.585268 
L 127.408799 381.776507 
L 130.518013 379.967746 
L 133.627226 378.158985 
L 136.73644 376.350223 
L 139.845653 374.541462 
L 142.954867 372.732701 
L 146.064081 370.92394 
L 149.173294 369.115178 
L 152.282508 367.306417 
L 155.391721 365.497656 
L 158.500935 363.688895 
L 161.610148 361.880133 
L 164.719362 360.071372 
L 167.828575 358.262611 
L 170.937789 356.45385 
L 174.047002 354.645088 
L 177.156216 352.836327 
L 180.265429 351.027566 
L 183.374643 349.218805 
L 186.483857 347.410043 
L 189.59307 345.601282 
L 192.702284 343.792521 
L 195.811497 341.98376 
L 198.920711 340.174998 
L 202.029924 338.366237 
L 205.139138 336.557476 
L 208.248351 334.748715 
L 211.357565 332.939954 
L 214.466778 331.131192 
L 217.575992 329.322431 
L 220.685205 327.51367 
L 223.794419 325.704909 
L 226.903633 323.896147 
L 230.012846 322.087386 
L 233.12206 320.278625 
L 236.231273 318.469864 
L 239.340487 316.661102 
L 242.4497 314.852341 
L 245.558914 313.04358 
L 248.668127 311.234819 
L 251.777341 309.426057 
L 254.886554 307.617296 
L 257.995768 305.808535 
L 261.104981 303.999774 
L 264.214195 302.191012 
L 267.323409 300.382251 
L 270.432622 298.57349 
L 273.541836 296.764729 
L 276.651049 294.955967 
L 279.760263 293.147206 
L 282.869476 291.338445 
L 285.97869 289.529684 
L 289.087903 287.720922 
L 292.197117 285.912161 
L 295.30633 284.1034 
L 298.415544 282.294639 
L 301.524758 280.485877 
L 304.633971 278.677116 
L 307.743185 276.868355 
" clip-path="url(#p3e95db174d)" style="fill: none; stroke: #000000; stroke-linecap: square"/>
   </g>
   <g id="line2d_27">
    <path d="M 307.743185 276.868355 
L 305.714981 276.92955 
L 303.686778 276.990745 
L 301.658574 277.05194 
L 299.63037 277.113135 
L 297.602167 277.17433 
L 295.573963 277.235525 
L 293.54576 277.29672 
L 291.517556 277.357915 
L 289.489353 277.41911 
L 287.461149 277.480305 
L 285.432946 277.5415 
L 283.404742 277.602694 
L 281.376539 277.663889 
L 279.348335 277.725084 
L 277.320132 277.786279 
L 275.291928 277.847474 
L 273.263725 277.908669 
L 271.235521 277.969864 
L 269.207318 278.031059 
L 267.179114 278.092254 
L 265.15091 278.153449 
L 263.122707 278.214644 
L 261.094503 278.275839 
L 259.0663 278.337034 
L 257.038096 278.398229 
L 255.009893 278.459424 
L 252.981689 278.520619 
L 250.953486 278.581814 
L 248.925282 278.643009 
L 246.897079 278.704204 
L 244.868875 278.765399 
L 242.840672 278.826594 
L 240.812468 278.887789 
L 238.784265 278.948984 
L 236.756061 279.010179 
L 234.727857 279.071373 
L 232.699654 279.132568 
L 230.67145 279.193763 
L 228.643247 279.254958 
L 226.615043 279.316153 
L 224.58684 279.377348 
L 222.558636 279.438543 
L 220.530433 279.499738 
L 218.502229 279.560933 
L 216.474026 279.622128 
L 214.445822 279.683323 
L 212.417619 279.744518 
L 210.389415 279.805713 
L 208.361212 279.866908 
L 206.333008 279.928103 
L 204.304805 279.989298 
L 202.276601 280.050493 
L 200.248397 280.111688 
L 198.220194 280.172883 
L 196.19199 280.234078 
L 194.163787 280.295273 
L 192.135583 280.356468 
L 190.10738 280.417663 
L 188.079176 280.478857 
L 186.050973 280.540052 
L 184.022769 280.601247 
L 181.994566 280.662442 
L 179.966362 280.723637 
L 177.938159 280.784832 
L 175.909955 280.846027 
L 173.881752 280.907222 
L 171.853548 280.968417 
L 169.825345 281.029612 
L 167.797141 281.090807 
L 165.768937 281.152002 
L 163.740734 281.213197 
L 161.71253 281.274392 
L 159.684327 281.335587 
L 157.656123 281.396782 
L 155.62792 281.457977 
L 153.599716 281.519172 
L 151.571513 281.580367 
L 149.543309 281.641562 
L 147.515106 281.702757 
L 145.486902 281.763952 
L 143.458699 281.825147 
L 141.430495 281.886342 
L 139.402292 281.947536 
L 137.374088 282.008731 
L 135.345885 282.069926 
L 133.317681 282.131121 
L 131.289477 282.192316 
L 129.261274 282.253511 
L 127.23307 282.314706 
L 125.204867 282.375901 
L 123.176663 282.437096 
L 121.14846 282.498291 
L 119.120256 282.559486 
L 117.092053 282.620681 
L 115.063849 282.681876 
L 113.035646 282.743071 
L 111.007442 282.804266 
L 108.979239 282.865461 
L 106.951035 282.926656 
" clip-path="url(#p3e95db174d)" style="fill: none; stroke: #000000; stroke-linecap: square"/>
   </g>
   <g id="line2d_28">
    <path d="M 106.951035 282.926656 
L 106.951035 282.926656 
L 106.951035 282.926656 
L 106.951035 282.926656 
L 106.951035 282.926656 
L 106.951035 282.926656 
L 106.951035 282.926656 
L 106.951035 282.926656 
L 106.951035 282.926656 
L 106.951035 282.926656 
L 106.951035 282.926656 
L 106.951035 282.926656 
L 106.951035 282.926656 
L 106.951035 282.926656 
L 106.951035 282.926656 
L 106.951035 282.926656 
L 106.951035 282.926656 
L 106.951035 282.926656 
L 106.951035 282.926656 
L 106.951035 282.926656 
L 106.951035 282.926656 
L 106.951035 282.926656 
L 106.951035 282.926656 
L 106.951035 282.926656 
L 106.951035 282.926656 
L 106.951035 282.926656 
L 106.951035 282.926656 
L 106.951035 282.926656 
L 106.951035 282.926656 
L 106.951035 282.926656 
L 106.951035 282.926656 
L 106.951035 282.926656 
L 106.951035 282.926656 
L 106.951035 282.926656 
L 106.951035 282.926656 
L 106.951035 282.926656 
L 106.951035 282.926656 
L 106.951035 282.926656 
L 106.951035 282.926656 
L 106.951035 282.926656 
L 106.951035 282.926656 
L 106.951035 282.926656 
L 106.951035 282.926656 
L 106.951035 282.926656 
L 106.951035 282.926656 
L 106.951035 282.926656 
L 106.951035 282.926656 
L 106.951035 282.926656 
L 106.951035 282.926656 
L 106.951035 282.926656 
L 106.951035 282.926656 
L 106.951035 282.926656 
L 106.951035 282.926656 
L 106.951035 282.926656 
L 106.951035 282.926656 
L 106.951035 282.926656 
L 106.951035 282.926656 
L 106.951035 282.926656 
L 106.951035 282.926656 
L 106.951035 282.926656 
L 106.951035 282.926656 
L 106.951035 282.926656 
L 106.951035 282.926656 
L 106.951035 282.926656 
L 106.951035 282.926656 
L 106.951035 282.926656 
L 106.951035 282.926656 
L 106.951035 282.926656 
L 106.951035 282.926656 
L 106.951035 282.926656 
L 106.951035 282.926656 
L 106.951035 282.926656 
L 106.951035 282.926656 
L 106.951035 282.926656 
L 106.951035 282.926656 
L 106.951035 282.926656 
L 106.951035 282.926656 
L 106.951035 282.926656 
L 106.951035 282.926656 
L 106.951035 282.926656 
L 106.951035 282.926656 
L 106.951035 282.926656 
L 106.951035 282.926656 
L 106.951035 282.926656 
L 106.951035 282.926656 
L 106.951035 282.926656 
L 106.951035 282.926656 
L 106.951035 282.926656 
L 106.951035 282.926656 
L 106.951035 282.926656 
L 106.951035 282.926656 
L 106.951035 282.926656 
L 106.951035 282.926656 
L 106.951035 282.926656 
L 106.951035 282.926656 
L 106.951035 282.926656 
L 106.951035 282.926656 
L 106.951035 282.926656 
L 106.951035 282.926656 
L 106.951035 282.926656 
" clip-path="url(#p3e95db174d)" style="fill: none; stroke: #000000; stroke-linecap: square"/>
   </g>
   <g id="line2d_29">
    <path d="M 383.616 499.968 
L 326.8224 420.48 
L 223.6032 421.4016 
L 375.8976 358.7328 
L 383.616 499.968 
" clip-path="url(#p3e95db174d)" style="fill: none; stroke: #473d9d; stroke-linecap: square"/>
   </g>
   <g id="line2d_30">
    <path d="M 383.665738 499.912474 
L 383.665738 499.912474 
L 383.665738 499.912474 
L 383.665738 499.912474 
L 383.665738 499.912474 
L 383.665738 499.912474 
L 383.665738 499.912474 
L 383.665738 499.912474 
L 383.665738 499.912474 
L 383.665738 499.912474 
L 383.665738 499.912474 
L 383.665738 499.912474 
L 383.665738 499.912474 
L 383.665738 499.912474 
L 383.665738 499.912474 
L 383.665738 499.912474 
L 383.665738 499.912474 
L 383.665738 499.912474 
L 383.665738 499.912474 
L 383.665738 499.912474 
L 383.665738 499.912474 
L 383.665738 499.912474 
L 383.665738 499.912474 
L 383.665738 499.912474 
L 383.665738 499.912474 
L 383.665738 499.912474 
L 383.665738 499.912474 
L 383.665738 499.912474 
L 383.665738 499.912474 
L 383.665738 499.912474 
L 383.665738 499.912474 
L 383.665738 499.912474 
L 383.665738 499.912474 
L 383.665738 499.912474 
L 383.665738 499.912474 
L 383.665738 499.912474 
L 383.665738 499.912474 
L 383.665738 499.912474 
L 383.665738 499.912474 
L 383.665738 499.912474 
L 383.665738 499.912474 
L 383.665738 499.912474 
L 383.665738 499.912474 
L 383.665738 499.912474 
L 383.665738 499.912474 
L 383.665738 499.912474 
L 383.665738 499.912474 
L 383.665738 499.912474 
L 383.665738 499.912474 
L 383.665738 499.912474 
L 383.665738 499.912474 
L 383.665738 499.912474 
L 383.665738 499.912474 
L 383.665738 499.912474 
L 383.665738 499.912474 
L 383.665738 499.912474 
L 383.665738 499.912474 
L 383.665738 499.912474 
L 383.665738 499.912474 
L 383.665738 499.912474 
L 383.665738 499.912474 
L 383.665738 499.912474 
L 383.665738 499.912474 
L 383.665738 499.912474 
L 383.665738 499.912474 
L 383.665738 499.912474 
L 383.665738 499.912474 
L 383.665738 499.912474 
L 383.665738 499.912474 
L 383.665738 499.912474 
L 383.665738 499.912474 
L 383.665738 499.912474 
L 383.665738 499.912474 
L 383.665738 499.912474 
L 383.665738 499.912474 
L 383.665738 499.912474 
L 383.665738 499.912474 
L 383.665738 499.912474 
L 383.665738 499.912474 
L 383.665738 499.912474 
L 383.665738 499.912474 
L 383.665738 499.912474 
L 383.665738 499.912474 
L 383.665738 499.912474 
L 383.665738 499.912474 
L 383.665738 499.912474 
L 383.665738 499.912474 
L 383.665738 499.912474 
L 383.665738 499.912474 
L 383.665738 499.912474 
L 383.665738 499.912474 
L 383.665738 499.912474 
L 383.665738 499.912474 
L 383.665738 499.912474 
L 383.665738 499.912474 
L 383.665738 499.912474 
L 383.665738 499.912474 
L 383.665738 499.912474 
L 383.665738 499.912474 
L 383.665738 499.912474 
" clip-path="url(#p3e95db174d)" style="fill: none; stroke: #000000; stroke-linecap: square"/>
   </g>
   <g id="line2d_31">
    <path d="M 383.665738 499.912474 
L 383.587865 498.485377 
L 383.509991 497.058281 
L 383.432117 495.631185 
L 383.354244 494.204088 
L 383.27637 492.776992 
L 383.198497 491.349895 
L 383.120623 489.922799 
L 383.042749 488.495703 
L 382.964876 487.068606 
L 382.887002 485.64151 
L 382.809129 484.214414 
L 382.731255 482.787317 
L 382.653382 481.360221 
L 382.575508 479.933125 
L 382.497634 478.506028 
L 382.419761 477.078932 
L 382.341887 475.651835 
L 382.264014 474.224739 
L 382.18614 472.797643 
L 382.108266 471.370546 
L 382.030393 469.94345 
L 381.952519 468.516354 
L 381.874646 467.089257 
L 381.796772 465.662161 
L 381.718899 464.235065 
L 381.641025 462.807968 
L 381.563151 461.380872 
L 381.485278 459.953775 
L 381.407404 458.526679 
L 381.329531 457.099583 
L 381.251657 455.672486 
L 381.173783 454.24539 
L 381.09591 452.818294 
L 381.018036 451.391197 
L 380.940163 449.964101 
L 380.862289 448.537005 
L 380.784416 447.109908 
L 380.706542 445.682812 
L 380.628668 444.255715 
L 380.550795 442.828619 
L 380.472921 441.401523 
L 380.395048 439.974426 
L 380.317174 438.54733 
L 380.2393 437.120234 
L 380.161427 435.693137 
L 380.083553 434.266041 
L 380.00568 432.838945 
L 379.927806 431.411848 
L 379.849933 429.984752 
L 379.772059 428.557655 
L 379.694185 427.130559 
L 379.616312 425.703463 
L 379.538438 424.276366 
L 379.460565 422.84927 
L 379.382691 421.422174 
L 379.304817 419.995077 
L 379.226944 418.567981 
L 379.14907 417.140885 
L 379.071197 415.713788 
L 378.993323 414.286692 
L 378.915449 412.859595 
L 378.837576 411.432499 
L 378.759702 410.005403 
L 378.681829 408.578306 
L 378.603955 407.15121 
L 378.526082 405.724114 
L 378.448208 404.297017 
L 378.370334 402.869921 
L 378.292461 401.442825 
L 378.214587 400.015728 
L 378.136714 398.588632 
L 378.05884 397.161535 
L 377.980966 395.734439 
L 377.903093 394.307343 
L 377.825219 392.880246 
L 377.747346 391.45315 
L 377.669472 390.026054 
L 377.591599 388.598957 
L 377.513725 387.171861 
L 377.435851 385.744765 
L 377.357978 384.317668 
L 377.280104 382.890572 
L 377.202231 381.463475 
L 377.124357 380.036379 
L 377.046483 378.609283 
L 376.96861 377.182186 
L 376.890736 375.75509 
L 376.812863 374.327994 
L 376.734989 372.900897 
L 376.657116 371.473801 
L 376.579242 370.046705 
L 376.501368 368.619608 
L 376.423495 367.192512 
L 376.345621 365.765415 
L 376.267748 364.338319 
L 376.189874 362.911223 
L 376.112 361.484126 
L 376.034127 360.05703 
L 375.956253 358.629934 
" clip-path="url(#p3e95db174d)" style="fill: none; stroke: #000000; stroke-linecap: square"/>
   </g>
   <g id="line2d_32">
    <path d="M 375.956253 358.629934 
L 374.417849 359.26339 
L 372.879445 359.896847 
L 371.341041 360.530304 
L 369.802637 361.163761 
L 368.264233 361.797217 
L 366.725829 362.430674 
L 365.187425 363.064131 
L 363.649021 363.697588 
L 362.110617 364.331045 
L 360.572213 364.964501 
L 359.033809 365.597958 
L 357.495405 366.231415 
L 355.957002 366.864872 
L 354.418598 367.498328 
L 352.880194 368.131785 
L 351.34179 368.765242 
L 349.803386 369.398699 
L 348.264982 370.032155 
L 346.726578 370.665612 
L 345.188174 371.299069 
L 343.64977 371.932526 
L 342.111366 372.565982 
L 340.572962 373.199439 
L 339.034558 373.832896 
L 337.496154 374.466353 
L 335.95775 375.09981 
L 334.419346 375.733266 
L 332.880942 376.366723 
L 331.342538 377.00018 
L 329.804134 377.633637 
L 328.26573 378.267093 
L 326.727326 378.90055 
L 325.188922 379.534007 
L 323.650518 380.167464 
L 322.112114 380.80092 
L 320.57371 381.434377 
L 319.035306 382.067834 
L 317.496902 382.701291 
L 315.958498 383.334747 
L 314.420094 383.968204 
L 312.88169 384.601661 
L 311.343286 385.235118 
L 309.804882 385.868574 
L 308.266478 386.502031 
L 306.728074 387.135488 
L 305.18967 387.768945 
L 303.651266 388.402402 
L 302.112862 389.035858 
L 300.574458 389.669315 
L 299.036054 390.302772 
L 297.49765 390.936229 
L 295.959246 391.569685 
L 294.420842 392.203142 
L 292.882438 392.836599 
L 291.344034 393.470056 
L 289.80563 394.103512 
L 288.267226 394.736969 
L 286.728822 395.370426 
L 285.190418 396.003883 
L 283.652014 396.637339 
L 282.11361 397.270796 
L 280.575206 397.904253 
L 279.036802 398.53771 
L 277.498398 399.171166 
L 275.959994 399.804623 
L 274.42159 400.43808 
L 272.883186 401.071537 
L 271.344782 401.704994 
L 269.806378 402.33845 
L 268.267974 402.971907 
L 266.72957 403.605364 
L 265.191166 404.238821 
L 263.652762 404.872277 
L 262.114358 405.505734 
L 260.575955 406.139191 
L 259.037551 406.772648 
L 257.499147 407.406104 
L 255.960743 408.039561 
L 254.422339 408.673018 
L 252.883935 409.306475 
L 251.345531 409.939931 
L 249.807127 410.573388 
L 248.268723 411.206845 
L 246.730319 411.840302 
L 245.191915 412.473758 
L 243.653511 413.107215 
L 242.115107 413.740672 
L 240.576703 414.374129 
L 239.038299 415.007586 
L 237.499895 415.641042 
L 235.961491 416.274499 
L 234.423087 416.907956 
L 232.884683 417.541413 
L 231.346279 418.174869 
L 229.807875 418.808326 
L 228.269471 419.441783 
L 226.731067 420.07524 
L 225.192663 420.708696 
L 223.654259 421.342153 
" clip-path="url(#p3e95db174d)" style="fill: none; stroke: #000000; stroke-linecap: square"/>
   </g>
   <g id="line2d_33">
    <path d="M 223.654259 421.342153 
L 224.696576 421.332553 
L 225.738894 421.322953 
L 226.781211 421.313353 
L 227.823528 421.303753 
L 228.865846 421.294153 
L 229.908163 421.284554 
L 230.95048 421.274954 
L 231.992798 421.265354 
L 233.035115 421.255754 
L 234.077432 421.246154 
L 235.11975 421.236554 
L 236.162067 421.226954 
L 237.204385 421.217354 
L 238.246702 421.207754 
L 239.289019 421.198154 
L 240.331337 421.188554 
L 241.373654 421.178954 
L 242.415971 421.169354 
L 243.458289 421.159754 
L 244.500606 421.150154 
L 245.542923 421.140554 
L 246.585241 421.130955 
L 247.627558 421.121355 
L 248.669876 421.111755 
L 249.712193 421.102155 
L 250.75451 421.092555 
L 251.796828 421.082955 
L 252.839145 421.073355 
L 253.881462 421.063755 
L 254.92378 421.054155 
L 255.966097 421.044555 
L 257.008414 421.034955 
L 258.050732 421.025355 
L 259.093049 421.015755 
L 260.135366 421.006155 
L 261.177684 420.996555 
L 262.220001 420.986955 
L 263.262319 420.977356 
L 264.304636 420.967756 
L 265.346953 420.958156 
L 266.389271 420.948556 
L 267.431588 420.938956 
L 268.473905 420.929356 
L 269.516223 420.919756 
L 270.55854 420.910156 
L 271.600857 420.900556 
L 272.643175 420.890956 
L 273.685492 420.881356 
L 274.72781 420.871756 
L 275.770127 420.862156 
L 276.812444 420.852556 
L 277.854762 420.842956 
L 278.897079 420.833356 
L 279.939396 420.823756 
L 280.981714 420.814157 
L 282.024031 420.804557 
L 283.066348 420.794957 
L 284.108666 420.785357 
L 285.150983 420.775757 
L 286.1933 420.766157 
L 287.235618 420.756557 
L 288.277935 420.746957 
L 289.320253 420.737357 
L 290.36257 420.727757 
L 291.404887 420.718157 
L 292.447205 420.708557 
L 293.489522 420.698957 
L 294.531839 420.689357 
L 295.574157 420.679757 
L 296.616474 420.670157 
L 297.658791 420.660558 
L 298.701109 420.650958 
L 299.743426 420.641358 
L 300.785744 420.631758 
L 301.828061 420.622158 
L 302.870378 420.612558 
L 303.912696 420.602958 
L 304.955013 420.593358 
L 305.99733 420.583758 
L 307.039648 420.574158 
L 308.081965 420.564558 
L 309.124282 420.554958 
L 310.1666 420.545358 
L 311.208917 420.535758 
L 312.251234 420.526158 
L 313.293552 420.516558 
L 314.335869 420.506959 
L 315.378187 420.497359 
L 316.420504 420.487759 
L 317.462821 420.478159 
L 318.505139 420.468559 
L 319.547456 420.458959 
L 320.589773 420.449359 
L 321.632091 420.439759 
L 322.674408 420.430159 
L 323.716725 420.420559 
L 324.759043 420.410959 
L 325.80136 420.401359 
L 326.843677 420.391759 
" clip-path="url(#p3e95db174d)" style="fill: none; stroke: #000000; stroke-linecap: square"/>
   </g>
   <g id="line2d_34">
    <path d="M 326.843677 420.391759 
L 327.417638 421.194999 
L 327.991598 421.998238 
L 328.565558 422.801478 
L 329.139518 423.604717 
L 329.713479 424.407957 
L 330.287439 425.211196 
L 330.861399 426.014436 
L 331.435359 426.817676 
L 332.009319 427.620915 
L 332.58328 428.424155 
L 333.15724 429.227394 
L 333.7312 430.030634 
L 334.30516 430.833873 
L 334.87912 431.637113 
L 335.453081 432.440352 
L 336.027041 433.243592 
L 336.601001 434.046831 
L 337.174961 434.850071 
L 337.748921 435.65331 
L 338.322882 436.45655 
L 338.896842 437.25979 
L 339.470802 438.063029 
L 340.044762 438.866269 
L 340.618722 439.669508 
L 341.192683 440.472748 
L 341.766643 441.275987 
L 342.340603 442.079227 
L 342.914563 442.882466 
L 343.488524 443.685706 
L 344.062484 444.488945 
L 344.636444 445.292185 
L 345.210404 446.095424 
L 345.784364 446.898664 
L 346.358325 447.701904 
L 346.932285 448.505143 
L 347.506245 449.308383 
L 348.080205 450.111622 
L 348.654165 450.914862 
L 349.228126 451.718101 
L 349.802086 452.521341 
L 350.376046 453.32458 
L 350.950006 454.12782 
L 351.523966 454.931059 
L 352.097927 455.734299 
L 352.671887 456.537539 
L 353.245847 457.340778 
L 353.819807 458.144018 
L 354.393768 458.947257 
L 354.967728 459.750497 
L 355.541688 460.553736 
L 356.115648 461.356976 
L 356.689608 462.160215 
L 357.263569 462.963455 
L 357.837529 463.766694 
L 358.411489 464.569934 
L 358.985449 465.373173 
L 359.559409 466.176413 
L 360.13337 466.979653 
L 360.70733 467.782892 
L 361.28129 468.586132 
L 361.85525 469.389371 
L 362.42921 470.192611 
L 363.003171 470.99585 
L 363.577131 471.79909 
L 364.151091 472.602329 
L 364.725051 473.405569 
L 365.299011 474.208808 
L 365.872972 475.012048 
L 366.446932 475.815287 
L 367.020892 476.618527 
L 367.594852 477.421767 
L 368.168813 478.225006 
L 368.742773 479.028246 
L 369.316733 479.831485 
L 369.890693 480.634725 
L 370.464653 481.437964 
L 371.038614 482.241204 
L 371.612574 483.044443 
L 372.186534 483.847683 
L 372.760494 484.650922 
L 373.334454 485.454162 
L 373.908415 486.257401 
L 374.482375 487.060641 
L 375.056335 487.863881 
L 375.630295 488.66712 
L 376.204255 489.47036 
L 376.778216 490.273599 
L 377.352176 491.076839 
L 377.926136 491.880078 
L 378.500096 492.683318 
L 379.074056 493.486557 
L 379.648017 494.289797 
L 380.221977 495.093036 
L 380.795937 495.896276 
L 381.369897 496.699515 
L 381.943858 497.502755 
L 382.517818 498.305995 
L 383.091778 499.109234 
L 383.665738 499.912474 
" clip-path="url(#p3e95db174d)" style="fill: none; stroke: #000000; stroke-linecap: square"/>
   </g>
   <g id="line2d_35">
    <path d="M 383.665738 499.912474 
L 383.665738 499.912474 
L 383.665738 499.912474 
L 383.665738 499.912474 
L 383.665738 499.912474 
L 383.665738 499.912474 
L 383.665738 499.912474 
L 383.665738 499.912474 
L 383.665738 499.912474 
L 383.665738 499.912474 
L 383.665738 499.912474 
L 383.665738 499.912474 
L 383.665738 499.912474 
L 383.665738 499.912474 
L 383.665738 499.912474 
L 383.665738 499.912474 
L 383.665738 499.912474 
L 383.665738 499.912474 
L 383.665738 499.912474 
L 383.665738 499.912474 
L 383.665738 499.912474 
L 383.665738 499.912474 
L 383.665738 499.912474 
L 383.665738 499.912474 
L 383.665738 499.912474 
L 383.665738 499.912474 
L 383.665738 499.912474 
L 383.665738 499.912474 
L 383.665738 499.912474 
L 383.665738 499.912474 
L 383.665738 499.912474 
L 383.665738 499.912474 
L 383.665738 499.912474 
L 383.665738 499.912474 
L 383.665738 499.912474 
L 383.665738 499.912474 
L 383.665738 499.912474 
L 383.665738 499.912474 
L 383.665738 499.912474 
L 383.665738 499.912474 
L 383.665738 499.912474 
L 383.665738 499.912474 
L 383.665738 499.912474 
L 383.665738 499.912474 
L 383.665738 499.912474 
L 383.665738 499.912474 
L 383.665738 499.912474 
L 383.665738 499.912474 
L 383.665738 499.912474 
L 383.665738 499.912474 
L 383.665738 499.912474 
L 383.665738 499.912474 
L 383.665738 499.912474 
L 383.665738 499.912474 
L 383.665738 499.912474 
L 383.665738 499.912474 
L 383.665738 499.912474 
L 383.665738 499.912474 
L 383.665738 499.912474 
L 383.665738 499.912474 
L 383.665738 499.912474 
L 383.665738 499.912474 
L 383.665738 499.912474 
L 383.665738 499.912474 
L 383.665738 499.912474 
L 383.665738 499.912474 
L 383.665738 499.912474 
L 383.665738 499.912474 
L 383.665738 499.912474 
L 383.665738 499.912474 
L 383.665738 499.912474 
L 383.665738 499.912474 
L 383.665738 499.912474 
L 383.665738 499.912474 
L 383.665738 499.912474 
L 383.665738 499.912474 
L 383.665738 499.912474 
L 383.665738 499.912474 
L 383.665738 499.912474 
L 383.665738 499.912474 
L 383.665738 499.912474 
L 383.665738 499.912474 
L 383.665738 499.912474 
L 383.665738 499.912474 
L 383.665738 499.912474 
L 383.665738 499.912474 
L 383.665738 499.912474 
L 383.665738 499.912474 
L 383.665738 499.912474 
L 383.665738 499.912474 
L 383.665738 499.912474 
L 383.665738 499.912474 
L 383.665738 499.912474 
L 383.665738 499.912474 
L 383.665738 499.912474 
L 383.665738 499.912474 
L 383.665738 499.912474 
L 383.665738 499.912474 
L 383.665738 499.912474 
L 383.665738 499.912474 
" clip-path="url(#p3e95db174d)" style="fill: none; stroke: #000000; stroke-linecap: square"/>
   </g>
   <g id="patch_3">
    <path d="M 0 576 
L 0 0 
" style="fill: none; stroke: #000000; stroke-width: 0.8; stroke-linejoin: miter; stroke-linecap: square"/>
   </g>
   <g id="patch_4">
    <path d="M 576 576 
L 576 0 
" style="fill: none; stroke: #000000; stroke-width: 0.8; stroke-linejoin: miter; stroke-linecap: square"/>
   </g>
   <g id="patch_5">
    <path d="M 0 576 
L 576 576 
" style="fill: none; stroke: #000000; stroke-width: 0.8; stroke-linejoin: miter; stroke-linecap: square"/>
   </g>
   <g id="patch_6">
    <path d="M 0 0 
L 576 0 
" style="fill: none; stroke: #000000; stroke-width: 0.8; stroke-linejoin: miter; stroke-linecap: square"/>
   </g>
  </g>
 </g>
 <defs>
  <clipPath id="p3e95db174d">
   <rect x="0" y="0" width="576" height="576"/>
  </clipPath>
 </defs>
</svg>
