<?xml version="1.0" encoding="utf-8" standalone="no"?>
<!DOCTYPE svg PUBLIC "-//W3C//DTD SVG 1.1//EN"
  "http://www.w3.org/Graphics/SVG/1.1/DTD/svg11.dtd">
<svg xmlns:xlink="http://www.w3.org/1999/xlink" width="576pt" height="576pt" viewBox="0 0 576 576" xmlns="http://www.w3.org/2000/svg" version="1.1">
 <metadata>
  <rdf:RDF xmlns:dc="http://purl.org/dc/elements/1.1/" xmlns:cc="http://creativecommons.org/ns#" xmlns:rdf="http://www.w3.org/1999/02/22-rdf-syntax-ns#">
   <cc:Work>
    <dc:type rdf:resource="http://purl.org/dc/dcmitype/StillImage"/>
    <dc:date>2024-05-05T15:39:08.588749</dc:date>
    <dc:format>image/svg+xml</dc:format>
    <dc:creator>
     <cc:Agent>
      <dc:title>Matplotlib v3.8.3, https://matplotlib.org/</dc:title>
     </cc:Agent>
    </dc:creator>
   </cc:Work>
  </rdf:RDF>
 </metadata>
 <defs>
  <style type="text/css">*{stroke-linejoin: round; stroke-linecap: butt}</style>
 </defs>
 <g id="figure_1">
  <g id="patch_1">
   <path d="M 0 576 
L 576 576 
L 576 0 
L 0 0 
z
" style="fill: #ffffff"/>
  </g>
  <g id="axes_1">
   <g id="patch_2">
    <path d="M 0 576 
L 576 576 
L 576 0 
L 0 0 
z
" style="fill: #ffffff"/>
   </g>
   <g id="patch_3">
    <path d="M 38.2976 566.9344 
L 537.728 566.9344 
L 537.728 8.992 
L 38.2976 8.992 
L 38.2976 566.9344 
z
" clip-path="url(#p7c9937cdf1)" style="fill: none; stroke: #ff0000; stroke-linejoin: miter"/>
   </g>
   <g id="matplotlib.axis_1"/>
   <g id="matplotlib.axis_2"/>
   <g id="line2d_1">
    <path d="M 476.9888 370.5328 
L 424.1568 201.8768 
L 424.1568 201.8768 
L 265.864 293.3168 
L 265.864 293.3168 
L 300.2048 415.2368 
L 300.2048 415.2368 
L 476.9888 370.5328 
L 476.9888 370.5328 
" clip-path="url(#p7c9937cdf1)" style="fill: none; stroke: #000000; stroke-linecap: square"/>
   </g>
   <g id="line2d_2">
    <path d="M 291.6672 385.3456 
L 191.6928 259.768 
L 191.6928 259.768 
L 58.1904 244.528 
L 58.1904 244.528 
L 147.3952 340.6416 
L 147.3952 340.6416 
L 291.6672 385.3456 
L 291.6672 385.3456 
" clip-path="url(#p7c9937cdf1)" style="fill: none; stroke: #000000; stroke-linecap: square"/>
   </g>
   <g id="line2d_3">
    <path d="M 339.0336 445.3648 
L 247.5936 374.8544 
L 247.5936 374.8544 
L 143.9616 339.7008 
L 143.9616 339.7008 
L 38.2976 406.7568 
L 38.2976 406.7568 
L 339.0336 445.3648 
L 339.0336 445.3648 
" clip-path="url(#p7c9937cdf1)" style="fill: none; stroke: #000000; stroke-linecap: square"/>
   </g>
   <g id="line2d_4">
    <path d="M 537.728 197.7712 
L 511.312 111.0048 
L 511.312 111.0048 
L 406.2576 42.5264 
L 406.2576 42.5264 
L 481.4416 390.608 
L 481.4416 390.608 
L 537.728 197.7712 
L 537.728 197.7712 
" clip-path="url(#p7c9937cdf1)" style="fill: none; stroke: #000000; stroke-linecap: square"/>
   </g>
   <g id="line2d_5">
    <path d="M 380.524801 146.3552 
L 414.459201 8.992 
L 414.459201 8.992 
L 250.476801 24.4352 
L 250.476801 24.4352 
L 349.435201 53.696 
L 349.435201 53.696 
L 380.524801 146.3552 
L 380.524801 146.3552 
" clip-path="url(#p7c9937cdf1)" style="fill: none; stroke: #000000; stroke-linecap: square"/>
   </g>
   <g id="line2d_6">
    <path d="M 477.464001 525.2784 
L 511.398401 387.9152 
L 511.398401 387.9152 
L 347.416 403.3584 
L 347.416 403.3584 
L 315.3104 566.9344 
L 315.3104 566.9344 
L 477.464001 525.2784 
L 477.464001 525.2784 
" clip-path="url(#p7c9937cdf1)" style="fill: none; stroke: #000000; stroke-linecap: square"/>
   </g>
   <g id="line2d_7">
    <path d="M 308.476801 262.1568 
L 433.851201 196.7264 
L 433.851201 196.7264 
L 313.760001 83.9504 
L 313.760001 83.9504 
L 169.894401 168.2784 
L 169.894401 168.2784 
L 308.476801 262.1568 
L 308.476801 262.1568 
" clip-path="url(#p7c9937cdf1)" style="fill: none; stroke: #000000; stroke-linecap: square"/>
   </g>
   <g id="patch_4">
    <path d="M 0 576 
L 0 0 
" style="fill: none; stroke: #000000; stroke-width: 0.8; stroke-linejoin: miter; stroke-linecap: square"/>
   </g>
   <g id="patch_5">
    <path d="M 576 576 
L 576 0 
" style="fill: none; stroke: #000000; stroke-width: 0.8; stroke-linejoin: miter; stroke-linecap: square"/>
   </g>
   <g id="patch_6">
    <path d="M 0 576 
L 576 576 
" style="fill: none; stroke: #000000; stroke-width: 0.8; stroke-linejoin: miter; stroke-linecap: square"/>
   </g>
   <g id="patch_7">
    <path d="M 0 0 
L 576 0 
" style="fill: none; stroke: #000000; stroke-width: 0.8; stroke-linejoin: miter; stroke-linecap: square"/>
   </g>
  </g>
 </g>
 <defs>
  <clipPath id="p7c9937cdf1">
   <rect x="0" y="0" width="576" height="576"/>
  </clipPath>
 </defs>
</svg>
