<?xml version="1.0" encoding="utf-8" standalone="no"?>
<!DOCTYPE svg PUBLIC "-//W3C//DTD SVG 1.1//EN"
  "http://www.w3.org/Graphics/SVG/1.1/DTD/svg11.dtd">
<svg xmlns:xlink="http://www.w3.org/1999/xlink" width="576pt" height="576pt" viewBox="0 0 576 576" xmlns="http://www.w3.org/2000/svg" version="1.1">
 <metadata>
  <rdf:RDF xmlns:dc="http://purl.org/dc/elements/1.1/" xmlns:cc="http://creativecommons.org/ns#" xmlns:rdf="http://www.w3.org/1999/02/22-rdf-syntax-ns#">
   <cc:Work>
    <dc:type rdf:resource="http://purl.org/dc/dcmitype/StillImage"/>
    <dc:date>2024-05-05T14:45:13.569173</dc:date>
    <dc:format>image/svg+xml</dc:format>
    <dc:creator>
     <cc:Agent>
      <dc:title>Matplotlib v3.8.3, https://matplotlib.org/</dc:title>
     </cc:Agent>
    </dc:creator>
   </cc:Work>
  </rdf:RDF>
 </metadata>
 <defs>
  <style type="text/css">*{stroke-linejoin: round; stroke-linecap: butt}</style>
 </defs>
 <g id="figure_1">
  <g id="patch_1">
   <path d="M 0 576 
L 576 576 
L 576 0 
L 0 0 
z
" style="fill: #ffffff"/>
  </g>
  <g id="axes_1">
   <g id="patch_2">
    <path d="M 0 576 
L 576 576 
L 576 0 
L 0 0 
z
" style="fill: #ffffff"/>
   </g>
   <g id="patch_3">
    <path d="M 9.841599 533.5888 
L 566.1936 533.5888 
L 566.1936 42.68 
L 9.841599 42.68 
L 9.841599 533.5888 
z
" clip-path="url(#p54cb357901)" style="fill: none; stroke: #ff0000; stroke-linejoin: miter"/>
   </g>
   <g id="matplotlib.axis_1"/>
   <g id="matplotlib.axis_2"/>
   <g id="line2d_1">
    <path d="M 316.8032 320.6512 
L 263.9712 151.9952 
L 263.9712 151.9952 
L 105.6784 243.4352 
L 105.6784 243.4352 
L 140.0192 365.3552 
L 140.0192 365.3552 
L 316.8032 320.6512 
L 316.8032 320.6512 
" clip-path="url(#p54cb357901)" style="fill: none; stroke: #000000; stroke-linecap: square"/>
   </g>
   <g id="line2d_2">
    <path d="M 332.7168 297.4448 
L 432.6912 423.0224 
L 432.6912 423.0224 
L 566.1936 438.2624 
L 566.1936 438.2624 
L 476.9888 342.1488 
L 476.9888 342.1488 
L 332.7168 297.4448 
L 332.7168 297.4448 
" clip-path="url(#p54cb357901)" style="fill: none; stroke: #000000; stroke-linecap: square"/>
   </g>
   <g id="line2d_3">
    <path d="M 135.4752 42.68 
L 226.9152 113.1904 
L 226.9152 113.1904 
L 330.5472 148.344 
L 330.5472 148.344 
L 436.2112 81.288 
L 436.2112 81.288 
L 135.4752 42.68 
L 135.4752 42.68 
" clip-path="url(#p54cb357901)" style="fill: none; stroke: #ff0000; stroke-linecap: square"/>
   </g>
   <g id="line2d_4">
    <path d="M 26.6368 378.344 
L 53.0528 465.1104 
L 53.0528 465.1104 
L 158.1072 533.5888 
L 158.1072 533.5888 
L 82.9232 185.5072 
L 82.9232 185.5072 
L 26.6368 378.344 
L 26.6368 378.344 
" clip-path="url(#p54cb357901)" style="fill: none; stroke: #000000; stroke-linecap: square"/>
   </g>
   <g id="line2d_5">
    <path d="M 346.617599 342.5536 
L 312.683199 479.9168 
L 312.683199 479.9168 
L 476.665599 464.4736 
L 476.665599 464.4736 
L 377.707199 435.2128 
L 377.707199 435.2128 
L 346.617599 342.5536 
L 346.617599 342.5536 
" clip-path="url(#p54cb357901)" style="fill: none; stroke: #000000; stroke-linecap: square"/>
   </g>
   <g id="line2d_6">
    <path d="M 183.265599 355.1376 
L 149.331199 492.5008 
L 149.331199 492.5008 
L 313.3136 477.0576 
L 313.3136 477.0576 
L 345.4192 313.4816 
L 345.4192 313.4816 
L 183.265599 355.1376 
L 183.265599 355.1376 
" clip-path="url(#p54cb357901)" style="fill: none; stroke: #000000; stroke-linecap: square"/>
   </g>
   <g id="line2d_7">
    <path d="M 135.215999 51.2448 
L 9.841599 116.6752 
L 9.841599 116.6752 
L 129.932799 229.4512 
L 129.932799 229.4512 
L 273.798399 145.1232 
L 273.798399 145.1232 
L 135.215999 51.2448 
L 135.215999 51.2448 
" clip-path="url(#p54cb357901)" style="fill: none; stroke: #000000; stroke-linecap: square"/>
   </g>
   <g id="line2d_8">
    <path d="M 515.1264 335.5232 
L 516.102546 333.75781 
L 516.813585 331.804984 
L 517.266928 329.679478 
L 517.469987 327.396047 
L 517.430172 324.969448 
L 517.154894 322.414434 
L 516.651565 319.745762 
L 515.927596 316.978187 
L 514.990397 314.126464 
L 513.84738 311.205348 
L 512.016004 307.228087 
L 509.849472 303.188668 
L 507.365349 299.122068 
L 504.581203 295.063263 
L 501.514602 291.047228 
L 498.183111 287.108938 
L 494.604297 283.283369 
L 490.795729 279.605498 
L 486.774972 276.110299 
L 483.630723 273.629819 
L 480.384411 271.286522 
L 477.043447 269.095162 
L 473.615241 267.070496 
L 469.477698 264.91039 
L 464.913849 262.86171 
L 460.250674 261.090845 
L 455.509805 259.588313 
L 450.712875 258.344634 
L 445.881515 257.350328 
L 441.037359 256.595913 
L 436.202038 256.071909 
L 431.397185 255.768834 
L 426.644432 255.677209 
L 421.965411 255.787551 
L 417.381755 256.090381 
L 412.915096 256.576217 
L 408.587065 257.235579 
L 404.419296 258.058986 
L 400.433421 259.036957 
L 396.651072 260.160011 
L 393.093881 261.418667 
L 389.783481 262.803445 
L 386.741503 264.304864 
L 383.989581 265.913443 
L 381.549346 267.6197 
L 379.442431 269.414157 
L 377.690468 271.28733 
L 376.730371 272.575163 
L 375.944054 273.890958 
L 375.337927 275.231907 
L 374.9184 276.5952 
L 374.9184 276.5952 
L 374.696513 277.933034 
L 374.643619 279.290729 
L 374.752893 280.666269 
L 375.20594 282.758622 
L 375.985474 284.879773 
L 377.068461 287.022912 
L 378.431866 289.18123 
L 380.052656 291.347916 
L 381.907795 293.51616 
L 384.706046 296.397804 
L 387.825368 299.253968 
L 391.211162 302.06851 
L 395.734952 305.503563 
L 400.48315 308.816829 
L 406.327057 312.587598 
L 412.156277 316.083112 
L 418.692625 319.740635 
L 425.455757 323.26012 
L 430.803393 325.834621 
L 437.320223 328.674222 
L 444.396022 331.47225 
L 450.608529 333.711683 
L 457.01336 335.815482 
L 463.521494 337.735116 
L 470.043908 339.422058 
L 476.491581 340.827778 
L 481.536083 341.717262 
L 486.430198 342.370858 
L 491.128346 342.763719 
L 495.584949 342.870999 
L 498.741467 342.749098 
L 501.71725 342.442099 
L 504.493067 341.939519 
L 507.04969 341.230876 
L 509.367891 340.305688 
L 511.428441 339.153472 
L 512.649505 338.254025 
L 513.741815 337.245912 
L 514.699672 336.126027 
L 515.1264 335.5232 
L 515.1264 335.5232 
" clip-path="url(#p54cb357901)" style="fill: none; stroke: #000000; stroke-linecap: square"/>
   </g>
   <g id="line2d_9">
    <path d="M 494.4272 170.4544 
L 495.465027 168.693283 
L 496.354654 166.752786 
L 497.093813 164.646932 
L 497.680233 162.389741 
L 498.111644 159.995234 
L 498.385775 157.477431 
L 498.500357 154.850354 
L 498.401022 151.201837 
L 498.008627 147.417215 
L 497.317792 143.529724 
L 496.323135 139.572598 
L 495.019277 135.579072 
L 493.835231 132.580033 
L 492.471963 129.593234 
L 490.927202 126.632697 
L 489.198678 123.712441 
L 487.28412 120.84649 
L 485.181259 118.048862 
L 482.887825 115.33358 
L 480.401547 112.714663 
L 477.720156 110.206134 
L 474.841382 107.822013 
L 471.762954 105.57632 
L 468.482602 103.483077 
L 466.1824 102.1792 
L 466.1824 102.1792 
L 463.122345 100.746961 
L 459.84755 99.621194 
L 456.37301 98.789556 
L 452.713721 98.2397 
L 448.884676 97.959284 
L 444.900872 97.935963 
L 440.777305 98.157392 
L 436.528968 98.611228 
L 432.170857 99.285125 
L 427.717968 100.16674 
L 423.185296 101.243727 
L 418.587835 102.503744 
L 411.602969 104.709944 
L 404.556678 107.258522 
L 397.49957 110.107816 
L 390.482256 113.216163 
L 383.555343 116.541901 
L 376.76944 120.043368 
L 370.175157 123.678901 
L 363.823102 127.40684 
L 357.763884 131.18552 
L 352.048112 134.973281 
L 346.726395 138.72846 
L 341.849341 142.409395 
L 337.46756 145.974424 
L 333.631661 149.381884 
L 330.392252 152.590113 
L 327.799942 155.557449 
L 326.456227 157.38127 
L 325.437599 159.067167 
L 324.759055 160.602795 
L 324.204505 162.819161 
L 321.484725 175.219546 
L 318.495717 189.789104 
L 315.620602 204.853258 
L 313.171198 218.815335 
L 311.26626 230.785584 
L 309.58672 242.733145 
L 308.469352 252.068595 
L 307.605914 261.03593 
L 307.045149 269.477997 
L 306.852528 275.370303 
L 306.878144 280.812448 
L 307.142561 285.738133 
L 307.666343 290.08106 
L 308.169778 292.619849 
L 308.803718 294.850524 
L 309.574257 296.753441 
L 310.487489 298.308956 
L 311.549505 299.497423 
L 312.7664 300.2992 
L 312.7664 300.2992 
L 313.8333 300.703793 
L 315.010252 300.978178 
L 316.294195 301.125382 
L 317.682071 301.148427 
L 319.170821 301.050338 
L 322.438708 300.502856 
L 326.073384 299.507129 
L 330.050378 298.087352 
L 334.34522 296.26772 
L 338.933438 294.072425 
L 343.79056 291.525662 
L 348.892117 288.651626 
L 356.949236 283.779858 
L 365.418681 278.307817 
L 374.217863 272.317157 
L 383.264191 265.889533 
L 392.475076 259.106602 
L 404.869485 249.651124 
L 417.213844 239.902706 
L 429.312384 230.054899 
L 440.969337 220.301258 
L 451.988934 210.835335 
L 464.568906 199.702401 
L 473.438672 191.591523 
L 481.034832 184.397411 
L 487.16162 178.313618 
L 491.623265 173.533696 
L 493.758983 170.920856 
L 494.224 170.2512 
L 494.303737 170.330937 
L 494.4272 170.4544 
L 494.4272 170.4544 
" clip-path="url(#p54cb357901)" style="fill: none; stroke: #ff0000; stroke-linecap: square"/>
   </g>
   <g id="patch_4">
    <path d="M 0 576 
L 0 0 
" style="fill: none; stroke: #000000; stroke-width: 0.8; stroke-linejoin: miter; stroke-linecap: square"/>
   </g>
   <g id="patch_5">
    <path d="M 576 576 
L 576 0 
" style="fill: none; stroke: #000000; stroke-width: 0.8; stroke-linejoin: miter; stroke-linecap: square"/>
   </g>
   <g id="patch_6">
    <path d="M 0 576 
L 576 576 
" style="fill: none; stroke: #000000; stroke-width: 0.8; stroke-linejoin: miter; stroke-linecap: square"/>
   </g>
   <g id="patch_7">
    <path d="M 0 0 
L 576 0 
" style="fill: none; stroke: #000000; stroke-width: 0.8; stroke-linejoin: miter; stroke-linecap: square"/>
   </g>
   <g id="text_1">
    <!-- 2 -->
    <g style="fill: #ff0000" transform="translate(229.532366 81.788317) scale(0.12 -0.12)">
     <defs>
      <path id="DejaVuSans-32" d="M 1228 531 
L 3431 531 
L 3431 0 
L 469 0 
L 469 531 
Q 828 903 1448 1529 
Q 2069 2156 2228 2338 
Q 2531 2678 2651 2914 
Q 2772 3150 2772 3378 
Q 2772 3750 2511 3984 
Q 2250 4219 1831 4219 
Q 1534 4219 1204 4116 
Q 875 4013 500 3803 
L 500 4441 
Q 881 4594 1212 4672 
Q 1544 4750 1819 4750 
Q 2544 4750 2975 4387 
Q 3406 4025 3406 3419 
Q 3406 3131 3298 2873 
Q 3191 2616 2906 2266 
Q 2828 2175 2409 1742 
Q 1991 1309 1228 531 
z
" transform="scale(0.015625)"/>
     </defs>
     <use xlink:href="#DejaVuSans-32"/>
    </g>
   </g>
   <g id="text_2">
    <!-- 8 -->
    <g style="fill: #ff0000" transform="translate(436.333069 181.239956) scale(0.12 -0.12)">
     <defs>
      <path id="DejaVuSans-38" d="M 2034 2216 
Q 1584 2216 1326 1975 
Q 1069 1734 1069 1313 
Q 1069 891 1326 650 
Q 1584 409 2034 409 
Q 2484 409 2743 651 
Q 3003 894 3003 1313 
Q 3003 1734 2745 1975 
Q 2488 2216 2034 2216 
z
M 1403 2484 
Q 997 2584 770 2862 
Q 544 3141 544 3541 
Q 544 4100 942 4425 
Q 1341 4750 2034 4750 
Q 2731 4750 3128 4425 
Q 3525 4100 3525 3541 
Q 3525 3141 3298 2862 
Q 3072 2584 2669 2484 
Q 3125 2378 3379 2068 
Q 3634 1759 3634 1313 
Q 3634 634 3220 271 
Q 2806 -91 2034 -91 
Q 1263 -91 848 271 
Q 434 634 434 1313 
Q 434 1759 690 2068 
Q 947 2378 1403 2484 
z
M 1172 3481 
Q 1172 3119 1398 2916 
Q 1625 2713 2034 2713 
Q 2441 2713 2670 2916 
Q 2900 3119 2900 3481 
Q 2900 3844 2670 4047 
Q 2441 4250 2034 4250 
Q 1625 4250 1398 4047 
Q 1172 3844 1172 3481 
z
" transform="scale(0.015625)"/>
     </defs>
     <use xlink:href="#DejaVuSans-38"/>
    </g>
   </g>
  </g>
 </g>
 <defs>
  <clipPath id="p54cb357901">
   <rect x="0" y="0" width="576" height="576"/>
  </clipPath>
 </defs>
</svg>
