<?xml version="1.0" encoding="utf-8" standalone="no"?>
<!DOCTYPE svg PUBLIC "-//W3C//DTD SVG 1.1//EN"
  "http://www.w3.org/Graphics/SVG/1.1/DTD/svg11.dtd">
<svg xmlns:xlink="http://www.w3.org/1999/xlink" width="576pt" height="576pt" viewBox="0 0 576 576" xmlns="http://www.w3.org/2000/svg" version="1.1">
 <metadata>
  <rdf:RDF xmlns:dc="http://purl.org/dc/elements/1.1/" xmlns:cc="http://creativecommons.org/ns#" xmlns:rdf="http://www.w3.org/1999/02/22-rdf-syntax-ns#">
   <cc:Work>
    <dc:type rdf:resource="http://purl.org/dc/dcmitype/StillImage"/>
    <dc:date>2024-04-22T18:01:29.519837</dc:date>
    <dc:format>image/svg+xml</dc:format>
    <dc:creator>
     <cc:Agent>
      <dc:title>Matplotlib v3.8.3, https://matplotlib.org/</dc:title>
     </cc:Agent>
    </dc:creator>
   </cc:Work>
  </rdf:RDF>
 </metadata>
 <defs>
  <style type="text/css">*{stroke-linejoin: round; stroke-linecap: butt}</style>
 </defs>
 <g id="figure_1">
  <g id="patch_1">
   <path d="M 0 576 
L 576 576 
L 576 0 
L 0 0 
z
" style="fill: #ffffff"/>
  </g>
  <g id="axes_1">
   <g id="patch_2">
    <path d="M 0 576 
L 576 576 
L 576 0 
L 0 0 
z
" style="fill: #ffffff"/>
   </g>
   <g id="matplotlib.axis_1"/>
   <g id="matplotlib.axis_2"/>
   <g id="line2d_1">
    <path d="M 449.8016 324.9136 
L 449.8016 324.9136 
L 449.8016 324.9136 
L 449.8016 324.9136 
L 449.8016 324.9136 
L 449.8016 324.9136 
L 449.8016 324.9136 
L 449.8016 324.9136 
L 449.8016 324.9136 
L 449.8016 324.9136 
L 449.8016 324.9136 
L 449.8016 324.9136 
L 449.8016 324.9136 
L 449.8016 324.9136 
L 449.8016 324.9136 
L 449.8016 324.9136 
L 449.8016 324.9136 
L 449.8016 324.9136 
L 449.8016 324.9136 
L 449.8016 324.9136 
L 449.8016 324.9136 
L 449.8016 324.9136 
L 449.8016 324.9136 
L 449.8016 324.9136 
L 449.8016 324.9136 
L 449.8016 324.9136 
L 449.8016 324.9136 
L 449.8016 324.9136 
L 449.8016 324.9136 
L 449.8016 324.9136 
L 449.8016 324.9136 
L 449.8016 324.9136 
L 449.8016 324.9136 
L 449.8016 324.9136 
L 449.8016 324.9136 
L 449.8016 324.9136 
L 449.8016 324.9136 
L 449.8016 324.9136 
L 449.8016 324.9136 
L 449.8016 324.9136 
L 449.8016 324.9136 
L 449.8016 324.9136 
L 449.8016 324.9136 
L 449.8016 324.9136 
L 449.8016 324.9136 
L 449.8016 324.9136 
L 449.8016 324.9136 
L 449.8016 324.9136 
L 449.8016 324.9136 
L 449.8016 324.9136 
L 449.8016 324.9136 
L 449.8016 324.9136 
L 449.8016 324.9136 
L 449.8016 324.9136 
L 449.8016 324.9136 
L 449.8016 324.9136 
L 449.8016 324.9136 
L 449.8016 324.9136 
L 449.8016 324.9136 
L 449.8016 324.9136 
L 449.8016 324.9136 
L 449.8016 324.9136 
L 449.8016 324.9136 
L 449.8016 324.9136 
L 449.8016 324.9136 
L 449.8016 324.9136 
L 449.8016 324.9136 
L 449.8016 324.9136 
L 449.8016 324.9136 
L 449.8016 324.9136 
L 449.8016 324.9136 
L 449.8016 324.9136 
L 449.8016 324.9136 
L 449.8016 324.9136 
L 449.8016 324.9136 
L 449.8016 324.9136 
L 449.8016 324.9136 
L 449.8016 324.9136 
L 449.8016 324.9136 
L 449.8016 324.9136 
L 449.8016 324.9136 
L 449.8016 324.9136 
L 449.8016 324.9136 
L 449.8016 324.9136 
L 449.8016 324.9136 
L 449.8016 324.9136 
L 449.8016 324.9136 
L 449.8016 324.9136 
L 449.8016 324.9136 
L 449.8016 324.9136 
L 449.8016 324.9136 
L 449.8016 324.9136 
L 449.8016 324.9136 
L 449.8016 324.9136 
L 449.8016 324.9136 
L 449.8016 324.9136 
L 449.8016 324.9136 
L 449.8016 324.9136 
L 449.8016 324.9136 
L 449.8016 324.9136 
" clip-path="url(#pbada041907)" style="fill: none; stroke: #000000; stroke-linecap: square"/>
   </g>
   <g id="line2d_2">
    <path d="M 449.8016 324.9136 
L 449.267944 323.210004 
L 448.734287 321.506408 
L 448.20063 319.802812 
L 447.666974 318.099216 
L 447.133317 316.39562 
L 446.599661 314.692024 
L 446.066004 312.988428 
L 445.532348 311.284832 
L 444.998691 309.581236 
L 444.465035 307.87764 
L 443.931378 306.174044 
L 443.397721 304.470448 
L 442.864065 302.766852 
L 442.330408 301.063256 
L 441.796752 299.359661 
L 441.263095 297.656065 
L 440.729439 295.952469 
L 440.195782 294.248873 
L 439.662125 292.545277 
L 439.128469 290.841681 
L 438.594812 289.138085 
L 438.061156 287.434489 
L 437.527499 285.730893 
L 436.993843 284.027297 
L 436.460186 282.323701 
L 435.926529 280.620105 
L 435.392873 278.916509 
L 434.859216 277.212913 
L 434.32556 275.509317 
L 433.791903 273.805721 
L 433.258247 272.102125 
L 432.72459 270.398529 
L 432.190933 268.694933 
L 431.657277 266.991337 
L 431.12362 265.287741 
L 430.589964 263.584145 
L 430.056307 261.880549 
L 429.522651 260.176953 
L 428.988994 258.473357 
L 428.455338 256.769762 
L 427.921681 255.066166 
L 427.388024 253.36257 
L 426.854368 251.658974 
L 426.320711 249.955378 
L 425.787055 248.251782 
L 425.253398 246.548186 
L 424.719742 244.84459 
L 424.186085 243.140994 
L 423.652428 241.437398 
L 423.118772 239.733802 
L 422.585115 238.030206 
L 422.051459 236.32661 
L 421.517802 234.623014 
L 420.984146 232.919418 
L 420.450489 231.215822 
L 419.916832 229.512226 
L 419.383176 227.80863 
L 418.849519 226.105034 
L 418.315863 224.401438 
L 417.782206 222.697842 
L 417.24855 220.994246 
L 416.714893 219.29065 
L 416.181237 217.587054 
L 415.64758 215.883458 
L 415.113923 214.179862 
L 414.580267 212.476267 
L 414.04661 210.772671 
L 413.512954 209.069075 
L 412.979297 207.365479 
L 412.445641 205.661883 
L 411.911984 203.958287 
L 411.378327 202.254691 
L 410.844671 200.551095 
L 410.311014 198.847499 
L 409.777358 197.143903 
L 409.243701 195.440307 
L 408.710045 193.736711 
L 408.176388 192.033115 
L 407.642731 190.329519 
L 407.109075 188.625923 
L 406.575418 186.922327 
L 406.041762 185.218731 
L 405.508105 183.515135 
L 404.974449 181.811539 
L 404.440792 180.107943 
L 403.907135 178.404347 
L 403.373479 176.700751 
L 402.839822 174.997155 
L 402.306166 173.293559 
L 401.772509 171.589963 
L 401.238853 169.886368 
L 400.705196 168.182772 
L 400.17154 166.479176 
L 399.637883 164.77558 
L 399.104226 163.071984 
L 398.57057 161.368388 
L 398.036913 159.664792 
L 397.503257 157.961196 
L 396.9696 156.2576 
" clip-path="url(#pbada041907)" style="fill: none; stroke: #000000; stroke-linecap: square"/>
   </g>
   <g id="line2d_3">
    <path d="M 396.9696 156.2576 
L 395.370683 157.181236 
L 393.771766 158.104873 
L 392.172849 159.028509 
L 390.573931 159.952145 
L 388.975014 160.875782 
L 387.376097 161.799418 
L 385.77718 162.723054 
L 384.178263 163.646691 
L 382.579346 164.570327 
L 380.980428 165.493963 
L 379.381511 166.4176 
L 377.782594 167.341236 
L 376.183677 168.264873 
L 374.58476 169.188509 
L 372.985843 170.112145 
L 371.386925 171.035782 
L 369.788008 171.959418 
L 368.189091 172.883054 
L 366.590174 173.806691 
L 364.991257 174.730327 
L 363.39234 175.653963 
L 361.793422 176.5776 
L 360.194505 177.501236 
L 358.595588 178.424873 
L 356.996671 179.348509 
L 355.397754 180.272145 
L 353.798836 181.195782 
L 352.199919 182.119418 
L 350.601002 183.043054 
L 349.002085 183.966691 
L 347.403168 184.890327 
L 345.804251 185.813963 
L 344.205333 186.7376 
L 342.606416 187.661236 
L 341.007499 188.584873 
L 339.408582 189.508509 
L 337.809665 190.432145 
L 336.210748 191.355782 
L 334.61183 192.279418 
L 333.012913 193.203054 
L 331.413996 194.126691 
L 329.815079 195.050327 
L 328.216162 195.973963 
L 326.617245 196.8976 
L 325.018327 197.821236 
L 323.41941 198.744873 
L 321.820493 199.668509 
L 320.221576 200.592145 
L 318.622659 201.515782 
L 317.023742 202.439418 
L 315.424824 203.363054 
L 313.825907 204.286691 
L 312.22699 205.210327 
L 310.628073 206.133963 
L 309.029156 207.0576 
L 307.430238 207.981236 
L 305.831321 208.904873 
L 304.232404 209.828509 
L 302.633487 210.752145 
L 301.03457 211.675782 
L 299.435653 212.599418 
L 297.836735 213.523054 
L 296.237818 214.446691 
L 294.638901 215.370327 
L 293.039984 216.293963 
L 291.441067 217.2176 
L 289.84215 218.141236 
L 288.243232 219.064873 
L 286.644315 219.988509 
L 285.045398 220.912145 
L 283.446481 221.835782 
L 281.847564 222.759418 
L 280.248647 223.683054 
L 278.649729 224.606691 
L 277.050812 225.530327 
L 275.451895 226.453964 
L 273.852978 227.3776 
L 272.254061 228.301236 
L 270.655143 229.224873 
L 269.056226 230.148509 
L 267.457309 231.072145 
L 265.858392 231.995782 
L 264.259475 232.919418 
L 262.660558 233.843054 
L 261.06164 234.766691 
L 259.462723 235.690327 
L 257.863806 236.613964 
L 256.264889 237.5376 
L 254.665972 238.461236 
L 253.067055 239.384873 
L 251.468137 240.308509 
L 249.86922 241.232145 
L 248.270303 242.155782 
L 246.671386 243.079418 
L 245.072469 244.003054 
L 243.473552 244.926691 
L 241.874634 245.850327 
L 240.275717 246.773964 
L 238.6768 247.6976 
" clip-path="url(#pbada041907)" style="fill: none; stroke: #000000; stroke-linecap: square"/>
   </g>
   <g id="line2d_4">
    <path d="M 238.6768 247.6976 
L 239.023677 248.929115 
L 239.370554 250.16063 
L 239.71743 251.392145 
L 240.064307 252.62366 
L 240.411184 253.855176 
L 240.758061 255.086691 
L 241.104937 256.318206 
L 241.451814 257.549721 
L 241.798691 258.781236 
L 242.145568 260.012751 
L 242.492444 261.244267 
L 242.839321 262.475782 
L 243.186198 263.707297 
L 243.533075 264.938812 
L 243.879952 266.170327 
L 244.226828 267.401842 
L 244.573705 268.633357 
L 244.920582 269.864873 
L 245.267459 271.096388 
L 245.614335 272.327903 
L 245.961212 273.559418 
L 246.308089 274.790933 
L 246.654966 276.022448 
L 247.001842 277.253964 
L 247.348719 278.485479 
L 247.695596 279.716994 
L 248.042473 280.948509 
L 248.38935 282.180024 
L 248.736226 283.411539 
L 249.083103 284.643054 
L 249.42998 285.87457 
L 249.776857 287.106085 
L 250.123733 288.3376 
L 250.47061 289.569115 
L 250.817487 290.80063 
L 251.164364 292.032145 
L 251.51124 293.263661 
L 251.858117 294.495176 
L 252.204994 295.726691 
L 252.551871 296.958206 
L 252.898748 298.189721 
L 253.245624 299.421236 
L 253.592501 300.652751 
L 253.939378 301.884267 
L 254.286255 303.115782 
L 254.633131 304.347297 
L 254.980008 305.578812 
L 255.326885 306.810327 
L 255.673762 308.041842 
L 256.020638 309.273357 
L 256.367515 310.504873 
L 256.714392 311.736388 
L 257.061269 312.967903 
L 257.408146 314.199418 
L 257.755022 315.430933 
L 258.101899 316.662448 
L 258.448776 317.893964 
L 258.795653 319.125479 
L 259.142529 320.356994 
L 259.489406 321.588509 
L 259.836283 322.820024 
L 260.18316 324.051539 
L 260.530036 325.283054 
L 260.876913 326.51457 
L 261.22379 327.746085 
L 261.570667 328.9776 
L 261.917543 330.209115 
L 262.26442 331.44063 
L 262.611297 332.672145 
L 262.958174 333.903661 
L 263.305051 335.135176 
L 263.651927 336.366691 
L 263.998804 337.598206 
L 264.345681 338.829721 
L 264.692558 340.061236 
L 265.039434 341.292751 
L 265.386311 342.524267 
L 265.733188 343.755782 
L 266.080065 344.987297 
L 266.426941 346.218812 
L 266.773818 347.450327 
L 267.120695 348.681842 
L 267.467572 349.913358 
L 267.814449 351.144873 
L 268.161325 352.376388 
L 268.508202 353.607903 
L 268.855079 354.839418 
L 269.201956 356.070933 
L 269.548832 357.302448 
L 269.895709 358.533964 
L 270.242586 359.765479 
L 270.589463 360.996994 
L 270.936339 362.228509 
L 271.283216 363.460024 
L 271.630093 364.691539 
L 271.97697 365.923054 
L 272.323847 367.15457 
L 272.670723 368.386085 
L 273.0176 369.6176 
" clip-path="url(#pbada041907)" style="fill: none; stroke: #000000; stroke-linecap: square"/>
   </g>
   <g id="line2d_5">
    <path d="M 273.0176 369.6176 
L 274.803297 369.166044 
L 276.588994 368.714489 
L 278.374691 368.262933 
L 280.160388 367.811378 
L 281.946085 367.359822 
L 283.731782 366.908267 
L 285.517479 366.456711 
L 287.303176 366.005156 
L 289.088873 365.5536 
L 290.87457 365.102044 
L 292.660267 364.650489 
L 294.445964 364.198933 
L 296.231661 363.747378 
L 298.017358 363.295822 
L 299.803055 362.844267 
L 301.588752 362.392711 
L 303.374449 361.941156 
L 305.160146 361.4896 
L 306.945843 361.038044 
L 308.731539 360.586489 
L 310.517236 360.134933 
L 312.302933 359.683378 
L 314.08863 359.231822 
L 315.874327 358.780267 
L 317.660024 358.328711 
L 319.445721 357.877156 
L 321.231418 357.4256 
L 323.017115 356.974044 
L 324.802812 356.522489 
L 326.588509 356.070933 
L 328.374206 355.619378 
L 330.159903 355.167822 
L 331.9456 354.716267 
L 333.731297 354.264711 
L 335.516994 353.813156 
L 337.302691 353.3616 
L 339.088388 352.910044 
L 340.874085 352.458489 
L 342.659782 352.006933 
L 344.445479 351.555378 
L 346.231176 351.103822 
L 348.016873 350.652267 
L 349.80257 350.200711 
L 351.588267 349.749155 
L 353.373964 349.2976 
L 355.159661 348.846044 
L 356.945358 348.394489 
L 358.731055 347.942933 
L 360.516752 347.491378 
L 362.302449 347.039822 
L 364.088146 346.588267 
L 365.873843 346.136711 
L 367.65954 345.685155 
L 369.445236 345.2336 
L 371.230933 344.782044 
L 373.01663 344.330489 
L 374.802327 343.878933 
L 376.588024 343.427378 
L 378.373721 342.975822 
L 380.159418 342.524267 
L 381.945115 342.072711 
L 383.730812 341.621155 
L 385.516509 341.1696 
L 387.302206 340.718044 
L 389.087903 340.266489 
L 390.8736 339.814933 
L 392.659297 339.363378 
L 394.444994 338.911822 
L 396.230691 338.460267 
L 398.016388 338.008711 
L 399.802085 337.557155 
L 401.587782 337.1056 
L 403.373479 336.654044 
L 405.159176 336.202489 
L 406.944873 335.750933 
L 408.73057 335.299378 
L 410.516267 334.847822 
L 412.301964 334.396267 
L 414.087661 333.944711 
L 415.873358 333.493155 
L 417.659055 333.0416 
L 419.444752 332.590044 
L 421.230449 332.138489 
L 423.016146 331.686933 
L 424.801843 331.235378 
L 426.58754 330.783822 
L 428.373237 330.332267 
L 430.158933 329.880711 
L 431.94463 329.429155 
L 433.730327 328.9776 
L 435.516024 328.526044 
L 437.301721 328.074489 
L 439.087418 327.622933 
L 440.873115 327.171378 
L 442.658812 326.719822 
L 444.444509 326.268267 
L 446.230206 325.816711 
L 448.015903 325.365155 
L 449.8016 324.9136 
" clip-path="url(#pbada041907)" style="fill: none; stroke: #000000; stroke-linecap: square"/>
   </g>
   <g id="line2d_6">
    <path d="M 449.8016 324.9136 
L 449.8016 324.9136 
L 449.8016 324.9136 
L 449.8016 324.9136 
L 449.8016 324.9136 
L 449.8016 324.9136 
L 449.8016 324.9136 
L 449.8016 324.9136 
L 449.8016 324.9136 
L 449.8016 324.9136 
L 449.8016 324.9136 
L 449.8016 324.9136 
L 449.8016 324.9136 
L 449.8016 324.9136 
L 449.8016 324.9136 
L 449.8016 324.9136 
L 449.8016 324.9136 
L 449.8016 324.9136 
L 449.8016 324.9136 
L 449.8016 324.9136 
L 449.8016 324.9136 
L 449.8016 324.9136 
L 449.8016 324.9136 
L 449.8016 324.9136 
L 449.8016 324.9136 
L 449.8016 324.9136 
L 449.8016 324.9136 
L 449.8016 324.9136 
L 449.8016 324.9136 
L 449.8016 324.9136 
L 449.8016 324.9136 
L 449.8016 324.9136 
L 449.8016 324.9136 
L 449.8016 324.9136 
L 449.8016 324.9136 
L 449.8016 324.9136 
L 449.8016 324.9136 
L 449.8016 324.9136 
L 449.8016 324.9136 
L 449.8016 324.9136 
L 449.8016 324.9136 
L 449.8016 324.9136 
L 449.8016 324.9136 
L 449.8016 324.9136 
L 449.8016 324.9136 
L 449.8016 324.9136 
L 449.8016 324.9136 
L 449.8016 324.9136 
L 449.8016 324.9136 
L 449.8016 324.9136 
L 449.8016 324.9136 
L 449.8016 324.9136 
L 449.8016 324.9136 
L 449.8016 324.9136 
L 449.8016 324.9136 
L 449.8016 324.9136 
L 449.8016 324.9136 
L 449.8016 324.9136 
L 449.8016 324.9136 
L 449.8016 324.9136 
L 449.8016 324.9136 
L 449.8016 324.9136 
L 449.8016 324.9136 
L 449.8016 324.9136 
L 449.8016 324.9136 
L 449.8016 324.9136 
L 449.8016 324.9136 
L 449.8016 324.9136 
L 449.8016 324.9136 
L 449.8016 324.9136 
L 449.8016 324.9136 
L 449.8016 324.9136 
L 449.8016 324.9136 
L 449.8016 324.9136 
L 449.8016 324.9136 
L 449.8016 324.9136 
L 449.8016 324.9136 
L 449.8016 324.9136 
L 449.8016 324.9136 
L 449.8016 324.9136 
L 449.8016 324.9136 
L 449.8016 324.9136 
L 449.8016 324.9136 
L 449.8016 324.9136 
L 449.8016 324.9136 
L 449.8016 324.9136 
L 449.8016 324.9136 
L 449.8016 324.9136 
L 449.8016 324.9136 
L 449.8016 324.9136 
L 449.8016 324.9136 
L 449.8016 324.9136 
L 449.8016 324.9136 
L 449.8016 324.9136 
L 449.8016 324.9136 
L 449.8016 324.9136 
L 449.8016 324.9136 
L 449.8016 324.9136 
L 449.8016 324.9136 
L 449.8016 324.9136 
" clip-path="url(#pbada041907)" style="fill: none; stroke: #000000; stroke-linecap: square"/>
   </g>
   <g id="line2d_7">
    <path d="M 180.0768 341.048 
L 180.0768 341.048 
L 180.0768 341.048 
L 180.0768 341.048 
L 180.0768 341.048 
L 180.0768 341.048 
L 180.0768 341.048 
L 180.0768 341.048 
L 180.0768 341.048 
L 180.0768 341.048 
L 180.0768 341.048 
L 180.0768 341.048 
L 180.0768 341.048 
L 180.0768 341.048 
L 180.0768 341.048 
L 180.0768 341.048 
L 180.0768 341.048 
L 180.0768 341.048 
L 180.0768 341.048 
L 180.0768 341.048 
L 180.0768 341.048 
L 180.0768 341.048 
L 180.0768 341.048 
L 180.0768 341.048 
L 180.0768 341.048 
L 180.0768 341.048 
L 180.0768 341.048 
L 180.0768 341.048 
L 180.0768 341.048 
L 180.0768 341.048 
L 180.0768 341.048 
L 180.0768 341.048 
L 180.0768 341.048 
L 180.0768 341.048 
L 180.0768 341.048 
L 180.0768 341.048 
L 180.0768 341.048 
L 180.0768 341.048 
L 180.0768 341.048 
L 180.0768 341.048 
L 180.0768 341.048 
L 180.0768 341.048 
L 180.0768 341.048 
L 180.0768 341.048 
L 180.0768 341.048 
L 180.0768 341.048 
L 180.0768 341.048 
L 180.0768 341.048 
L 180.0768 341.048 
L 180.0768 341.048 
L 180.0768 341.048 
L 180.0768 341.048 
L 180.0768 341.048 
L 180.0768 341.048 
L 180.0768 341.048 
L 180.0768 341.048 
L 180.0768 341.048 
L 180.0768 341.048 
L 180.0768 341.048 
L 180.0768 341.048 
L 180.0768 341.048 
L 180.0768 341.048 
L 180.0768 341.048 
L 180.0768 341.048 
L 180.0768 341.048 
L 180.0768 341.048 
L 180.0768 341.048 
L 180.0768 341.048 
L 180.0768 341.048 
L 180.0768 341.048 
L 180.0768 341.048 
L 180.0768 341.048 
L 180.0768 341.048 
L 180.0768 341.048 
L 180.0768 341.048 
L 180.0768 341.048 
L 180.0768 341.048 
L 180.0768 341.048 
L 180.0768 341.048 
L 180.0768 341.048 
L 180.0768 341.048 
L 180.0768 341.048 
L 180.0768 341.048 
L 180.0768 341.048 
L 180.0768 341.048 
L 180.0768 341.048 
L 180.0768 341.048 
L 180.0768 341.048 
L 180.0768 341.048 
L 180.0768 341.048 
L 180.0768 341.048 
L 180.0768 341.048 
L 180.0768 341.048 
L 180.0768 341.048 
L 180.0768 341.048 
L 180.0768 341.048 
L 180.0768 341.048 
L 180.0768 341.048 
L 180.0768 341.048 
L 180.0768 341.048 
" clip-path="url(#pbada041907)" style="fill: none; stroke: #000000; stroke-linecap: square"/>
   </g>
   <g id="line2d_8">
    <path d="M 180.0768 341.048 
L 181.086642 342.316461 
L 182.096484 343.584921 
L 183.106327 344.853382 
L 184.116169 346.121842 
L 185.126012 347.390303 
L 186.135854 348.658764 
L 187.145697 349.927224 
L 188.155539 351.195685 
L 189.165381 352.464146 
L 190.175224 353.732606 
L 191.185066 355.001067 
L 192.194909 356.269527 
L 193.204751 357.537988 
L 194.214594 358.806449 
L 195.224436 360.074909 
L 196.234278 361.34337 
L 197.244121 362.61183 
L 198.253963 363.880291 
L 199.263806 365.148752 
L 200.273648 366.417212 
L 201.283491 367.685673 
L 202.293333 368.954133 
L 203.303175 370.222594 
L 204.313018 371.491055 
L 205.32286 372.759515 
L 206.332703 374.027976 
L 207.342545 375.296436 
L 208.352387 376.564897 
L 209.36223 377.833358 
L 210.372072 379.101818 
L 211.381915 380.370279 
L 212.391757 381.638739 
L 213.4016 382.9072 
L 214.411442 384.175661 
L 215.421284 385.444121 
L 216.431127 386.712582 
L 217.440969 387.981043 
L 218.450812 389.249503 
L 219.460654 390.517964 
L 220.470497 391.786424 
L 221.480339 393.054885 
L 222.490181 394.323346 
L 223.500024 395.591806 
L 224.509866 396.860267 
L 225.519709 398.128727 
L 226.529551 399.397188 
L 227.539394 400.665649 
L 228.549236 401.934109 
L 229.559078 403.20257 
L 230.568921 404.47103 
L 231.578763 405.739491 
L 232.588606 407.007952 
L 233.598448 408.276412 
L 234.608291 409.544873 
L 235.618133 410.813333 
L 236.627975 412.081794 
L 237.637818 413.350255 
L 238.64766 414.618715 
L 239.657503 415.887176 
L 240.667345 417.155636 
L 241.677188 418.424097 
L 242.68703 419.692558 
L 243.696872 420.961018 
L 244.706715 422.229479 
L 245.716557 423.497939 
L 246.7264 424.7664 
L 247.736242 426.034861 
L 248.746084 427.303321 
L 249.755927 428.571782 
L 250.765769 429.840243 
L 251.775612 431.108703 
L 252.785454 432.377164 
L 253.795297 433.645624 
L 254.805139 434.914085 
L 255.814981 436.182546 
L 256.824824 437.451006 
L 257.834666 438.719467 
L 258.844509 439.987927 
L 259.854351 441.256388 
L 260.864194 442.524849 
L 261.874036 443.793309 
L 262.883878 445.06177 
L 263.893721 446.33023 
L 264.903563 447.598691 
L 265.913406 448.867152 
L 266.923248 450.135612 
L 267.933091 451.404073 
L 268.942933 452.672533 
L 269.952775 453.940994 
L 270.962618 455.209455 
L 271.97246 456.477915 
L 272.982303 457.746376 
L 273.992145 459.014836 
L 275.001988 460.283297 
L 276.01183 461.551758 
L 277.021672 462.820218 
L 278.031515 464.088679 
L 279.041357 465.35714 
L 280.0512 466.6256 
" clip-path="url(#pbada041907)" style="fill: none; stroke: #000000; stroke-linecap: square"/>
   </g>
   <g id="line2d_9">
    <path d="M 280.0512 466.6256 
L 281.399709 466.77954 
L 282.748218 466.933479 
L 284.096727 467.087418 
L 285.445236 467.241358 
L 286.793745 467.395297 
L 288.142254 467.549236 
L 289.490763 467.703176 
L 290.839272 467.857115 
L 292.187781 468.011055 
L 293.536291 468.164994 
L 294.8848 468.318933 
L 296.233309 468.472873 
L 297.581818 468.626812 
L 298.930327 468.780752 
L 300.278836 468.934691 
L 301.627345 469.08863 
L 302.975854 469.24257 
L 304.324363 469.396509 
L 305.672872 469.550449 
L 307.021381 469.704388 
L 308.369891 469.858327 
L 309.7184 470.012267 
L 311.066909 470.166206 
L 312.415418 470.320146 
L 313.763927 470.474085 
L 315.112436 470.628024 
L 316.460945 470.781964 
L 317.809454 470.935903 
L 319.157963 471.089843 
L 320.506472 471.243782 
L 321.854982 471.397721 
L 323.203491 471.551661 
L 324.552 471.7056 
L 325.900509 471.85954 
L 327.249018 472.013479 
L 328.597527 472.167418 
L 329.946036 472.321358 
L 331.294545 472.475297 
L 332.643054 472.629236 
L 333.991563 472.783176 
L 335.340072 472.937115 
L 336.688582 473.091055 
L 338.037091 473.244994 
L 339.3856 473.398933 
L 340.734109 473.552873 
L 342.082618 473.706812 
L 343.431127 473.860752 
L 344.779636 474.014691 
L 346.128145 474.16863 
L 347.476654 474.32257 
L 348.825163 474.476509 
L 350.173672 474.630449 
L 351.522182 474.784388 
L 352.870691 474.938327 
L 354.2192 475.092267 
L 355.567709 475.246206 
L 356.916218 475.400146 
L 358.264727 475.554085 
L 359.613236 475.708024 
L 360.961745 475.861964 
L 362.310254 476.015903 
L 363.658763 476.169843 
L 365.007272 476.323782 
L 366.355782 476.477721 
L 367.704291 476.631661 
L 369.0528 476.7856 
L 370.401309 476.93954 
L 371.749818 477.093479 
L 373.098327 477.247418 
L 374.446836 477.401358 
L 375.795345 477.555297 
L 377.143854 477.709237 
L 378.492363 477.863176 
L 379.840872 478.017115 
L 381.189382 478.171055 
L 382.537891 478.324994 
L 383.8864 478.478933 
L 385.234909 478.632873 
L 386.583418 478.786812 
L 387.931927 478.940752 
L 389.280436 479.094691 
L 390.628945 479.24863 
L 391.977454 479.40257 
L 393.325963 479.556509 
L 394.674472 479.710449 
L 396.022982 479.864388 
L 397.371491 480.018327 
L 398.72 480.172267 
L 400.068509 480.326206 
L 401.417018 480.480146 
L 402.765527 480.634085 
L 404.114036 480.788024 
L 405.462545 480.941964 
L 406.811054 481.095903 
L 408.159563 481.249843 
L 409.508072 481.403782 
L 410.856582 481.557721 
L 412.205091 481.711661 
L 413.5536 481.8656 
" clip-path="url(#pbada041907)" style="fill: none; stroke: #000000; stroke-linecap: square"/>
   </g>
   <g id="line2d_10">
    <path d="M 413.5536 481.8656 
L 412.652541 480.894756 
L 411.751483 479.923911 
L 410.850424 478.953067 
L 409.949365 477.982222 
L 409.048307 477.011378 
L 408.147248 476.040533 
L 407.24619 475.069689 
L 406.345131 474.098845 
L 405.444072 473.128 
L 404.543014 472.157156 
L 403.641955 471.186311 
L 402.740897 470.215467 
L 401.839838 469.244622 
L 400.93878 468.273778 
L 400.037721 467.302933 
L 399.136662 466.332089 
L 398.235604 465.361245 
L 397.334545 464.3904 
L 396.433487 463.419556 
L 395.532428 462.448711 
L 394.631369 461.477867 
L 393.730311 460.507022 
L 392.829252 459.536178 
L 391.928194 458.565333 
L 391.027135 457.594489 
L 390.126077 456.623645 
L 389.225018 455.6528 
L 388.323959 454.681956 
L 387.422901 453.711111 
L 386.521842 452.740267 
L 385.620784 451.769422 
L 384.719725 450.798578 
L 383.818666 449.827733 
L 382.917608 448.856889 
L 382.016549 447.886045 
L 381.115491 446.9152 
L 380.214432 445.944356 
L 379.313373 444.973511 
L 378.412315 444.002667 
L 377.511256 443.031822 
L 376.610198 442.060978 
L 375.709139 441.090133 
L 374.808081 440.119289 
L 373.907022 439.148445 
L 373.005963 438.1776 
L 372.104905 437.206756 
L 371.203846 436.235911 
L 370.302788 435.265067 
L 369.401729 434.294222 
L 368.50067 433.323378 
L 367.599612 432.352533 
L 366.698553 431.381689 
L 365.797495 430.410845 
L 364.896436 429.44 
L 363.995377 428.469156 
L 363.094319 427.498311 
L 362.19326 426.527467 
L 361.292202 425.556622 
L 360.391143 424.585778 
L 359.490085 423.614933 
L 358.589026 422.644089 
L 357.687967 421.673245 
L 356.786909 420.7024 
L 355.88585 419.731556 
L 354.984792 418.760711 
L 354.083733 417.789867 
L 353.182674 416.819022 
L 352.281616 415.848178 
L 351.380557 414.877333 
L 350.479499 413.906489 
L 349.57844 412.935645 
L 348.677382 411.9648 
L 347.776323 410.993956 
L 346.875264 410.023111 
L 345.974206 409.052267 
L 345.073147 408.081422 
L 344.172089 407.110578 
L 343.27103 406.139733 
L 342.369971 405.168889 
L 341.468913 404.198045 
L 340.567854 403.2272 
L 339.666796 402.256356 
L 338.765737 401.285511 
L 337.864678 400.314667 
L 336.96362 399.343822 
L 336.062561 398.372978 
L 335.161503 397.402133 
L 334.260444 396.431289 
L 333.359386 395.460445 
L 332.458327 394.4896 
L 331.557268 393.518756 
L 330.65621 392.547911 
L 329.755151 391.577067 
L 328.854093 390.606222 
L 327.953034 389.635378 
L 327.051975 388.664533 
L 326.150917 387.693689 
L 325.249858 386.722845 
L 324.3488 385.752 
" clip-path="url(#pbada041907)" style="fill: none; stroke: #000000; stroke-linecap: square"/>
   </g>
   <g id="line2d_11">
    <path d="M 324.3488 385.752 
L 322.891507 385.300445 
L 321.434214 384.848889 
L 319.976921 384.397333 
L 318.519628 383.945778 
L 317.062335 383.494222 
L 315.605042 383.042667 
L 314.147749 382.591111 
L 312.690456 382.139556 
L 311.233163 381.688 
L 309.77587 381.236445 
L 308.318577 380.784889 
L 306.861285 380.333333 
L 305.403992 379.881778 
L 303.946699 379.430222 
L 302.489406 378.978667 
L 301.032113 378.527111 
L 299.57482 378.075556 
L 298.117527 377.624 
L 296.660234 377.172445 
L 295.202941 376.720889 
L 293.745648 376.269333 
L 292.288355 375.817778 
L 290.831062 375.366222 
L 289.373769 374.914667 
L 287.916476 374.463111 
L 286.459184 374.011556 
L 285.001891 373.56 
L 283.544598 373.108445 
L 282.087305 372.656889 
L 280.630012 372.205333 
L 279.172719 371.753778 
L 277.715426 371.302222 
L 276.258133 370.850667 
L 274.80084 370.399111 
L 273.343547 369.947556 
L 271.886254 369.496 
L 270.428961 369.044445 
L 268.971668 368.592889 
L 267.514375 368.141333 
L 266.057082 367.689778 
L 264.59979 367.238222 
L 263.142497 366.786667 
L 261.685204 366.335111 
L 260.227911 365.883556 
L 258.770618 365.432 
L 257.313325 364.980445 
L 255.856032 364.528889 
L 254.398739 364.077333 
L 252.941446 363.625778 
L 251.484153 363.174222 
L 250.02686 362.722667 
L 248.569567 362.271111 
L 247.112274 361.819556 
L 245.654981 361.368 
L 244.197689 360.916445 
L 242.740396 360.464889 
L 241.283103 360.013333 
L 239.82581 359.561778 
L 238.368517 359.110222 
L 236.911224 358.658667 
L 235.453931 358.207111 
L 233.996638 357.755556 
L 232.539345 357.304 
L 231.082052 356.852445 
L 229.624759 356.400889 
L 228.167466 355.949333 
L 226.710173 355.497778 
L 225.25288 355.046222 
L 223.795588 354.594667 
L 222.338295 354.143111 
L 220.881002 353.691556 
L 219.423709 353.24 
L 217.966416 352.788445 
L 216.509123 352.336889 
L 215.05183 351.885333 
L 213.594537 351.433778 
L 212.137244 350.982222 
L 210.679951 350.530667 
L 209.222658 350.079111 
L 207.765365 349.627556 
L 206.308072 349.176 
L 204.850779 348.724445 
L 203.393486 348.272889 
L 201.936194 347.821333 
L 200.478901 347.369778 
L 199.021608 346.918222 
L 197.564315 346.466667 
L 196.107022 346.015111 
L 194.649729 345.563556 
L 193.192436 345.112 
L 191.735143 344.660444 
L 190.27785 344.208889 
L 188.820557 343.757333 
L 187.363264 343.305778 
L 185.905971 342.854222 
L 184.448678 342.402667 
L 182.991385 341.951111 
L 181.534093 341.499556 
L 180.0768 341.048 
" clip-path="url(#pbada041907)" style="fill: none; stroke: #000000; stroke-linecap: square"/>
   </g>
   <g id="line2d_12">
    <path d="M 180.0768 341.048 
L 180.0768 341.048 
L 180.0768 341.048 
L 180.0768 341.048 
L 180.0768 341.048 
L 180.0768 341.048 
L 180.0768 341.048 
L 180.0768 341.048 
L 180.0768 341.048 
L 180.0768 341.048 
L 180.0768 341.048 
L 180.0768 341.048 
L 180.0768 341.048 
L 180.0768 341.048 
L 180.0768 341.048 
L 180.0768 341.048 
L 180.0768 341.048 
L 180.0768 341.048 
L 180.0768 341.048 
L 180.0768 341.048 
L 180.0768 341.048 
L 180.0768 341.048 
L 180.0768 341.048 
L 180.0768 341.048 
L 180.0768 341.048 
L 180.0768 341.048 
L 180.0768 341.048 
L 180.0768 341.048 
L 180.0768 341.048 
L 180.0768 341.048 
L 180.0768 341.048 
L 180.0768 341.048 
L 180.0768 341.048 
L 180.0768 341.048 
L 180.0768 341.048 
L 180.0768 341.048 
L 180.0768 341.048 
L 180.0768 341.048 
L 180.0768 341.048 
L 180.0768 341.048 
L 180.0768 341.048 
L 180.0768 341.048 
L 180.0768 341.048 
L 180.0768 341.048 
L 180.0768 341.048 
L 180.0768 341.048 
L 180.0768 341.048 
L 180.0768 341.048 
L 180.0768 341.048 
L 180.0768 341.048 
L 180.0768 341.048 
L 180.0768 341.048 
L 180.0768 341.048 
L 180.0768 341.048 
L 180.0768 341.048 
L 180.0768 341.048 
L 180.0768 341.048 
L 180.0768 341.048 
L 180.0768 341.048 
L 180.0768 341.048 
L 180.0768 341.048 
L 180.0768 341.048 
L 180.0768 341.048 
L 180.0768 341.048 
L 180.0768 341.048 
L 180.0768 341.048 
L 180.0768 341.048 
L 180.0768 341.048 
L 180.0768 341.048 
L 180.0768 341.048 
L 180.0768 341.048 
L 180.0768 341.048 
L 180.0768 341.048 
L 180.0768 341.048 
L 180.0768 341.048 
L 180.0768 341.048 
L 180.0768 341.048 
L 180.0768 341.048 
L 180.0768 341.048 
L 180.0768 341.048 
L 180.0768 341.048 
L 180.0768 341.048 
L 180.0768 341.048 
L 180.0768 341.048 
L 180.0768 341.048 
L 180.0768 341.048 
L 180.0768 341.048 
L 180.0768 341.048 
L 180.0768 341.048 
L 180.0768 341.048 
L 180.0768 341.048 
L 180.0768 341.048 
L 180.0768 341.048 
L 180.0768 341.048 
L 180.0768 341.048 
L 180.0768 341.048 
L 180.0768 341.048 
L 180.0768 341.048 
L 180.0768 341.048 
L 180.0768 341.048 
" clip-path="url(#pbada041907)" style="fill: none; stroke: #000000; stroke-linecap: square"/>
   </g>
   <g id="line2d_13">
    <path d="M 126.2016 94.3472 
L 126.2016 94.3472 
L 126.2016 94.3472 
L 126.2016 94.3472 
L 126.2016 94.3472 
L 126.2016 94.3472 
L 126.2016 94.3472 
L 126.2016 94.3472 
L 126.2016 94.3472 
L 126.2016 94.3472 
L 126.2016 94.3472 
L 126.2016 94.3472 
L 126.2016 94.3472 
L 126.2016 94.3472 
L 126.2016 94.3472 
L 126.2016 94.3472 
L 126.2016 94.3472 
L 126.2016 94.3472 
L 126.2016 94.3472 
L 126.2016 94.3472 
L 126.2016 94.3472 
L 126.2016 94.3472 
L 126.2016 94.3472 
L 126.2016 94.3472 
L 126.2016 94.3472 
L 126.2016 94.3472 
L 126.2016 94.3472 
L 126.2016 94.3472 
L 126.2016 94.3472 
L 126.2016 94.3472 
L 126.2016 94.3472 
L 126.2016 94.3472 
L 126.2016 94.3472 
L 126.2016 94.3472 
L 126.2016 94.3472 
L 126.2016 94.3472 
L 126.2016 94.3472 
L 126.2016 94.3472 
L 126.2016 94.3472 
L 126.2016 94.3472 
L 126.2016 94.3472 
L 126.2016 94.3472 
L 126.2016 94.3472 
L 126.2016 94.3472 
L 126.2016 94.3472 
L 126.2016 94.3472 
L 126.2016 94.3472 
L 126.2016 94.3472 
L 126.2016 94.3472 
L 126.2016 94.3472 
L 126.2016 94.3472 
L 126.2016 94.3472 
L 126.2016 94.3472 
L 126.2016 94.3472 
L 126.2016 94.3472 
L 126.2016 94.3472 
L 126.2016 94.3472 
L 126.2016 94.3472 
L 126.2016 94.3472 
L 126.2016 94.3472 
L 126.2016 94.3472 
L 126.2016 94.3472 
L 126.2016 94.3472 
L 126.2016 94.3472 
L 126.2016 94.3472 
L 126.2016 94.3472 
L 126.2016 94.3472 
L 126.2016 94.3472 
L 126.2016 94.3472 
L 126.2016 94.3472 
L 126.2016 94.3472 
L 126.2016 94.3472 
L 126.2016 94.3472 
L 126.2016 94.3472 
L 126.2016 94.3472 
L 126.2016 94.3472 
L 126.2016 94.3472 
L 126.2016 94.3472 
L 126.2016 94.3472 
L 126.2016 94.3472 
L 126.2016 94.3472 
L 126.2016 94.3472 
L 126.2016 94.3472 
L 126.2016 94.3472 
L 126.2016 94.3472 
L 126.2016 94.3472 
L 126.2016 94.3472 
L 126.2016 94.3472 
L 126.2016 94.3472 
L 126.2016 94.3472 
L 126.2016 94.3472 
L 126.2016 94.3472 
L 126.2016 94.3472 
L 126.2016 94.3472 
L 126.2016 94.3472 
L 126.2016 94.3472 
L 126.2016 94.3472 
L 126.2016 94.3472 
L 126.2016 94.3472 
L 126.2016 94.3472 
" clip-path="url(#pbada041907)" style="fill: none; stroke: #000000; stroke-linecap: square"/>
   </g>
   <g id="line2d_14">
    <path d="M 126.2016 94.3472 
L 127.125236 95.059426 
L 128.048872 95.771653 
L 128.972509 96.483879 
L 129.896145 97.196105 
L 130.819782 97.908332 
L 131.743418 98.620558 
L 132.667054 99.332784 
L 133.590691 100.04501 
L 134.514327 100.757237 
L 135.437963 101.469463 
L 136.3616 102.181689 
L 137.285236 102.893915 
L 138.208872 103.606142 
L 139.132509 104.318368 
L 140.056145 105.030594 
L 140.979782 105.74282 
L 141.903418 106.455047 
L 142.827054 107.167273 
L 143.750691 107.879499 
L 144.674327 108.591725 
L 145.597963 109.303952 
L 146.5216 110.016178 
L 147.445236 110.728404 
L 148.368872 111.440631 
L 149.292509 112.152857 
L 150.216145 112.865083 
L 151.139782 113.577309 
L 152.063418 114.289536 
L 152.987054 115.001762 
L 153.910691 115.713988 
L 154.834327 116.426214 
L 155.757963 117.138441 
L 156.6816 117.850667 
L 157.605236 118.562893 
L 158.528872 119.275119 
L 159.452509 119.987346 
L 160.376145 120.699572 
L 161.299782 121.411798 
L 162.223418 122.124024 
L 163.147054 122.836251 
L 164.070691 123.548477 
L 164.994327 124.260703 
L 165.917963 124.97293 
L 166.8416 125.685156 
L 167.765236 126.397382 
L 168.688872 127.109608 
L 169.612509 127.821835 
L 170.536145 128.534061 
L 171.459782 129.246287 
L 172.383418 129.958513 
L 173.307054 130.67074 
L 174.230691 131.382966 
L 175.154327 132.095192 
L 176.077963 132.807418 
L 177.0016 133.519645 
L 177.925236 134.231871 
L 178.848872 134.944097 
L 179.772509 135.656323 
L 180.696145 136.36855 
L 181.619782 137.080776 
L 182.543418 137.793002 
L 183.467054 138.505229 
L 184.390691 139.217455 
L 185.314327 139.929681 
L 186.237963 140.641907 
L 187.1616 141.354134 
L 188.085236 142.06636 
L 189.008872 142.778586 
L 189.932509 143.490812 
L 190.856145 144.203039 
L 191.779782 144.915265 
L 192.703418 145.627491 
L 193.627054 146.339717 
L 194.550691 147.051944 
L 195.474327 147.76417 
L 196.397963 148.476396 
L 197.3216 149.188622 
L 198.245236 149.900849 
L 199.168872 150.613075 
L 200.092509 151.325301 
L 201.016145 152.037528 
L 201.939782 152.749754 
L 202.863418 153.46198 
L 203.787054 154.174206 
L 204.710691 154.886433 
L 205.634327 155.598659 
L 206.557963 156.310885 
L 207.4816 157.023111 
L 208.405236 157.735338 
L 209.328873 158.447564 
L 210.252509 159.15979 
L 211.176145 159.872016 
L 212.099782 160.584243 
L 213.023418 161.296469 
L 213.947054 162.008695 
L 214.870691 162.720921 
L 215.794327 163.433148 
L 216.717963 164.145374 
L 217.6416 164.8576 
" clip-path="url(#pbada041907)" style="fill: none; stroke: #000000; stroke-linecap: square"/>
   </g>
   <g id="line2d_15">
    <path d="M 217.6416 164.8576 
L 218.688388 165.212687 
L 219.735176 165.567774 
L 220.781963 165.922861 
L 221.828751 166.277948 
L 222.875539 166.633035 
L 223.922327 166.988121 
L 224.969115 167.343208 
L 226.015903 167.698295 
L 227.062691 168.053382 
L 228.109479 168.408469 
L 229.156266 168.763556 
L 230.203054 169.118643 
L 231.249842 169.47373 
L 232.29663 169.828816 
L 233.343418 170.183903 
L 234.390206 170.53899 
L 235.436994 170.894077 
L 236.483782 171.249164 
L 237.530569 171.604251 
L 238.577357 171.959338 
L 239.624145 172.314424 
L 240.670933 172.669511 
L 241.717721 173.024598 
L 242.764509 173.379685 
L 243.811297 173.734772 
L 244.858085 174.089859 
L 245.904873 174.444946 
L 246.95166 174.800033 
L 247.998448 175.155119 
L 249.045236 175.510206 
L 250.092024 175.865293 
L 251.138812 176.22038 
L 252.1856 176.575467 
L 253.232388 176.930554 
L 254.279176 177.285641 
L 255.325963 177.640728 
L 256.372751 177.995814 
L 257.419539 178.350901 
L 258.466327 178.705988 
L 259.513115 179.061075 
L 260.559903 179.416162 
L 261.606691 179.771249 
L 262.653479 180.126336 
L 263.700266 180.481422 
L 264.747054 180.836509 
L 265.793842 181.191596 
L 266.84063 181.546683 
L 267.887418 181.90177 
L 268.934206 182.256857 
L 269.980994 182.611944 
L 271.027782 182.967031 
L 272.07457 183.322117 
L 273.121357 183.677204 
L 274.168145 184.032291 
L 275.214933 184.387378 
L 276.261721 184.742465 
L 277.308509 185.097552 
L 278.355297 185.452639 
L 279.402085 185.807726 
L 280.448873 186.162812 
L 281.49566 186.517899 
L 282.542448 186.872986 
L 283.589236 187.228073 
L 284.636024 187.58316 
L 285.682812 187.938247 
L 286.7296 188.293334 
L 287.776388 188.64842 
L 288.823176 189.003507 
L 289.869963 189.358594 
L 290.916751 189.713681 
L 291.963539 190.068768 
L 293.010327 190.423855 
L 294.057115 190.778942 
L 295.103903 191.134029 
L 296.150691 191.489115 
L 297.197479 191.844202 
L 298.244266 192.199289 
L 299.291054 192.554376 
L 300.337842 192.909463 
L 301.38463 193.26455 
L 302.431418 193.619637 
L 303.478206 193.974723 
L 304.524994 194.32981 
L 305.571782 194.684897 
L 306.61857 195.039984 
L 307.665357 195.395071 
L 308.712145 195.750158 
L 309.758933 196.105245 
L 310.805721 196.460332 
L 311.852509 196.815418 
L 312.899297 197.170505 
L 313.946085 197.525592 
L 314.992873 197.880679 
L 316.03966 198.235766 
L 317.086448 198.590853 
L 318.133236 198.94594 
L 319.180024 199.301027 
L 320.226812 199.656113 
L 321.2736 200.0112 
" clip-path="url(#pbada041907)" style="fill: none; stroke: #000000; stroke-linecap: square"/>
   </g>
   <g id="line2d_16">
    <path d="M 321.2736 200.0112 
L 322.340913 199.333867 
L 323.408226 198.656534 
L 324.475539 197.9792 
L 325.542852 197.301867 
L 326.610166 196.624534 
L 327.677479 195.9472 
L 328.744792 195.269867 
L 329.812105 194.592534 
L 330.879418 193.9152 
L 331.946731 193.237867 
L 333.014044 192.560534 
L 334.081357 191.8832 
L 335.148671 191.205867 
L 336.215984 190.528534 
L 337.283297 189.8512 
L 338.35061 189.173867 
L 339.417923 188.496534 
L 340.485236 187.8192 
L 341.552549 187.141867 
L 342.619862 186.464534 
L 343.687176 185.7872 
L 344.754489 185.109867 
L 345.821802 184.432534 
L 346.889115 183.7552 
L 347.956428 183.077867 
L 349.023741 182.400534 
L 350.091054 181.7232 
L 351.158368 181.045867 
L 352.225681 180.368534 
L 353.292994 179.6912 
L 354.360307 179.013867 
L 355.42762 178.336534 
L 356.494933 177.6592 
L 357.562246 176.981867 
L 358.629559 176.304534 
L 359.696873 175.6272 
L 360.764186 174.949867 
L 361.831499 174.272534 
L 362.898812 173.5952 
L 363.966125 172.917867 
L 365.033438 172.240534 
L 366.100751 171.5632 
L 367.168065 170.885867 
L 368.235378 170.208534 
L 369.302691 169.5312 
L 370.370004 168.853867 
L 371.437317 168.176534 
L 372.50463 167.4992 
L 373.571943 166.821867 
L 374.639256 166.144534 
L 375.70657 165.4672 
L 376.773883 164.789867 
L 377.841196 164.112534 
L 378.908509 163.4352 
L 379.975822 162.757867 
L 381.043135 162.080534 
L 382.110448 161.4032 
L 383.177762 160.725867 
L 384.245075 160.048534 
L 385.312388 159.3712 
L 386.379701 158.693867 
L 387.447014 158.016534 
L 388.514327 157.3392 
L 389.58164 156.661867 
L 390.648953 155.984534 
L 391.716267 155.3072 
L 392.78358 154.629867 
L 393.850893 153.952534 
L 394.918206 153.2752 
L 395.985519 152.597867 
L 397.052832 151.920534 
L 398.120145 151.2432 
L 399.187458 150.565867 
L 400.254772 149.888534 
L 401.322085 149.2112 
L 402.389398 148.533867 
L 403.456711 147.856534 
L 404.524024 147.1792 
L 405.591337 146.501867 
L 406.65865 145.824534 
L 407.725964 145.1472 
L 408.793277 144.469867 
L 409.86059 143.792534 
L 410.927903 143.1152 
L 411.995216 142.437867 
L 413.062529 141.760534 
L 414.129842 141.0832 
L 415.197155 140.405867 
L 416.264469 139.728534 
L 417.331782 139.0512 
L 418.399095 138.373867 
L 419.466408 137.696534 
L 420.533721 137.0192 
L 421.601034 136.341867 
L 422.668347 135.664534 
L 423.735661 134.9872 
L 424.802974 134.309867 
L 425.870287 133.632534 
L 426.9376 132.9552 
" clip-path="url(#pbada041907)" style="fill: none; stroke: #000000; stroke-linecap: square"/>
   </g>
   <g id="line2d_17">
    <path d="M 426.9376 132.9552 
L 423.899863 132.56522 
L 420.862125 132.175241 
L 417.824388 131.785261 
L 414.78665 131.395281 
L 411.748913 131.005301 
L 408.711176 130.615321 
L 405.673438 130.225342 
L 402.635701 129.835362 
L 399.597964 129.445382 
L 396.560226 129.055402 
L 393.522489 128.665422 
L 390.484751 128.275443 
L 387.447014 127.885463 
L 384.409277 127.495483 
L 381.371539 127.105503 
L 378.333802 126.715523 
L 375.296065 126.325544 
L 372.258327 125.935564 
L 369.22059 125.545584 
L 366.182852 125.155604 
L 363.145115 124.765624 
L 360.107378 124.375645 
L 357.06964 123.985665 
L 354.031903 123.595685 
L 350.994166 123.205705 
L 347.956428 122.815725 
L 344.918691 122.425746 
L 341.880953 122.035766 
L 338.843216 121.645786 
L 335.805479 121.255806 
L 332.767741 120.865826 
L 329.730004 120.475847 
L 326.692267 120.085867 
L 323.654529 119.695887 
L 320.616792 119.305907 
L 317.579054 118.915927 
L 314.541317 118.525948 
L 311.50358 118.135968 
L 308.465842 117.745988 
L 305.428105 117.356008 
L 302.390368 116.966028 
L 299.35263 116.576049 
L 296.314893 116.186069 
L 293.277155 115.796089 
L 290.239418 115.406109 
L 287.201681 115.016129 
L 284.163943 114.62615 
L 281.126206 114.23617 
L 278.088469 113.84619 
L 275.050731 113.45621 
L 272.012994 113.066231 
L 268.975256 112.676251 
L 265.937519 112.286271 
L 262.899782 111.896291 
L 259.862044 111.506311 
L 256.824307 111.116332 
L 253.78657 110.726352 
L 250.748832 110.336372 
L 247.711095 109.946392 
L 244.673357 109.556412 
L 241.63562 109.166433 
L 238.597883 108.776453 
L 235.560145 108.386473 
L 232.522408 107.996493 
L 229.48467 107.606513 
L 226.446933 107.216534 
L 223.409196 106.826554 
L 220.371458 106.436574 
L 217.333721 106.046594 
L 214.295984 105.656614 
L 211.258246 105.266635 
L 208.220509 104.876655 
L 205.182771 104.486675 
L 202.145034 104.096695 
L 199.107297 103.706715 
L 196.069559 103.316736 
L 193.031822 102.926756 
L 189.994085 102.536776 
L 186.956347 102.146796 
L 183.91861 101.756816 
L 180.880872 101.366837 
L 177.843135 100.976857 
L 174.805398 100.586877 
L 171.76766 100.196897 
L 168.729923 99.806917 
L 165.692186 99.416938 
L 162.654448 99.026958 
L 159.616711 98.636978 
L 156.578973 98.246998 
L 153.541236 97.857018 
L 150.503499 97.467039 
L 147.465761 97.077059 
L 144.428024 96.687079 
L 141.390287 96.297099 
L 138.352549 95.907119 
L 135.314812 95.51714 
L 132.277074 95.12716 
L 129.239337 94.73718 
L 126.2016 94.3472 
" clip-path="url(#pbada041907)" style="fill: none; stroke: #000000; stroke-linecap: square"/>
   </g>
   <g id="line2d_18">
    <path d="M 126.2016 94.3472 
L 126.2016 94.3472 
L 126.2016 94.3472 
L 126.2016 94.3472 
L 126.2016 94.3472 
L 126.2016 94.3472 
L 126.2016 94.3472 
L 126.2016 94.3472 
L 126.2016 94.3472 
L 126.2016 94.3472 
L 126.2016 94.3472 
L 126.2016 94.3472 
L 126.2016 94.3472 
L 126.2016 94.3472 
L 126.2016 94.3472 
L 126.2016 94.3472 
L 126.2016 94.3472 
L 126.2016 94.3472 
L 126.2016 94.3472 
L 126.2016 94.3472 
L 126.2016 94.3472 
L 126.2016 94.3472 
L 126.2016 94.3472 
L 126.2016 94.3472 
L 126.2016 94.3472 
L 126.2016 94.3472 
L 126.2016 94.3472 
L 126.2016 94.3472 
L 126.2016 94.3472 
L 126.2016 94.3472 
L 126.2016 94.3472 
L 126.2016 94.3472 
L 126.2016 94.3472 
L 126.2016 94.3472 
L 126.2016 94.3472 
L 126.2016 94.3472 
L 126.2016 94.3472 
L 126.2016 94.3472 
L 126.2016 94.3472 
L 126.2016 94.3472 
L 126.2016 94.3472 
L 126.2016 94.3472 
L 126.2016 94.3472 
L 126.2016 94.3472 
L 126.2016 94.3472 
L 126.2016 94.3472 
L 126.2016 94.3472 
L 126.2016 94.3472 
L 126.2016 94.3472 
L 126.2016 94.3472 
L 126.2016 94.3472 
L 126.2016 94.3472 
L 126.2016 94.3472 
L 126.2016 94.3472 
L 126.2016 94.3472 
L 126.2016 94.3472 
L 126.2016 94.3472 
L 126.2016 94.3472 
L 126.2016 94.3472 
L 126.2016 94.3472 
L 126.2016 94.3472 
L 126.2016 94.3472 
L 126.2016 94.3472 
L 126.2016 94.3472 
L 126.2016 94.3472 
L 126.2016 94.3472 
L 126.2016 94.3472 
L 126.2016 94.3472 
L 126.2016 94.3472 
L 126.2016 94.3472 
L 126.2016 94.3472 
L 126.2016 94.3472 
L 126.2016 94.3472 
L 126.2016 94.3472 
L 126.2016 94.3472 
L 126.2016 94.3472 
L 126.2016 94.3472 
L 126.2016 94.3472 
L 126.2016 94.3472 
L 126.2016 94.3472 
L 126.2016 94.3472 
L 126.2016 94.3472 
L 126.2016 94.3472 
L 126.2016 94.3472 
L 126.2016 94.3472 
L 126.2016 94.3472 
L 126.2016 94.3472 
L 126.2016 94.3472 
L 126.2016 94.3472 
L 126.2016 94.3472 
L 126.2016 94.3472 
L 126.2016 94.3472 
L 126.2016 94.3472 
L 126.2016 94.3472 
L 126.2016 94.3472 
L 126.2016 94.3472 
L 126.2016 94.3472 
L 126.2016 94.3472 
L 126.2016 94.3472 
L 126.2016 94.3472 
" clip-path="url(#pbada041907)" style="fill: none; stroke: #000000; stroke-linecap: square"/>
   </g>
   <g id="patch_3">
    <path d="M 0 576 
L 0 0 
" style="fill: none; stroke: #000000; stroke-width: 0.8; stroke-linejoin: miter; stroke-linecap: square"/>
   </g>
   <g id="patch_4">
    <path d="M 576 576 
L 576 0 
" style="fill: none; stroke: #000000; stroke-width: 0.8; stroke-linejoin: miter; stroke-linecap: square"/>
   </g>
   <g id="patch_5">
    <path d="M 0 576 
L 576 576 
" style="fill: none; stroke: #000000; stroke-width: 0.8; stroke-linejoin: miter; stroke-linecap: square"/>
   </g>
   <g id="patch_6">
    <path d="M 0 0 
L 576 0 
" style="fill: none; stroke: #000000; stroke-width: 0.8; stroke-linejoin: miter; stroke-linecap: square"/>
   </g>
  </g>
 </g>
 <defs>
  <clipPath id="pbada041907">
   <rect x="0" y="0" width="576" height="576"/>
  </clipPath>
 </defs>
</svg>
