<?xml version="1.0" encoding="utf-8" standalone="no"?>
<!DOCTYPE svg PUBLIC "-//W3C//DTD SVG 1.1//EN"
  "http://www.w3.org/Graphics/SVG/1.1/DTD/svg11.dtd">
<svg xmlns:xlink="http://www.w3.org/1999/xlink" width="576pt" height="576pt" viewBox="0 0 576 576" xmlns="http://www.w3.org/2000/svg" version="1.1">
 <metadata>
  <rdf:RDF xmlns:dc="http://purl.org/dc/elements/1.1/" xmlns:cc="http://creativecommons.org/ns#" xmlns:rdf="http://www.w3.org/1999/02/22-rdf-syntax-ns#">
   <cc:Work>
    <dc:type rdf:resource="http://purl.org/dc/dcmitype/StillImage"/>
    <dc:date>2024-04-16T19:21:00.115002</dc:date>
    <dc:format>image/svg+xml</dc:format>
    <dc:creator>
     <cc:Agent>
      <dc:title>Matplotlib v3.8.3, https://matplotlib.org/</dc:title>
     </cc:Agent>
    </dc:creator>
   </cc:Work>
  </rdf:RDF>
 </metadata>
 <defs>
  <style type="text/css">*{stroke-linejoin: round; stroke-linecap: butt}</style>
 </defs>
 <g id="figure_1">
  <g id="patch_1">
   <path d="M 0 576 
L 576 576 
L 576 0 
L 0 0 
z
" style="fill: #ffffff"/>
  </g>
  <g id="axes_1">
   <g id="patch_2">
    <path d="M 0 576 
L 576 576 
L 576 0 
L 0 0 
z
" style="fill: #ffffff"/>
   </g>
   <g id="matplotlib.axis_1"/>
   <g id="matplotlib.axis_2"/>
   <g id="line2d_1">
    <path d="M 105.5232 575.9424 
L 71.1936 454.0608 
L 229.4784 362.592 
L 282.3552 531.2448 
L 105.5232 575.9424 
" clip-path="url(#pcc085b5d74)" style="fill: none; stroke: #e9a930; stroke-linecap: square"/>
   </g>
   <g id="line2d_2">
    <path d="M 282.3584 531.2368 
L 282.3584 531.2368 
L 282.3584 531.2368 
L 282.3584 531.2368 
L 282.3584 531.2368 
L 282.3584 531.2368 
L 282.3584 531.2368 
L 282.3584 531.2368 
L 282.3584 531.2368 
L 282.3584 531.2368 
L 282.3584 531.2368 
L 282.3584 531.2368 
L 282.3584 531.2368 
L 282.3584 531.2368 
L 282.3584 531.2368 
L 282.3584 531.2368 
L 282.3584 531.2368 
L 282.3584 531.2368 
L 282.3584 531.2368 
L 282.3584 531.2368 
L 282.3584 531.2368 
L 282.3584 531.2368 
L 282.3584 531.2368 
L 282.3584 531.2368 
L 282.3584 531.2368 
L 282.3584 531.2368 
L 282.3584 531.2368 
L 282.3584 531.2368 
L 282.3584 531.2368 
L 282.3584 531.2368 
L 282.3584 531.2368 
L 282.3584 531.2368 
L 282.3584 531.2368 
L 282.3584 531.2368 
L 282.3584 531.2368 
L 282.3584 531.2368 
L 282.3584 531.2368 
L 282.3584 531.2368 
L 282.3584 531.2368 
L 282.3584 531.2368 
L 282.3584 531.2368 
L 282.3584 531.2368 
L 282.3584 531.2368 
L 282.3584 531.2368 
L 282.3584 531.2368 
L 282.3584 531.2368 
L 282.3584 531.2368 
L 282.3584 531.2368 
L 282.3584 531.2368 
L 282.3584 531.2368 
L 282.3584 531.2368 
L 282.3584 531.2368 
L 282.3584 531.2368 
L 282.3584 531.2368 
L 282.3584 531.2368 
L 282.3584 531.2368 
L 282.3584 531.2368 
L 282.3584 531.2368 
L 282.3584 531.2368 
L 282.3584 531.2368 
L 282.3584 531.2368 
L 282.3584 531.2368 
L 282.3584 531.2368 
L 282.3584 531.2368 
L 282.3584 531.2368 
L 282.3584 531.2368 
L 282.3584 531.2368 
L 282.3584 531.2368 
L 282.3584 531.2368 
L 282.3584 531.2368 
L 282.3584 531.2368 
L 282.3584 531.2368 
L 282.3584 531.2368 
L 282.3584 531.2368 
L 282.3584 531.2368 
L 282.3584 531.2368 
L 282.3584 531.2368 
L 282.3584 531.2368 
L 282.3584 531.2368 
L 282.3584 531.2368 
L 282.3584 531.2368 
L 282.3584 531.2368 
L 282.3584 531.2368 
L 282.3584 531.2368 
L 282.3584 531.2368 
L 282.3584 531.2368 
L 282.3584 531.2368 
L 282.3584 531.2368 
L 282.3584 531.2368 
L 282.3584 531.2368 
L 282.3584 531.2368 
L 282.3584 531.2368 
L 282.3584 531.2368 
L 282.3584 531.2368 
L 282.3584 531.2368 
L 282.3584 531.2368 
L 282.3584 531.2368 
L 282.3584 531.2368 
L 282.3584 531.2368 
L 282.3584 531.2368 
" clip-path="url(#pcc085b5d74)" style="fill: none; stroke: #000000; stroke-linecap: square"/>
   </g>
   <g id="line2d_3">
    <path d="M 282.3584 531.2368 
L 281.824744 529.533204 
L 281.291087 527.829608 
L 280.75743 526.126012 
L 280.223774 524.422416 
L 279.690117 522.71882 
L 279.156461 521.015224 
L 278.622804 519.311628 
L 278.089148 517.608032 
L 277.555491 515.904436 
L 277.021835 514.20084 
L 276.488178 512.497244 
L 275.954521 510.793648 
L 275.420865 509.090052 
L 274.887208 507.386456 
L 274.353552 505.682861 
L 273.819895 503.979265 
L 273.286239 502.275669 
L 272.752582 500.572073 
L 272.218925 498.868477 
L 271.685269 497.164881 
L 271.151612 495.461285 
L 270.617956 493.757689 
L 270.084299 492.054093 
L 269.550643 490.350497 
L 269.016986 488.646901 
L 268.483329 486.943305 
L 267.949673 485.239709 
L 267.416016 483.536113 
L 266.88236 481.832517 
L 266.348703 480.128921 
L 265.815047 478.425325 
L 265.28139 476.721729 
L 264.747733 475.018133 
L 264.214077 473.314537 
L 263.68042 471.610941 
L 263.146764 469.907345 
L 262.613107 468.203749 
L 262.079451 466.500153 
L 261.545794 464.796557 
L 261.012138 463.092962 
L 260.478481 461.389366 
L 259.944824 459.68577 
L 259.411168 457.982174 
L 258.877511 456.278578 
L 258.343855 454.574982 
L 257.810198 452.871386 
L 257.276542 451.16779 
L 256.742885 449.464194 
L 256.209228 447.760598 
L 255.675572 446.057002 
L 255.141915 444.353406 
L 254.608259 442.64981 
L 254.074602 440.946214 
L 253.540946 439.242618 
L 253.007289 437.539022 
L 252.473632 435.835426 
L 251.939976 434.13183 
L 251.406319 432.428234 
L 250.872663 430.724638 
L 250.339006 429.021042 
L 249.80535 427.317446 
L 249.271693 425.61385 
L 248.738037 423.910254 
L 248.20438 422.206658 
L 247.670723 420.503062 
L 247.137067 418.799467 
L 246.60341 417.095871 
L 246.069754 415.392275 
L 245.536097 413.688679 
L 245.002441 411.985083 
L 244.468784 410.281487 
L 243.935127 408.577891 
L 243.401471 406.874295 
L 242.867814 405.170699 
L 242.334158 403.467103 
L 241.800501 401.763507 
L 241.266845 400.059911 
L 240.733188 398.356315 
L 240.199531 396.652719 
L 239.665875 394.949123 
L 239.132218 393.245527 
L 238.598562 391.541931 
L 238.064905 389.838335 
L 237.531249 388.134739 
L 236.997592 386.431143 
L 236.463935 384.727547 
L 235.930279 383.023951 
L 235.396622 381.320355 
L 234.862966 379.616759 
L 234.329309 377.913163 
L 233.795653 376.209568 
L 233.261996 374.505972 
L 232.72834 372.802376 
L 232.194683 371.09878 
L 231.661026 369.395184 
L 231.12737 367.691588 
L 230.593713 365.987992 
L 230.060057 364.284396 
L 229.5264 362.5808 
" clip-path="url(#pcc085b5d74)" style="fill: none; stroke: #000000; stroke-linecap: square"/>
   </g>
   <g id="line2d_4">
    <path d="M 229.5264 362.5808 
L 227.927483 363.504436 
L 226.328566 364.428073 
L 224.729649 365.351709 
L 223.130731 366.275345 
L 221.531814 367.198982 
L 219.932897 368.122618 
L 218.33398 369.046254 
L 216.735063 369.969891 
L 215.136146 370.893527 
L 213.537228 371.817163 
L 211.938311 372.7408 
L 210.339394 373.664436 
L 208.740477 374.588073 
L 207.14156 375.511709 
L 205.542643 376.435345 
L 203.943725 377.358982 
L 202.344808 378.282618 
L 200.745891 379.206254 
L 199.146974 380.129891 
L 197.548057 381.053527 
L 195.94914 381.977163 
L 194.350222 382.9008 
L 192.751305 383.824436 
L 191.152388 384.748073 
L 189.553471 385.671709 
L 187.954554 386.595345 
L 186.355636 387.518982 
L 184.756719 388.442618 
L 183.157802 389.366254 
L 181.558885 390.289891 
L 179.959968 391.213527 
L 178.361051 392.137163 
L 176.762133 393.0608 
L 175.163216 393.984436 
L 173.564299 394.908073 
L 171.965382 395.831709 
L 170.366465 396.755345 
L 168.767548 397.678982 
L 167.16863 398.602618 
L 165.569713 399.526254 
L 163.970796 400.449891 
L 162.371879 401.373527 
L 160.772962 402.297163 
L 159.174045 403.2208 
L 157.575127 404.144436 
L 155.97621 405.068073 
L 154.377293 405.991709 
L 152.778376 406.915345 
L 151.179459 407.838982 
L 149.580542 408.762618 
L 147.981624 409.686254 
L 146.382707 410.609891 
L 144.78379 411.533527 
L 143.184873 412.457163 
L 141.585956 413.3808 
L 139.987038 414.304436 
L 138.388121 415.228073 
L 136.789204 416.151709 
L 135.190287 417.075345 
L 133.59137 417.998982 
L 131.992453 418.922618 
L 130.393535 419.846254 
L 128.794618 420.769891 
L 127.195701 421.693527 
L 125.596784 422.617163 
L 123.997867 423.5408 
L 122.39895 424.464436 
L 120.800032 425.388073 
L 119.201115 426.311709 
L 117.602198 427.235345 
L 116.003281 428.158982 
L 114.404364 429.082618 
L 112.805447 430.006254 
L 111.206529 430.929891 
L 109.607612 431.853527 
L 108.008695 432.777164 
L 106.409778 433.7008 
L 104.810861 434.624436 
L 103.211943 435.548073 
L 101.613026 436.471709 
L 100.014109 437.395345 
L 98.415192 438.318982 
L 96.816275 439.242618 
L 95.217358 440.166254 
L 93.61844 441.089891 
L 92.019523 442.013527 
L 90.420606 442.937164 
L 88.821689 443.8608 
L 87.222772 444.784436 
L 85.623855 445.708073 
L 84.024937 446.631709 
L 82.42602 447.555345 
L 80.827103 448.478982 
L 79.228186 449.402618 
L 77.629269 450.326254 
L 76.030352 451.249891 
L 74.431434 452.173527 
L 72.832517 453.097164 
L 71.2336 454.0208 
" clip-path="url(#pcc085b5d74)" style="fill: none; stroke: #000000; stroke-linecap: square"/>
   </g>
   <g id="line2d_5">
    <path d="M 71.2336 454.0208 
L 71.580477 455.252315 
L 71.927354 456.48383 
L 72.27423 457.715345 
L 72.621107 458.94686 
L 72.967984 460.178376 
L 73.314861 461.409891 
L 73.661737 462.641406 
L 74.008614 463.872921 
L 74.355491 465.104436 
L 74.702368 466.335951 
L 75.049244 467.567467 
L 75.396121 468.798982 
L 75.742998 470.030497 
L 76.089875 471.262012 
L 76.436752 472.493527 
L 76.783628 473.725042 
L 77.130505 474.956557 
L 77.477382 476.188073 
L 77.824259 477.419588 
L 78.171135 478.651103 
L 78.518012 479.882618 
L 78.864889 481.114133 
L 79.211766 482.345648 
L 79.558642 483.577164 
L 79.905519 484.808679 
L 80.252396 486.040194 
L 80.599273 487.271709 
L 80.94615 488.503224 
L 81.293026 489.734739 
L 81.639903 490.966254 
L 81.98678 492.19777 
L 82.333657 493.429285 
L 82.680533 494.6608 
L 83.02741 495.892315 
L 83.374287 497.12383 
L 83.721164 498.355345 
L 84.06804 499.586861 
L 84.414917 500.818376 
L 84.761794 502.049891 
L 85.108671 503.281406 
L 85.455548 504.512921 
L 85.802424 505.744436 
L 86.149301 506.975951 
L 86.496178 508.207467 
L 86.843055 509.438982 
L 87.189931 510.670497 
L 87.536808 511.902012 
L 87.883685 513.133527 
L 88.230562 514.365042 
L 88.577438 515.596557 
L 88.924315 516.828073 
L 89.271192 518.059588 
L 89.618069 519.291103 
L 89.964946 520.522618 
L 90.311822 521.754133 
L 90.658699 522.985648 
L 91.005576 524.217164 
L 91.352453 525.448679 
L 91.699329 526.680194 
L 92.046206 527.911709 
L 92.393083 529.143224 
L 92.73996 530.374739 
L 93.086836 531.606254 
L 93.433713 532.83777 
L 93.78059 534.069285 
L 94.127467 535.3008 
L 94.474343 536.532315 
L 94.82122 537.76383 
L 95.168097 538.995345 
L 95.514974 540.226861 
L 95.861851 541.458376 
L 96.208727 542.689891 
L 96.555604 543.921406 
L 96.902481 545.152921 
L 97.249358 546.384436 
L 97.596234 547.615951 
L 97.943111 548.847467 
L 98.289988 550.078982 
L 98.636865 551.310497 
L 98.983741 552.542012 
L 99.330618 553.773527 
L 99.677495 555.005042 
L 100.024372 556.236558 
L 100.371249 557.468073 
L 100.718125 558.699588 
L 101.065002 559.931103 
L 101.411879 561.162618 
L 101.758756 562.394133 
L 102.105632 563.625648 
L 102.452509 564.857164 
L 102.799386 566.088679 
L 103.146263 567.320194 
L 103.493139 568.551709 
L 103.840016 569.783224 
L 104.186893 571.014739 
L 104.53377 572.246254 
L 104.880647 573.47777 
L 105.227523 574.709285 
L 105.5744 575.9408 
" clip-path="url(#pcc085b5d74)" style="fill: none; stroke: #000000; stroke-linecap: square"/>
   </g>
   <g id="line2d_6">
    <path d="M 105.5744 575.9408 
L 107.360097 575.489244 
L 109.145794 575.037689 
L 110.931491 574.586133 
L 112.717188 574.134578 
L 114.502885 573.683022 
L 116.288582 573.231467 
L 118.074279 572.779911 
L 119.859976 572.328356 
L 121.645673 571.8768 
L 123.43137 571.425244 
L 125.217067 570.973689 
L 127.002764 570.522133 
L 128.788461 570.070578 
L 130.574158 569.619022 
L 132.359855 569.167467 
L 134.145552 568.715911 
L 135.931249 568.264356 
L 137.716946 567.8128 
L 139.502643 567.361244 
L 141.288339 566.909689 
L 143.074036 566.458133 
L 144.859733 566.006578 
L 146.64543 565.555022 
L 148.431127 565.103467 
L 150.216824 564.651911 
L 152.002521 564.200356 
L 153.788218 563.7488 
L 155.573915 563.297244 
L 157.359612 562.845689 
L 159.145309 562.394133 
L 160.931006 561.942578 
L 162.716703 561.491022 
L 164.5024 561.039467 
L 166.288097 560.587911 
L 168.073794 560.136356 
L 169.859491 559.6848 
L 171.645188 559.233244 
L 173.430885 558.781689 
L 175.216582 558.330133 
L 177.002279 557.878578 
L 178.787976 557.427022 
L 180.573673 556.975467 
L 182.35937 556.523911 
L 184.145067 556.072355 
L 185.930764 555.6208 
L 187.716461 555.169244 
L 189.502158 554.717689 
L 191.287855 554.266133 
L 193.073552 553.814578 
L 194.859249 553.363022 
L 196.644946 552.911467 
L 198.430643 552.459911 
L 200.21634 552.008355 
L 202.002036 551.5568 
L 203.787733 551.105244 
L 205.57343 550.653689 
L 207.359127 550.202133 
L 209.144824 549.750578 
L 210.930521 549.299022 
L 212.716218 548.847467 
L 214.501915 548.395911 
L 216.287612 547.944355 
L 218.073309 547.4928 
L 219.859006 547.041244 
L 221.644703 546.589689 
L 223.4304 546.138133 
L 225.216097 545.686578 
L 227.001794 545.235022 
L 228.787491 544.783467 
L 230.573188 544.331911 
L 232.358885 543.880355 
L 234.144582 543.4288 
L 235.930279 542.977244 
L 237.715976 542.525689 
L 239.501673 542.074133 
L 241.28737 541.622578 
L 243.073067 541.171022 
L 244.858764 540.719467 
L 246.644461 540.267911 
L 248.430158 539.816355 
L 250.215855 539.3648 
L 252.001552 538.913244 
L 253.787249 538.461689 
L 255.572946 538.010133 
L 257.358643 537.558578 
L 259.14434 537.107022 
L 260.930037 536.655467 
L 262.715733 536.203911 
L 264.50143 535.752355 
L 266.287127 535.3008 
L 268.072824 534.849244 
L 269.858521 534.397689 
L 271.644218 533.946133 
L 273.429915 533.494578 
L 275.215612 533.043022 
L 277.001309 532.591467 
L 278.787006 532.139911 
L 280.572703 531.688355 
L 282.3584 531.2368 
" clip-path="url(#pcc085b5d74)" style="fill: none; stroke: #000000; stroke-linecap: square"/>
   </g>
   <g id="line2d_7">
    <path d="M 282.3584 531.2368 
L 282.3584 531.2368 
L 282.3584 531.2368 
L 282.3584 531.2368 
L 282.3584 531.2368 
L 282.3584 531.2368 
L 282.3584 531.2368 
L 282.3584 531.2368 
L 282.3584 531.2368 
L 282.3584 531.2368 
L 282.3584 531.2368 
L 282.3584 531.2368 
L 282.3584 531.2368 
L 282.3584 531.2368 
L 282.3584 531.2368 
L 282.3584 531.2368 
L 282.3584 531.2368 
L 282.3584 531.2368 
L 282.3584 531.2368 
L 282.3584 531.2368 
L 282.3584 531.2368 
L 282.3584 531.2368 
L 282.3584 531.2368 
L 282.3584 531.2368 
L 282.3584 531.2368 
L 282.3584 531.2368 
L 282.3584 531.2368 
L 282.3584 531.2368 
L 282.3584 531.2368 
L 282.3584 531.2368 
L 282.3584 531.2368 
L 282.3584 531.2368 
L 282.3584 531.2368 
L 282.3584 531.2368 
L 282.3584 531.2368 
L 282.3584 531.2368 
L 282.3584 531.2368 
L 282.3584 531.2368 
L 282.3584 531.2368 
L 282.3584 531.2368 
L 282.3584 531.2368 
L 282.3584 531.2368 
L 282.3584 531.2368 
L 282.3584 531.2368 
L 282.3584 531.2368 
L 282.3584 531.2368 
L 282.3584 531.2368 
L 282.3584 531.2368 
L 282.3584 531.2368 
L 282.3584 531.2368 
L 282.3584 531.2368 
L 282.3584 531.2368 
L 282.3584 531.2368 
L 282.3584 531.2368 
L 282.3584 531.2368 
L 282.3584 531.2368 
L 282.3584 531.2368 
L 282.3584 531.2368 
L 282.3584 531.2368 
L 282.3584 531.2368 
L 282.3584 531.2368 
L 282.3584 531.2368 
L 282.3584 531.2368 
L 282.3584 531.2368 
L 282.3584 531.2368 
L 282.3584 531.2368 
L 282.3584 531.2368 
L 282.3584 531.2368 
L 282.3584 531.2368 
L 282.3584 531.2368 
L 282.3584 531.2368 
L 282.3584 531.2368 
L 282.3584 531.2368 
L 282.3584 531.2368 
L 282.3584 531.2368 
L 282.3584 531.2368 
L 282.3584 531.2368 
L 282.3584 531.2368 
L 282.3584 531.2368 
L 282.3584 531.2368 
L 282.3584 531.2368 
L 282.3584 531.2368 
L 282.3584 531.2368 
L 282.3584 531.2368 
L 282.3584 531.2368 
L 282.3584 531.2368 
L 282.3584 531.2368 
L 282.3584 531.2368 
L 282.3584 531.2368 
L 282.3584 531.2368 
L 282.3584 531.2368 
L 282.3584 531.2368 
L 282.3584 531.2368 
L 282.3584 531.2368 
L 282.3584 531.2368 
L 282.3584 531.2368 
L 282.3584 531.2368 
L 282.3584 531.2368 
L 282.3584 531.2368 
L 282.3584 531.2368 
" clip-path="url(#pcc085b5d74)" style="fill: none; stroke: #000000; stroke-linecap: square"/>
   </g>
   <g id="line2d_8">
    <path d="M 254.7072 333.4464 
L 130.6368 419.616 
L 0 430.7328 
L 94.176 334.8864 
L 254.7072 333.4464 
" clip-path="url(#pcc085b5d74)" style="fill: none; stroke: #3ea3e3; stroke-linecap: square"/>
   </g>
   <g id="line2d_9">
    <path d="M 254.722802 333.367294 
L 254.722802 333.367294 
L 254.722802 333.367294 
L 254.722802 333.367294 
L 254.722802 333.367294 
L 254.722802 333.367294 
L 254.722802 333.367294 
L 254.722802 333.367294 
L 254.722802 333.367294 
L 254.722802 333.367294 
L 254.722802 333.367294 
L 254.722802 333.367294 
L 254.722802 333.367294 
L 254.722802 333.367294 
L 254.722802 333.367294 
L 254.722802 333.367294 
L 254.722802 333.367294 
L 254.722802 333.367294 
L 254.722802 333.367294 
L 254.722802 333.367294 
L 254.722802 333.367294 
L 254.722802 333.367294 
L 254.722802 333.367294 
L 254.722802 333.367294 
L 254.722802 333.367294 
L 254.722802 333.367294 
L 254.722802 333.367294 
L 254.722802 333.367294 
L 254.722802 333.367294 
L 254.722802 333.367294 
L 254.722802 333.367294 
L 254.722802 333.367294 
L 254.722802 333.367294 
L 254.722802 333.367294 
L 254.722802 333.367294 
L 254.722802 333.367294 
L 254.722802 333.367294 
L 254.722802 333.367294 
L 254.722802 333.367294 
L 254.722802 333.367294 
L 254.722802 333.367294 
L 254.722802 333.367294 
L 254.722802 333.367294 
L 254.722802 333.367294 
L 254.722802 333.367294 
L 254.722802 333.367294 
L 254.722802 333.367294 
L 254.722802 333.367294 
L 254.722802 333.367294 
L 254.722802 333.367294 
L 254.722802 333.367294 
L 254.722802 333.367294 
L 254.722802 333.367294 
L 254.722802 333.367294 
L 254.722802 333.367294 
L 254.722802 333.367294 
L 254.722802 333.367294 
L 254.722802 333.367294 
L 254.722802 333.367294 
L 254.722802 333.367294 
L 254.722802 333.367294 
L 254.722802 333.367294 
L 254.722802 333.367294 
L 254.722802 333.367294 
L 254.722802 333.367294 
L 254.722802 333.367294 
L 254.722802 333.367294 
L 254.722802 333.367294 
L 254.722802 333.367294 
L 254.722802 333.367294 
L 254.722802 333.367294 
L 254.722802 333.367294 
L 254.722802 333.367294 
L 254.722802 333.367294 
L 254.722802 333.367294 
L 254.722802 333.367294 
L 254.722802 333.367294 
L 254.722802 333.367294 
L 254.722802 333.367294 
L 254.722802 333.367294 
L 254.722802 333.367294 
L 254.722802 333.367294 
L 254.722802 333.367294 
L 254.722802 333.367294 
L 254.722802 333.367294 
L 254.722802 333.367294 
L 254.722802 333.367294 
L 254.722802 333.367294 
L 254.722802 333.367294 
L 254.722802 333.367294 
L 254.722802 333.367294 
L 254.722802 333.367294 
L 254.722802 333.367294 
L 254.722802 333.367294 
L 254.722802 333.367294 
L 254.722802 333.367294 
L 254.722802 333.367294 
L 254.722802 333.367294 
L 254.722802 333.367294 
L 254.722802 333.367294 
" clip-path="url(#pcc085b5d74)" style="fill: none; stroke: #000000; stroke-linecap: square"/>
   </g>
   <g id="line2d_10">
    <path d="M 254.722802 333.367294 
L 253.10152 333.382118 
L 251.480238 333.396943 
L 249.858957 333.411767 
L 248.237675 333.426591 
L 246.616393 333.441416 
L 244.995112 333.45624 
L 243.37383 333.471065 
L 241.752548 333.485889 
L 240.131267 333.500713 
L 238.509985 333.515538 
L 236.888703 333.530362 
L 235.267422 333.545186 
L 233.64614 333.560011 
L 232.024858 333.574835 
L 230.403577 333.589659 
L 228.782295 333.604484 
L 227.161013 333.619308 
L 225.539732 333.634132 
L 223.91845 333.648957 
L 222.297168 333.663781 
L 220.675887 333.678606 
L 219.054605 333.69343 
L 217.433323 333.708254 
L 215.812041 333.723079 
L 214.19076 333.737903 
L 212.569478 333.752727 
L 210.948196 333.767552 
L 209.326915 333.782376 
L 207.705633 333.7972 
L 206.084351 333.812025 
L 204.46307 333.826849 
L 202.841788 333.841674 
L 201.220506 333.856498 
L 199.599225 333.871322 
L 197.977943 333.886147 
L 196.356661 333.900971 
L 194.73538 333.915795 
L 193.114098 333.93062 
L 191.492816 333.945444 
L 189.871535 333.960268 
L 188.250253 333.975093 
L 186.628971 333.989917 
L 185.00769 334.004742 
L 183.386408 334.019566 
L 181.765126 334.03439 
L 180.143845 334.049215 
L 178.522563 334.064039 
L 176.901281 334.078863 
L 175.28 334.093688 
L 173.658718 334.108512 
L 172.037436 334.123336 
L 170.416155 334.138161 
L 168.794873 334.152985 
L 167.173591 334.167809 
L 165.55231 334.182634 
L 163.931028 334.197458 
L 162.309746 334.212283 
L 160.688465 334.227107 
L 159.067183 334.241931 
L 157.445901 334.256756 
L 155.824619 334.27158 
L 154.203338 334.286404 
L 152.582056 334.301229 
L 150.960774 334.316053 
L 149.339493 334.330877 
L 147.718211 334.345702 
L 146.096929 334.360526 
L 144.475648 334.375351 
L 142.854366 334.390175 
L 141.233084 334.404999 
L 139.611803 334.419824 
L 137.990521 334.434648 
L 136.369239 334.449472 
L 134.747958 334.464297 
L 133.126676 334.479121 
L 131.505394 334.493945 
L 129.884113 334.50877 
L 128.262831 334.523594 
L 126.641549 334.538419 
L 125.020268 334.553243 
L 123.398986 334.568067 
L 121.777704 334.582892 
L 120.156423 334.597716 
L 118.535141 334.61254 
L 116.913859 334.627365 
L 115.292578 334.642189 
L 113.671296 334.657013 
L 112.050014 334.671838 
L 110.428733 334.686662 
L 108.807451 334.701487 
L 107.186169 334.716311 
L 105.564888 334.731135 
L 103.943606 334.74596 
L 102.322324 334.760784 
L 100.701043 334.775608 
L 99.079761 334.790433 
L 97.458479 334.805257 
L 95.837197 334.820081 
L 94.215916 334.834906 
" clip-path="url(#pcc085b5d74)" style="fill: none; stroke: #000000; stroke-linecap: square"/>
   </g>
   <g id="line2d_11">
    <path d="M 94.215916 334.834906 
L 93.264385 335.802771 
L 92.312854 336.770636 
L 91.361323 337.738501 
L 90.409792 338.706366 
L 89.458261 339.674231 
L 88.50673 340.642096 
L 87.555199 341.609962 
L 86.603668 342.577827 
L 85.652137 343.545692 
L 84.700606 344.513557 
L 83.749075 345.481422 
L 82.797544 346.449287 
L 81.846013 347.417152 
L 80.894482 348.385017 
L 79.942951 349.352882 
L 78.99142 350.320748 
L 78.039889 351.288613 
L 77.088358 352.256478 
L 76.136827 353.224343 
L 75.185296 354.192208 
L 74.233765 355.160073 
L 73.282234 356.127938 
L 72.330703 357.095803 
L 71.379172 358.063668 
L 70.427641 359.031534 
L 69.47611 359.999399 
L 68.524579 360.967264 
L 67.573048 361.935129 
L 66.621517 362.902994 
L 65.669986 363.870859 
L 64.718455 364.838724 
L 63.766924 365.806589 
L 62.815393 366.774454 
L 61.863862 367.74232 
L 60.912331 368.710185 
L 59.9608 369.67805 
L 59.009269 370.645915 
L 58.057738 371.61378 
L 57.106207 372.581645 
L 56.154676 373.54951 
L 55.203145 374.517375 
L 54.251614 375.48524 
L 53.300083 376.453106 
L 52.348552 377.420971 
L 51.397021 378.388836 
L 50.44549 379.356701 
L 49.493959 380.324566 
L 48.542428 381.292431 
L 47.590897 382.260296 
L 46.639366 383.228161 
L 45.687835 384.196026 
L 44.736304 385.163892 
L 43.784773 386.131757 
L 42.833242 387.099622 
L 41.881711 388.067487 
L 40.93018 389.035352 
L 39.978649 390.003217 
L 39.027118 390.971082 
L 38.075587 391.938947 
L 37.124056 392.906812 
L 36.172525 393.874678 
L 35.220994 394.842543 
L 34.269463 395.810408 
L 33.317932 396.778273 
L 32.366401 397.746138 
L 31.41487 398.714003 
L 30.463339 399.681868 
L 29.511808 400.649733 
L 28.560277 401.617598 
L 27.608746 402.585464 
L 26.657215 403.553329 
L 25.705684 404.521194 
L 24.754153 405.489059 
L 23.802622 406.456924 
L 22.851091 407.424789 
L 21.89956 408.392654 
L 20.948029 409.360519 
L 19.996498 410.328384 
L 19.044967 411.29625 
L 18.093436 412.264115 
L 17.141905 413.23198 
L 16.190374 414.199845 
L 15.238843 415.16771 
L 14.287312 416.135575 
L 13.335781 417.10344 
L 12.38425 418.071305 
L 11.432719 419.03917 
L 10.481188 420.007036 
L 9.529657 420.974901 
L 8.578126 421.942766 
L 7.626595 422.910631 
L 6.675064 423.878496 
L 5.723533 424.846361 
L 4.772002 425.814226 
L 3.820471 426.782091 
L 2.86894 427.749956 
L 1.917409 428.717822 
L 0.965878 429.685687 
L 0.014347 430.653552 
" clip-path="url(#pcc085b5d74)" style="fill: none; stroke: #000000; stroke-linecap: square"/>
   </g>
   <g id="line2d_12">
    <path d="M 0.014347 430.653552 
L 1.33413 430.541219 
L 2.653913 430.428887 
L 3.973696 430.316555 
L 5.293479 430.204222 
L 6.613262 430.09189 
L 7.933045 429.979558 
L 9.252828 429.867225 
L 10.572611 429.754893 
L 11.892394 429.642561 
L 13.212177 429.530228 
L 14.531959 429.417896 
L 15.851742 429.305564 
L 17.171525 429.193231 
L 18.491308 429.080899 
L 19.811091 428.968567 
L 21.130874 428.856234 
L 22.450657 428.743902 
L 23.77044 428.63157 
L 25.090223 428.519237 
L 26.410006 428.406905 
L 27.729789 428.294573 
L 29.049572 428.18224 
L 30.369355 428.069908 
L 31.689137 427.957576 
L 33.00892 427.845243 
L 34.328703 427.732911 
L 35.648486 427.620579 
L 36.968269 427.508246 
L 38.288052 427.395914 
L 39.607835 427.283582 
L 40.927618 427.171249 
L 42.247401 427.058917 
L 43.567184 426.946585 
L 44.886967 426.834252 
L 46.20675 426.72192 
L 47.526532 426.609588 
L 48.846315 426.497255 
L 50.166098 426.384923 
L 51.485881 426.272591 
L 52.805664 426.160258 
L 54.125447 426.047926 
L 55.44523 425.935594 
L 56.765013 425.823261 
L 58.084796 425.710929 
L 59.404579 425.598597 
L 60.724362 425.486264 
L 62.044145 425.373932 
L 63.363928 425.2616 
L 64.68371 425.149267 
L 66.003493 425.036935 
L 67.323276 424.924603 
L 68.643059 424.81227 
L 69.962842 424.699938 
L 71.282625 424.587606 
L 72.602408 424.475274 
L 73.922191 424.362941 
L 75.241974 424.250609 
L 76.561757 424.138277 
L 77.88154 424.025944 
L 79.201323 423.913612 
L 80.521106 423.80128 
L 81.840888 423.688947 
L 83.160671 423.576615 
L 84.480454 423.464283 
L 85.800237 423.35195 
L 87.12002 423.239618 
L 88.439803 423.127286 
L 89.759586 423.014953 
L 91.079369 422.902621 
L 92.399152 422.790289 
L 93.718935 422.677956 
L 95.038718 422.565624 
L 96.358501 422.453292 
L 97.678284 422.340959 
L 98.998066 422.228627 
L 100.317849 422.116295 
L 101.637632 422.003962 
L 102.957415 421.89163 
L 104.277198 421.779298 
L 105.596981 421.666965 
L 106.916764 421.554633 
L 108.236547 421.442301 
L 109.55633 421.329968 
L 110.876113 421.217636 
L 112.195896 421.105304 
L 113.515679 420.992971 
L 114.835461 420.880639 
L 116.155244 420.768307 
L 117.475027 420.655974 
L 118.79481 420.543642 
L 120.114593 420.43131 
L 121.434376 420.318977 
L 122.754159 420.206645 
L 124.073942 420.094313 
L 125.393725 419.98198 
L 126.713508 419.869648 
L 128.033291 419.757316 
L 129.353074 419.644983 
L 130.672857 419.532651 
" clip-path="url(#pcc085b5d74)" style="fill: none; stroke: #000000; stroke-linecap: square"/>
   </g>
   <g id="line2d_13">
    <path d="M 130.672857 419.532651 
L 131.925886 418.662294 
L 133.178916 417.791937 
L 134.431946 416.921579 
L 135.684976 416.051222 
L 136.938005 415.180865 
L 138.191035 414.310508 
L 139.444065 413.440151 
L 140.697095 412.569794 
L 141.950124 411.699437 
L 143.203154 410.829079 
L 144.456184 409.958722 
L 145.709214 409.088365 
L 146.962243 408.218008 
L 148.215273 407.347651 
L 149.468303 406.477294 
L 150.721333 405.606937 
L 151.974362 404.736579 
L 153.227392 403.866222 
L 154.480422 402.995865 
L 155.733452 402.125508 
L 156.986481 401.255151 
L 158.239511 400.384794 
L 159.492541 399.514437 
L 160.745571 398.64408 
L 161.9986 397.773722 
L 163.25163 396.903365 
L 164.50466 396.033008 
L 165.75769 395.162651 
L 167.010719 394.292294 
L 168.263749 393.421937 
L 169.516779 392.55158 
L 170.769809 391.681222 
L 172.022838 390.810865 
L 173.275868 389.940508 
L 174.528898 389.070151 
L 175.781928 388.199794 
L 177.034957 387.329437 
L 178.287987 386.45908 
L 179.541017 385.588722 
L 180.794047 384.718365 
L 182.047076 383.848008 
L 183.300106 382.977651 
L 184.553136 382.107294 
L 185.806166 381.236937 
L 187.059195 380.36658 
L 188.312225 379.496222 
L 189.565255 378.625865 
L 190.818285 377.755508 
L 192.071314 376.885151 
L 193.324344 376.014794 
L 194.577374 375.144437 
L 195.830404 374.27408 
L 197.083433 373.403722 
L 198.336463 372.533365 
L 199.589493 371.663008 
L 200.842522 370.792651 
L 202.095552 369.922294 
L 203.348582 369.051937 
L 204.601612 368.18158 
L 205.854641 367.311222 
L 207.107671 366.440865 
L 208.360701 365.570508 
L 209.613731 364.700151 
L 210.86676 363.829794 
L 212.11979 362.959437 
L 213.37282 362.08908 
L 214.62585 361.218722 
L 215.878879 360.348365 
L 217.131909 359.478008 
L 218.384939 358.607651 
L 219.637969 357.737294 
L 220.890998 356.866937 
L 222.144028 355.99658 
L 223.397058 355.126222 
L 224.650088 354.255865 
L 225.903117 353.385508 
L 227.156147 352.515151 
L 228.409177 351.644794 
L 229.662207 350.774437 
L 230.915236 349.90408 
L 232.168266 349.033722 
L 233.421296 348.163365 
L 234.674326 347.293008 
L 235.927355 346.422651 
L 237.180385 345.552294 
L 238.433415 344.681937 
L 239.686445 343.81158 
L 240.939474 342.941223 
L 242.192504 342.070865 
L 243.445534 341.200508 
L 244.698564 340.330151 
L 245.951593 339.459794 
L 247.204623 338.589437 
L 248.457653 337.71908 
L 249.710683 336.848723 
L 250.963712 335.978365 
L 252.216742 335.108008 
L 253.469772 334.237651 
L 254.722802 333.367294 
" clip-path="url(#pcc085b5d74)" style="fill: none; stroke: #000000; stroke-linecap: square"/>
   </g>
   <g id="line2d_14">
    <path d="M 254.722802 333.367294 
L 254.722802 333.367294 
L 254.722802 333.367294 
L 254.722802 333.367294 
L 254.722802 333.367294 
L 254.722802 333.367294 
L 254.722802 333.367294 
L 254.722802 333.367294 
L 254.722802 333.367294 
L 254.722802 333.367294 
L 254.722802 333.367294 
L 254.722802 333.367294 
L 254.722802 333.367294 
L 254.722802 333.367294 
L 254.722802 333.367294 
L 254.722802 333.367294 
L 254.722802 333.367294 
L 254.722802 333.367294 
L 254.722802 333.367294 
L 254.722802 333.367294 
L 254.722802 333.367294 
L 254.722802 333.367294 
L 254.722802 333.367294 
L 254.722802 333.367294 
L 254.722802 333.367294 
L 254.722802 333.367294 
L 254.722802 333.367294 
L 254.722802 333.367294 
L 254.722802 333.367294 
L 254.722802 333.367294 
L 254.722802 333.367294 
L 254.722802 333.367294 
L 254.722802 333.367294 
L 254.722802 333.367294 
L 254.722802 333.367294 
L 254.722802 333.367294 
L 254.722802 333.367294 
L 254.722802 333.367294 
L 254.722802 333.367294 
L 254.722802 333.367294 
L 254.722802 333.367294 
L 254.722802 333.367294 
L 254.722802 333.367294 
L 254.722802 333.367294 
L 254.722802 333.367294 
L 254.722802 333.367294 
L 254.722802 333.367294 
L 254.722802 333.367294 
L 254.722802 333.367294 
L 254.722802 333.367294 
L 254.722802 333.367294 
L 254.722802 333.367294 
L 254.722802 333.367294 
L 254.722802 333.367294 
L 254.722802 333.367294 
L 254.722802 333.367294 
L 254.722802 333.367294 
L 254.722802 333.367294 
L 254.722802 333.367294 
L 254.722802 333.367294 
L 254.722802 333.367294 
L 254.722802 333.367294 
L 254.722802 333.367294 
L 254.722802 333.367294 
L 254.722802 333.367294 
L 254.722802 333.367294 
L 254.722802 333.367294 
L 254.722802 333.367294 
L 254.722802 333.367294 
L 254.722802 333.367294 
L 254.722802 333.367294 
L 254.722802 333.367294 
L 254.722802 333.367294 
L 254.722802 333.367294 
L 254.722802 333.367294 
L 254.722802 333.367294 
L 254.722802 333.367294 
L 254.722802 333.367294 
L 254.722802 333.367294 
L 254.722802 333.367294 
L 254.722802 333.367294 
L 254.722802 333.367294 
L 254.722802 333.367294 
L 254.722802 333.367294 
L 254.722802 333.367294 
L 254.722802 333.367294 
L 254.722802 333.367294 
L 254.722802 333.367294 
L 254.722802 333.367294 
L 254.722802 333.367294 
L 254.722802 333.367294 
L 254.722802 333.367294 
L 254.722802 333.367294 
L 254.722802 333.367294 
L 254.722802 333.367294 
L 254.722802 333.367294 
L 254.722802 333.367294 
L 254.722802 333.367294 
L 254.722802 333.367294 
L 254.722802 333.367294 
" clip-path="url(#pcc085b5d74)" style="fill: none; stroke: #000000; stroke-linecap: square"/>
   </g>
   <g id="patch_3">
    <path d="M 0 576 
L 0 0 
" style="fill: none; stroke: #000000; stroke-width: 0.8; stroke-linejoin: miter; stroke-linecap: square"/>
   </g>
   <g id="patch_4">
    <path d="M 576 576 
L 576 0 
" style="fill: none; stroke: #000000; stroke-width: 0.8; stroke-linejoin: miter; stroke-linecap: square"/>
   </g>
   <g id="patch_5">
    <path d="M 0 576 
L 576 576 
" style="fill: none; stroke: #000000; stroke-width: 0.8; stroke-linejoin: miter; stroke-linecap: square"/>
   </g>
   <g id="patch_6">
    <path d="M 0 0 
L 576 0 
" style="fill: none; stroke: #000000; stroke-width: 0.8; stroke-linejoin: miter; stroke-linecap: square"/>
   </g>
  </g>
 </g>
 <defs>
  <clipPath id="pcc085b5d74">
   <rect x="0" y="0" width="576" height="576"/>
  </clipPath>
 </defs>
</svg>
