<?xml version="1.0" encoding="utf-8" standalone="no"?>
<!DOCTYPE svg PUBLIC "-//W3C//DTD SVG 1.1//EN"
  "http://www.w3.org/Graphics/SVG/1.1/DTD/svg11.dtd">
<svg xmlns:xlink="http://www.w3.org/1999/xlink" width="576pt" height="576pt" viewBox="0 0 576 576" xmlns="http://www.w3.org/2000/svg" version="1.1">
 <metadata>
  <rdf:RDF xmlns:dc="http://purl.org/dc/elements/1.1/" xmlns:cc="http://creativecommons.org/ns#" xmlns:rdf="http://www.w3.org/1999/02/22-rdf-syntax-ns#">
   <cc:Work>
    <dc:type rdf:resource="http://purl.org/dc/dcmitype/StillImage"/>
    <dc:date>2024-05-12T20:47:23.725236</dc:date>
    <dc:format>image/svg+xml</dc:format>
    <dc:creator>
     <cc:Agent>
      <dc:title>Matplotlib v3.8.3, https://matplotlib.org/</dc:title>
     </cc:Agent>
    </dc:creator>
   </cc:Work>
  </rdf:RDF>
 </metadata>
 <defs>
  <style type="text/css">*{stroke-linejoin: round; stroke-linecap: butt}</style>
 </defs>
 <g id="figure_1">
  <g id="patch_1">
   <path d="M 0 576 
L 576 576 
L 576 0 
L 0 0 
z
" style="fill: #ffffff"/>
  </g>
  <g id="axes_1">
   <g id="patch_2">
    <path d="M 0 576 
L 576 576 
L 576 0 
L 0 0 
z
" style="fill: #ffffff"/>
   </g>
   <g id="patch_3">
    <path d="M 96.0592 544.088 
L 479.9264 544.088 
L 479.9264 31.9568 
L 96.0592 31.9568 
L 96.0592 544.088 
z
" clip-path="url(#p729990a40c)" style="fill: none; stroke: #ff0000; stroke-linejoin: miter"/>
   </g>
   <g id="matplotlib.axis_1"/>
   <g id="matplotlib.axis_2"/>
   <g id="line2d_1">
    <path d="M 394.1024 349.6816 
L 394.1024 349.6816 
L 394.1024 349.6816 
L 394.1024 349.6816 
L 394.1024 349.6816 
L 394.1024 349.6816 
L 394.1024 349.6816 
L 394.1024 349.6816 
L 394.1024 349.6816 
L 394.1024 349.6816 
L 394.1024 349.6816 
L 394.1024 349.6816 
L 394.1024 349.6816 
L 394.1024 349.6816 
L 394.1024 349.6816 
L 394.1024 349.6816 
L 394.1024 349.6816 
L 394.1024 349.6816 
L 394.1024 349.6816 
L 394.1024 349.6816 
L 394.1024 349.6816 
L 394.1024 349.6816 
L 394.1024 349.6816 
L 394.1024 349.6816 
L 394.1024 349.6816 
L 394.1024 349.6816 
L 394.1024 349.6816 
L 394.1024 349.6816 
L 394.1024 349.6816 
L 394.1024 349.6816 
L 394.1024 349.6816 
L 394.1024 349.6816 
L 394.1024 349.6816 
L 394.1024 349.6816 
L 394.1024 349.6816 
L 394.1024 349.6816 
L 394.1024 349.6816 
L 394.1024 349.6816 
L 394.1024 349.6816 
L 394.1024 349.6816 
L 394.1024 349.6816 
L 394.1024 349.6816 
L 394.1024 349.6816 
L 394.1024 349.6816 
L 394.1024 349.6816 
L 394.1024 349.6816 
L 394.1024 349.6816 
L 394.1024 349.6816 
L 394.1024 349.6816 
L 394.1024 349.6816 
L 394.1024 349.6816 
L 394.1024 349.6816 
L 394.1024 349.6816 
L 394.1024 349.6816 
L 394.1024 349.6816 
L 394.1024 349.6816 
L 394.1024 349.6816 
L 394.1024 349.6816 
L 394.1024 349.6816 
L 394.1024 349.6816 
L 394.1024 349.6816 
L 394.1024 349.6816 
L 394.1024 349.6816 
L 394.1024 349.6816 
L 394.1024 349.6816 
L 394.1024 349.6816 
L 394.1024 349.6816 
L 394.1024 349.6816 
L 394.1024 349.6816 
L 394.1024 349.6816 
L 394.1024 349.6816 
L 394.1024 349.6816 
L 394.1024 349.6816 
L 394.1024 349.6816 
L 394.1024 349.6816 
L 394.1024 349.6816 
L 394.1024 349.6816 
L 394.1024 349.6816 
L 394.1024 349.6816 
L 394.1024 349.6816 
" clip-path="url(#p729990a40c)" style="fill: none; stroke: #000000; stroke-linecap: square"/>
   </g>
   <g id="line2d_2">
    <path d="M 394.1024 349.6816 
L 393.433641 347.546714 
L 392.764881 345.411828 
L 392.096122 343.276942 
L 391.427362 341.142056 
L 390.758603 339.00717 
L 390.089843 336.872283 
L 389.421084 334.737397 
L 388.752324 332.602511 
L 388.083565 330.467625 
L 387.414805 328.332739 
L 386.746046 326.197853 
L 386.077286 324.062967 
L 385.408527 321.928081 
L 384.739767 319.793195 
L 384.071008 317.658309 
L 383.402248 315.523423 
L 382.733489 313.388537 
L 382.064729 311.253651 
L 381.39597 309.118764 
L 380.72721 306.983878 
L 380.058451 304.848992 
L 379.389691 302.714106 
L 378.720932 300.57922 
L 378.052172 298.444334 
L 377.383413 296.309448 
L 376.714653 294.174562 
L 376.045894 292.039676 
L 375.377134 289.90479 
L 374.708375 287.769904 
L 374.039615 285.635018 
L 373.370856 283.500132 
L 372.702096 281.365245 
L 372.033337 279.230359 
L 371.364577 277.095473 
L 370.695818 274.960587 
L 370.027058 272.825701 
L 369.358299 270.690815 
L 368.689539 268.555929 
L 368.02078 266.421043 
L 367.35202 264.286157 
L 366.683261 262.151271 
L 366.014501 260.016385 
L 365.345742 257.881499 
L 364.676982 255.746613 
L 364.008223 253.611726 
L 363.339463 251.47684 
L 362.670704 249.341954 
L 362.001944 247.207068 
L 361.333185 245.072182 
L 360.664425 242.937296 
L 359.995666 240.80241 
L 359.326906 238.667524 
L 358.658147 236.532638 
L 357.989387 234.397752 
L 357.320628 232.262866 
L 356.651869 230.12798 
L 355.983109 227.993094 
L 355.31435 225.858207 
L 354.64559 223.723321 
L 353.976831 221.588435 
L 353.308071 219.453549 
L 352.639312 217.318663 
L 351.970552 215.183777 
L 351.301793 213.048891 
L 350.633033 210.914005 
L 349.964274 208.779119 
L 349.295514 206.644233 
L 348.626755 204.509347 
L 347.957995 202.374461 
L 347.289236 200.239575 
L 346.620476 198.104688 
L 345.951717 195.969802 
L 345.282957 193.834916 
L 344.614198 191.70003 
L 343.945438 189.565144 
L 343.276679 187.430258 
L 342.607919 185.295372 
L 341.93916 183.160486 
L 341.2704 181.0256 
" clip-path="url(#p729990a40c)" style="fill: none; stroke: #000000; stroke-linecap: square"/>
   </g>
   <g id="line2d_3">
    <path d="M 341.2704 181.0256 
L 339.266694 182.183068 
L 337.262987 183.340537 
L 335.259281 184.498005 
L 333.255575 185.655473 
L 331.251868 186.812942 
L 329.248162 187.97041 
L 327.244456 189.127878 
L 325.240749 190.285347 
L 323.237043 191.442815 
L 321.233337 192.600283 
L 319.229631 193.757752 
L 317.225924 194.91522 
L 315.222218 196.072688 
L 313.218512 197.230157 
L 311.214805 198.387625 
L 309.211099 199.545094 
L 307.207393 200.702562 
L 305.203686 201.86003 
L 303.19998 203.017499 
L 301.196274 204.174967 
L 299.192567 205.332435 
L 297.188861 206.489904 
L 295.185155 207.647372 
L 293.181448 208.80484 
L 291.177742 209.962309 
L 289.174036 211.119777 
L 287.170329 212.277245 
L 285.166623 213.434714 
L 283.162917 214.592182 
L 281.15921 215.74965 
L 279.155504 216.907119 
L 277.151798 218.064587 
L 275.148091 219.222056 
L 273.144385 220.379524 
L 271.140679 221.536992 
L 269.136972 222.694461 
L 267.133266 223.851929 
L 265.12956 225.009397 
L 263.125853 226.166866 
L 261.122147 227.324334 
L 259.118441 228.481802 
L 257.114734 229.639271 
L 255.111028 230.796739 
L 253.107322 231.954207 
L 251.103615 233.111676 
L 249.099909 234.269144 
L 247.096203 235.426613 
L 245.092496 236.584081 
L 243.08879 237.741549 
L 241.085084 238.899018 
L 239.081377 240.056486 
L 237.077671 241.213954 
L 235.073965 242.371423 
L 233.070258 243.528891 
L 231.066552 244.686359 
L 229.062846 245.843828 
L 227.059139 247.001296 
L 225.055433 248.158764 
L 223.051727 249.316233 
L 221.04802 250.473701 
L 219.044314 251.631169 
L 217.040608 252.788638 
L 215.036901 253.946106 
L 213.033195 255.103575 
L 211.029489 256.261043 
L 209.025782 257.418511 
L 207.022076 258.57598 
L 205.01837 259.733448 
L 203.014663 260.890916 
L 201.010957 262.048385 
L 199.007251 263.205853 
L 197.003544 264.363321 
L 194.999838 265.52079 
L 192.996132 266.678258 
L 190.992425 267.835726 
L 188.988719 268.993195 
L 186.985013 270.150663 
L 184.981306 271.308132 
L 182.9776 272.4656 
" clip-path="url(#p729990a40c)" style="fill: none; stroke: #000000; stroke-linecap: square"/>
   </g>
   <g id="line2d_4">
    <path d="M 182.9776 272.4656 
L 183.412294 274.008891 
L 183.846987 275.552182 
L 184.281681 277.095473 
L 184.716375 278.638764 
L 185.151068 280.182056 
L 185.585762 281.725347 
L 186.020456 283.268638 
L 186.455149 284.811929 
L 186.889843 286.35522 
L 187.324537 287.898511 
L 187.75923 289.441802 
L 188.193924 290.985094 
L 188.628618 292.528385 
L 189.063311 294.071676 
L 189.498005 295.614967 
L 189.932699 297.158258 
L 190.367392 298.701549 
L 190.802086 300.24484 
L 191.23678 301.788132 
L 191.671473 303.331423 
L 192.106167 304.874714 
L 192.540861 306.418005 
L 192.975554 307.961296 
L 193.410248 309.504587 
L 193.844942 311.047878 
L 194.279635 312.59117 
L 194.714329 314.134461 
L 195.149023 315.677752 
L 195.583717 317.221043 
L 196.01841 318.764334 
L 196.453104 320.307625 
L 196.887798 321.850916 
L 197.322491 323.394208 
L 197.757185 324.937499 
L 198.191879 326.48079 
L 198.626572 328.024081 
L 199.061266 329.567372 
L 199.49596 331.110663 
L 199.930653 332.653954 
L 200.365347 334.197245 
L 200.800041 335.740537 
L 201.234734 337.283828 
L 201.669428 338.827119 
L 202.104122 340.37041 
L 202.538815 341.913701 
L 202.973509 343.456992 
L 203.408203 345.000283 
L 203.842896 346.543575 
L 204.27759 348.086866 
L 204.712284 349.630157 
L 205.146977 351.173448 
L 205.581671 352.716739 
L 206.016365 354.26003 
L 206.451058 355.803321 
L 206.885752 357.346613 
L 207.320446 358.889904 
L 207.755139 360.433195 
L 208.189833 361.976486 
L 208.624527 363.519777 
L 209.05922 365.063068 
L 209.493914 366.606359 
L 209.928608 368.149651 
L 210.363301 369.692942 
L 210.797995 371.236233 
L 211.232689 372.779524 
L 211.667382 374.322815 
L 212.102076 375.866106 
L 212.53677 377.409397 
L 212.971463 378.952689 
L 213.406157 380.49598 
L 213.840851 382.039271 
L 214.275544 383.582562 
L 214.710238 385.125853 
L 215.144932 386.669144 
L 215.579625 388.212435 
L 216.014319 389.755727 
L 216.449013 391.299018 
L 216.883706 392.842309 
L 217.3184 394.3856 
" clip-path="url(#p729990a40c)" style="fill: none; stroke: #000000; stroke-linecap: square"/>
   </g>
   <g id="line2d_5">
    <path d="M 217.3184 394.3856 
L 219.556172 393.819727 
L 221.793944 393.253853 
L 224.031717 392.68798 
L 226.269489 392.122106 
L 228.507261 391.556233 
L 230.745033 390.990359 
L 232.982805 390.424486 
L 235.220577 389.858613 
L 237.458349 389.292739 
L 239.696122 388.726866 
L 241.933894 388.160992 
L 244.171666 387.595119 
L 246.409438 387.029246 
L 248.64721 386.463372 
L 250.884982 385.897499 
L 253.122755 385.331625 
L 255.360527 384.765752 
L 257.598299 384.199878 
L 259.836071 383.634005 
L 262.073843 383.068132 
L 264.311615 382.502258 
L 266.549387 381.936385 
L 268.78716 381.370511 
L 271.024932 380.804638 
L 273.262704 380.238765 
L 275.500476 379.672891 
L 277.738248 379.107018 
L 279.97602 378.541144 
L 282.213793 377.975271 
L 284.451565 377.409397 
L 286.689337 376.843524 
L 288.927109 376.277651 
L 291.164881 375.711777 
L 293.402653 375.145904 
L 295.640425 374.58003 
L 297.878198 374.014157 
L 300.11597 373.448283 
L 302.353742 372.88241 
L 304.591514 372.316537 
L 306.829286 371.750663 
L 309.067058 371.18479 
L 311.304831 370.618916 
L 313.542603 370.053043 
L 315.780375 369.48717 
L 318.018147 368.921296 
L 320.255919 368.355423 
L 322.493691 367.789549 
L 324.731463 367.223676 
L 326.969236 366.657802 
L 329.207008 366.091929 
L 331.44478 365.526056 
L 333.682552 364.960182 
L 335.920324 364.394309 
L 338.158096 363.828435 
L 340.395868 363.262562 
L 342.633641 362.696689 
L 344.871413 362.130815 
L 347.109185 361.564942 
L 349.346957 360.999068 
L 351.584729 360.433195 
L 353.822501 359.867321 
L 356.060274 359.301448 
L 358.298046 358.735575 
L 360.535818 358.169701 
L 362.77359 357.603828 
L 365.011362 357.037954 
L 367.249134 356.472081 
L 369.486906 355.906208 
L 371.724679 355.340334 
L 373.962451 354.774461 
L 376.200223 354.208587 
L 378.437995 353.642714 
L 380.675767 353.07684 
L 382.913539 352.510967 
L 385.151312 351.945094 
L 387.389084 351.37922 
L 389.626856 350.813347 
L 391.864628 350.247473 
L 394.1024 349.6816 
" clip-path="url(#p729990a40c)" style="fill: none; stroke: #000000; stroke-linecap: square"/>
   </g>
   <g id="line2d_6">
    <path d="M 394.1024 349.6816 
L 394.1024 349.6816 
L 394.1024 349.6816 
L 394.1024 349.6816 
L 394.1024 349.6816 
L 394.1024 349.6816 
L 394.1024 349.6816 
L 394.1024 349.6816 
L 394.1024 349.6816 
L 394.1024 349.6816 
L 394.1024 349.6816 
L 394.1024 349.6816 
L 394.1024 349.6816 
L 394.1024 349.6816 
L 394.1024 349.6816 
L 394.1024 349.6816 
L 394.1024 349.6816 
L 394.1024 349.6816 
L 394.1024 349.6816 
L 394.1024 349.6816 
L 394.1024 349.6816 
L 394.1024 349.6816 
L 394.1024 349.6816 
L 394.1024 349.6816 
L 394.1024 349.6816 
L 394.1024 349.6816 
L 394.1024 349.6816 
L 394.1024 349.6816 
L 394.1024 349.6816 
L 394.1024 349.6816 
L 394.1024 349.6816 
L 394.1024 349.6816 
L 394.1024 349.6816 
L 394.1024 349.6816 
L 394.1024 349.6816 
L 394.1024 349.6816 
L 394.1024 349.6816 
L 394.1024 349.6816 
L 394.1024 349.6816 
L 394.1024 349.6816 
L 394.1024 349.6816 
L 394.1024 349.6816 
L 394.1024 349.6816 
L 394.1024 349.6816 
L 394.1024 349.6816 
L 394.1024 349.6816 
L 394.1024 349.6816 
L 394.1024 349.6816 
L 394.1024 349.6816 
L 394.1024 349.6816 
L 394.1024 349.6816 
L 394.1024 349.6816 
L 394.1024 349.6816 
L 394.1024 349.6816 
L 394.1024 349.6816 
L 394.1024 349.6816 
L 394.1024 349.6816 
L 394.1024 349.6816 
L 394.1024 349.6816 
L 394.1024 349.6816 
L 394.1024 349.6816 
L 394.1024 349.6816 
L 394.1024 349.6816 
L 394.1024 349.6816 
L 394.1024 349.6816 
L 394.1024 349.6816 
L 394.1024 349.6816 
L 394.1024 349.6816 
L 394.1024 349.6816 
L 394.1024 349.6816 
L 394.1024 349.6816 
L 394.1024 349.6816 
L 394.1024 349.6816 
L 394.1024 349.6816 
L 394.1024 349.6816 
L 394.1024 349.6816 
L 394.1024 349.6816 
L 394.1024 349.6816 
L 394.1024 349.6816 
L 394.1024 349.6816 
" clip-path="url(#p729990a40c)" style="fill: none; stroke: #000000; stroke-linecap: square"/>
   </g>
   <g id="line2d_7">
    <path d="M 307.184 200.6128 
L 307.184 200.6128 
L 307.184 200.6128 
L 307.184 200.6128 
L 307.184 200.6128 
L 307.184 200.6128 
L 307.184 200.6128 
L 307.184 200.6128 
L 307.184 200.6128 
L 307.184 200.6128 
L 307.184 200.6128 
L 307.184 200.6128 
L 307.184 200.6128 
L 307.184 200.6128 
L 307.184 200.6128 
L 307.184 200.6128 
L 307.184 200.6128 
L 307.184 200.6128 
L 307.184 200.6128 
L 307.184 200.6128 
L 307.184 200.6128 
L 307.184 200.6128 
L 307.184 200.6128 
L 307.184 200.6128 
L 307.184 200.6128 
L 307.184 200.6128 
L 307.184 200.6128 
L 307.184 200.6128 
L 307.184 200.6128 
L 307.184 200.6128 
L 307.184 200.6128 
L 307.184 200.6128 
L 307.184 200.6128 
L 307.184 200.6128 
L 307.184 200.6128 
L 307.184 200.6128 
L 307.184 200.6128 
L 307.184 200.6128 
L 307.184 200.6128 
L 307.184 200.6128 
L 307.184 200.6128 
L 307.184 200.6128 
L 307.184 200.6128 
L 307.184 200.6128 
L 307.184 200.6128 
L 307.184 200.6128 
L 307.184 200.6128 
L 307.184 200.6128 
L 307.184 200.6128 
L 307.184 200.6128 
L 307.184 200.6128 
L 307.184 200.6128 
L 307.184 200.6128 
L 307.184 200.6128 
L 307.184 200.6128 
L 307.184 200.6128 
L 307.184 200.6128 
L 307.184 200.6128 
L 307.184 200.6128 
L 307.184 200.6128 
L 307.184 200.6128 
L 307.184 200.6128 
L 307.184 200.6128 
L 307.184 200.6128 
L 307.184 200.6128 
L 307.184 200.6128 
L 307.184 200.6128 
L 307.184 200.6128 
L 307.184 200.6128 
L 307.184 200.6128 
L 307.184 200.6128 
L 307.184 200.6128 
L 307.184 200.6128 
L 307.184 200.6128 
L 307.184 200.6128 
L 307.184 200.6128 
L 307.184 200.6128 
L 307.184 200.6128 
L 307.184 200.6128 
L 307.184 200.6128 
" clip-path="url(#p729990a40c)" style="fill: none; stroke: #000000; stroke-linecap: square"/>
   </g>
   <g id="line2d_8">
    <path d="M 307.184 200.6128 
L 306.515241 198.477914 
L 305.846481 196.343028 
L 305.177722 194.208142 
L 304.508962 192.073256 
L 303.840203 189.93837 
L 303.171443 187.803483 
L 302.502684 185.668597 
L 301.833924 183.533711 
L 301.165165 181.398825 
L 300.496405 179.263939 
L 299.827646 177.129053 
L 299.158886 174.994167 
L 298.490127 172.859281 
L 297.821367 170.724395 
L 297.152608 168.589509 
L 296.483848 166.454623 
L 295.815089 164.319737 
L 295.146329 162.184851 
L 294.47757 160.049964 
L 293.80881 157.915078 
L 293.140051 155.780192 
L 292.471291 153.645306 
L 291.802532 151.51042 
L 291.133772 149.375534 
L 290.465013 147.240648 
L 289.796253 145.105762 
L 289.127494 142.970876 
L 288.458734 140.83599 
L 287.789975 138.701104 
L 287.121215 136.566218 
L 286.452456 134.431332 
L 285.783696 132.296445 
L 285.114937 130.161559 
L 284.446177 128.026673 
L 283.777418 125.891787 
L 283.108658 123.756901 
L 282.439899 121.622015 
L 281.771139 119.487129 
L 281.10238 117.352243 
L 280.43362 115.217357 
L 279.764861 113.082471 
L 279.096101 110.947585 
L 278.427342 108.812699 
L 277.758582 106.677813 
L 277.089823 104.542926 
L 276.421063 102.40804 
L 275.752304 100.273154 
L 275.083544 98.138268 
L 274.414785 96.003382 
L 273.746025 93.868496 
L 273.077266 91.73361 
L 272.408506 89.598724 
L 271.739747 87.463838 
L 271.070987 85.328952 
L 270.402228 83.194066 
L 269.733469 81.05918 
L 269.064709 78.924294 
L 268.39595 76.789407 
L 267.72719 74.654521 
L 267.058431 72.519635 
L 266.389671 70.384749 
L 265.720912 68.249863 
L 265.052152 66.114977 
L 264.383393 63.980091 
L 263.714633 61.845205 
L 263.045874 59.710319 
L 262.377114 57.575433 
L 261.708355 55.440547 
L 261.039595 53.305661 
L 260.370836 51.170775 
L 259.702076 49.035888 
L 259.033317 46.901002 
L 258.364557 44.766116 
L 257.695798 42.63123 
L 257.027038 40.496344 
L 256.358279 38.361458 
L 255.689519 36.226572 
L 255.02076 34.091686 
L 254.352 31.9568 
" clip-path="url(#p729990a40c)" style="fill: none; stroke: #000000; stroke-linecap: square"/>
   </g>
   <g id="line2d_9">
    <path d="M 254.352 31.9568 
L 252.348294 33.114268 
L 250.344587 34.271737 
L 248.340881 35.429205 
L 246.337175 36.586673 
L 244.333468 37.744142 
L 242.329762 38.90161 
L 240.326056 40.059078 
L 238.322349 41.216547 
L 236.318643 42.374015 
L 234.314937 43.531483 
L 232.311231 44.688952 
L 230.307524 45.84642 
L 228.303818 47.003888 
L 226.300112 48.161357 
L 224.296405 49.318825 
L 222.292699 50.476294 
L 220.288993 51.633762 
L 218.285286 52.79123 
L 216.28158 53.948699 
L 214.277874 55.106167 
L 212.274167 56.263635 
L 210.270461 57.421104 
L 208.266755 58.578572 
L 206.263048 59.73604 
L 204.259342 60.893509 
L 202.255636 62.050977 
L 200.251929 63.208445 
L 198.248223 64.365914 
L 196.244517 65.523382 
L 194.24081 66.68085 
L 192.237104 67.838319 
L 190.233398 68.995787 
L 188.229691 70.153256 
L 186.225985 71.310724 
L 184.222279 72.468192 
L 182.218572 73.625661 
L 180.214866 74.783129 
L 178.21116 75.940597 
L 176.207453 77.098066 
L 174.203747 78.255534 
L 172.200041 79.413002 
L 170.196334 80.570471 
L 168.192628 81.727939 
L 166.188922 82.885407 
L 164.185215 84.042876 
L 162.181509 85.200344 
L 160.177803 86.357813 
L 158.174096 87.515281 
L 156.17039 88.672749 
L 154.166684 89.830218 
L 152.162977 90.987686 
L 150.159271 92.145154 
L 148.155565 93.302623 
L 146.151858 94.460091 
L 144.148152 95.617559 
L 142.144446 96.775028 
L 140.140739 97.932496 
L 138.137033 99.089964 
L 136.133327 100.247433 
L 134.12962 101.404901 
L 132.125914 102.562369 
L 130.122208 103.719838 
L 128.118501 104.877306 
L 126.114795 106.034775 
L 124.111089 107.192243 
L 122.107382 108.349711 
L 120.103676 109.50718 
L 118.09997 110.664648 
L 116.096263 111.822116 
L 114.092557 112.979585 
L 112.088851 114.137053 
L 110.085144 115.294521 
L 108.081438 116.45199 
L 106.077732 117.609458 
L 104.074025 118.766926 
L 102.070319 119.924395 
L 100.066613 121.081863 
L 98.062906 122.239332 
L 96.0592 123.3968 
" clip-path="url(#p729990a40c)" style="fill: none; stroke: #000000; stroke-linecap: square"/>
   </g>
   <g id="line2d_10">
    <path d="M 96.0592 123.3968 
L 96.493894 124.940091 
L 96.928587 126.483382 
L 97.363281 128.026673 
L 97.797975 129.569964 
L 98.232668 131.113256 
L 98.667362 132.656547 
L 99.102056 134.199838 
L 99.536749 135.743129 
L 99.971443 137.28642 
L 100.406137 138.829711 
L 100.84083 140.373002 
L 101.275524 141.916294 
L 101.710218 143.459585 
L 102.144911 145.002876 
L 102.579605 146.546167 
L 103.014299 148.089458 
L 103.448992 149.632749 
L 103.883686 151.17604 
L 104.31838 152.719332 
L 104.753073 154.262623 
L 105.187767 155.805914 
L 105.622461 157.349205 
L 106.057154 158.892496 
L 106.491848 160.435787 
L 106.926542 161.979078 
L 107.361235 163.52237 
L 107.795929 165.065661 
L 108.230623 166.608952 
L 108.665317 168.152243 
L 109.10001 169.695534 
L 109.534704 171.238825 
L 109.969398 172.782116 
L 110.404091 174.325408 
L 110.838785 175.868699 
L 111.273479 177.41199 
L 111.708172 178.955281 
L 112.142866 180.498572 
L 112.57756 182.041863 
L 113.012253 183.585154 
L 113.446947 185.128445 
L 113.881641 186.671737 
L 114.316334 188.215028 
L 114.751028 189.758319 
L 115.185722 191.30161 
L 115.620415 192.844901 
L 116.055109 194.388192 
L 116.489803 195.931483 
L 116.924496 197.474775 
L 117.35919 199.018066 
L 117.793884 200.561357 
L 118.228577 202.104648 
L 118.663271 203.647939 
L 119.097965 205.19123 
L 119.532658 206.734521 
L 119.967352 208.277813 
L 120.402046 209.821104 
L 120.836739 211.364395 
L 121.271433 212.907686 
L 121.706127 214.450977 
L 122.14082 215.994268 
L 122.575514 217.537559 
L 123.010208 219.080851 
L 123.444901 220.624142 
L 123.879595 222.167433 
L 124.314289 223.710724 
L 124.748982 225.254015 
L 125.183676 226.797306 
L 125.61837 228.340597 
L 126.053063 229.883889 
L 126.487757 231.42718 
L 126.922451 232.970471 
L 127.357144 234.513762 
L 127.791838 236.057053 
L 128.226532 237.600344 
L 128.661225 239.143635 
L 129.095919 240.686927 
L 129.530613 242.230218 
L 129.965306 243.773509 
L 130.4 245.3168 
" clip-path="url(#p729990a40c)" style="fill: none; stroke: #000000; stroke-linecap: square"/>
   </g>
   <g id="line2d_11">
    <path d="M 130.4 245.3168 
L 132.637772 244.750927 
L 134.875544 244.185053 
L 137.113317 243.61918 
L 139.351089 243.053306 
L 141.588861 242.487433 
L 143.826633 241.921559 
L 146.064405 241.355686 
L 148.302177 240.789813 
L 150.539949 240.223939 
L 152.777722 239.658066 
L 155.015494 239.092192 
L 157.253266 238.526319 
L 159.491038 237.960446 
L 161.72881 237.394572 
L 163.966582 236.828699 
L 166.204355 236.262825 
L 168.442127 235.696952 
L 170.679899 235.131078 
L 172.917671 234.565205 
L 175.155443 233.999332 
L 177.393215 233.433458 
L 179.630987 232.867585 
L 181.86876 232.301711 
L 184.106532 231.735838 
L 186.344304 231.169965 
L 188.582076 230.604091 
L 190.819848 230.038218 
L 193.05762 229.472344 
L 195.295393 228.906471 
L 197.533165 228.340597 
L 199.770937 227.774724 
L 202.008709 227.208851 
L 204.246481 226.642977 
L 206.484253 226.077104 
L 208.722025 225.51123 
L 210.959798 224.945357 
L 213.19757 224.379483 
L 215.435342 223.81361 
L 217.673114 223.247737 
L 219.910886 222.681863 
L 222.148658 222.11599 
L 224.386431 221.550116 
L 226.624203 220.984243 
L 228.861975 220.41837 
L 231.099747 219.852496 
L 233.337519 219.286623 
L 235.575291 218.720749 
L 237.813063 218.154876 
L 240.050836 217.589002 
L 242.288608 217.023129 
L 244.52638 216.457256 
L 246.764152 215.891382 
L 249.001924 215.325509 
L 251.239696 214.759635 
L 253.477468 214.193762 
L 255.715241 213.627889 
L 257.953013 213.062015 
L 260.190785 212.496142 
L 262.428557 211.930268 
L 264.666329 211.364395 
L 266.904101 210.798521 
L 269.141874 210.232648 
L 271.379646 209.666775 
L 273.617418 209.100901 
L 275.85519 208.535028 
L 278.092962 207.969154 
L 280.330734 207.403281 
L 282.568506 206.837408 
L 284.806279 206.271534 
L 287.044051 205.705661 
L 289.281823 205.139787 
L 291.519595 204.573914 
L 293.757367 204.00804 
L 295.995139 203.442167 
L 298.232912 202.876294 
L 300.470684 202.31042 
L 302.708456 201.744547 
L 304.946228 201.178673 
L 307.184 200.6128 
" clip-path="url(#p729990a40c)" style="fill: none; stroke: #000000; stroke-linecap: square"/>
   </g>
   <g id="line2d_12">
    <path d="M 307.184 200.6128 
L 307.184 200.6128 
L 307.184 200.6128 
L 307.184 200.6128 
L 307.184 200.6128 
L 307.184 200.6128 
L 307.184 200.6128 
L 307.184 200.6128 
L 307.184 200.6128 
L 307.184 200.6128 
L 307.184 200.6128 
L 307.184 200.6128 
L 307.184 200.6128 
L 307.184 200.6128 
L 307.184 200.6128 
L 307.184 200.6128 
L 307.184 200.6128 
L 307.184 200.6128 
L 307.184 200.6128 
L 307.184 200.6128 
L 307.184 200.6128 
L 307.184 200.6128 
L 307.184 200.6128 
L 307.184 200.6128 
L 307.184 200.6128 
L 307.184 200.6128 
L 307.184 200.6128 
L 307.184 200.6128 
L 307.184 200.6128 
L 307.184 200.6128 
L 307.184 200.6128 
L 307.184 200.6128 
L 307.184 200.6128 
L 307.184 200.6128 
L 307.184 200.6128 
L 307.184 200.6128 
L 307.184 200.6128 
L 307.184 200.6128 
L 307.184 200.6128 
L 307.184 200.6128 
L 307.184 200.6128 
L 307.184 200.6128 
L 307.184 200.6128 
L 307.184 200.6128 
L 307.184 200.6128 
L 307.184 200.6128 
L 307.184 200.6128 
L 307.184 200.6128 
L 307.184 200.6128 
L 307.184 200.6128 
L 307.184 200.6128 
L 307.184 200.6128 
L 307.184 200.6128 
L 307.184 200.6128 
L 307.184 200.6128 
L 307.184 200.6128 
L 307.184 200.6128 
L 307.184 200.6128 
L 307.184 200.6128 
L 307.184 200.6128 
L 307.184 200.6128 
L 307.184 200.6128 
L 307.184 200.6128 
L 307.184 200.6128 
L 307.184 200.6128 
L 307.184 200.6128 
L 307.184 200.6128 
L 307.184 200.6128 
L 307.184 200.6128 
L 307.184 200.6128 
L 307.184 200.6128 
L 307.184 200.6128 
L 307.184 200.6128 
L 307.184 200.6128 
L 307.184 200.6128 
L 307.184 200.6128 
L 307.184 200.6128 
L 307.184 200.6128 
L 307.184 200.6128 
L 307.184 200.6128 
" clip-path="url(#p729990a40c)" style="fill: none; stroke: #000000; stroke-linecap: square"/>
   </g>
   <g id="line2d_13">
    <path d="M 479.9264 499.384 
L 479.9264 499.384 
L 479.9264 499.384 
L 479.9264 499.384 
L 479.9264 499.384 
L 479.9264 499.384 
L 479.9264 499.384 
L 479.9264 499.384 
L 479.9264 499.384 
L 479.9264 499.384 
L 479.9264 499.384 
L 479.9264 499.384 
L 479.9264 499.384 
L 479.9264 499.384 
L 479.9264 499.384 
L 479.9264 499.384 
L 479.9264 499.384 
L 479.9264 499.384 
L 479.9264 499.384 
L 479.9264 499.384 
L 479.9264 499.384 
L 479.9264 499.384 
L 479.9264 499.384 
L 479.9264 499.384 
L 479.9264 499.384 
L 479.9264 499.384 
L 479.9264 499.384 
L 479.9264 499.384 
L 479.9264 499.384 
L 479.9264 499.384 
L 479.9264 499.384 
L 479.9264 499.384 
L 479.9264 499.384 
L 479.9264 499.384 
L 479.9264 499.384 
L 479.9264 499.384 
L 479.9264 499.384 
L 479.9264 499.384 
L 479.9264 499.384 
L 479.9264 499.384 
L 479.9264 499.384 
L 479.9264 499.384 
L 479.9264 499.384 
L 479.9264 499.384 
L 479.9264 499.384 
L 479.9264 499.384 
L 479.9264 499.384 
L 479.9264 499.384 
L 479.9264 499.384 
L 479.9264 499.384 
L 479.9264 499.384 
L 479.9264 499.384 
L 479.9264 499.384 
L 479.9264 499.384 
L 479.9264 499.384 
L 479.9264 499.384 
L 479.9264 499.384 
L 479.9264 499.384 
L 479.9264 499.384 
L 479.9264 499.384 
L 479.9264 499.384 
L 479.9264 499.384 
L 479.9264 499.384 
L 479.9264 499.384 
L 479.9264 499.384 
L 479.9264 499.384 
L 479.9264 499.384 
L 479.9264 499.384 
L 479.9264 499.384 
L 479.9264 499.384 
L 479.9264 499.384 
L 479.9264 499.384 
L 479.9264 499.384 
L 479.9264 499.384 
L 479.9264 499.384 
L 479.9264 499.384 
L 479.9264 499.384 
L 479.9264 499.384 
L 479.9264 499.384 
L 479.9264 499.384 
" clip-path="url(#p729990a40c)" style="fill: none; stroke: #000000; stroke-linecap: square"/>
   </g>
   <g id="line2d_14">
    <path d="M 479.9264 499.384 
L 479.257641 497.249114 
L 478.588881 495.114228 
L 477.920122 492.979342 
L 477.251362 490.844456 
L 476.582603 488.70957 
L 475.913843 486.574683 
L 475.245084 484.439797 
L 474.576324 482.304911 
L 473.907565 480.170025 
L 473.238805 478.035139 
L 472.570046 475.900253 
L 471.901286 473.765367 
L 471.232527 471.630481 
L 470.563767 469.495595 
L 469.895008 467.360709 
L 469.226248 465.225823 
L 468.557489 463.090937 
L 467.888729 460.956051 
L 467.21997 458.821164 
L 466.55121 456.686278 
L 465.882451 454.551392 
L 465.213691 452.416506 
L 464.544932 450.28162 
L 463.876172 448.146734 
L 463.207413 446.011848 
L 462.538653 443.876962 
L 461.869894 441.742076 
L 461.201134 439.60719 
L 460.532375 437.472304 
L 459.863615 435.337418 
L 459.194856 433.202532 
L 458.526096 431.067645 
L 457.857337 428.932759 
L 457.188577 426.797873 
L 456.519818 424.662987 
L 455.851058 422.528101 
L 455.182299 420.393215 
L 454.513539 418.258329 
L 453.84478 416.123443 
L 453.17602 413.988557 
L 452.507261 411.853671 
L 451.838501 409.718785 
L 451.169742 407.583899 
L 450.500982 405.449013 
L 449.832223 403.314126 
L 449.163463 401.17924 
L 448.494704 399.044354 
L 447.825944 396.909468 
L 447.157185 394.774582 
L 446.488425 392.639696 
L 445.819666 390.50481 
L 445.150906 388.369924 
L 444.482147 386.235038 
L 443.813387 384.100152 
L 443.144628 381.965266 
L 442.475869 379.83038 
L 441.807109 377.695494 
L 441.13835 375.560607 
L 440.46959 373.425721 
L 439.800831 371.290835 
L 439.132071 369.155949 
L 438.463312 367.021063 
L 437.794552 364.886177 
L 437.125793 362.751291 
L 436.457033 360.616405 
L 435.788274 358.481519 
L 435.119514 356.346633 
L 434.450755 354.211747 
L 433.781995 352.076861 
L 433.113236 349.941975 
L 432.444476 347.807088 
L 431.775717 345.672202 
L 431.106957 343.537316 
L 430.438198 341.40243 
L 429.769438 339.267544 
L 429.100679 337.132658 
L 428.431919 334.997772 
L 427.76316 332.862886 
L 427.0944 330.728 
" clip-path="url(#p729990a40c)" style="fill: none; stroke: #000000; stroke-linecap: square"/>
   </g>
   <g id="line2d_15">
    <path d="M 427.0944 330.728 
L 425.090694 331.885468 
L 423.086987 333.042937 
L 421.083281 334.200405 
L 419.079575 335.357873 
L 417.075868 336.515342 
L 415.072162 337.67281 
L 413.068456 338.830278 
L 411.064749 339.987747 
L 409.061043 341.145215 
L 407.057337 342.302683 
L 405.053631 343.460152 
L 403.049924 344.61762 
L 401.046218 345.775088 
L 399.042512 346.932557 
L 397.038805 348.090025 
L 395.035099 349.247494 
L 393.031393 350.404962 
L 391.027686 351.56243 
L 389.02398 352.719899 
L 387.020274 353.877367 
L 385.016567 355.034835 
L 383.012861 356.192304 
L 381.009155 357.349772 
L 379.005448 358.50724 
L 377.001742 359.664709 
L 374.998036 360.822177 
L 372.994329 361.979645 
L 370.990623 363.137114 
L 368.986917 364.294582 
L 366.98321 365.45205 
L 364.979504 366.609519 
L 362.975798 367.766987 
L 360.972091 368.924456 
L 358.968385 370.081924 
L 356.964679 371.239392 
L 354.960972 372.396861 
L 352.957266 373.554329 
L 350.95356 374.711797 
L 348.949853 375.869266 
L 346.946147 377.026734 
L 344.942441 378.184202 
L 342.938734 379.341671 
L 340.935028 380.499139 
L 338.931322 381.656607 
L 336.927615 382.814076 
L 334.923909 383.971544 
L 332.920203 385.129013 
L 330.916496 386.286481 
L 328.91279 387.443949 
L 326.909084 388.601418 
L 324.905377 389.758886 
L 322.901671 390.916354 
L 320.897965 392.073823 
L 318.894258 393.231291 
L 316.890552 394.388759 
L 314.886846 395.546228 
L 312.883139 396.703696 
L 310.879433 397.861164 
L 308.875727 399.018633 
L 306.87202 400.176101 
L 304.868314 401.333569 
L 302.864608 402.491038 
L 300.860901 403.648506 
L 298.857195 404.805975 
L 296.853489 405.963443 
L 294.849782 407.120911 
L 292.846076 408.27838 
L 290.84237 409.435848 
L 288.838663 410.593316 
L 286.834957 411.750785 
L 284.831251 412.908253 
L 282.827544 414.065721 
L 280.823838 415.22319 
L 278.820132 416.380658 
L 276.816425 417.538126 
L 274.812719 418.695595 
L 272.809013 419.853063 
L 270.805306 421.010532 
L 268.8016 422.168 
" clip-path="url(#p729990a40c)" style="fill: none; stroke: #000000; stroke-linecap: square"/>
   </g>
   <g id="line2d_16">
    <path d="M 268.8016 422.168 
L 269.236294 423.711291 
L 269.670987 425.254582 
L 270.105681 426.797873 
L 270.540375 428.341164 
L 270.975068 429.884456 
L 271.409762 431.427747 
L 271.844456 432.971038 
L 272.279149 434.514329 
L 272.713843 436.05762 
L 273.148537 437.600911 
L 273.58323 439.144202 
L 274.017924 440.687494 
L 274.452618 442.230785 
L 274.887311 443.774076 
L 275.322005 445.317367 
L 275.756699 446.860658 
L 276.191392 448.403949 
L 276.626086 449.94724 
L 277.06078 451.490532 
L 277.495473 453.033823 
L 277.930167 454.577114 
L 278.364861 456.120405 
L 278.799554 457.663696 
L 279.234248 459.206987 
L 279.668942 460.750278 
L 280.103635 462.29357 
L 280.538329 463.836861 
L 280.973023 465.380152 
L 281.407717 466.923443 
L 281.84241 468.466734 
L 282.277104 470.010025 
L 282.711798 471.553316 
L 283.146491 473.096608 
L 283.581185 474.639899 
L 284.015879 476.18319 
L 284.450572 477.726481 
L 284.885266 479.269772 
L 285.31996 480.813063 
L 285.754653 482.356354 
L 286.189347 483.899645 
L 286.624041 485.442937 
L 287.058734 486.986228 
L 287.493428 488.529519 
L 287.928122 490.07281 
L 288.362815 491.616101 
L 288.797509 493.159392 
L 289.232203 494.702683 
L 289.666896 496.245975 
L 290.10159 497.789266 
L 290.536284 499.332557 
L 290.970977 500.875848 
L 291.405671 502.419139 
L 291.840365 503.96243 
L 292.275058 505.505721 
L 292.709752 507.049013 
L 293.144446 508.592304 
L 293.579139 510.135595 
L 294.013833 511.678886 
L 294.448527 513.222177 
L 294.88322 514.765468 
L 295.317914 516.308759 
L 295.752608 517.852051 
L 296.187301 519.395342 
L 296.621995 520.938633 
L 297.056689 522.481924 
L 297.491382 524.025215 
L 297.926076 525.568506 
L 298.36077 527.111797 
L 298.795463 528.655089 
L 299.230157 530.19838 
L 299.664851 531.741671 
L 300.099544 533.284962 
L 300.534238 534.828253 
L 300.968932 536.371544 
L 301.403625 537.914835 
L 301.838319 539.458127 
L 302.273013 541.001418 
L 302.707706 542.544709 
L 303.1424 544.088 
" clip-path="url(#p729990a40c)" style="fill: none; stroke: #000000; stroke-linecap: square"/>
   </g>
   <g id="line2d_17">
    <path d="M 303.1424 544.088 
L 305.380172 543.522127 
L 307.617944 542.956253 
L 309.855717 542.39038 
L 312.093489 541.824506 
L 314.331261 541.258633 
L 316.569033 540.692759 
L 318.806805 540.126886 
L 321.044577 539.561013 
L 323.282349 538.995139 
L 325.520122 538.429266 
L 327.757894 537.863392 
L 329.995666 537.297519 
L 332.233438 536.731646 
L 334.47121 536.165772 
L 336.708982 535.599899 
L 338.946755 535.034025 
L 341.184527 534.468152 
L 343.422299 533.902278 
L 345.660071 533.336405 
L 347.897843 532.770532 
L 350.135615 532.204658 
L 352.373387 531.638785 
L 354.61116 531.072911 
L 356.848932 530.507038 
L 359.086704 529.941165 
L 361.324476 529.375291 
L 363.562248 528.809418 
L 365.80002 528.243544 
L 368.037793 527.677671 
L 370.275565 527.111797 
L 372.513337 526.545924 
L 374.751109 525.980051 
L 376.988881 525.414177 
L 379.226653 524.848304 
L 381.464425 524.28243 
L 383.702198 523.716557 
L 385.93997 523.150683 
L 388.177742 522.58481 
L 390.415514 522.018937 
L 392.653286 521.453063 
L 394.891058 520.88719 
L 397.128831 520.321316 
L 399.366603 519.755443 
L 401.604375 519.18957 
L 403.842147 518.623696 
L 406.079919 518.057823 
L 408.317691 517.491949 
L 410.555463 516.926076 
L 412.793236 516.360202 
L 415.031008 515.794329 
L 417.26878 515.228456 
L 419.506552 514.662582 
L 421.744324 514.096709 
L 423.982096 513.530835 
L 426.219868 512.964962 
L 428.457641 512.399089 
L 430.695413 511.833215 
L 432.933185 511.267342 
L 435.170957 510.701468 
L 437.408729 510.135595 
L 439.646501 509.569721 
L 441.884274 509.003848 
L 444.122046 508.437975 
L 446.359818 507.872101 
L 448.59759 507.306228 
L 450.835362 506.740354 
L 453.073134 506.174481 
L 455.310906 505.608608 
L 457.548679 505.042734 
L 459.786451 504.476861 
L 462.024223 503.910987 
L 464.261995 503.345114 
L 466.499767 502.77924 
L 468.737539 502.213367 
L 470.975312 501.647494 
L 473.213084 501.08162 
L 475.450856 500.515747 
L 477.688628 499.949873 
L 479.9264 499.384 
" clip-path="url(#p729990a40c)" style="fill: none; stroke: #000000; stroke-linecap: square"/>
   </g>
   <g id="line2d_18">
    <path d="M 479.9264 499.384 
L 479.9264 499.384 
L 479.9264 499.384 
L 479.9264 499.384 
L 479.9264 499.384 
L 479.9264 499.384 
L 479.9264 499.384 
L 479.9264 499.384 
L 479.9264 499.384 
L 479.9264 499.384 
L 479.9264 499.384 
L 479.9264 499.384 
L 479.9264 499.384 
L 479.9264 499.384 
L 479.9264 499.384 
L 479.9264 499.384 
L 479.9264 499.384 
L 479.9264 499.384 
L 479.9264 499.384 
L 479.9264 499.384 
L 479.9264 499.384 
L 479.9264 499.384 
L 479.9264 499.384 
L 479.9264 499.384 
L 479.9264 499.384 
L 479.9264 499.384 
L 479.9264 499.384 
L 479.9264 499.384 
L 479.9264 499.384 
L 479.9264 499.384 
L 479.9264 499.384 
L 479.9264 499.384 
L 479.9264 499.384 
L 479.9264 499.384 
L 479.9264 499.384 
L 479.9264 499.384 
L 479.9264 499.384 
L 479.9264 499.384 
L 479.9264 499.384 
L 479.9264 499.384 
L 479.9264 499.384 
L 479.9264 499.384 
L 479.9264 499.384 
L 479.9264 499.384 
L 479.9264 499.384 
L 479.9264 499.384 
L 479.9264 499.384 
L 479.9264 499.384 
L 479.9264 499.384 
L 479.9264 499.384 
L 479.9264 499.384 
L 479.9264 499.384 
L 479.9264 499.384 
L 479.9264 499.384 
L 479.9264 499.384 
L 479.9264 499.384 
L 479.9264 499.384 
L 479.9264 499.384 
L 479.9264 499.384 
L 479.9264 499.384 
L 479.9264 499.384 
L 479.9264 499.384 
L 479.9264 499.384 
L 479.9264 499.384 
L 479.9264 499.384 
L 479.9264 499.384 
L 479.9264 499.384 
L 479.9264 499.384 
L 479.9264 499.384 
L 479.9264 499.384 
L 479.9264 499.384 
L 479.9264 499.384 
L 479.9264 499.384 
L 479.9264 499.384 
L 479.9264 499.384 
L 479.9264 499.384 
L 479.9264 499.384 
L 479.9264 499.384 
L 479.9264 499.384 
L 479.9264 499.384 
" clip-path="url(#p729990a40c)" style="fill: none; stroke: #000000; stroke-linecap: square"/>
   </g>
   <g id="patch_4">
    <path d="M 0 576 
L 0 0 
" style="fill: none; stroke: #000000; stroke-width: 0.8; stroke-linejoin: miter; stroke-linecap: square"/>
   </g>
   <g id="patch_5">
    <path d="M 576 576 
L 576 0 
" style="fill: none; stroke: #000000; stroke-width: 0.8; stroke-linejoin: miter; stroke-linecap: square"/>
   </g>
   <g id="patch_6">
    <path d="M 0 576 
L 576 576 
" style="fill: none; stroke: #000000; stroke-width: 0.8; stroke-linejoin: miter; stroke-linecap: square"/>
   </g>
   <g id="patch_7">
    <path d="M 0 0 
L 576 0 
" style="fill: none; stroke: #000000; stroke-width: 0.8; stroke-linejoin: miter; stroke-linecap: square"/>
   </g>
  </g>
 </g>
 <defs>
  <clipPath id="p729990a40c">
   <rect x="0" y="0" width="576" height="576"/>
  </clipPath>
 </defs>
</svg>
