<?xml version="1.0" encoding="utf-8" standalone="no"?>
<!DOCTYPE svg PUBLIC "-//W3C//DTD SVG 1.1//EN"
  "http://www.w3.org/Graphics/SVG/1.1/DTD/svg11.dtd">
<svg xmlns:xlink="http://www.w3.org/1999/xlink" width="10000pt" height="10000pt" viewBox="0 0 10000 10000" xmlns="http://www.w3.org/2000/svg" version="1.1">
 <metadata>
  <rdf:RDF xmlns:dc="http://purl.org/dc/elements/1.1/" xmlns:cc="http://creativecommons.org/ns#" xmlns:rdf="http://www.w3.org/1999/02/22-rdf-syntax-ns#">
   <cc:Work>
    <dc:type rdf:resource="http://purl.org/dc/dcmitype/StillImage"/>
    <dc:date>2024-05-18T22:32:50.106717</dc:date>
    <dc:format>image/svg+xml</dc:format>
    <dc:creator>
     <cc:Agent>
      <dc:title>Matplotlib v3.8.4, https://matplotlib.org/</dc:title>
     </cc:Agent>
    </dc:creator>
   </cc:Work>
  </rdf:RDF>
 </metadata>
 <defs>
  <style type="text/css">*{stroke-linejoin: round; stroke-linecap: butt}</style>
 </defs>
 <g id="figure_1">
  <g id="patch_1">
   <path d="M 0 10000 
L 10000 10000 
L 10000 0 
L 0 0 
z
" style="fill: #ffffff"/>
  </g>
  <g id="axes_1">
   <g id="patch_2">
    <path d="M 0 10000 
L 10000 10000 
L 10000 0 
L 0 0 
z
" style="fill: #ffffff"/>
   </g>
   <g id="patch_3">
    <path d="M 44.916669 9961.611105 
L 8238.018575 9961.611105 
L 8238.018575 2138.521148 
L 44.916669 2138.521148 
L 44.916669 9961.611105 
z
" clip-path="url(#p7acced73c6)" style="fill: none; stroke: #ff0000; stroke-linejoin: miter"/>
   </g>
   <g id="matplotlib.axis_1"/>
   <g id="matplotlib.axis_2"/>
   <g id="line2d_1">
    <path d="M 4767.166951 3757.706937 
L 3582.471388 4164.174535 
L 3582.471388 4164.174535 
L 2831.1929 3164.395313 
L 2831.1929 3164.395313 
L 3549.517724 2138.521148 
L 3549.517724 2138.521148 
L 4745.955257 2502.547366 
L 4745.955257 2502.547366 
L 4767.166951 3757.706937 
L 4767.166951 3757.706937 
" clip-path="url(#p7acced73c6)" style="fill: none; stroke: #000000; stroke-linecap: square"/>
   </g>
   <g id="line2d_2">
    <path d="M 3689.918161 2546.907338 
L 3637.551254 2953.821646 
L 3637.551254 2953.821646 
L 3273.087418 3142.203332 
L 3273.087418 3142.203332 
L 3642.992069 3315.080928 
L 3642.992069 3315.080928 
L 3709.118399 3718.832665 
L 3709.118399 3718.832665 
L 3990.941541 3420.905884 
L 3990.941541 3420.905884 
L 4394.675285 3483.965601 
L 4394.675285 3483.965601 
L 4197.333462 3126.147674 
L 4197.333462 3126.147674 
L 4380.903868 2759.423586 
L 4380.903868 2759.423586 
L 3978.884804 2835.376389 
L 3978.884804 2835.376389 
L 3689.918161 2546.907338 
L 3689.918161 2546.907338 
" clip-path="url(#p7acced73c6)" style="fill: none; stroke: #000000; stroke-linecap: square"/>
   </g>
   <g id="line2d_3">
    <path d="M 3547.167511 2412.499286 
L 3097.961565 3054.031862 
L 3097.961565 3054.031862 
L 3490.172148 2850.625686 
L 3490.172148 2850.625686 
L 3547.167511 2412.499286 
L 3547.167511 2412.499286 
" clip-path="url(#p7acced73c6)" style="fill: none; stroke: #000000; stroke-linecap: square"/>
   </g>
   <g id="line2d_4">
    <path d="M 3700.703833 3958.418146 
L 4551.002533 3666.639683 
L 4551.002533 3666.639683 
L 4048.719277 3590.560934 
L 4048.719277 3590.560934 
L 3700.703833 3958.418146 
L 3700.703833 3958.418146 
" clip-path="url(#p7acced73c6)" style="fill: none; stroke: #000000; stroke-linecap: square"/>
   </g>
   <g id="line2d_5">
    <path d="M 4376.51821 3122.415541 
L 4608.531472 3547.576885 
L 4608.531472 3547.576885 
L 4591.888261 2691.825375 
L 4591.888261 2691.825375 
L 4376.51821 3122.415541 
L 4376.51821 3122.415541 
" clip-path="url(#p7acced73c6)" style="fill: none; stroke: #000000; stroke-linecap: square"/>
   </g>
   <g id="line2d_6">
    <path d="M 3580.7747 3895.97597 
L 3504.543114 3420.549135 
L 3504.543114 3420.549135 
L 3067.882598 3213.848444 
L 3067.882598 3213.848444 
L 3580.7747 3895.97597 
L 3580.7747 3895.97597 
" clip-path="url(#p7acced73c6)" style="fill: none; stroke: #000000; stroke-linecap: square"/>
   </g>
   <g id="line2d_7">
    <path d="M 3716.822561 2354.72155 
L 4032.663618 2666.31489 
L 4032.663618 2666.31489 
L 4469.075338 2584.297734 
L 4469.075338 2584.297734 
L 3716.822561 2354.72155 
L 3716.822561 2354.72155 
" clip-path="url(#p7acced73c6)" style="fill: none; stroke: #000000; stroke-linecap: square"/>
   </g>
   <g id="line2d_8">
    <path d="M 3360.826956 3996.59556 
L 2642.502132 5022.469725 
L 2642.502132 5022.469725 
L 1446.064599 4658.443507 
L 1446.064599 4658.443507 
L 1422.829455 3406.173723 
L 1422.829455 3406.173723 
L 2607.525018 2999.706125 
L 2607.525018 2999.706125 
L 3360.826956 3996.59556 
L 3360.826956 3996.59556 
" clip-path="url(#p7acced73c6)" style="fill: none; stroke: #000000; stroke-linecap: square"/>
   </g>
   <g id="line2d_9">
    <path d="M 2501.816915 4583.737779 
L 2554.183822 4176.823471 
L 2554.183822 4176.823471 
L 2918.647657 3988.441785 
L 2918.647657 3988.441785 
L 2548.743006 3815.564189 
L 2548.743006 3815.564189 
L 2482.616676 3411.812453 
L 2482.616676 3411.812453 
L 2200.793534 3709.739233 
L 2200.793534 3709.739233 
L 1797.05979 3646.679517 
L 1797.05979 3646.679517 
L 1994.401613 4004.497444 
L 1994.401613 4004.497444 
L 1810.831208 4371.221531 
L 1810.831208 4371.221531 
L 2212.850272 4295.268728 
L 2212.850272 4295.268728 
L 2501.816915 4583.737779 
L 2501.816915 4583.737779 
" clip-path="url(#p7acced73c6)" style="fill: none; stroke: #000000; stroke-linecap: square"/>
   </g>
   <g id="line2d_10">
    <path d="M 2638.781994 4757.160947 
L 3128.456944 4057.832643 
L 3128.456944 4057.832643 
L 2698.673141 4277.995981 
L 2698.673141 4277.995981 
L 2638.781994 4757.160947 
L 2638.781994 4757.160947 
" clip-path="url(#p7acced73c6)" style="fill: none; stroke: #000000; stroke-linecap: square"/>
   </g>
   <g id="line2d_11">
    <path d="M 1815.216865 4008.229577 
L 1583.203603 3583.068232 
L 1583.203603 3583.068232 
L 1596.957028 4436.796292 
L 1596.957028 4436.796292 
L 1815.216865 4008.229577 
L 1815.216865 4008.229577 
" clip-path="url(#p7acced73c6)" style="fill: none; stroke: #000000; stroke-linecap: square"/>
   </g>
   <g id="line2d_12">
    <path d="M 2143.015799 3540.084183 
L 2445.939779 3218.172776 
L 2445.939779 3218.172776 
L 1706.046512 3475.285797 
L 1706.046512 3475.285797 
L 2143.015799 3540.084183 
L 2143.015799 3540.084183 
" clip-path="url(#p7acced73c6)" style="fill: none; stroke: #000000; stroke-linecap: square"/>
   </g>
   <g id="line2d_13">
    <path d="M 2619.914515 3271.085254 
L 2692.105198 3709.229646 
L 2692.105198 3709.229646 
L 3092.931164 3899.451958 
L 3092.931164 3899.451958 
L 2619.914515 3271.085254 
L 2619.914515 3271.085254 
" clip-path="url(#p7acced73c6)" style="fill: none; stroke: #000000; stroke-linecap: square"/>
   </g>
   <g id="line2d_14">
    <path d="M 2520.858318 4821.01503 
L 2159.071457 4464.330228 
L 2159.071457 4464.330228 
L 1661.677448 4559.633204 
L 1661.677448 4559.633204 
L 2520.858318 4821.01503 
L 2520.858318 4821.01503 
" clip-path="url(#p7acced73c6)" style="fill: none; stroke: #000000; stroke-linecap: square"/>
   </g>
   <g id="line2d_15">
    <path d="M 6652.543923 8312.511324 
L 5467.84836 8718.978922 
L 5467.84836 8718.978922 
L 4716.569872 7719.1997 
L 4716.569872 7719.1997 
L 5434.894696 6693.325535 
L 5434.894696 6693.325535 
L 6631.332229 7057.351753 
L 6631.332229 7057.351753 
L 6652.543923 8312.511324 
L 6652.543923 8312.511324 
" clip-path="url(#p7acced73c6)" style="fill: none; stroke: #000000; stroke-linecap: square"/>
   </g>
   <g id="line2d_16">
    <path d="M 5594.657301 7110.96264 
L 5542.290394 7517.876948 
L 5542.290394 7517.876948 
L 5179.850009 7703.368848 
L 5179.850009 7703.368848 
L 5549.75466 7876.246444 
L 5549.75466 7876.246444 
L 5615.88099 8279.99818 
L 5615.88099 8279.99818 
L 5897.704132 7982.0714 
L 5897.704132 7982.0714 
L 6301.437876 8045.131116 
L 6301.437876 8045.131116 
L 6104.096053 7687.313189 
L 6104.096053 7687.313189 
L 6287.666459 7320.589102 
L 6287.666459 7320.589102 
L 5885.647395 7396.541905 
L 5885.647395 7396.541905 
L 5594.657301 7110.96264 
L 5594.657301 7110.96264 
" clip-path="url(#p7acced73c6)" style="fill: none; stroke: #000000; stroke-linecap: square"/>
   </g>
   <g id="line2d_17">
    <path d="M 5457.692222 6937.539473 
L 4968.017272 7636.867777 
L 4968.017272 7636.867777 
L 5397.801075 7416.704438 
L 5397.801075 7416.704438 
L 5457.692222 6937.539473 
L 5457.692222 6937.539473 
" clip-path="url(#p7acced73c6)" style="fill: none; stroke: #000000; stroke-linecap: square"/>
   </g>
   <g id="line2d_18">
    <path d="M 5622.496912 8504.268393 
L 6429.442818 8225.200192 
L 6429.442818 8225.200192 
L 5950.568631 8152.592786 
L 5950.568631 8152.592786 
L 5622.496912 8504.268393 
L 5622.496912 8504.268393 
" clip-path="url(#p7acced73c6)" style="fill: none; stroke: #000000; stroke-linecap: square"/>
   </g>
   <g id="line2d_19">
    <path d="M 6278.367565 7684.447392 
L 6490.733878 8070.012067 
L 6490.733878 8070.012067 
L 6479.282686 7286.801991 
L 6479.282686 7286.801991 
L 6278.367565 7684.447392 
L 6278.367565 7684.447392 
" clip-path="url(#p7acced73c6)" style="fill: none; stroke: #000000; stroke-linecap: square"/>
   </g>
   <g id="line2d_20">
    <path d="M 5487.822071 8487.487241 
L 5407.258804 7987.494223 
L 5407.258804 7987.494223 
L 4948.346333 7769.519167 
L 4948.346333 7769.519167 
L 5487.822071 8487.487241 
L 5487.822071 8487.487241 
" clip-path="url(#p7acced73c6)" style="fill: none; stroke: #000000; stroke-linecap: square"/>
   </g>
   <g id="line2d_21">
    <path d="M 5621.561702 6918.776852 
L 5937.402759 7230.370192 
L 5937.402759 7230.370192 
L 6373.814479 7148.353036 
L 6373.814479 7148.353036 
L 5621.561702 6918.776852 
L 5621.561702 6918.776852 
" clip-path="url(#p7acced73c6)" style="fill: none; stroke: #000000; stroke-linecap: square"/>
   </g>
   <g id="line2d_22">
    <path d="M 5600.569841 5009.659751 
L 5740.916301 5805.604078 
L 5740.916301 5805.604078 
L 5464.231202 6563.630431 
L 5464.231202 6563.630431 
L 4846.551309 7082.889659 
L 4846.551309 7082.889659 
L 4050.606982 7223.236119 
L 4050.606982 7223.236119 
L 3292.58063 6946.551019 
L 3292.58063 6946.551019 
L 2773.321402 6328.871127 
L 2773.321402 6328.871127 
L 2632.974942 5532.9268 
L 2632.974942 5532.9268 
L 2909.660041 4774.900448 
L 2909.660041 4774.900448 
L 3527.339934 4255.64122 
L 3527.339934 4255.64122 
L 4323.284261 4115.29476 
L 4323.284261 4115.29476 
L 5081.310613 4391.979859 
L 5081.310613 4391.979859 
L 5600.569841 5009.659751 
L 5600.569841 5009.659751 
" clip-path="url(#p7acced73c6)" style="fill: none; stroke: #000000; stroke-linecap: square"/>
   </g>
   <g id="line2d_23">
    <path d="M 5044.579739 4585.898319 
L 4759.27326 4993.358199 
L 4759.27326 4993.358199 
L 4745.933463 5319.934047 
L 4745.933463 5319.934047 
L 5403.755597 5013.967443 
L 5403.755597 5013.967443 
L 5044.579739 4585.898319 
L 5044.579739 4585.898319 
" clip-path="url(#p7acced73c6)" style="fill: none; stroke: #000000; stroke-linecap: square"/>
   </g>
   <g id="line2d_24">
    <path d="M 4809.205991 5463.290241 
L 5067.838873 5665.920043 
L 5067.838873 5665.920043 
L 5566.947562 5709.629585 
L 5566.947562 5709.629585 
L 5469.917911 5159.347087 
L 5469.917911 5159.347087 
L 4809.205991 5463.290241 
L 4809.205991 5463.290241 
" clip-path="url(#p7acced73c6)" style="fill: none; stroke: #000000; stroke-linecap: square"/>
   </g>
   <g id="line2d_25">
    <path d="M 3891.381049 5027.340129 
L 3849.143388 5333.681475 
L 3849.143388 5333.681475 
L 4123.673094 5525.909245 
L 4123.673094 5525.909245 
L 4150.886265 5191.821151 
L 4150.886265 5191.821151 
L 3891.381049 5027.340129 
L 3891.381049 5027.340129 
" clip-path="url(#p7acced73c6)" style="fill: none; stroke: #000000; stroke-linecap: square"/>
   </g>
   <g id="line2d_26">
    <path d="M 3486.691007 5605.297405 
L 3732.898408 5794.920169 
L 3732.898408 5794.920169 
L 4037.531071 5655.083295 
L 4037.531071 5655.083295 
L 3763.001365 5462.855526 
L 3763.001365 5462.855526 
L 3486.691007 5605.297405 
L 3486.691007 5605.297405 
" clip-path="url(#p7acced73c6)" style="fill: none; stroke: #000000; stroke-linecap: square"/>
   </g>
   <g id="line2d_27">
    <path d="M 4489.446881 6307.434627 
L 4531.684542 6001.093281 
L 4531.684542 6001.093281 
L 4257.154836 5808.865511 
L 4257.154836 5808.865511 
L 4229.941665 6142.953604 
L 4229.941665 6142.953604 
L 4489.446881 6307.434627 
L 4489.446881 6307.434627 
" clip-path="url(#p7acced73c6)" style="fill: none; stroke: #000000; stroke-linecap: square"/>
   </g>
   <g id="line2d_28">
    <path d="M 4620.716351 5873.94268 
L 4894.136923 5729.477351 
L 4894.136923 5729.477351 
L 4647.929522 5539.854587 
L 4647.929522 5539.854587 
L 4343.296859 5679.69146 
L 4343.296859 5679.69146 
L 4620.716351 5873.94268 
L 4620.716351 5873.94268 
" clip-path="url(#p7acced73c6)" style="fill: none; stroke: #000000; stroke-linecap: square"/>
   </g>
   <g id="line2d_29">
    <path d="M 5054.523065 5820.24783 
L 4765.20567 5975.115191 
L 4765.20567 5975.115191 
L 5360.501665 6391.945933 
L 5360.501665 6391.945933 
L 5551.608305 5866.847159 
L 5551.608305 5866.847159 
L 5054.523065 5820.24783 
L 5054.523065 5820.24783 
" clip-path="url(#p7acced73c6)" style="fill: none; stroke: #000000; stroke-linecap: square"/>
   </g>
   <g id="line2d_30">
    <path d="M 4676.173861 6102.265791 
L 4629.598522 6427.10297 
L 4629.598522 6427.10297 
L 4838.487496 6879.138728 
L 4838.487496 6879.138728 
L 5266.556619 6519.96287 
L 5266.556619 6519.96287 
L 4676.173861 6102.265791 
L 4676.173861 6102.265791 
" clip-path="url(#p7acced73c6)" style="fill: none; stroke: #000000; stroke-linecap: square"/>
   </g>
   <g id="line2d_31">
    <path d="M 4489.132114 6492.398947 
L 4210.264729 6318.66701 
L 4210.264729 6318.66701 
L 4147.738589 7041.464357 
L 4147.738589 7041.464357 
L 4700.910874 6946.458156 
L 4700.910874 6946.458156 
L 4489.132114 6492.398947 
L 4489.132114 6492.398947 
" clip-path="url(#p7acced73c6)" style="fill: none; stroke: #000000; stroke-linecap: square"/>
   </g>
   <g id="line2d_32">
    <path d="M 4099.937263 5793.526254 
L 3795.304599 5933.363127 
L 3795.304599 5933.363127 
L 3784.27903 6244.332929 
L 3784.27903 6244.332929 
L 4072.724092 6127.614347 
L 4072.724092 6127.614347 
L 4099.937263 5793.526254 
L 4099.937263 5793.526254 
" clip-path="url(#p7acced73c6)" style="fill: none; stroke: #000000; stroke-linecap: square"/>
   </g>
   <g id="line2d_33">
    <path d="M 3568.732153 5869.461064 
L 3310.09927 5666.831263 
L 3310.09927 5666.831263 
L 2813.880367 5625.145171 
L 2813.880367 5625.145171 
L 2910.910019 6175.427668 
L 2910.910019 6175.427668 
L 3568.732153 5869.461064 
L 3568.732153 5869.461064 
" clip-path="url(#p7acced73c6)" style="fill: none; stroke: #000000; stroke-linecap: square"/>
   </g>
   <g id="line2d_34">
    <path d="M 3323.415078 5512.503476 
L 3612.732473 5357.636115 
L 3612.732473 5357.636115 
L 3017.436479 4940.805372 
L 3017.436479 4940.805372 
L 2826.329839 5465.904147 
L 2826.329839 5465.904147 
L 3323.415078 5512.503476 
L 3323.415078 5512.503476 
" clip-path="url(#p7acced73c6)" style="fill: none; stroke: #000000; stroke-linecap: square"/>
   </g>
   <g id="line2d_35">
    <path d="M 3704.654069 5232.508964 
L 3751.229408 4907.671786 
L 3751.229408 4907.671786 
L 3542.340434 4455.636028 
L 3542.340434 4455.636028 
L 3114.271311 4814.811886 
L 3114.271311 4814.811886 
L 3706.651906 5229.655758 
L 3706.626292 5229.692337 
L 3704.654069 5232.508964 
L 3704.654069 5232.508964 
" clip-path="url(#p7acced73c6)" style="fill: none; stroke: #000000; stroke-linecap: square"/>
   </g>
   <g id="line2d_36">
    <path d="M 3891.695816 4842.375808 
L 4170.563201 5016.107746 
L 4170.563201 5016.107746 
L 4233.08934 4293.310399 
L 4233.08934 4293.310399 
L 3679.917056 4388.3166 
L 3679.917056 4388.3166 
L 3891.695816 4842.375808 
L 3891.695816 4842.375808 
" clip-path="url(#p7acced73c6)" style="fill: none; stroke: #000000; stroke-linecap: square"/>
   </g>
   <g id="line2d_37">
    <path d="M 4280.024331 5536.335266 
L 4584.656994 5396.498392 
L 4584.656994 5396.498392 
L 4595.682563 5085.52859 
L 4595.682563 5085.52859 
L 4307.237502 5202.247173 
L 4307.237502 5202.247173 
L 4280.024331 5536.335266 
L 4280.024331 5536.335266 
" clip-path="url(#p7acced73c6)" style="fill: none; stroke: #000000; stroke-linecap: square"/>
   </g>
   <g id="line2d_38">
    <path d="M 3993.410802 7028.14855 
L 4055.936942 6305.351203 
L 4055.936942 6305.351203 
L 3753.618507 6429.58203 
L 3753.618507 6429.58203 
L 3468.312028 6837.041909 
L 3468.312028 6837.041909 
L 3993.410802 7028.14855 
L 3993.410802 7028.14855 
" clip-path="url(#p7acced73c6)" style="fill: none; stroke: #000000; stroke-linecap: square"/>
   </g>
   <g id="line2d_39">
    <path d="M 3338.271641 6745.98665 
L 3623.57812 6338.526771 
L 3623.57812 6338.526771 
L 3636.917917 6011.950922 
L 3636.917917 6011.950922 
L 2979.095783 6317.917527 
L 2979.095783 6317.917527 
L 3338.271641 6745.98665 
L 3338.271641 6745.98665 
" clip-path="url(#p7acced73c6)" style="fill: none; stroke: #000000; stroke-linecap: square"/>
   </g>
   <g id="line2d_40">
    <path d="M 4389.440577 4303.73642 
L 4326.914438 5026.533767 
L 4326.914438 5026.533767 
L 4629.232873 4902.30294 
L 4629.232873 4902.30294 
L 4914.539352 4494.84306 
L 4914.539352 4494.84306 
L 4389.440577 4303.73642 
L 4389.440577 4303.73642 
" clip-path="url(#p7acced73c6)" style="fill: none; stroke: #000000; stroke-linecap: square"/>
   </g>
   <g id="line2d_41">
    <path d="M 2923.583337 9961.611105 
L 1004.472225 9961.611105 
L 1004.472225 9961.611105 
L 44.916669 8296.499993 
L 44.916669 8296.499993 
L 1004.472225 6631.388881 
L 1004.472225 6631.388881 
L 2923.583337 6631.388881 
L 2923.583337 6631.388881 
L 3883.138893 8296.499993 
L 3883.138893 8296.499993 
L 2923.583337 9961.611105 
L 2923.583337 9961.611105 
" clip-path="url(#p7acced73c6)" style="fill: none; stroke: #000000; stroke-linecap: square"/>
   </g>
   <g id="line2d_42">
    <path d="M 1960.500003 7428.666659 
L 1710.027781 7862.583326 
L 1710.027781 7862.583326 
L 1209.083336 7862.583326 
L 1209.083336 7862.583326 
L 1459.555558 8296.499993 
L 1459.555558 8296.499993 
L 1209.083336 8730.41666 
L 1209.083336 8730.41666 
L 1710.027781 8730.41666 
L 1710.027781 8730.41666 
L 1960.500003 9164.333327 
L 1960.500003 9164.333327 
L 2210.972225 8730.41666 
L 2210.972225 8730.41666 
L 2711.91667 8730.41666 
L 2711.91667 8730.41666 
L 2461.444448 8296.499993 
L 2461.444448 8296.499993 
L 2711.91667 7862.583326 
L 2711.91667 7862.583326 
L 2210.972225 7862.583326 
L 2210.972225 7862.583326 
L 1960.500003 7428.666659 
L 1960.500003 7428.666659 
" clip-path="url(#p7acced73c6)" style="fill: none; stroke: #000000; stroke-linecap: square"/>
   </g>
   <g id="line2d_43">
    <path d="M 2944.750004 8818.611105 
L 3459.80556 8374.111104 
L 3459.80556 8374.111104 
L 2690.750004 8374.111104 
L 2690.750004 8374.111104 
L 2944.750004 8818.611105 
L 2944.750004 8818.611105 
" clip-path="url(#p7acced73c6)" style="fill: none; stroke: #000000; stroke-linecap: square"/>
   </g>
   <g id="line2d_44">
    <path d="M 2302.694448 8885.638883 
L 2041.638892 9340.722216 
L 2041.638892 9340.722216 
L 2041.638892 9601.777772 
L 2041.638892 9601.777772 
L 2870.66667 8885.638883 
L 2870.66667 8885.638883 
L 2302.694448 8885.638883 
L 2302.694448 8885.638883 
" clip-path="url(#p7acced73c6)" style="fill: none; stroke: #000000; stroke-linecap: square"/>
   </g>
   <g id="line2d_45">
    <path d="M 1882.888892 9340.722216 
L 1618.305558 8885.638883 
L 1618.305558 8885.638883 
L 1053.861114 8885.638883 
L 1053.861114 8885.638883 
L 1882.888892 9601.777772 
L 1882.888892 9601.777772 
L 1882.888892 9340.722216 
L 1882.888892 9340.722216 
" clip-path="url(#p7acced73c6)" style="fill: none; stroke: #000000; stroke-linecap: square"/>
   </g>
   <g id="line2d_46">
    <path d="M 976.250002 8818.611105 
L 1233.77778 8374.111104 
L 1233.77778 8374.111104 
L 464.722224 8374.111104 
L 464.722224 8374.111104 
L 976.250002 8818.611105 
L 976.250002 8818.611105 
" clip-path="url(#p7acced73c6)" style="fill: none; stroke: #000000; stroke-linecap: square"/>
   </g>
   <g id="line2d_47">
    <path d="M 1233.77778 8218.888882 
L 976.250002 7774.388882 
L 976.250002 7774.388882 
L 461.194447 8218.888882 
L 461.194447 8218.888882 
L 1233.77778 8218.888882 
L 1233.77778 8218.888882 
" clip-path="url(#p7acced73c6)" style="fill: none; stroke: #000000; stroke-linecap: square"/>
   </g>
   <g id="line2d_48">
    <path d="M 1621.833336 7703.833326 
L 1886.41667 7248.749993 
L 1886.41667 7248.749993 
L 1886.41667 6987.694437 
L 1886.41667 6987.694437 
L 1057.388891 7703.833326 
L 1057.388891 7703.833326 
L 1621.833336 7703.833326 
L 1621.833336 7703.833326 
" clip-path="url(#p7acced73c6)" style="fill: none; stroke: #000000; stroke-linecap: square"/>
   </g>
   <g id="line2d_49">
    <path d="M 2041.638892 7248.749993 
L 2302.694448 7703.833326 
L 2302.694448 7703.833326 
L 2867.138893 7703.833326 
L 2867.138893 7703.833326 
L 2038.111114 6987.694437 
L 2038.111114 6987.694437 
L 2041.638892 7248.749993 
L 2041.638892 7248.749993 
" clip-path="url(#p7acced73c6)" style="fill: none; stroke: #000000; stroke-linecap: square"/>
   </g>
   <g id="line2d_50">
    <path d="M 2944.750004 7770.861104 
L 2910.722578 7830.252806 
L 2687.222226 8215.361104 
L 2687.222226 8215.361104 
L 3456.277782 8215.361104 
L 3456.277782 8215.361104 
L 2944.750004 7770.861104 
L 2944.750004 7770.861104 
" clip-path="url(#p7acced73c6)" style="fill: none; stroke: #000000; stroke-linecap: square"/>
   </g>
   <g id="line2d_51">
    <path d="M 3615.027782 8448.194438 
L 2048.694448 9802.861105 
L 2048.694448 9802.861105 
L 2831.861115 9802.861105 
L 2831.861115 9802.861105 
L 3615.027782 8448.194438 
L 3615.027782 8448.194438 
" clip-path="url(#p7acced73c6)" style="fill: none; stroke: #000000; stroke-linecap: square"/>
   </g>
   <g id="line2d_52">
    <path d="M 1092.666669 9802.861105 
L 1875.833336 9802.861105 
L 1875.833336 9802.861105 
L 309.500002 8448.194438 
L 309.500002 8448.194438 
L 1092.666669 9802.861105 
L 1092.666669 9802.861105 
" clip-path="url(#p7acced73c6)" style="fill: none; stroke: #000000; stroke-linecap: square"/>
   </g>
   <g id="line2d_53">
    <path d="M 313.02778 8141.277771 
L 1872.305559 6790.138881 
L 1872.305559 6790.138881 
L 1092.666669 6790.138881 
L 1092.666669 6790.138881 
L 313.02778 8141.277771 
L 313.02778 8141.277771 
" clip-path="url(#p7acced73c6)" style="fill: none; stroke: #000000; stroke-linecap: square"/>
   </g>
   <g id="line2d_54">
    <path d="M 2831.861115 6790.138881 
L 2052.222225 6790.138881 
L 2052.222225 6790.138881 
L 3611.500004 8141.277771 
L 3611.500004 8141.277771 
L 2831.861115 6790.138881 
L 2831.861115 6790.138881 
" clip-path="url(#p7acced73c6)" style="fill: none; stroke: #000000; stroke-linecap: square"/>
   </g>
   <g id="line2d_55">
    <path d="M 7163.657524 4318.952482 
L 5930.096383 4893.615243 
L 5930.096383 4893.615243 
L 4814.63884 4112.563463 
L 4814.63884 4112.563463 
L 4932.742438 2756.848922 
L 4932.742438 2756.848922 
L 6166.303579 2182.186161 
L 6166.303579 2182.186161 
L 7281.761121 2963.237941 
L 7281.761121 2963.237941 
L 7163.657524 4318.952482 
L 7163.657524 4318.952482 
" clip-path="url(#p7acced73c6)" style="fill: none; stroke: #000000; stroke-linecap: square"/>
   </g>
   <g id="line2d_56">
    <path d="M 7110.646185 3127.65899 
L 6123.334427 3590.510408 
L 6123.334427 3590.510408 
L 6026.076874 4676.58449 
L 6026.076874 4676.58449 
L 7013.388632 4213.733072 
L 7013.388632 4213.733072 
L 7110.646185 3127.65899 
L 7110.646185 3127.65899 
" clip-path="url(#p7acced73c6)" style="fill: none; stroke: #000000; stroke-linecap: square"/>
   </g>
   <g id="line2d_57">
    <path d="M 5432.501557 4355.704251 
L 5489.526907 3702.267774 
L 5489.526907 3702.267774 
L 5035.830445 3384.586092 
L 5035.830445 3384.586092 
L 4978.805095 4038.022568 
L 4978.805095 4038.022568 
L 5432.501557 4355.704251 
L 5432.501557 4355.704251 
" clip-path="url(#p7acced73c6)" style="fill: none; stroke: #000000; stroke-linecap: square"/>
   </g>
   <g id="line2d_58">
    <path d="M 5051.751259 3201.935999 
L 5655.716612 3624.837092 
L 5655.716612 3624.837092 
L 5579.880662 4458.900211 
L 5579.880662 4458.900211 
L 5868.8593 4661.245232 
L 5868.8593 4661.245232 
L 5973.065535 3485.290997 
L 5973.065535 3485.290997 
L 7042.46042 2985.169131 
L 7042.46042 2985.169131 
L 6753.481782 2782.824111 
L 6753.481782 2782.824111 
L 5992.766461 3137.32953 
L 5992.766461 3137.32953 
L 5388.801107 2714.428437 
L 5388.801107 2714.428437 
L 5077.231757 2858.021433 
L 5077.231757 2858.021433 
L 5051.751259 3201.935999 
L 5051.751259 3201.935999 
" clip-path="url(#p7acced73c6)" style="fill: none; stroke: #000000; stroke-linecap: square"/>
   </g>
   <g id="line2d_59">
    <path d="M 5554.990812 2636.997755 
L 6008.687274 2954.679438 
L 6008.687274 2954.679438 
L 6603.212891 2677.6047 
L 6603.212891 2677.6047 
L 6149.516429 2359.923017 
L 6149.516429 2359.923017 
L 5554.990812 2636.997755 
L 5554.990812 2636.997755 
" clip-path="url(#p7acced73c6)" style="fill: none; stroke: #000000; stroke-linecap: square"/>
   </g>
   <g id="line2d_60">
    <path d="M 8119.914977 6560.062769 
L 6886.353837 7134.72553 
L 6886.353837 7134.72553 
L 5770.896294 6353.67375 
L 5770.896294 6353.67375 
L 5888.999892 4997.959209 
L 5888.999892 4997.959209 
L 7122.561032 4423.296448 
L 7122.561032 4423.296448 
L 8238.018575 5204.348228 
L 8238.018575 5204.348228 
L 8119.914977 6560.062769 
L 8119.914977 6560.062769 
" clip-path="url(#p7acced73c6)" style="fill: none; stroke: #000000; stroke-linecap: square"/>
   </g>
   <g id="line2d_61">
    <path d="M 8066.903639 5368.769277 
L 7079.59188 5831.620695 
L 7079.59188 5831.620695 
L 6982.334327 6917.694776 
L 6982.334327 6917.694776 
L 7969.646086 6454.843358 
L 7969.646086 6454.843358 
L 8066.903639 5368.769277 
L 8066.903639 5368.769277 
" clip-path="url(#p7acced73c6)" style="fill: none; stroke: #000000; stroke-linecap: square"/>
   </g>
   <g id="line2d_62">
    <path d="M 6388.759011 6596.814537 
L 6445.784361 5943.378061 
L 6445.784361 5943.378061 
L 5992.087899 5625.696378 
L 5992.087899 5625.696378 
L 5935.062549 6279.132855 
L 5935.062549 6279.132855 
L 6388.759011 6596.814537 
L 6388.759011 6596.814537 
" clip-path="url(#p7acced73c6)" style="fill: none; stroke: #000000; stroke-linecap: square"/>
   </g>
   <g id="line2d_63">
    <path d="M 6008.008712 5443.046286 
L 6611.974066 5865.947379 
L 6611.974066 5865.947379 
L 6539.027902 6702.033948 
L 6539.027902 6702.033948 
L 6828.00654 6904.378969 
L 6828.00654 6904.378969 
L 6932.212775 5728.424734 
L 6932.212775 5728.424734 
L 8001.607661 5228.302868 
L 8001.607661 5228.302868 
L 7712.629023 5025.957848 
L 7712.629023 5025.957848 
L 6953.937151 5377.573481 
L 6953.937151 5377.573481 
L 6349.971797 4954.672388 
L 6349.971797 4954.672388 
L 6038.402447 5098.265383 
L 6038.402447 5098.265383 
L 6008.008712 5443.046286 
L 6008.008712 5443.046286 
" clip-path="url(#p7acced73c6)" style="fill: none; stroke: #000000; stroke-linecap: square"/>
   </g>
   <g id="line2d_64">
    <path d="M 6514.138052 4880.131492 
L 6967.834514 5197.813175 
L 6967.834514 5197.813175 
L 7562.360131 4920.738437 
L 7562.360131 4920.738437 
L 7108.663669 4603.056754 
L 7108.663669 4603.056754 
L 6514.138052 4880.131492 
L 6514.138052 4880.131492 
" clip-path="url(#p7acced73c6)" style="fill: none; stroke: #000000; stroke-linecap: square"/>
   </g>
   <g id="patch_4">
    <path d="M 0 10000 
L 0 0 
" style="fill: none; stroke: #000000; stroke-width: 0.8; stroke-linejoin: miter; stroke-linecap: square"/>
   </g>
   <g id="patch_5">
    <path d="M 10000 10000 
L 10000 0 
" style="fill: none; stroke: #000000; stroke-width: 0.8; stroke-linejoin: miter; stroke-linecap: square"/>
   </g>
   <g id="patch_6">
    <path d="M 0 10000 
L 10000 10000 
" style="fill: none; stroke: #000000; stroke-width: 0.8; stroke-linejoin: miter; stroke-linecap: square"/>
   </g>
   <g id="patch_7">
    <path d="M 0 0 
L 10000 0 
" style="fill: none; stroke: #000000; stroke-width: 0.8; stroke-linejoin: miter; stroke-linecap: square"/>
   </g>
  </g>
 </g>
 <defs>
  <clipPath id="p7acced73c6">
   <rect x="0" y="0" width="10000" height="10000"/>
  </clipPath>
 </defs>
</svg>
