<?xml version="1.0" encoding="utf-8" standalone="no"?>
<!DOCTYPE svg PUBLIC "-//W3C//DTD SVG 1.1//EN"
  "http://www.w3.org/Graphics/SVG/1.1/DTD/svg11.dtd">
<svg xmlns:xlink="http://www.w3.org/1999/xlink" width="576pt" height="576pt" viewBox="0 0 576 576" xmlns="http://www.w3.org/2000/svg" version="1.1">
 <metadata>
  <rdf:RDF xmlns:dc="http://purl.org/dc/elements/1.1/" xmlns:cc="http://creativecommons.org/ns#" xmlns:rdf="http://www.w3.org/1999/02/22-rdf-syntax-ns#">
   <cc:Work>
    <dc:type rdf:resource="http://purl.org/dc/dcmitype/StillImage"/>
    <dc:date>2024-04-07T21:37:31.035216</dc:date>
    <dc:format>image/svg+xml</dc:format>
    <dc:creator>
     <cc:Agent>
      <dc:title>Matplotlib v3.8.3, https://matplotlib.org/</dc:title>
     </cc:Agent>
    </dc:creator>
   </cc:Work>
  </rdf:RDF>
 </metadata>
 <defs>
  <style type="text/css">*{stroke-linejoin: round; stroke-linecap: butt}</style>
 </defs>
 <g id="figure_1">
  <g id="patch_1">
   <path d="M 0 576 
L 576 576 
L 576 0 
L 0 0 
z
" style="fill: #ffffff"/>
  </g>
  <g id="axes_1">
   <g id="patch_2">
    <path d="M 0 576 
L 576 576 
L 576 0 
L 0 0 
z
" style="fill: #ffffff"/>
   </g>
   <g id="matplotlib.axis_1"/>
   <g id="matplotlib.axis_2"/>
   <g id="line2d_1">
    <path d="M 190.7136 400.5504 
L 156.384 278.6688 
L 314.6688 187.2 
L 367.5456 355.8528 
L 190.7136 400.5504 
" clip-path="url(#p6dd290fb75)" style="fill: none; stroke: #2cab00; stroke-linecap: square"/>
   </g>
   <g id="line2d_2">
    <path d="M 388.8576 449.3376 
L 433.6128 305.0496 
L 529.6896 215.8848 
L 514.4832 349.4016 
L 388.8576 449.3376 
" clip-path="url(#p6dd290fb75)" style="fill: none; stroke: #eb85e0; stroke-linecap: square"/>
   </g>
   <g id="line2d_3">
    <path d="M 46.4256 490.1184 
L 85.1328 189.3312 
L 152.1216 295.0272 
L 116.9856 398.6496 
L 46.4256 490.1184 
" clip-path="url(#p6dd290fb75)" style="fill: none; stroke: #96adf9; stroke-linecap: square"/>
   </g>
   <g id="line2d_4">
    <path d="M 375.4944 352.9728 
L 300.3264 4.896 
L 405.3312 73.3824 
L 431.7696 160.128 
L 375.4944 352.9728 
" clip-path="url(#p6dd290fb75)" style="fill: none; stroke: #ca3f5f; stroke-linecap: square"/>
   </g>
   <g id="line2d_5">
    <path d="M 389.6064 536.7168 
L 482.2272 505.6128 
L 511.488 406.656 
L 526.9248 570.6432 
L 389.6064 536.7168 
" clip-path="url(#p6dd290fb75)" style="fill: none; stroke: #41eafb; stroke-linecap: square"/>
   </g>
   <g id="line2d_6">
    <path d="M 398.5344 356.3136 
L 366.4512 519.8976 
L 202.464 535.3344 
L 236.3904 397.9584 
L 398.5344 356.3136 
" clip-path="url(#p6dd290fb75)" style="fill: none; stroke: #450de6; stroke-linecap: square"/>
   </g>
   <g id="line2d_7">
    <path d="M 183.456 78.4512 
L 322.0416 172.3392 
L 178.1568 256.6656 
L 58.0608 143.8848 
L 183.456 78.4512 
" clip-path="url(#p6dd290fb75)" style="fill: none; stroke: #0e6b31; stroke-linecap: square"/>
   </g>
   <g id="patch_3">
    <path d="M 0 576 
L 0 0 
" style="fill: none; stroke: #000000; stroke-width: 0.8; stroke-linejoin: miter; stroke-linecap: square"/>
   </g>
   <g id="patch_4">
    <path d="M 576 576 
L 576 0 
" style="fill: none; stroke: #000000; stroke-width: 0.8; stroke-linejoin: miter; stroke-linecap: square"/>
   </g>
   <g id="patch_5">
    <path d="M 0 576 
L 576 576 
" style="fill: none; stroke: #000000; stroke-width: 0.8; stroke-linejoin: miter; stroke-linecap: square"/>
   </g>
   <g id="patch_6">
    <path d="M 0 0 
L 576 0 
" style="fill: none; stroke: #000000; stroke-width: 0.8; stroke-linejoin: miter; stroke-linecap: square"/>
   </g>
  </g>
 </g>
 <defs>
  <clipPath id="p6dd290fb75">
   <rect x="0" y="0" width="576" height="576"/>
  </clipPath>
 </defs>
</svg>
