  0
SECTION
  2
HEADER
  9
$ACADVER
  1
AC1032
  9
$ACADMAINTVER
 90
      228
  9
$DWGCODEPAGE
  3
ANSI_1252
  9
$REQUIREDVERSIONS
160
                 0
  9
$INSBASE
 10
0.0
 20
0.0
 30
0.0
  9
$EXTMIN
 10
1.000000000000000E+20
 20
1.000000000000000E+20
 30
1.000000000000000E+20
  9
$EXTMAX
 10
-1.000000000000000E+20
 20
-1.000000000000000E+20
 30
-1.000000000000000E+20
  9
$LIMMIN
 10
0.0
 20
0.0
  9
$LIMMAX
 10
12.0
 20
9.0
  9
$ORTHOMODE
 70
     0
  9
$REGENMODE
 70
     1
  9
$FILLMODE
 70
     1
  9
$QTEXTMODE
 70
     0
  9
$MIRRTEXT
 70
     0
  9
$LTSCALE
 40
1.0
  9
$ATTMODE
 70
     1
  9
$TEXTSIZE
 40
0.2
  9
$TRACEWID
 40
0.05
  9
$TEXTSTYLE
  7
Standard
  9
$CLAYER
  8
0
  9
$CELTYPE
  6
ByLayer
  9
$CECOLOR
 62
   256
  9
$CELTSCALE
 40
1.0
  9
$DISPSILH
 70
     0
  9
$DIMSCALE
 40
1.0
  9
$DIMASZ
 40
0.18
  9
$DIMEXO
 40
0.0625
  9
$DIMDLI
 40
0.38
  9
$DIMRND
 40
0.0
  9
$DIMDLE
 40
0.0
  9
$DIMEXE
 40
0.18
  9
$DIMTP
 40
0.0
  9
$DIMTM
 40
0.0
  9
$DIMTXT
 40
0.18
  9
$DIMCEN
 40
0.09
  9
$DIMTSZ
 40
0.0
  9
$DIMTOL
 70
     0
  9
$DIMLIM
 70
     0
  9
$DIMTIH
 70
     1
  9
$DIMTOH
 70
     1
  9
$DIMSE1
 70
     0
  9
$DIMSE2
 70
     0
  9
$DIMTAD
 70
     0
  9
$DIMZIN
 70
     0
  9
$DIMBLK
  1

  9
$DIMASO
 70
     1
  9
$DIMSHO
 70
     1
  9
$DIMPOST
  1

  9
$DIMAPOST
  1

  9
$DIMALT
 70
     0
  9
$DIMALTD
 70
     2
  9
$DIMALTF
 40
25.4
  9
$DIMLFAC
 40
1.0
  9
$DIMTOFL
 70
     0
  9
$DIMTVP
 40
0.0
  9
$DIMTIX
 70
     0
  9
$DIMSOXD
 70
     0
  9
$DIMSAH
 70
     0
  9
$DIMBLK1
  1

  9
$DIMBLK2
  1

  9
$DIMSTYLE
  2
Standard
  9
$DIMCLRD
 70
     0
  9
$DIMCLRE
 70
     0
  9
$DIMCLRT
 70
     0
  9
$DIMTFAC
 40
1.0
  9
$DIMGAP
 40
0.09
  9
$DIMJUST
 70
     0
  9
$DIMSD1
 70
     0
  9
$DIMSD2
 70
     0
  9
$DIMTOLJ
 70
     1
  9
$DIMTZIN
 70
     0
  9
$DIMALTZ
 70
     0
  9
$DIMALTTZ
 70
     0
  9
$DIMUPT
 70
     0
  9
$DIMDEC
 70
     4
  9
$DIMTDEC
 70
     4
  9
$DIMALTU
 70
     2
  9
$DIMALTTD
 70
     2
  9
$DIMTXSTY
  7
Standard
  9
$DIMAUNIT
 70
     0
  9
$DIMADEC
 70
     0
  9
$DIMALTRND
 40
0.0
  9
$DIMAZIN
 70
     0
  9
$DIMDSEP
 70
    46
  9
$DIMATFIT
 70
     3
  9
$DIMFRAC
 70
     0
  9
$DIMLDRBLK
  1

  9
$DIMLUNIT
 70
     2
  9
$DIMLWD
 70
    -2
  9
$DIMLWE
 70
    -2
  9
$DIMTMOVE
 70
     0
  9
$DIMFXL
 40
1.0
  9
$DIMFXLON
 70
     0
  9
$DIMJOGANG
 40
0.7853981633974483
  9
$DIMTFILL
 70
     0
  9
$DIMTFILLCLR
 70
     0
  9
$DIMARCSYM
 70
     0
  9
$DIMLTYPE
  6

  9
$DIMLTEX1
  6

  9
$DIMLTEX2
  6

  9
$DIMTXTDIRECTION
 70
     0
  9
$LUNITS
 70
     2
  9
$LUPREC
 70
     4
  9
$SKETCHINC
 40
0.1
  9
$FILLETRAD
 40
0.0
  9
$AUNITS
 70
     0
  9
$AUPREC
 70
     0
  9
$MENU
  1
.
  9
$ELEVATION
 40
0.0
  9
$PELEVATION
 40
0.0
  9
$THICKNESS
 40
0.0
  9
$LIMCHECK
 70
     0
  9
$CHAMFERA
 40
0.0
  9
$CHAMFERB
 40
0.0
  9
$CHAMFERC
 40
0.0
  9
$CHAMFERD
 40
0.0
  9
$SKPOLY
 70
     0
  9
$TDCREATE
 40
2460451.554768519
  9
$TDUCREATE
 40
2460451.471435185
  9
$TDUPDATE
 40
2460451.554768519
  9
$TDUUPDATE
 40
2460451.471435185
  9
$TDINDWG
 40
0.0000000000
  9
$TDUSRTIMER
 40
0.0000000000
  9
$USRTIMER
 70
     1
  9
$ANGBASE
 50
0.0
  9
$ANGDIR
 70
     0
  9
$PDMODE
 70
     0
  9
$PDSIZE
 40
0.0
  9
$PLINEWID
 40
0.0
  9
$SPLFRAME
 70
     0
  9
$SPLINETYPE
 70
     6
  9
$SPLINESEGS
 70
     8
  9
$HANDSEED
  5
C9
  9
$SURFTAB1
 70
     6
  9
$SURFTAB2
 70
     6
  9
$SURFTYPE
 70
     6
  9
$SURFU
 70
     6
  9
$SURFV
 70
     6
  9
$UCSBASE
  2

  9
$UCSNAME
  2

  9
$UCSORG
 10
0.0
 20
0.0
 30
0.0
  9
$UCSXDIR
 10
1.0
 20
0.0
 30
0.0
  9
$UCSYDIR
 10
0.0
 20
1.0
 30
0.0
  9
$UCSORTHOREF
  2

  9
$UCSORTHOVIEW
 70
     0
  9
$UCSORGTOP
 10
0.0
 20
0.0
 30
0.0
  9
$UCSORGBOTTOM
 10
0.0
 20
0.0
 30
0.0
  9
$UCSORGLEFT
 10
0.0
 20
0.0
 30
0.0
  9
$UCSORGRIGHT
 10
0.0
 20
0.0
 30
0.0
  9
$UCSORGFRONT
 10
0.0
 20
0.0
 30
0.0
  9
$UCSORGBACK
 10
0.0
 20
0.0
 30
0.0
  9
$PUCSBASE
  2

  9
$PUCSNAME
  2

  9
$PUCSORG
 10
0.0
 20
0.0
 30
0.0
  9
$PUCSXDIR
 10
1.0
 20
0.0
 30
0.0
  9
$PUCSYDIR
 10
0.0
 20
1.0
 30
0.0
  9
$PUCSORTHOREF
  2

  9
$PUCSORTHOVIEW
 70
     0
  9
$PUCSORGTOP
 10
0.0
 20
0.0
 30
0.0
  9
$PUCSORGBOTTOM
 10
0.0
 20
0.0
 30
0.0
  9
$PUCSORGLEFT
 10
0.0
 20
0.0
 30
0.0
  9
$PUCSORGRIGHT
 10
0.0
 20
0.0
 30
0.0
  9
$PUCSORGFRONT
 10
0.0
 20
0.0
 30
0.0
  9
$PUCSORGBACK
 10
0.0
 20
0.0
 30
0.0
  9
$USERI1
 70
     0
  9
$USERI2
 70
     0
  9
$USERI3
 70
     0
  9
$USERI4
 70
     0
  9
$USERI5
 70
     0
  9
$USERR1
 40
0.0
  9
$USERR2
 40
0.0
  9
$USERR3
 40
0.0
  9
$USERR4
 40
0.0
  9
$USERR5
 40
0.0
  9
$WORLDVIEW
 70
     1
  9
$SHADEDGE
 70
     3
  9
$SHADEDIF
 70
    70
  9
$TILEMODE
 70
     1
  9
$MAXACTVP
 70
    64
  9
$PINSBASE
 10
0.0
 20
0.0
 30
0.0
  9
$PLIMCHECK
 70
     0
  9
$PEXTMIN
 10
1.000000000000000E+20
 20
1.000000000000000E+20
 30
1.000000000000000E+20
  9
$PEXTMAX
 10
-1.000000000000000E+20
 20
-1.000000000000000E+20
 30
-1.000000000000000E+20
  9
$PLIMMIN
 10
0.0
 20
0.0
  9
$PLIMMAX
 10
12.0
 20
9.0
  9
$UNITMODE
 70
     0
  9
$VISRETAIN
 70
     1
  9
$PLINEGEN
 70
     0
  9
$PSLTSCALE
 70
     1
  9
$TREEDEPTH
 70
  3020
  9
$CMLSTYLE
  2
Standard
  9
$CMLJUST
 70
     0
  9
$CMLSCALE
 40
1.0
  9
$PROXYGRAPHICS
 70
     1
  9
$MEASUREMENT
 70
     0
  9
$CELWEIGHT
370
    -1
  9
$ENDCAPS
280
     0
  9
$JOINSTYLE
280
     0
  9
$LWDISPLAY
290
     1
  9
$INSUNITS
 70
     4
  9
$HYPERLINKBASE
  1

  9
$STYLESHEET
  1

  9
$XEDIT
290
     1
  9
$CEPSNTYPE
380
     0
  9
$PSTYLEMODE
290
     1
  9
$FINGERPRINTGUID
  2
{794EE05F-E186-E744-9C86-7D91DB0A2A7A}
  9
$VERSIONGUID
  2
{5D6FC700-CA79-8745-947B-96F56D41F815}
  9
$EXTNAMES
290
     1
  9
$PSVPSCALE
 40
0.0
  9
$OLESTARTUP
290
     0
  9
$SORTENTS
280
   127
  9
$INDEXCTL
280
     0
  9
$HIDETEXT
280
     1
  9
$XCLIPFRAME
280
     2
  9
$HALOGAP
280
     0
  9
$OBSCOLOR
 70
   257
  9
$OBSLTYPE
280
     0
  9
$INTERSECTIONDISPLAY
280
     0
  9
$INTERSECTIONCOLOR
 70
   257
  9
$DIMASSOC
280
     2
  9
$PROJECTNAME
  1

  9
$CAMERADISPLAY
290
     0
  9
$LENSLENGTH
 40
50.0
  9
$CAMERAHEIGHT
 40
0.0
  9
$STEPSPERSEC
 40
2.0
  9
$STEPSIZE
 40
6.0
  9
$3DDWFPREC
 40
2.0
  9
$PSOLWIDTH
 40
0.25
  9
$PSOLHEIGHT
 40
4.0
  9
$LOFTANG1
 40
1.570796326794896
  9
$LOFTANG2
 40
1.570796326794896
  9
$LOFTMAG1
 40
0.0
  9
$LOFTMAG2
 40
0.0
  9
$LOFTPARAM
 70
     7
  9
$LOFTNORMALS
280
     1
  9
$LATITUDE
 40
37.795
  9
$LONGITUDE
 40
-122.394
  9
$NORTHDIRECTION
 40
0.0
  9
$TIMEZONE
 70
 -8000
  9
$LIGHTGLYPHDISPLAY
280
     1
  9
$TILEMODELIGHTSYNCH
280
     1
  9
$CMATERIAL
347
11
  9
$SOLIDHIST
280
     0
  9
$SHOWHIST
280
     1
  9
$DWFFRAME
280
     2
  9
$DGNFRAME
280
     0
  9
$REALWORLDSCALE
290
     1
  9
$INTERFERECOLOR
 62
     1
  9
$INTERFEREOBJVS
345
33
  9
$INTERFEREVPVS
346
30
  9
$CSHADOW
280
     0
  9
$SHADOWPLANELOCATION
 40
0.0
  0
ENDSEC
  0
SECTION
  2
CLASSES
  0
CLASS
  1
ACDBDICTIONARYWDFLT
  2
AcDbDictionaryWithDefault
  3
ObjectDBX Classes
 90
        0
 91
        1
280
     0
281
     0
  0
CLASS
  1
MATERIAL
  2
AcDbMaterial
  3
ObjectDBX Classes
 90
     1153
 91
        3
280
     0
281
     0
  0
CLASS
  1
VISUALSTYLE
  2
AcDbVisualStyle
  3
ObjectDBX Classes
 90
     4095
 91
       24
280
     0
281
     0
  0
CLASS
  1
SCALE
  2
AcDbScale
  3
ObjectDBX Classes
 90
     1153
 91
       17
280
     0
281
     0
  0
CLASS
  1
TABLESTYLE
  2
AcDbTableStyle
  3
ObjectDBX Classes
 90
     4095
 91
        1
280
     0
281
     0
  0
CLASS
  1
MLEADERSTYLE
  2
AcDbMLeaderStyle
  3
ACDB_MLEADERSTYLE_CLASS
 90
     4095
 91
        1
280
     0
281
     0
  0
CLASS
  1
ACDBSECTIONVIEWSTYLE
  2
AcDbSectionViewStyle
  3
ObjectDBX Classes
 90
     1025
 91
        1
280
     0
281
     0
  0
CLASS
  1
ACDBDETAILVIEWSTYLE
  2
AcDbDetailViewStyle
  3
ObjectDBX Classes
 90
     1025
 91
        1
280
     0
281
     0
  0
CLASS
  1
DICTIONARYVAR
  2
AcDbDictionaryVar
  3
ObjectDBX Classes
 90
        0
 91
        5
280
     0
281
     0
  0
CLASS
  1
CELLSTYLEMAP
  2
AcDbCellStyleMap
  3
ObjectDBX Classes
 90
     1152
 91
        1
280
     0
281
     0
  0
ENDSEC
  0
SECTION
  2
TABLES
  0
TABLE
  2
VPORT
  5
8
330
0
100
AcDbSymbolTable
 70
     1
  0
VPORT
  5
57
330
8
100
AcDbSymbolTableRecord
100
AcDbViewportTableRecord
  2
*Active
 70
     0
 10
0.0
 20
0.0
 11
1.0
 21
1.0
 12
0.0
 22
0.0
 13
0.0
 23
0.0
 14
1.0
 24
1.0
 15
0.0
 25
0.0
 16
0.0
 26
0.0
 36
1.0
 17
92.70999567045315
 27
87.66527775586146
 37
0.0
 40
178.8371666219574
 41
1.057545222506916
 42
50.0
 43
0.0
 44
0.0
 50
0.0
 51
0.0
 71
     0
 72
   100
 73
     1
 74
     1
 75
     0
 76
     0
 77
     0
 78
     0
281
     0
 65
     1
110
0.0
120
0.0
130
0.0
111
1.0
121
0.0
131
0.0
112
0.0
122
1.0
132
0.0
 79
     0
146
0.0
 60
     3
 61
     5
292
     1
282
     1
141
0.0
142
0.0
 63
   250
421
  3355443
  0
ENDTAB
  0
TABLE
  2
LTYPE
  5
5
330
0
100
AcDbSymbolTable
 70
     1
  0
LTYPE
  5
5B
330
5
100
AcDbSymbolTableRecord
100
AcDbLinetypeTableRecord
  2
ByBlock
 70
     0
  3

 72
    65
 73
     0
 40
0.0
  0
LTYPE
  5
5C
330
5
100
AcDbSymbolTableRecord
100
AcDbLinetypeTableRecord
  2
ByLayer
 70
     0
  3

 72
    65
 73
     0
 40
0.0
  0
LTYPE
  5
5D
330
5
100
AcDbSymbolTableRecord
100
AcDbLinetypeTableRecord
  2
Continuous
 70
     0
  3
Solid line
 72
    65
 73
     0
 40
0.0
  0
ENDTAB
  0
TABLE
  2
LAYER
  5
2
330
0
100
AcDbSymbolTable
 70
     2
  0
LAYER
  5
54
330
2
100
AcDbSymbolTableRecord
100
AcDbLayerTableRecord
  2
0
 70
     0
 62
     7
  6
Continuous
370
    -3
390
F
347
21
348
0
  0
LAYER
  5
78
330
2
100
AcDbSymbolTableRecord
100
AcDbLayerTableRecord
  2
Layer 1
 70
     0
 62
     7
  6
Continuous
370
     0
390
F
347
21
348
0
  0
ENDTAB
  0
TABLE
  2
STYLE
  5
3
330
0
100
AcDbSymbolTable
 70
     2
  0
STYLE
  5
55
330
3
100
AcDbSymbolTableRecord
100
AcDbTextStyleTableRecord
  2
Standard
 70
     0
 40
0.0
 41
1.0
 50
0.0
 71
     0
 42
0.2
  3
txt
  4

  0
STYLE
  5
5A
330
3
100
AcDbSymbolTableRecord
100
AcDbTextStyleTableRecord
  2
Annotative
 70
     0
 40
0.0
 41
1.0
 50
0.0
 71
     0
 42
0.2
  3
txt
  4

1001
AcadAnnotative
1000
AnnotativeData
1002
{
1070
     1
1070
     1
1002
}
  0
ENDTAB
  0
TABLE
  2
VIEW
  5
6
330
0
100
AcDbSymbolTable
 70
     0
  0
ENDTAB
  0
TABLE
  2
UCS
  5
7
330
0
100
AcDbSymbolTable
 70
     0
  0
ENDTAB
  0
TABLE
  2
APPID
  5
9
330
0
100
AcDbSymbolTable
 70
     2
  0
APPID
  5
56
330
9
100
AcDbSymbolTableRecord
100
AcDbRegAppTableRecord
  2
ACAD
 70
     0
  0
APPID
  5
5E
330
9
100
AcDbSymbolTableRecord
100
AcDbRegAppTableRecord
  2
AcadAnnotative
 70
     0
  0
ENDTAB
  0
TABLE
  2
DIMSTYLE
  5
A
330
0
100
AcDbSymbolTable
 70
     2
100
AcDbDimStyleTable
 71
     0
  0
DIMSTYLE
105
58
330
A
100
AcDbSymbolTableRecord
100
AcDbDimStyleTableRecord
  2
Standard
 70
     0
340
55
  0
DIMSTYLE
105
59
330
A
100
AcDbSymbolTableRecord
100
AcDbDimStyleTableRecord
  2
Annotative
 70
     0
340
55
1001
AcadAnnotative
1000
AnnotativeData
1002
{
1070
     1
1070
     1
1002
}
  0
ENDTAB
  0
TABLE
  2
BLOCK_RECORD
  5
1
330
0
100
AcDbSymbolTable
 70
     1
  0
BLOCK_RECORD
  5
70
330
1
100
AcDbSymbolTableRecord
100
AcDbBlockTableRecord
  2
*Model_Space
340
73
 70
     0
280
     1
281
     0
  0
BLOCK_RECORD
  5
6C
330
1
100
AcDbSymbolTableRecord
100
AcDbBlockTableRecord
  2
*Paper_Space
340
6F
 70
     0
280
     1
281
     0
  0
BLOCK_RECORD
  5
74
330
1
100
AcDbSymbolTableRecord
100
AcDbBlockTableRecord
  2
*Paper_Space0
340
77
 70
     0
280
     1
281
     0
  0
ENDTAB
  0
ENDSEC
  0
SECTION
  2
BLOCKS
  0
BLOCK
  5
71
330
70
100
AcDbEntity
  8
0
100
AcDbBlockBegin
  2
*Model_Space
 70
     0
 10
0.0
 20
0.0
 30
0.0
  3
*Model_Space
  1

  0
ENDBLK
  5
72
330
70
100
AcDbEntity
  8
0
100
AcDbBlockEnd
  0
BLOCK
  5
6D
330
6C
100
AcDbEntity
 67
     1
  8
0
100
AcDbBlockBegin
  2
*Paper_Space
 70
     0
 10
0.0
 20
0.0
 30
0.0
  3
*Paper_Space
  1

  0
ENDBLK
  5
6E
330
6C
100
AcDbEntity
 67
     1
  8
0
100
AcDbBlockEnd
  0
BLOCK
  5
75
330
74
100
AcDbEntity
 67
     1
  8
0
100
AcDbBlockBegin
  2
*Paper_Space0
 70
     0
 10
0.0
 20
0.0
 30
0.0
  3
*Paper_Space0
  1

  0
ENDBLK
  5
76
330
74
100
AcDbEntity
 67
     1
  8
0
100
AcDbBlockEnd
  0
ENDSEC
  0
SECTION
  2
ENTITIES
  0
SPLINE
  5
79
330
70
100
AcDbEntity
  8
Layer 1
100
AcDbSpline
210
0.0
220
0.0
230
1.0
 70
    11
 71
     3
 72
    14
 73
    10
 74
     0
 42
0.0000000001
 43
0.0000000001
 40
0.0
 40
0.0
 40
0.0
 40
0.0
 40
1.0
 40
1.0
 40
1.0
 40
2.0
 40
2.0
 40
2.0
 40
3.0
 40
3.0
 40
3.0
 40
3.0
 10
132.8561132310817
 20
134.1966671714136
 30
0.0
 10
132.8561132310817
 20
134.1966671714136
 30
0.0
 10
132.1152777447489
 20
138.5711121530607
 30
0.0
 10
132.1152777447489
 20
138.5711121530607
 30
0.0
 10
132.1152777447489
 20
138.5711121530607
 30
0.0
 10
135.2902777439552
 20
141.6755576733213
 30
0.0
 10
135.2902777439552
 20
141.6755576733213
 30
0.0
 10
135.2902777439552
 20
141.6755576733213
 30
0.0
 10
132.8561132310817
 20
134.1966671714136
 30
0.0
 10
132.8561132310817
 20
134.1966671714136
 30
0.0
  0
SPLINE
  5
7A
330
70
100
AcDbEntity
  8
Layer 1
100
AcDbSpline
210
0.0
220
0.0
230
1.0
 70
    11
 71
     3
 72
    14
 73
    10
 74
     0
 42
0.0000000001
 43
0.0000000001
 40
0.0
 40
0.0
 40
0.0
 40
0.0
 40
1.0
 40
1.0
 40
1.0
 40
2.0
 40
2.0
 40
2.0
 40
3.0
 40
3.0
 40
3.0
 40
3.0
 10
119.4505576788776
 20
141.9225010411117
 30
0.0
 10
119.4505576788776
 20
141.9225010411117
 30
0.0
 10
122.9077755938661
 20
138.5711121530607
 30
0.0
 10
122.9077755938661
 20
138.5711121530607
 30
0.0
 10
122.9077755938661
 20
138.5711121530607
 30
0.0
 10
122.0963910115494
 20
133.8086121542513
 30
0.0
 10
122.0963910115494
 20
133.8086121542513
 30
0.0
 10
122.0963910115494
 20
133.8086121542513
 30
0.0
 10
119.4505576788776
 20
141.9225010411117
 30
0.0
 10
119.4505576788776
 20
141.9225010411117
 30
0.0
  0
SPLINE
  5
7B
330
70
100
AcDbEntity
  8
Layer 1
100
AcDbSpline
210
0.0
220
0.0
230
1.0
 70
    11
 71
     3
 72
    14
 73
    10
 74
     0
 42
0.0000000001
 43
0.0000000001
 40
0.0
 40
0.0
 40
0.0
 40
0.0
 40
1.0
 40
1.0
 40
1.0
 40
2.0
 40
2.0
 40
2.0
 40
3.0
 40
3.0
 40
3.0
 40
3.0
 10
130.351388856301
 20
144.0038877762956
 30
0.0
 10
130.351388856301
 20
144.0038877762956
 30
0.0
 10
128.1994422592099
 20
148.3430555184698
 30
0.0
 10
128.1994422592099
 20
148.3430555184698
 30
0.0
 10
128.1994422592099
 20
148.3430555184698
 30
0.0
 10
135.1138888551104
 20
143.2983322209164
 30
0.0
 10
135.1138888551104
 20
143.2983322209164
 30
0.0
 10
135.1138888551104
 20
143.2983322209164
 30
0.0
 10
130.351388856301
 20
144.0038877762956
 30
0.0
 10
130.351388856301
 20
144.0038877762956
 30
0.0
  0
SPLINE
  5
7C
330
70
100
AcDbEntity
  8
Layer 1
100
AcDbSpline
210
0.0
220
0.0
230
1.0
 70
    11
 71
     3
 72
    14
 73
    10
 74
     0
 42
0.0000000001
 43
0.0000000001
 40
0.0
 40
0.0
 40
0.0
 40
0.0
 40
1.0
 40
1.0
 40
1.0
 40
2.0
 40
2.0
 40
2.0
 40
3.0
 40
3.0
 40
3.0
 40
3.0
 10
119.6269465677224
 20
143.2630549814436
 30
0.0
 10
119.6269465677224
 20
143.2630549814436
 30
0.0
 10
126.8941709413125
 20
148.5547216467874
 30
0.0
 10
126.8941709413125
 20
148.5547216467874
 30
0.0
 10
126.8941709413125
 20
148.5547216467874
 30
0.0
 10
124.6363953172838
 20
144.0038877762956
 30
0.0
 10
124.6363953172838
 20
144.0038877762956
 30
0.0
 10
124.6363953172838
 20
144.0038877762956
 30
0.0
 10
119.6269465677224
 20
143.2630549814436
 30
0.0
 10
119.6269465677224
 20
143.2630549814436
 30
0.0
  0
SPLINE
  5
7D
330
70
100
AcDbEntity
  8
Layer 1
100
AcDbSpline
210
0.0
220
0.0
230
1.0
 70
    11
 71
     3
 72
    14
 73
    10
 74
     0
 42
0.0000000001
 43
0.0000000001
 40
0.0
 40
0.0
 40
0.0
 40
0.0
 40
1.0
 40
1.0
 40
1.0
 40
2.0
 40
2.0
 40
2.0
 40
3.0
 40
3.0
 40
3.0
 40
3.0
 10
131.4097221893698
 20
133.1383338383449
 30
0.0
 10
131.4097221893698
 20
133.1383338383449
 30
0.0
 10
123.5780512182917
 20
133.1383338383449
 30
0.0
 10
123.5780512182917
 20
133.1383338383449
 30
0.0
 10
123.5780512182917
 20
133.1383338383449
 30
0.0
 10
127.4938867038307
 20
135.1844460255368
 30
0.0
 10
127.4938867038307
 20
135.1844460255368
 30
0.0
 10
127.4938867038307
 20
135.1844460255368
 30
0.0
 10
131.4097221893698
 20
133.1383338383449
 30
0.0
 10
131.4097221893698
 20
133.1383338383449
 30
0.0
  0
SPLINE
  5
7E
330
70
100
AcDbEntity
  8
Layer 1
100
AcDbSpline
210
0.0
220
0.0
230
1.0
 70
    11
 71
     3
 72
    35
 73
    31
 74
     0
 42
0.0000000001
 43
0.0000000001
 40
0.0
 40
0.0
 40
0.0
 40
0.0
 40
1.0
 40
1.0
 40
1.0
 40
2.0
 40
2.0
 40
2.0
 40
3.0
 40
3.0
 40
3.0
 40
4.0
 40
4.0
 40
4.0
 40
5.0
 40
5.0
 40
5.0
 40
6.0
 40
6.0
 40
6.0
 40
7.0
 40
7.0
 40
7.0
 40
8.0
 40
8.0
 40
8.0
 40
9.0
 40
9.0
 40
9.0
 40
10.0
 40
10.0
 40
10.0
 40
10.0
 10
131.1275042735875
 20
135.0786116156376
 30
0.0
 10
131.1275042735875
 20
135.0786116156376
 30
0.0
 10
127.4938974697541
 20
136.9836121534575
 30
0.0
 10
127.4938974697541
 20
136.9836121534575
 30
0.0
 10
127.4938974697541
 20
136.9836121534575
 30
0.0
 10
123.8602906659208
 20
135.0786116156376
 30
0.0
 10
123.8602906659208
 20
135.0786116156376
 30
0.0
 10
123.8602906659208
 20
135.0786116156376
 30
0.0
 10
124.5658462212999
 20
139.100278819595
 30
0.0
 10
124.5658462212999
 20
139.100278819595
 30
0.0
 10
124.5658462212999
 20
139.100278819595
 30
0.0
 10
121.6377949728457
 20
141.9577782805845
 30
0.0
 10
121.6377949728457
 20
141.9577782805845
 30
0.0
 10
121.6377949728457
 20
141.9577782805845
 30
0.0
 10
125.694739416276
 20
142.5574994260644
 30
0.0
 10
125.694739416276
 20
142.5574994260644
 30
0.0
 10
125.694739416276
 20
142.5574994260644
 30
0.0
 10
127.4939082356775
 20
146.2263888523323
 30
0.0
 10
127.4939082356775
 20
146.2263888523323
 30
0.0
 10
127.4939082356775
 20
146.2263888523323
 30
0.0
 10
129.293077055079
 20
142.5574994260644
 30
0.0
 10
129.293077055079
 20
142.5574994260644
 30
0.0
 10
129.293077055079
 20
142.5574994260644
 30
0.0
 10
133.3500214985092
 20
141.9577782805845
 30
0.0
 10
133.3500214985092
 20
141.9577782805845
 30
0.0
 10
133.3500214985092
 20
141.9577782805845
 30
0.0
 10
130.4219702500551
 20
139.100278819595
 30
0.0
 10
130.4219702500551
 20
139.100278819595
 30
0.0
 10
130.4219702500551
 20
139.100278819595
 30
0.0
 10
131.1275042735875
 20
135.0786116156376
 30
0.0
 10
131.1275042735875
 20
135.0786116156376
 30
0.0
  0
SPLINE
  5
7F
330
70
100
AcDbEntity
  8
Layer 1
100
AcDbSpline
210
0.0
220
0.0
230
1.0
 70
    11
 71
     3
 72
    20
 73
    16
 74
     0
 42
0.0000000001
 43
0.0000000001
 40
0.0
 40
0.0
 40
0.0
 40
0.0
 40
1.0
 40
1.0
 40
1.0
 40
2.0
 40
2.0
 40
2.0
 40
3.0
 40
3.0
 40
3.0
 40
4.0
 40
4.0
 40
4.0
 40
5.0
 40
5.0
 40
5.0
 40
5.0
 10
127.3880576768932
 20
150.8477772017696
 30
0.0
 10
127.3880576768932
 20
150.8477772017696
 30
0.0
 10
117.2633311508328
 20
143.4747211097612
 30
0.0
 10
117.2633311508328
 20
143.4747211097612
 30
0.0
 10
117.2633311508328
 20
143.4747211097612
 30
0.0
 10
121.1438867054182
 20
131.5861110782146
 30
0.0
 10
121.1438867054182
 20
131.5861110782146
 30
0.0
 10
121.1438867054182
 20
131.5861110782146
 30
0.0
 10
133.6674978133984
 20
131.5861110782146
 30
0.0
 10
133.6674978133984
 20
131.5861110782146
 30
0.0
 10
133.6674978133984
 20
131.5861110782146
 30
0.0
 10
137.5480533679839
 20
143.4747211097612
 30
0.0
 10
137.5480533679839
 20
143.4747211097612
 30
0.0
 10
137.5480533679839
 20
143.4747211097612
 30
0.0
 10
127.3880576768932
 20
150.8477772017696
 30
0.0
 10
127.3880576768932
 20
150.8477772017696
 30
0.0
  0
HATCH
  5
80
330
70
100
AcDbEntity
  8
Layer 1
 62
   250
420
  2301728
440
 33554687
100
AcDbHatch
 10
0.0
 20
0.0
 30
0.0
210
0.0
220
0.0
230
1.0
  2
SOLID
 70
     1
 71
     1
 91
        7
 92
        1
 93
        1
 72
     4
 94
        3
 73
     0
 74
     0
 95
       14
 96
       10
 40
0.0
 40
0.0
 40
0.0
 40
0.0
 40
1.0
 40
1.0
 40
1.0
 40
2.0
 40
2.0
 40
2.0
 40
3.0
 40
3.0
 40
3.0
 40
3.0
 10
132.8561132310817
 20
134.1966671714136
 10
132.8561132310817
 20
134.1966671714136
 10
132.1152777447489
 20
138.5711121530607
 10
132.1152777447489
 20
138.5711121530607
 10
132.1152777447489
 20
138.5711121530607
 10
135.2902777439552
 20
141.6755576733213
 10
135.2902777439552
 20
141.6755576733213
 10
135.2902777439552
 20
141.6755576733213
 10
132.8561132310817
 20
134.1966671714136
 10
132.8561132310817
 20
134.1966671714136
 97
        0
 97
        1
330
79
 92
        1
 93
        1
 72
     4
 94
        3
 73
     0
 74
     0
 95
       14
 96
       10
 40
0.0
 40
0.0
 40
0.0
 40
0.0
 40
1.0
 40
1.0
 40
1.0
 40
2.0
 40
2.0
 40
2.0
 40
3.0
 40
3.0
 40
3.0
 40
3.0
 10
119.4505576788776
 20
141.9225010411117
 10
119.4505576788776
 20
141.9225010411117
 10
122.9077755938661
 20
138.5711121530607
 10
122.9077755938661
 20
138.5711121530607
 10
122.9077755938661
 20
138.5711121530607
 10
122.0963910115494
 20
133.8086121542513
 10
122.0963910115494
 20
133.8086121542513
 10
122.0963910115494
 20
133.8086121542513
 10
119.4505576788776
 20
141.9225010411117
 10
119.4505576788776
 20
141.9225010411117
 97
        0
 97
        1
330
7A
 92
        1
 93
        1
 72
     4
 94
        3
 73
     0
 74
     0
 95
       14
 96
       10
 40
0.0
 40
0.0
 40
0.0
 40
0.0
 40
1.0
 40
1.0
 40
1.0
 40
2.0
 40
2.0
 40
2.0
 40
3.0
 40
3.0
 40
3.0
 40
3.0
 10
130.351388856301
 20
144.0038877762956
 10
130.351388856301
 20
144.0038877762956
 10
128.1994422592099
 20
148.3430555184698
 10
128.1994422592099
 20
148.3430555184698
 10
128.1994422592099
 20
148.3430555184698
 10
135.1138888551104
 20
143.2983322209164
 10
135.1138888551104
 20
143.2983322209164
 10
135.1138888551104
 20
143.2983322209164
 10
130.351388856301
 20
144.0038877762956
 10
130.351388856301
 20
144.0038877762956
 97
        0
 97
        1
330
7B
 92
        1
 93
        1
 72
     4
 94
        3
 73
     0
 74
     0
 95
       14
 96
       10
 40
0.0
 40
0.0
 40
0.0
 40
0.0
 40
1.0
 40
1.0
 40
1.0
 40
2.0
 40
2.0
 40
2.0
 40
3.0
 40
3.0
 40
3.0
 40
3.0
 10
119.6269465677224
 20
143.2630549814436
 10
119.6269465677224
 20
143.2630549814436
 10
126.8941709413125
 20
148.5547216467874
 10
126.8941709413125
 20
148.5547216467874
 10
126.8941709413125
 20
148.5547216467874
 10
124.6363953172838
 20
144.0038877762956
 10
124.6363953172838
 20
144.0038877762956
 10
124.6363953172838
 20
144.0038877762956
 10
119.6269465677224
 20
143.2630549814436
 10
119.6269465677224
 20
143.2630549814436
 97
        0
 97
        1
330
7C
 92
        1
 93
        1
 72
     4
 94
        3
 73
     0
 74
     0
 95
       14
 96
       10
 40
0.0
 40
0.0
 40
0.0
 40
0.0
 40
1.0
 40
1.0
 40
1.0
 40
2.0
 40
2.0
 40
2.0
 40
3.0
 40
3.0
 40
3.0
 40
3.0
 10
131.4097221893698
 20
133.1383338383449
 10
131.4097221893698
 20
133.1383338383449
 10
123.5780512182917
 20
133.1383338383449
 10
123.5780512182917
 20
133.1383338383449
 10
123.5780512182917
 20
133.1383338383449
 10
127.4938867038307
 20
135.1844460255368
 10
127.4938867038307
 20
135.1844460255368
 10
127.4938867038307
 20
135.1844460255368
 10
131.4097221893698
 20
133.1383338383449
 10
131.4097221893698
 20
133.1383338383449
 97
        0
 97
        1
330
7D
 92
        1
 93
        1
 72
     4
 94
        3
 73
     0
 74
     0
 95
       35
 96
       31
 40
0.0
 40
0.0
 40
0.0
 40
0.0
 40
1.0
 40
1.0
 40
1.0
 40
2.0
 40
2.0
 40
2.0
 40
3.0
 40
3.0
 40
3.0
 40
4.0
 40
4.0
 40
4.0
 40
5.0
 40
5.0
 40
5.0
 40
6.0
 40
6.0
 40
6.0
 40
7.0
 40
7.0
 40
7.0
 40
8.0
 40
8.0
 40
8.0
 40
9.0
 40
9.0
 40
9.0
 40
10.0
 40
10.0
 40
10.0
 40
10.0
 10
131.1275042735875
 20
135.0786116156376
 10
131.1275042735875
 20
135.0786116156376
 10
127.4938974697541
 20
136.9836121534575
 10
127.4938974697541
 20
136.9836121534575
 10
127.4938974697541
 20
136.9836121534575
 10
123.8602906659208
 20
135.0786116156376
 10
123.8602906659208
 20
135.0786116156376
 10
123.8602906659208
 20
135.0786116156376
 10
124.5658462212999
 20
139.100278819595
 10
124.5658462212999
 20
139.100278819595
 10
124.5658462212999
 20
139.100278819595
 10
121.6377949728457
 20
141.9577782805845
 10
121.6377949728457
 20
141.9577782805845
 10
121.6377949728457
 20
141.9577782805845
 10
125.694739416276
 20
142.5574994260644
 10
125.694739416276
 20
142.5574994260644
 10
125.694739416276
 20
142.5574994260644
 10
127.4939082356775
 20
146.2263888523323
 10
127.4939082356775
 20
146.2263888523323
 10
127.4939082356775
 20
146.2263888523323
 10
129.293077055079
 20
142.5574994260644
 10
129.293077055079
 20
142.5574994260644
 10
129.293077055079
 20
142.5574994260644
 10
133.3500214985092
 20
141.9577782805845
 10
133.3500214985092
 20
141.9577782805845
 10
133.3500214985092
 20
141.9577782805845
 10
130.4219702500551
 20
139.100278819595
 10
130.4219702500551
 20
139.100278819595
 10
130.4219702500551
 20
139.100278819595
 10
131.1275042735875
 20
135.0786116156376
 10
131.1275042735875
 20
135.0786116156376
 97
        0
 97
        1
330
7E
 92
        1
 93
        1
 72
     4
 94
        3
 73
     0
 74
     0
 95
       20
 96
       16
 40
0.0
 40
0.0
 40
0.0
 40
0.0
 40
1.0
 40
1.0
 40
1.0
 40
2.0
 40
2.0
 40
2.0
 40
3.0
 40
3.0
 40
3.0
 40
4.0
 40
4.0
 40
4.0
 40
5.0
 40
5.0
 40
5.0
 40
5.0
 10
127.3880576768932
 20
150.8477772017696
 10
127.3880576768932
 20
150.8477772017696
 10
117.2633311508328
 20
143.4747211097612
 10
117.2633311508328
 20
143.4747211097612
 10
117.2633311508328
 20
143.4747211097612
 10
121.1438867054182
 20
131.5861110782146
 10
121.1438867054182
 20
131.5861110782146
 10
121.1438867054182
 20
131.5861110782146
 10
133.6674978133984
 20
131.5861110782146
 10
133.6674978133984
 20
131.5861110782146
 10
133.6674978133984
 20
131.5861110782146
 10
137.5480533679839
 20
143.4747211097612
 10
137.5480533679839
 20
143.4747211097612
 10
137.5480533679839
 20
143.4747211097612
 10
127.3880576768932
 20
150.8477772017696
 10
127.3880576768932
 20
150.8477772017696
 97
        0
 97
        1
330
7F
 75
     2
 76
     1
 98
        1
 10
0.0
 20
0.0
450
        0
451
        0
460
0.0
461
0.0
452
        0
462
0.0
453
        0
470

  0
SPLINE
  5
81
330
70
100
AcDbEntity
  8
Layer 1
100
AcDbSpline
210
0.0
220
0.0
230
1.0
 70
    11
 71
     3
 72
    14
 73
    10
 74
     0
 42
0.0000000001
 43
0.0000000001
 40
0.0
 40
0.0
 40
0.0
 40
0.0
 40
1.0
 40
1.0
 40
1.0
 40
2.0
 40
2.0
 40
2.0
 40
3.0
 40
3.0
 40
3.0
 40
3.0
 10
156.5275042672374
 20
124.1777777467333
 30
0.0
 10
156.5275042672374
 20
124.1777777467333
 30
0.0
 10
157.3741687805078
 20
119.1683343801336
 30
0.0
 10
157.3741687805078
 20
119.1683343801336
 30
0.0
 10
157.3741687805078
 20
119.1683343801336
 30
0.0
 10
153.7405619766744
 20
115.6405566032377
 30
0.0
 10
153.7405619766744
 20
115.6405566032377
 30
0.0
 10
153.7405619766744
 20
115.6405566032377
 30
0.0
 10
156.5275042672374
 20
124.1777777467333
 30
0.0
 10
156.5275042672374
 20
124.1777777467333
 30
0.0
  0
SPLINE
  5
82
330
70
100
AcDbEntity
  8
Layer 1
100
AcDbSpline
210
0.0
220
0.0
230
1.0
 70
    11
 71
     3
 72
    14
 73
    10
 74
     0
 42
0.0000000001
 43
0.0000000001
 40
0.0
 40
0.0
 40
0.0
 40
0.0
 40
1.0
 40
1.0
 40
1.0
 40
2.0
 40
2.0
 40
2.0
 40
3.0
 40
3.0
 40
3.0
 40
3.0
 10
169.7919400956271
 20
116.0991687908265
 30
0.0
 10
169.7919400956271
 20
116.0991687908265
 30
0.0
 10
166.6169400964208
 20
119.2036143110872
 30
0.0
 10
166.6169400964208
 20
119.2036143110872
 30
0.0
 10
166.6169400964208
 20
119.2036143110872
 30
0.0
 10
167.3577755827537
 20
123.5780566012534
 30
0.0
 10
167.3577755827537
 20
123.5780566012534
 30
0.0
 10
167.3577755827537
 20
123.5780566012534
 30
0.0
 10
169.7919400956271
 20
116.0991687908265
 30
0.0
 10
169.7919400956271
 20
116.0991687908265
 30
0.0
  0
SPLINE
  5
83
330
70
100
AcDbEntity
  8
Layer 1
100
AcDbSpline
210
0.0
220
0.0
230
1.0
 70
    11
 71
     3
 72
    14
 73
    10
 74
     0
 42
0.0000000001
 43
0.0000000001
 40
0.0
 40
0.0
 40
0.0
 40
0.0
 40
1.0
 40
1.0
 40
1.0
 40
2.0
 40
2.0
 40
2.0
 40
3.0
 40
3.0
 40
3.0
 40
3.0
 10
164.8530512079729
 20
113.735553373937
 30
0.0
 10
164.8530512079729
 20
113.735553373937
 30
0.0
 10
169.2274934981391
 20
114.3705544503706
 30
0.0
 10
169.2274934981391
 20
114.3705544503706
 30
0.0
 10
169.2274934981391
 20
114.3705544503706
 30
0.0
 10
162.8774934997266
 20
109.784443340406
 30
0.0
 10
162.8774934997266
 20
109.784443340406
 30
0.0
 10
162.8774934997266
 20
109.784443340406
 30
0.0
 10
164.8530512079729
 20
113.735553373937
 30
0.0
 10
164.8530512079729
 20
113.735553373937
 30
0.0
  0
SPLINE
  5
84
330
70
100
AcDbEntity
  8
Layer 1
100
AcDbSpline
210
0.0
220
0.0
230
1.0
 70
    11
 71
     3
 72
    14
 73
    10
 74
     0
 42
0.0000000001
 43
0.0000000001
 40
0.0
 40
0.0
 40
0.0
 40
0.0
 40
1.0
 40
1.0
 40
1.0
 40
2.0
 40
2.0
 40
2.0
 40
3.0
 40
3.0
 40
3.0
 40
3.0
 10
159.1380576689557
 20
113.735553373937
 30
0.0
 10
159.1380576689557
 20
113.735553373937
 30
0.0
 10
161.2900042660468
 20
109.3963856317628
 30
0.0
 10
161.2900042660468
 20
109.3963856317628
 30
0.0
 10
161.2900042660468
 20
109.3963856317628
 30
0.0
 10
154.3755576701463
 20
114.4058289983625
 30
0.0
 10
154.3755576701463
 20
114.4058289983625
 30
0.0
 10
154.3755576701463
 20
114.4058289983625
 30
0.0
 10
159.1380576689557
 20
113.735553373937
 30
0.0
 10
159.1380576689557
 20
113.735553373937
 30
0.0
  0
SPLINE
  5
85
330
70
100
AcDbEntity
  8
Layer 1
100
AcDbSpline
210
0.0
220
0.0
230
1.0
 70
    11
 71
     3
 72
    14
 73
    10
 74
     0
 42
0.0000000001
 43
0.0000000001
 40
0.0
 40
0.0
 40
0.0
 40
0.0
 40
1.0
 40
1.0
 40
1.0
 40
2.0
 40
2.0
 40
2.0
 40
3.0
 40
3.0
 40
3.0
 40
3.0
 10
157.7269465581974
 20
124.7774988922133
 30
0.0
 10
157.7269465581974
 20
124.7774988922133
 30
0.0
 10
166.2641730846546
 20
124.7774988922133
 30
0.0
 10
166.2641730846546
 20
124.7774988922133
 30
0.0
 10
166.2641730846546
 20
124.7774988922133
 30
0.0
 10
161.995559821426
 20
122.5197232681846
 30
0.0
 10
161.995559821426
 20
122.5197232681846
 30
0.0
 10
161.995559821426
 20
122.5197232681846
 30
0.0
 10
157.7269465581974
 20
124.7774988922133
 30
0.0
 10
157.7269465581974
 20
124.7774988922133
 30
0.0
  0
SPLINE
  5
86
330
70
100
AcDbEntity
  8
Layer 1
100
AcDbSpline
210
0.0
220
0.0
230
1.0
 70
    11
 71
     3
 72
    35
 73
    31
 74
     0
 42
0.0000000001
 43
0.0000000001
 40
0.0
 40
0.0
 40
0.0
 40
0.0
 40
1.0
 40
1.0
 40
1.0
 40
2.0
 40
2.0
 40
2.0
 40
3.0
 40
3.0
 40
3.0
 40
4.0
 40
4.0
 40
4.0
 40
5.0
 40
5.0
 40
5.0
 40
6.0
 40
6.0
 40
6.0
 40
7.0
 40
7.0
 40
7.0
 40
8.0
 40
8.0
 40
8.0
 40
9.0
 40
9.0
 40
9.0
 40
10.0
 40
10.0
 40
10.0
 40
10.0
 10
158.3619422516693
 20
122.6608322260758
 30
0.0
 10
158.3619422516693
 20
122.6608322260758
 30
0.0
 10
161.9955490555026
 20
120.7558343797367
 30
0.0
 10
161.9955490555026
 20
120.7558343797367
 30
0.0
 10
161.9955490555026
 20
120.7558343797367
 30
0.0
 10
165.6291558593359
 20
122.6608322260758
 30
0.0
 10
165.6291558593359
 20
122.6608322260758
 30
0.0
 10
165.6291558593359
 20
122.6608322260758
 30
0.0
 10
164.9236003039568
 20
118.6391677135992
 30
0.0
 10
164.9236003039568
 20
118.6391677135992
 30
0.0
 10
164.9236003039568
 20
118.6391677135992
 30
0.0
 10
167.851651552411
 20
115.7816655611289
 30
0.0
 10
167.851651552411
 20
115.7816655611289
 30
0.0
 10
167.851651552411
 20
115.7816655611289
 30
0.0
 10
163.7947071089808
 20
115.1819444156489
 30
0.0
 10
163.7947071089808
 20
115.1819444156489
 30
0.0
 10
163.7947071089808
 20
115.1819444156489
 30
0.0
 10
161.9955382895792
 20
111.5130576808619
 30
0.0
 10
161.9955382895792
 20
111.5130576808619
 30
0.0
 10
161.9955382895792
 20
111.5130576808619
 30
0.0
 10
160.1963694701777
 20
115.1819444156489
 30
0.0
 10
160.1963694701777
 20
115.1819444156489
 30
0.0
 10
160.1963694701777
 20
115.1819444156489
 30
0.0
 10
156.1394250267475
 20
115.7816655611289
 30
0.0
 10
156.1394250267475
 20
115.7816655611289
 30
0.0
 10
156.1394250267475
 20
115.7816655611289
 30
0.0
 10
159.0674762752017
 20
118.6391677135992
 30
0.0
 10
159.0674762752017
 20
118.6391677135992
 30
0.0
 10
159.0674762752017
 20
118.6391677135992
 30
0.0
 10
158.3619422516693
 20
122.6608322260758
 30
0.0
 10
158.3619422516693
 20
122.6608322260758
 30
0.0
  0
SPLINE
  5
87
330
70
100
AcDbEntity
  8
Layer 1
100
AcDbSpline
210
0.0
220
0.0
230
1.0
 70
    11
 71
     3
 72
    20
 73
    16
 74
     0
 42
0.0000000001
 43
0.0000000001
 40
0.0
 40
0.0
 40
0.0
 40
0.0
 40
1.0
 40
1.0
 40
1.0
 40
2.0
 40
2.0
 40
2.0
 40
3.0
 40
3.0
 40
3.0
 40
4.0
 40
4.0
 40
4.0
 40
5.0
 40
5.0
 40
5.0
 40
5.0
 10
168.0986110690865
 20
126.3297243438245
 30
0.0
 10
168.0986110690865
 20
126.3297243438245
 30
0.0
 10
155.5749999611062
 20
126.3297243438245
 30
0.0
 10
155.5749999611062
 20
126.3297243438245
 30
0.0
 10
155.5749999611062
 20
126.3297243438245
 30
0.0
 10
151.6944444065208
 20
114.4411143122778
 30
0.0
 10
151.6944444065208
 20
114.4411143122778
 30
0.0
 10
151.6944444065208
 20
114.4411143122778
 30
0.0
 10
161.8191709325812
 20
107.0680609117502
 30
0.0
 10
161.8191709325812
 20
107.0680609117502
 30
0.0
 10
161.8191709325812
 20
107.0680609117502
 30
0.0
 10
171.9438974586416
 20
114.4411143122778
 30
0.0
 10
171.9438974586416
 20
114.4411143122778
 30
0.0
 10
171.9438974586416
 20
114.4411143122778
 30
0.0
 10
168.0986110690865
 20
126.3297243438245
 30
0.0
 10
168.0986110690865
 20
126.3297243438245
 30
0.0
  0
HATCH
  5
88
330
70
100
AcDbEntity
  8
Layer 1
 62
   250
420
  2301728
440
 33554687
100
AcDbHatch
 10
0.0
 20
0.0
 30
0.0
210
0.0
220
0.0
230
1.0
  2
SOLID
 70
     1
 71
     1
 91
        7
 92
        1
 93
        1
 72
     4
 94
        3
 73
     0
 74
     0
 95
       14
 96
       10
 40
0.0
 40
0.0
 40
0.0
 40
0.0
 40
1.0
 40
1.0
 40
1.0
 40
2.0
 40
2.0
 40
2.0
 40
3.0
 40
3.0
 40
3.0
 40
3.0
 10
156.5275042672374
 20
124.1777777467333
 10
156.5275042672374
 20
124.1777777467333
 10
157.3741687805078
 20
119.1683343801336
 10
157.3741687805078
 20
119.1683343801336
 10
157.3741687805078
 20
119.1683343801336
 10
153.7405619766744
 20
115.6405566032377
 10
153.7405619766744
 20
115.6405566032377
 10
153.7405619766744
 20
115.6405566032377
 10
156.5275042672374
 20
124.1777777467333
 10
156.5275042672374
 20
124.1777777467333
 97
        0
 97
        1
330
81
 92
        1
 93
        1
 72
     4
 94
        3
 73
     0
 74
     0
 95
       14
 96
       10
 40
0.0
 40
0.0
 40
0.0
 40
0.0
 40
1.0
 40
1.0
 40
1.0
 40
2.0
 40
2.0
 40
2.0
 40
3.0
 40
3.0
 40
3.0
 40
3.0
 10
169.7919400956271
 20
116.0991687908265
 10
169.7919400956271
 20
116.0991687908265
 10
166.6169400964208
 20
119.2036143110872
 10
166.6169400964208
 20
119.2036143110872
 10
166.6169400964208
 20
119.2036143110872
 10
167.3577755827537
 20
123.5780566012534
 10
167.3577755827537
 20
123.5780566012534
 10
167.3577755827537
 20
123.5780566012534
 10
169.7919400956271
 20
116.0991687908265
 10
169.7919400956271
 20
116.0991687908265
 97
        0
 97
        1
330
82
 92
        1
 93
        1
 72
     4
 94
        3
 73
     0
 74
     0
 95
       14
 96
       10
 40
0.0
 40
0.0
 40
0.0
 40
0.0
 40
1.0
 40
1.0
 40
1.0
 40
2.0
 40
2.0
 40
2.0
 40
3.0
 40
3.0
 40
3.0
 40
3.0
 10
164.8530512079729
 20
113.735553373937
 10
164.8530512079729
 20
113.735553373937
 10
169.2274934981391
 20
114.3705544503706
 10
169.2274934981391
 20
114.3705544503706
 10
169.2274934981391
 20
114.3705544503706
 10
162.8774934997266
 20
109.784443340406
 10
162.8774934997266
 20
109.784443340406
 10
162.8774934997266
 20
109.784443340406
 10
164.8530512079729
 20
113.735553373937
 10
164.8530512079729
 20
113.735553373937
 97
        0
 97
        1
330
83
 92
        1
 93
        1
 72
     4
 94
        3
 73
     0
 74
     0
 95
       14
 96
       10
 40
0.0
 40
0.0
 40
0.0
 40
0.0
 40
1.0
 40
1.0
 40
1.0
 40
2.0
 40
2.0
 40
2.0
 40
3.0
 40
3.0
 40
3.0
 40
3.0
 10
159.1380576689557
 20
113.735553373937
 10
159.1380576689557
 20
113.735553373937
 10
161.2900042660468
 20
109.3963856317628
 10
161.2900042660468
 20
109.3963856317628
 10
161.2900042660468
 20
109.3963856317628
 10
154.3755576701463
 20
114.4058289983625
 10
154.3755576701463
 20
114.4058289983625
 10
154.3755576701463
 20
114.4058289983625
 10
159.1380576689557
 20
113.735553373937
 10
159.1380576689557
 20
113.735553373937
 97
        0
 97
        1
330
84
 92
        1
 93
        1
 72
     4
 94
        3
 73
     0
 74
     0
 95
       14
 96
       10
 40
0.0
 40
0.0
 40
0.0
 40
0.0
 40
1.0
 40
1.0
 40
1.0
 40
2.0
 40
2.0
 40
2.0
 40
3.0
 40
3.0
 40
3.0
 40
3.0
 10
157.7269465581974
 20
124.7774988922133
 10
157.7269465581974
 20
124.7774988922133
 10
166.2641730846546
 20
124.7774988922133
 10
166.2641730846546
 20
124.7774988922133
 10
166.2641730846546
 20
124.7774988922133
 10
161.995559821426
 20
122.5197232681846
 10
161.995559821426
 20
122.5197232681846
 10
161.995559821426
 20
122.5197232681846
 10
157.7269465581974
 20
124.7774988922133
 10
157.7269465581974
 20
124.7774988922133
 97
        0
 97
        1
330
85
 92
        1
 93
        1
 72
     4
 94
        3
 73
     0
 74
     0
 95
       35
 96
       31
 40
0.0
 40
0.0
 40
0.0
 40
0.0
 40
1.0
 40
1.0
 40
1.0
 40
2.0
 40
2.0
 40
2.0
 40
3.0
 40
3.0
 40
3.0
 40
4.0
 40
4.0
 40
4.0
 40
5.0
 40
5.0
 40
5.0
 40
6.0
 40
6.0
 40
6.0
 40
7.0
 40
7.0
 40
7.0
 40
8.0
 40
8.0
 40
8.0
 40
9.0
 40
9.0
 40
9.0
 40
10.0
 40
10.0
 40
10.0
 40
10.0
 10
158.3619422516693
 20
122.6608322260758
 10
158.3619422516693
 20
122.6608322260758
 10
161.9955490555026
 20
120.7558343797367
 10
161.9955490555026
 20
120.7558343797367
 10
161.9955490555026
 20
120.7558343797367
 10
165.6291558593359
 20
122.6608322260758
 10
165.6291558593359
 20
122.6608322260758
 10
165.6291558593359
 20
122.6608322260758
 10
164.9236003039568
 20
118.6391677135992
 10
164.9236003039568
 20
118.6391677135992
 10
164.9236003039568
 20
118.6391677135992
 10
167.851651552411
 20
115.7816655611289
 10
167.851651552411
 20
115.7816655611289
 10
167.851651552411
 20
115.7816655611289
 10
163.7947071089808
 20
115.1819444156489
 10
163.7947071089808
 20
115.1819444156489
 10
163.7947071089808
 20
115.1819444156489
 10
161.9955382895792
 20
111.5130576808619
 10
161.9955382895792
 20
111.5130576808619
 10
161.9955382895792
 20
111.5130576808619
 10
160.1963694701777
 20
115.1819444156489
 10
160.1963694701777
 20
115.1819444156489
 10
160.1963694701777
 20
115.1819444156489
 10
156.1394250267475
 20
115.7816655611289
 10
156.1394250267475
 20
115.7816655611289
 10
156.1394250267475
 20
115.7816655611289
 10
159.0674762752017
 20
118.6391677135992
 10
159.0674762752017
 20
118.6391677135992
 10
159.0674762752017
 20
118.6391677135992
 10
158.3619422516693
 20
122.6608322260758
 10
158.3619422516693
 20
122.6608322260758
 97
        0
 97
        1
330
86
 92
        1
 93
        1
 72
     4
 94
        3
 73
     0
 74
     0
 95
       20
 96
       16
 40
0.0
 40
0.0
 40
0.0
 40
0.0
 40
1.0
 40
1.0
 40
1.0
 40
2.0
 40
2.0
 40
2.0
 40
3.0
 40
3.0
 40
3.0
 40
4.0
 40
4.0
 40
4.0
 40
5.0
 40
5.0
 40
5.0
 40
5.0
 10
168.0986110690865
 20
126.3297243438245
 10
168.0986110690865
 20
126.3297243438245
 10
155.5749999611062
 20
126.3297243438245
 10
155.5749999611062
 20
126.3297243438245
 10
155.5749999611062
 20
126.3297243438245
 10
151.6944444065208
 20
114.4411143122778
 10
151.6944444065208
 20
114.4411143122778
 10
151.6944444065208
 20
114.4411143122778
 10
161.8191709325812
 20
107.0680609117502
 10
161.8191709325812
 20
107.0680609117502
 10
161.8191709325812
 20
107.0680609117502
 10
171.9438974586416
 20
114.4411143122778
 10
171.9438974586416
 20
114.4411143122778
 10
171.9438974586416
 20
114.4411143122778
 10
168.0986110690865
 20
126.3297243438245
 10
168.0986110690865
 20
126.3297243438245
 97
        0
 97
        1
330
87
 75
     2
 76
     1
 98
        1
 10
0.0
 20
0.0
450
        0
451
        0
460
0.0
461
0.0
452
        0
462
0.0
453
        0
470

  0
SPLINE
  5
89
330
70
100
AcDbEntity
  8
Layer 1
100
AcDbSpline
210
0.0
220
0.0
230
1.0
 70
    11
 71
     3
 72
    14
 73
    10
 74
     0
 42
0.0000000001
 43
0.0000000001
 40
0.0
 40
0.0
 40
0.0
 40
0.0
 40
1.0
 40
1.0
 40
1.0
 40
2.0
 40
2.0
 40
2.0
 40
3.0
 40
3.0
 40
3.0
 40
3.0
 10
166.2994422496849
 20
141.0758338363605
 30
0.0
 10
166.2994422496849
 20
141.0758338363605
 30
0.0
 10
165.5586067633521
 20
145.4502788180075
 30
0.0
 10
165.5586067633521
 20
145.4502788180075
 30
0.0
 10
165.5586067633521
 20
145.4502788180075
 30
0.0
 10
168.7336067625583
 20
148.5547243382682
 30
0.0
 10
168.7336067625583
 20
148.5547243382682
 30
0.0
 10
168.7336067625583
 20
148.5547243382682
 30
0.0
 10
166.2994422496849
 20
141.0758338363605
 30
0.0
 10
166.2994422496849
 20
141.0758338363605
 30
0.0
  0
SPLINE
  5
8A
330
70
100
AcDbEntity
  8
Layer 1
100
AcDbSpline
210
0.0
220
0.0
230
1.0
 70
    11
 71
     3
 72
    14
 73
    10
 74
     0
 42
0.0000000001
 43
0.0000000001
 40
0.0
 40
0.0
 40
0.0
 40
0.0
 40
1.0
 40
1.0
 40
1.0
 40
2.0
 40
2.0
 40
2.0
 40
3.0
 40
3.0
 40
3.0
 40
3.0
 10
152.6822178776823
 20
148.9780565949034
 30
0.0
 10
152.6822178776823
 20
148.9780565949034
 30
0.0
 10
156.3158246815156
 20
145.4502788180075
 30
0.0
 10
156.3158246815156
 20
145.4502788180075
 30
0.0
 10
156.3158246815156
 20
145.4502788180075
 30
0.0
 10
155.4691601682453
 20
140.4408354514078
 30
0.0
 10
155.4691601682453
 20
140.4408354514078
 30
0.0
 10
155.4691601682453
 20
140.4408354514078
 30
0.0
 10
152.6822178776823
 20
148.9780565949034
 30
0.0
 10
152.6822178776823
 20
148.9780565949034
 30
0.0
  0
SPLINE
  5
8B
330
70
100
AcDbEntity
  8
Layer 1
100
AcDbSpline
210
0.0
220
0.0
230
1.0
 70
    11
 71
     3
 72
    14
 73
    10
 74
     0
 42
0.0000000001
 43
0.0000000001
 40
0.0
 40
0.0
 40
0.0
 40
0.0
 40
1.0
 40
1.0
 40
1.0
 40
2.0
 40
2.0
 40
2.0
 40
3.0
 40
3.0
 40
3.0
 40
3.0
 10
163.7947178749042
 20
150.8477772017696
 30
0.0
 10
163.7947178749042
 20
150.8477772017696
 30
0.0
 10
161.8544400976114
 20
154.7988885810411
 30
0.0
 10
161.8544400976114
 20
154.7988885810411
 30
0.0
 10
161.8544400976114
 20
154.7988885810411
 30
0.0
 10
168.2044400960239
 20
150.2127788168169
 30
0.0
 10
168.2044400960239
 20
150.2127788168169
 30
0.0
 10
168.2044400960239
 20
150.2127788168169
 30
0.0
 10
163.7947178749042
 20
150.8477772017696
 30
0.0
 10
163.7947178749042
 20
150.8477772017696
 30
0.0
  0
SPLINE
  5
8C
330
70
100
AcDbEntity
  8
Layer 1
100
AcDbSpline
210
0.0
220
0.0
230
1.0
 70
    11
 71
     3
 72
    14
 73
    10
 74
     0
 42
0.0000000001
 43
0.0000000001
 40
0.0
 40
0.0
 40
0.0
 40
0.0
 40
1.0
 40
1.0
 40
1.0
 40
2.0
 40
2.0
 40
2.0
 40
3.0
 40
3.0
 40
3.0
 40
3.0
 10
153.3172243370776
 20
150.1774988858633
 30
0.0
 10
153.3172243370776
 20
150.1774988858633
 30
0.0
 10
160.2316709329781
 20
155.1869435982034
 30
0.0
 10
160.2316709329781
 20
155.1869435982034
 30
0.0
 10
160.2316709329781
 20
155.1869435982034
 30
0.0
 10
158.0797243358869
 20
150.8477772017696
 30
0.0
 10
158.0797243358869
 20
150.8477772017696
 30
0.0
 10
158.0797243358869
 20
150.8477772017696
 30
0.0
 10
153.3172243370776
 20
150.1774988858633
 30
0.0
 10
153.3172243370776
 20
150.1774988858633
 30
0.0
  0
SPLINE
  5
8D
330
70
100
AcDbEntity
  8
Layer 1
100
AcDbSpline
210
0.0
220
0.0
230
1.0
 70
    11
 71
     3
 72
    14
 73
    10
 74
     0
 42
0.0000000001
 43
0.0000000001
 40
0.0
 40
0.0
 40
0.0
 40
0.0
 40
1.0
 40
1.0
 40
1.0
 40
2.0
 40
2.0
 40
2.0
 40
3.0
 40
3.0
 40
3.0
 40
3.0
 10
165.2058289856625
 20
139.841111614447
 30
0.0
 10
165.2058289856625
 20
139.841111614447
 30
0.0
 10
156.6686024592052
 20
139.841111614447
 30
0.0
 10
156.6686024592052
 20
139.841111614447
 30
0.0
 10
156.6686024592052
 20
139.841111614447
 30
0.0
 10
160.9372157224339
 20
142.0988899299565
 30
0.0
 10
160.9372157224339
 20
142.0988899299565
 30
0.0
 10
160.9372157224339
 20
142.0988899299565
 30
0.0
 10
165.2058289856625
 20
139.841111614447
 30
0.0
 10
165.2058289856625
 20
139.841111614447
 30
0.0
  0
SPLINE
  5
8E
330
70
100
AcDbEntity
  8
Layer 1
100
AcDbSpline
210
0.0
220
0.0
230
1.0
 70
    11
 71
     3
 72
    35
 73
    31
 74
     0
 42
0.0000000001
 43
0.0000000001
 40
0.0
 40
0.0
 40
0.0
 40
0.0
 40
1.0
 40
1.0
 40
1.0
 40
2.0
 40
2.0
 40
2.0
 40
3.0
 40
3.0
 40
3.0
 40
4.0
 40
4.0
 40
4.0
 40
5.0
 40
5.0
 40
5.0
 40
6.0
 40
6.0
 40
6.0
 40
7.0
 40
7.0
 40
7.0
 40
8.0
 40
8.0
 40
8.0
 40
9.0
 40
9.0
 40
9.0
 40
10.0
 40
10.0
 40
10.0
 40
10.0
 10
164.5708332921906
 20
141.9577782805845
 30
0.0
 10
164.5708332921906
 20
141.9577782805845
 30
0.0
 10
160.9372264883573
 20
143.8627788184044
 30
0.0
 10
160.9372264883573
 20
143.8627788184044
 30
0.0
 10
160.9372264883573
 20
143.8627788184044
 30
0.0
 10
157.3388888495541
 20
141.9577782805845
 30
0.0
 10
157.3388888495541
 20
141.9577782805845
 30
0.0
 10
157.3388888495541
 20
141.9577782805845
 30
0.0
 10
158.0444444049333
 20
145.9794454845419
 30
0.0
 10
158.0444444049333
 20
145.9794454845419
 30
0.0
 10
158.0444444049333
 20
145.9794454845419
 30
0.0
 10
155.1163931564791
 20
148.8369449455313
 30
0.0
 10
155.1163931564791
 20
148.8369449455313
 30
0.0
 10
155.1163931564791
 20
148.8369449455313
 30
0.0
 10
159.1733375999093
 20
149.4366660910113
 30
0.0
 10
159.1733375999093
 20
149.4366660910113
 30
0.0
 10
159.1733375999093
 20
149.4366660910113
 30
0.0
 10
160.9725064193109
 20
153.1055555172792
 30
0.0
 10
160.9725064193109
 20
153.1055555172792
 30
0.0
 10
160.9725064193109
 20
153.1055555172792
 30
0.0
 10
162.7716752387124
 20
149.4366660910113
 30
0.0
 10
162.7716752387124
 20
149.4366660910113
 30
0.0
 10
162.7716752387124
 20
149.4366660910113
 30
0.0
 10
166.8286196821427
 20
148.8369449455313
 30
0.0
 10
166.8286196821427
 20
148.8369449455313
 30
0.0
 10
166.8286196821427
 20
148.8369449455313
 30
0.0
 10
163.9005684336885
 20
145.9794454845419
 30
0.0
 10
163.9005684336885
 20
145.9794454845419
 30
0.0
 10
163.9005684336885
 20
145.9794454845419
 30
0.0
 10
164.5708332921906
 20
141.9577782805845
 30
0.0
 10
164.5708332921906
 20
141.9577782805845
 30
0.0
  0
SPLINE
  5
8F
330
70
100
AcDbEntity
  8
Layer 1
100
AcDbSpline
210
0.0
220
0.0
230
1.0
 70
    11
 71
     3
 72
    20
 73
    16
 74
     0
 42
0.0000000001
 43
0.0000000001
 40
0.0
 40
0.0
 40
0.0
 40
0.0
 40
1.0
 40
1.0
 40
1.0
 40
2.0
 40
2.0
 40
2.0
 40
3.0
 40
3.0
 40
3.0
 40
4.0
 40
4.0
 40
4.0
 40
5.0
 40
5.0
 40
5.0
 40
5.0
 10
160.7961067645427
 20
157.5152777383989
 30
0.0
 10
160.7961067645427
 20
157.5152777383989
 30
0.0
 10
150.6713802384823
 20
150.1422216463905
 30
0.0
 10
150.6713802384823
 20
150.1422216463905
 30
0.0
 10
150.6713802384823
 20
150.1422216463905
 30
0.0
 10
154.5519357930677
 20
138.253608923363
 30
0.0
 10
154.5519357930677
 20
138.253608923363
 30
0.0
 10
154.5519357930677
 20
138.253608923363
 30
0.0
 10
167.0755469010479
 20
138.253608923363
 30
0.0
 10
167.0755469010479
 20
138.253608923363
 30
0.0
 10
167.0755469010479
 20
138.253608923363
 30
0.0
 10
170.9561024556334
 20
150.1422189549096
 30
0.0
 10
170.9561024556334
 20
150.1422189549096
 30
0.0
 10
170.9561024556334
 20
150.1422189549096
 30
0.0
 10
160.7961067645427
 20
157.5152777383989
 30
0.0
 10
160.7961067645427
 20
157.5152777383989
 30
0.0
  0
HATCH
  5
90
330
70
100
AcDbEntity
  8
Layer 1
 62
   250
420
  2301728
440
 33554687
100
AcDbHatch
 10
0.0
 20
0.0
 30
0.0
210
0.0
220
0.0
230
1.0
  2
SOLID
 70
     1
 71
     1
 91
        7
 92
        1
 93
        1
 72
     4
 94
        3
 73
     0
 74
     0
 95
       14
 96
       10
 40
0.0
 40
0.0
 40
0.0
 40
0.0
 40
1.0
 40
1.0
 40
1.0
 40
2.0
 40
2.0
 40
2.0
 40
3.0
 40
3.0
 40
3.0
 40
3.0
 10
166.2994422496849
 20
141.0758338363605
 10
166.2994422496849
 20
141.0758338363605
 10
165.5586067633521
 20
145.4502788180075
 10
165.5586067633521
 20
145.4502788180075
 10
165.5586067633521
 20
145.4502788180075
 10
168.7336067625583
 20
148.5547243382682
 10
168.7336067625583
 20
148.5547243382682
 10
168.7336067625583
 20
148.5547243382682
 10
166.2994422496849
 20
141.0758338363605
 10
166.2994422496849
 20
141.0758338363605
 97
        0
 97
        1
330
89
 92
        1
 93
        1
 72
     4
 94
        3
 73
     0
 74
     0
 95
       14
 96
       10
 40
0.0
 40
0.0
 40
0.0
 40
0.0
 40
1.0
 40
1.0
 40
1.0
 40
2.0
 40
2.0
 40
2.0
 40
3.0
 40
3.0
 40
3.0
 40
3.0
 10
152.6822178776823
 20
148.9780565949034
 10
152.6822178776823
 20
148.9780565949034
 10
156.3158246815156
 20
145.4502788180075
 10
156.3158246815156
 20
145.4502788180075
 10
156.3158246815156
 20
145.4502788180075
 10
155.4691601682453
 20
140.4408354514078
 10
155.4691601682453
 20
140.4408354514078
 10
155.4691601682453
 20
140.4408354514078
 10
152.6822178776823
 20
148.9780565949034
 10
152.6822178776823
 20
148.9780565949034
 97
        0
 97
        1
330
8A
 92
        1
 93
        1
 72
     4
 94
        3
 73
     0
 74
     0
 95
       14
 96
       10
 40
0.0
 40
0.0
 40
0.0
 40
0.0
 40
1.0
 40
1.0
 40
1.0
 40
2.0
 40
2.0
 40
2.0
 40
3.0
 40
3.0
 40
3.0
 40
3.0
 10
163.7947178749042
 20
150.8477772017696
 10
163.7947178749042
 20
150.8477772017696
 10
161.8544400976114
 20
154.7988885810411
 10
161.8544400976114
 20
154.7988885810411
 10
161.8544400976114
 20
154.7988885810411
 10
168.2044400960239
 20
150.2127788168169
 10
168.2044400960239
 20
150.2127788168169
 10
168.2044400960239
 20
150.2127788168169
 10
163.7947178749042
 20
150.8477772017696
 10
163.7947178749042
 20
150.8477772017696
 97
        0
 97
        1
330
8B
 92
        1
 93
        1
 72
     4
 94
        3
 73
     0
 74
     0
 95
       14
 96
       10
 40
0.0
 40
0.0
 40
0.0
 40
0.0
 40
1.0
 40
1.0
 40
1.0
 40
2.0
 40
2.0
 40
2.0
 40
3.0
 40
3.0
 40
3.0
 40
3.0
 10
153.3172243370776
 20
150.1774988858633
 10
153.3172243370776
 20
150.1774988858633
 10
160.2316709329781
 20
155.1869435982034
 10
160.2316709329781
 20
155.1869435982034
 10
160.2316709329781
 20
155.1869435982034
 10
158.0797243358869
 20
150.8477772017696
 10
158.0797243358869
 20
150.8477772017696
 10
158.0797243358869
 20
150.8477772017696
 10
153.3172243370776
 20
150.1774988858633
 10
153.3172243370776
 20
150.1774988858633
 97
        0
 97
        1
330
8C
 92
        1
 93
        1
 72
     4
 94
        3
 73
     0
 74
     0
 95
       14
 96
       10
 40
0.0
 40
0.0
 40
0.0
 40
0.0
 40
1.0
 40
1.0
 40
1.0
 40
2.0
 40
2.0
 40
2.0
 40
3.0
 40
3.0
 40
3.0
 40
3.0
 10
165.2058289856625
 20
139.841111614447
 10
165.2058289856625
 20
139.841111614447
 10
156.6686024592052
 20
139.841111614447
 10
156.6686024592052
 20
139.841111614447
 10
156.6686024592052
 20
139.841111614447
 10
160.9372157224339
 20
142.0988899299565
 10
160.9372157224339
 20
142.0988899299565
 10
160.9372157224339
 20
142.0988899299565
 10
165.2058289856625
 20
139.841111614447
 10
165.2058289856625
 20
139.841111614447
 97
        0
 97
        1
330
8D
 92
        1
 93
        1
 72
     4
 94
        3
 73
     0
 74
     0
 95
       35
 96
       31
 40
0.0
 40
0.0
 40
0.0
 40
0.0
 40
1.0
 40
1.0
 40
1.0
 40
2.0
 40
2.0
 40
2.0
 40
3.0
 40
3.0
 40
3.0
 40
4.0
 40
4.0
 40
4.0
 40
5.0
 40
5.0
 40
5.0
 40
6.0
 40
6.0
 40
6.0
 40
7.0
 40
7.0
 40
7.0
 40
8.0
 40
8.0
 40
8.0
 40
9.0
 40
9.0
 40
9.0
 40
10.0
 40
10.0
 40
10.0
 40
10.0
 10
164.5708332921906
 20
141.9577782805845
 10
164.5708332921906
 20
141.9577782805845
 10
160.9372264883573
 20
143.8627788184044
 10
160.9372264883573
 20
143.8627788184044
 10
160.9372264883573
 20
143.8627788184044
 10
157.3388888495541
 20
141.9577782805845
 10
157.3388888495541
 20
141.9577782805845
 10
157.3388888495541
 20
141.9577782805845
 10
158.0444444049333
 20
145.9794454845419
 10
158.0444444049333
 20
145.9794454845419
 10
158.0444444049333
 20
145.9794454845419
 10
155.1163931564791
 20
148.8369449455313
 10
155.1163931564791
 20
148.8369449455313
 10
155.1163931564791
 20
148.8369449455313
 10
159.1733375999093
 20
149.4366660910113
 10
159.1733375999093
 20
149.4366660910113
 10
159.1733375999093
 20
149.4366660910113
 10
160.9725064193109
 20
153.1055555172792
 10
160.9725064193109
 20
153.1055555172792
 10
160.9725064193109
 20
153.1055555172792
 10
162.7716752387124
 20
149.4366660910113
 10
162.7716752387124
 20
149.4366660910113
 10
162.7716752387124
 20
149.4366660910113
 10
166.8286196821427
 20
148.8369449455313
 10
166.8286196821427
 20
148.8369449455313
 10
166.8286196821427
 20
148.8369449455313
 10
163.9005684336885
 20
145.9794454845419
 10
163.9005684336885
 20
145.9794454845419
 10
163.9005684336885
 20
145.9794454845419
 10
164.5708332921906
 20
141.9577782805845
 10
164.5708332921906
 20
141.9577782805845
 97
        0
 97
        1
330
8E
 92
        1
 93
        1
 72
     4
 94
        3
 73
     0
 74
     0
 95
       20
 96
       16
 40
0.0
 40
0.0
 40
0.0
 40
0.0
 40
1.0
 40
1.0
 40
1.0
 40
2.0
 40
2.0
 40
2.0
 40
3.0
 40
3.0
 40
3.0
 40
4.0
 40
4.0
 40
4.0
 40
5.0
 40
5.0
 40
5.0
 40
5.0
 10
160.7961067645427
 20
157.5152777383989
 10
160.7961067645427
 20
157.5152777383989
 10
150.6713802384823
 20
150.1422216463905
 10
150.6713802384823
 20
150.1422216463905
 10
150.6713802384823
 20
150.1422216463905
 10
154.5519357930677
 20
138.253608923363
 10
154.5519357930677
 20
138.253608923363
 10
154.5519357930677
 20
138.253608923363
 10
167.0755469010479
 20
138.253608923363
 10
167.0755469010479
 20
138.253608923363
 10
167.0755469010479
 20
138.253608923363
 10
170.9561024556334
 20
150.1422189549096
 10
170.9561024556334
 20
150.1422189549096
 10
170.9561024556334
 20
150.1422189549096
 10
160.7961067645427
 20
157.5152777383989
 10
160.7961067645427
 20
157.5152777383989
 97
        0
 97
        1
330
8F
 75
     2
 76
     1
 98
        1
 10
0.0
 20
0.0
450
        0
451
        0
460
0.0
461
0.0
452
        0
462
0.0
453
        0
470

  0
SPLINE
  5
91
330
70
100
AcDbEntity
  8
Layer 1
100
AcDbSpline
210
0.0
220
0.0
230
1.0
 70
    11
 71
     3
 72
    17
 73
    13
 74
     0
 42
0.0000000001
 43
0.0000000001
 40
0.0
 40
0.0
 40
0.0
 40
0.0
 40
1.0
 40
1.0
 40
1.0
 40
2.0
 40
2.0
 40
2.0
 40
3.0
 40
3.0
 40
3.0
 40
4.0
 40
4.0
 40
4.0
 40
4.0
 10
94.72083330965313
 20
132.9266677100273
 30
0.0
 10
94.72083330965313
 20
132.9266677100273
 30
0.0
 10
88.44138779018621
 20
136.5602798968224
 30
0.0
 10
88.44138779018621
 20
136.5602798968224
 30
0.0
 10
88.44138779018621
 20
136.5602798968224
 30
0.0
 10
91.19305553275729
 20
138.3241687852703
 30
0.0
 10
91.19305553275729
 20
138.3241687852703
 30
0.0
 10
91.19305553275729
 20
138.3241687852703
 30
0.0
 10
96.16722435136509
 20
138.3241687852703
 30
0.0
 10
96.16722435136509
 20
138.3241687852703
 30
0.0
 10
96.16722435136509
 20
138.3241687852703
 30
0.0
 10
94.72083330965313
 20
132.9266677100273
 30
0.0
 10
94.72083330965313
 20
132.9266677100273
 30
0.0
  0
SPLINE
  5
92
330
70
100
AcDbEntity
  8
Layer 1
100
AcDbSpline
210
0.0
220
0.0
230
1.0
 70
    11
 71
     3
 72
    17
 73
    13
 74
     0
 42
0.0000000001
 43
0.0000000001
 40
0.0
 40
0.0
 40
0.0
 40
0.0
 40
1.0
 40
1.0
 40
1.0
 40
2.0
 40
2.0
 40
2.0
 40
3.0
 40
3.0
 40
3.0
 40
4.0
 40
4.0
 40
4.0
 40
4.0
 10
68.68583223956953
 20
138.3241660937895
 30
0.0
 10
68.68583223956953
 20
138.3241660937895
 30
0.0
 10
73.66000105817734
 20
138.3241660937895
 30
0.0
 10
73.66000105817734
 20
138.3241660937895
 30
0.0
 10
73.66000105817734
 20
138.3241660937895
 30
0.0
 10
76.41166880074843
 20
136.5602772053415
 30
0.0
 10
76.41166880074843
 20
136.5602772053415
 30
0.0
 10
76.41166880074843
 20
136.5602772053415
 30
0.0
 10
70.13222328128151
 20
132.9266650185465
 30
0.0
 10
70.13222328128151
 20
132.9266650185465
 30
0.0
 10
70.13222328128151
 20
132.9266650185465
 30
0.0
 10
68.68583223956953
 20
138.3241660937895
 30
0.0
 10
68.68583223956953
 20
138.3241660937895
 30
0.0
  0
SPLINE
  5
93
330
70
100
AcDbEntity
  8
Layer 1
100
AcDbSpline
210
0.0
220
0.0
230
1.0
 70
    11
 71
     3
 72
    17
 73
    13
 74
     0
 42
0.0000000001
 43
0.0000000001
 40
0.0
 40
0.0
 40
0.0
 40
0.0
 40
1.0
 40
1.0
 40
1.0
 40
2.0
 40
2.0
 40
2.0
 40
3.0
 40
3.0
 40
3.0
 40
4.0
 40
4.0
 40
4.0
 40
4.0
 10
70.13222328128151
 20
145.3091671686355
 30
0.0
 10
70.13222328128151
 20
145.3091671686355
 30
0.0
 10
76.41166880074843
 20
141.6755549818405
 30
0.0
 10
76.41166880074843
 20
141.6755549818405
 30
0.0
 10
76.41166880074843
 20
141.6755549818405
 30
0.0
 10
73.66000105817734
 20
139.9116660933926
 30
0.0
 10
73.66000105817734
 20
139.9116660933926
 30
0.0
 10
73.66000105817734
 20
139.9116660933926
 30
0.0
 10
68.68583223956953
 20
139.9116660933926
 30
0.0
 10
68.68583223956953
 20
139.9116660933926
 30
0.0
 10
68.68583223956953
 20
139.9116660933926
 30
0.0
 10
70.13222328128151
 20
145.3091671686355
 30
0.0
 10
70.13222328128151
 20
145.3091671686355
 30
0.0
  0
SPLINE
  5
94
330
70
100
AcDbEntity
  8
Layer 1
100
AcDbSpline
210
0.0
220
0.0
230
1.0
 70
    11
 71
     3
 72
    17
 73
    13
 74
     0
 42
0.0000000001
 43
0.0000000001
 40
0.0
 40
0.0
 40
0.0
 40
0.0
 40
1.0
 40
1.0
 40
1.0
 40
2.0
 40
2.0
 40
2.0
 40
3.0
 40
3.0
 40
3.0
 40
4.0
 40
4.0
 40
4.0
 40
4.0
 10
83.99639102107448
 20
139.100278819595
 30
0.0
 10
83.99639102107448
 20
139.100278819595
 30
0.0
 10
86.88916772153673
 20
140.7936132290974
 30
0.0
 10
86.88916772153673
 20
140.7936132290974
 30
0.0
 10
86.88916772153673
 20
140.7936132290974
 30
0.0
 10
89.49972112325495
 20
139.100278819595
 30
0.0
 10
89.49972112325495
 20
139.100278819595
 30
0.0
 10
89.49972112325495
 20
139.100278819595
 30
0.0
 10
86.88916772153673
 20
137.4069444100927
 30
0.0
 10
86.88916772153673
 20
137.4069444100927
 30
0.0
 10
86.88916772153673
 20
137.4069444100927
 30
0.0
 10
83.99639102107448
 20
139.100278819595
 30
0.0
 10
83.99639102107448
 20
139.100278819595
 30
0.0
  0
SPLINE
  5
95
330
70
100
AcDbEntity
  8
Layer 1
100
AcDbSpline
210
0.0
220
0.0
230
1.0
 70
    11
 71
     3
 72
    17
 73
    13
 74
     0
 42
0.0000000001
 43
0.0000000001
 40
0.0
 40
0.0
 40
0.0
 40
0.0
 40
1.0
 40
1.0
 40
1.0
 40
2.0
 40
2.0
 40
2.0
 40
3.0
 40
3.0
 40
3.0
 40
4.0
 40
4.0
 40
4.0
 40
4.0
 10
87.45360893606303
 20
131.9388888559041
 30
0.0
 10
87.45360893606303
 20
131.9388888559041
 30
0.0
 10
87.62999782490783
 20
135.2197232650096
 30
0.0
 10
87.62999782490783
 20
135.2197232650096
 30
0.0
 10
87.62999782490783
 20
135.2197232650096
 30
0.0
 10
93.90943796141305
 20
131.5861110782146
 30
0.0
 10
93.90943796141305
 20
131.5861110782146
 30
0.0
 10
93.90943796141305
 20
131.5861110782146
 30
0.0
 10
89.95833331084375
 20
127.5997211137299
 30
0.0
 10
89.95833331084375
 20
127.5997211137299
 30
0.0
 10
89.95833331084375
 20
127.5997211137299
 30
0.0
 10
87.45360893606303
 20
131.9388888559041
 30
0.0
 10
87.45360893606303
 20
131.9388888559041
 30
0.0
  0
SPLINE
  5
96
330
70
100
AcDbEntity
  8
Layer 1
100
AcDbSpline
210
0.0
220
0.0
230
1.0
 70
    11
 71
     3
 72
    20
 73
    16
 74
     0
 42
0.0000000001
 43
0.0000000001
 40
0.0
 40
0.0
 40
0.0
 40
0.0
 40
1.0
 40
1.0
 40
1.0
 40
2.0
 40
2.0
 40
2.0
 40
3.0
 40
3.0
 40
3.0
 40
4.0
 40
4.0
 40
4.0
 40
5.0
 40
5.0
 40
5.0
 40
5.0
 10
83.18500105579609
 20
132.6444444112833
 30
0.0
 10
83.18500105579609
 20
132.6444444112833
 30
0.0
 10
86.11305768721198
 20
131.1627788215794
 30
0.0
 10
86.11305768721198
 20
131.1627788215794
 30
0.0
 10
86.11305768721198
 20
131.1627788215794
 30
0.0
 10
88.6177820619927
 20
126.8588910103588
 30
0.0
 10
88.6177820619927
 20
126.8588910103588
 30
0.0
 10
88.6177820619927
 20
126.8588910103588
 30
0.0
 10
83.22028098674973
 20
125.4124999686469
 30
0.0
 10
83.22028098674973
 20
125.4124999686469
 30
0.0
 10
83.22028098674973
 20
125.4124999686469
 30
0.0
 10
83.22028098674973
 20
132.6444444112833
 30
0.0
 10
83.22028098674973
 20
132.6444444112833
 30
0.0
 10
83.22028098674973
 20
132.6444444112833
 30
0.0
 10
83.18500105579609
 20
132.6444444112833
 30
0.0
 10
83.18500105579609
 20
132.6444444112833
 30
0.0
  0
SPLINE
  5
97
330
70
100
AcDbEntity
  8
Layer 1
100
AcDbSpline
210
0.0
220
0.0
230
1.0
 70
    11
 71
     3
 72
    17
 73
    13
 74
     0
 42
0.0000000001
 43
0.0000000001
 40
0.0
 40
0.0
 40
0.0
 40
0.0
 40
1.0
 40
1.0
 40
1.0
 40
2.0
 40
2.0
 40
2.0
 40
3.0
 40
3.0
 40
3.0
 40
4.0
 40
4.0
 40
4.0
 40
4.0
 10
78.70472435573072
 20
131.1274988906258
 30
0.0
 10
78.70472435573072
 20
131.1274988906258
 30
0.0
 10
81.63278098714661
 20
132.6091644803297
 30
0.0
 10
81.63278098714661
 20
132.6091644803297
 30
0.0
 10
81.63278098714661
 20
132.6091644803297
 30
0.0
 10
81.63278098714661
 20
125.3419401067396
 30
0.0
 10
81.63278098714661
 20
125.3419401067396
 30
0.0
 10
81.63278098714661
 20
125.3419401067396
 30
0.0
 10
76.23527991190364
 20
126.7883311484516
 30
0.0
 10
76.23527991190364
 20
126.7883311484516
 30
0.0
 10
76.23527991190364
 20
126.7883311484516
 30
0.0
 10
78.70472435573072
 20
131.1274988906258
 30
0.0
 10
78.70472435573072
 20
131.1274988906258
 30
0.0
  0
SPLINE
  5
98
330
70
100
AcDbEntity
  8
Layer 1
100
AcDbSpline
210
0.0
220
0.0
230
1.0
 70
    11
 71
     3
 72
    17
 73
    13
 74
     0
 42
0.0000000001
 43
0.0000000001
 40
0.0
 40
0.0
 40
0.0
 40
0.0
 40
1.0
 40
1.0
 40
1.0
 40
2.0
 40
2.0
 40
2.0
 40
3.0
 40
3.0
 40
3.0
 40
4.0
 40
4.0
 40
4.0
 40
4.0
 10
77.18777883507318
 20
135.184443334056
 30
0.0
 10
77.18777883507318
 20
135.184443334056
 30
0.0
 10
77.36416772391797
 20
131.9036089249505
 30
0.0
 10
77.36416772391797
 20
131.9036089249505
 30
0.0
 10
77.36416772391797
 20
131.9036089249505
 30
0.0
 10
74.85944334913725
 20
127.5997211137299
 30
0.0
 10
74.85944334913725
 20
127.5997211137299
 30
0.0
 10
74.85944334913725
 20
127.5997211137299
 30
0.0
 10
70.90833331560626
 20
131.5508338387418
 30
0.0
 10
70.90833331560626
 20
131.5508338387418
 30
0.0
 10
70.90833331560626
 20
131.5508338387418
 30
0.0
 10
77.18777883507318
 20
135.184443334056
 30
0.0
 10
77.18777883507318
 20
135.184443334056
 30
0.0
  0
SPLINE
  5
99
330
70
100
AcDbEntity
  8
Layer 1
100
AcDbSpline
210
0.0
220
0.0
230
1.0
 70
    11
 71
     3
 72
    17
 73
    13
 74
     0
 42
0.0000000001
 43
0.0000000001
 40
0.0
 40
0.0
 40
0.0
 40
0.0
 40
1.0
 40
1.0
 40
1.0
 40
2.0
 40
2.0
 40
2.0
 40
3.0
 40
3.0
 40
3.0
 40
4.0
 40
4.0
 40
4.0
 40
4.0
 10
80.85666556986017
 20
139.100278819595
 30
0.0
 10
80.85666556986017
 20
139.100278819595
 30
0.0
 10
77.96388886939792
 20
137.4069444100927
 30
0.0
 10
77.96388886939792
 20
137.4069444100927
 30
0.0
 10
77.96388886939792
 20
137.4069444100927
 30
0.0
 10
75.35333546767969
 20
139.100278819595
 30
0.0
 10
75.35333546767969
 20
139.100278819595
 30
0.0
 10
75.35333546767969
 20
139.100278819595
 30
0.0
 10
77.96388886939792
 20
140.7936132290974
 30
0.0
 10
77.96388886939792
 20
140.7936132290974
 30
0.0
 10
77.96388886939792
 20
140.7936132290974
 30
0.0
 10
80.85666556986017
 20
139.100278819595
 30
0.0
 10
80.85666556986017
 20
139.100278819595
 30
0.0
  0
SPLINE
  5
9A
330
70
100
AcDbEntity
  8
Layer 1
100
AcDbSpline
210
0.0
220
0.0
230
1.0
 70
    11
 71
     3
 72
    17
 73
    13
 74
     0
 42
0.0000000001
 43
0.0000000001
 40
0.0
 40
0.0
 40
0.0
 40
0.0
 40
1.0
 40
1.0
 40
1.0
 40
2.0
 40
2.0
 40
2.0
 40
3.0
 40
3.0
 40
3.0
 40
4.0
 40
4.0
 40
4.0
 40
4.0
 10
77.36416772391797
 20
146.2969433312778
 30
0.0
 10
77.36416772391797
 20
146.2969433312778
 30
0.0
 10
77.18777883507318
 20
143.0161089221724
 30
0.0
 10
77.18777883507318
 20
143.0161089221724
 30
0.0
 10
77.18777883507318
 20
143.0161089221724
 30
0.0
 10
70.90833331560626
 20
146.6497211089675
 30
0.0
 10
70.90833331560626
 20
146.6497211089675
 30
0.0
 10
70.90833331560626
 20
146.6497211089675
 30
0.0
 10
74.85944334913725
 20
150.6361110734521
 30
0.0
 10
74.85944334913725
 20
150.6361110734521
 30
0.0
 10
74.85944334913725
 20
150.6361110734521
 30
0.0
 10
77.36416772391797
 20
146.2969433312778
 30
0.0
 10
77.36416772391797
 20
146.2969433312778
 30
0.0
  0
SPLINE
  5
9B
330
70
100
AcDbEntity
  8
Layer 1
100
AcDbSpline
210
0.0
220
0.0
230
1.0
 70
    11
 71
     3
 72
    20
 73
    16
 74
     0
 42
0.0000000001
 43
0.0000000001
 40
0.0
 40
0.0
 40
0.0
 40
0.0
 40
1.0
 40
1.0
 40
1.0
 40
2.0
 40
2.0
 40
2.0
 40
3.0
 40
3.0
 40
3.0
 40
4.0
 40
4.0
 40
4.0
 40
5.0
 40
5.0
 40
5.0
 40
5.0
 10
81.63277560418491
 20
145.5913877758987
 30
0.0
 10
81.63277560418491
 20
145.5913877758987
 30
0.0
 10
78.70471897276903
 20
147.0730533656026
 30
0.0
 10
78.70471897276903
 20
147.0730533656026
 30
0.0
 10
78.70471897276903
 20
147.0730533656026
 30
0.0
 10
76.1999945979883
 20
151.3769411768232
 30
0.0
 10
76.1999945979883
 20
151.3769411768232
 30
0.0
 10
76.1999945979883
 20
151.3769411768232
 30
0.0
 10
81.59749567323128
 20
152.8233295270543
 30
0.0
 10
81.59749567323128
 20
152.8233295270543
 30
0.0
 10
81.59749567323128
 20
152.8233295270543
 30
0.0
 10
81.63277560418491
 20
145.5913877758987
 30
0.0
 10
81.63277560418491
 20
145.5913877758987
 30
0.0
 10
81.63277560418491
 20
145.5913877758987
 30
0.0
 10
81.63277560418491
 20
145.5913877758987
 30
0.0
 10
81.63277560418491
 20
145.5913877758987
 30
0.0
  0
SPLINE
  5
9C
330
70
100
AcDbEntity
  8
Layer 1
100
AcDbSpline
210
0.0
220
0.0
230
1.0
 70
    11
 71
     3
 72
    17
 73
    13
 74
     0
 42
0.0000000001
 43
0.0000000001
 40
0.0
 40
0.0
 40
0.0
 40
0.0
 40
1.0
 40
1.0
 40
1.0
 40
2.0
 40
2.0
 40
2.0
 40
3.0
 40
3.0
 40
3.0
 40
4.0
 40
4.0
 40
4.0
 40
4.0
 10
86.11305768721198
 20
147.0730560570834
 30
0.0
 10
86.11305768721198
 20
147.0730560570834
 30
0.0
 10
83.18500105579609
 20
145.5913904673795
 30
0.0
 10
83.18500105579609
 20
145.5913904673795
 30
0.0
 10
83.18500105579609
 20
145.5913904673795
 30
0.0
 10
83.18500105579609
 20
152.8586108037484
 30
0.0
 10
83.18500105579609
 20
152.8586108037484
 30
0.0
 10
83.18500105579609
 20
152.8586108037484
 30
0.0
 10
88.58250213103906
 20
151.4122211077768
 30
0.0
 10
88.58250213103906
 20
151.4122211077768
 30
0.0
 10
88.58250213103906
 20
151.4122211077768
 30
0.0
 10
86.11305768721198
 20
147.0730560570834
 30
0.0
 10
86.11305768721198
 20
147.0730560570834
 30
0.0
  0
SPLINE
  5
9D
330
70
100
AcDbEntity
  8
Layer 1
100
AcDbSpline
210
0.0
220
0.0
230
1.0
 70
    11
 71
     3
 72
    17
 73
    13
 74
     0
 42
0.0000000001
 43
0.0000000001
 40
0.0
 40
0.0
 40
0.0
 40
0.0
 40
1.0
 40
1.0
 40
1.0
 40
2.0
 40
2.0
 40
2.0
 40
3.0
 40
3.0
 40
3.0
 40
4.0
 40
4.0
 40
4.0
 40
4.0
 10
83.18500105579609
 20
143.8274988874508
 30
0.0
 10
83.18500105579609
 20
143.8274988874508
 30
0.0
 10
85.93666879836717
 20
145.2386099982091
 30
0.0
 10
85.93666879836717
 20
145.2386099982091
 30
0.0
 10
85.93666879836717
 20
145.2386099982091
 30
0.0
 10
86.07777775625834
 20
142.1341644779484
 30
0.0
 10
86.07777775625834
 20
142.1341644779484
 30
0.0
 10
86.07777775625834
 20
142.1341644779484
 30
0.0
 10
83.18500105579609
 20
140.4408300684461
 30
0.0
 10
83.18500105579609
 20
140.4408300684461
 30
0.0
 10
83.18500105579609
 20
140.4408300684461
 30
0.0
 10
83.18500105579609
 20
143.8274988874508
 30
0.0
 10
83.18500105579609
 20
143.8274988874508
 30
0.0
  0
SPLINE
  5
9E
330
70
100
AcDbEntity
  8
Layer 1
100
AcDbSpline
210
0.0
220
0.0
230
1.0
 70
    11
 71
     3
 72
    17
 73
    13
 74
     0
 42
0.0000000001
 43
0.0000000001
 40
0.0
 40
0.0
 40
0.0
 40
0.0
 40
1.0
 40
1.0
 40
1.0
 40
2.0
 40
2.0
 40
2.0
 40
3.0
 40
3.0
 40
3.0
 40
4.0
 40
4.0
 40
4.0
 40
4.0
 10
78.88111324457551
 20
145.2386099982091
 30
0.0
 10
78.88111324457551
 20
145.2386099982091
 30
0.0
 10
81.63278098714661
 20
143.8274988874508
 30
0.0
 10
81.63278098714661
 20
143.8274988874508
 30
0.0
 10
81.63278098714661
 20
143.8274988874508
 30
0.0
 10
81.63278098714661
 20
140.4761099993997
 30
0.0
 10
81.63278098714661
 20
140.4761099993997
 30
0.0
 10
81.63278098714661
 20
140.4761099993997
 30
0.0
 10
78.74000428668435
 20
142.1694444089021
 30
0.0
 10
78.74000428668435
 20
142.1694444089021
 30
0.0
 10
78.74000428668435
 20
142.1694444089021
 30
0.0
 10
78.88111324457551
 20
145.2386099982091
 30
0.0
 10
78.88111324457551
 20
145.2386099982091
 30
0.0
  0
SPLINE
  5
9F
330
70
100
AcDbEntity
  8
Layer 1
100
AcDbSpline
210
0.0
220
0.0
230
1.0
 70
    11
 71
     3
 72
    17
 73
    13
 74
     0
 42
0.0000000001
 43
0.0000000001
 40
0.0
 40
0.0
 40
0.0
 40
0.0
 40
1.0
 40
1.0
 40
1.0
 40
2.0
 40
2.0
 40
2.0
 40
3.0
 40
3.0
 40
3.0
 40
4.0
 40
4.0
 40
4.0
 40
4.0
 10
78.88111324457551
 20
132.9972221889729
 30
0.0
 10
78.88111324457551
 20
132.9972221889729
 30
0.0
 10
78.74000428668435
 20
136.1016677092336
 30
0.0
 10
78.74000428668435
 20
136.1016677092336
 30
0.0
 10
78.74000428668435
 20
136.1016677092336
 30
0.0
 10
81.63278098714661
 20
137.7950021187359
 30
0.0
 10
81.63278098714661
 20
137.7950021187359
 30
0.0
 10
81.63278098714661
 20
137.7950021187359
 30
0.0
 10
81.63278098714661
 20
134.4436132306849
 30
0.0
 10
81.63278098714661
 20
134.4436132306849
 30
0.0
 10
81.63278098714661
 20
134.4436132306849
 30
0.0
 10
78.88111324457551
 20
132.9972221889729
 30
0.0
 10
78.88111324457551
 20
132.9972221889729
 30
0.0
  0
SPLINE
  5
A0
330
70
100
AcDbEntity
  8
Layer 1
100
AcDbSpline
210
0.0
220
0.0
230
1.0
 70
    11
 71
     3
 72
    17
 73
    13
 74
     0
 42
0.0000000001
 43
0.0000000001
 40
0.0
 40
0.0
 40
0.0
 40
0.0
 40
1.0
 40
1.0
 40
1.0
 40
2.0
 40
2.0
 40
2.0
 40
3.0
 40
3.0
 40
3.0
 40
4.0
 40
4.0
 40
4.0
 40
4.0
 10
85.93666879836717
 20
132.9972221889729
 30
0.0
 10
85.93666879836717
 20
132.9972221889729
 30
0.0
 10
83.18500105579609
 20
134.4083332997312
 30
0.0
 10
83.18500105579609
 20
134.4083332997312
 30
0.0
 10
83.18500105579609
 20
134.4083332997312
 30
0.0
 10
83.18500105579609
 20
137.7597221877823
 30
0.0
 10
83.18500105579609
 20
137.7597221877823
 30
0.0
 10
83.18500105579609
 20
137.7597221877823
 30
0.0
 10
86.07777775625834
 20
136.0663877782799
 30
0.0
 10
86.07777775625834
 20
136.0663877782799
 30
0.0
 10
86.07777775625834
 20
136.0663877782799
 30
0.0
 10
85.93666879836717
 20
132.9972221889729
 30
0.0
 10
85.93666879836717
 20
132.9972221889729
 30
0.0
  0
SPLINE
  5
A1
330
70
100
AcDbEntity
  8
Layer 1
100
AcDbSpline
210
0.0
220
0.0
230
1.0
 70
    11
 71
     3
 72
    17
 73
    13
 74
     0
 42
0.0000000001
 43
0.0000000001
 40
0.0
 40
0.0
 40
0.0
 40
0.0
 40
1.0
 40
1.0
 40
1.0
 40
2.0
 40
2.0
 40
2.0
 40
3.0
 40
3.0
 40
3.0
 40
4.0
 40
4.0
 40
4.0
 40
4.0
 10
87.62999782490783
 20
143.0161116136532
 30
0.0
 10
87.62999782490783
 20
143.0161116136532
 30
0.0
 10
87.45360893606303
 20
146.2969460227587
 30
0.0
 10
87.45360893606303
 20
146.2969460227587
 30
0.0
 10
87.45360893606303
 20
146.2969460227587
 30
0.0
 10
89.95833331084375
 20
150.6361110734521
 30
0.0
 10
89.95833331084375
 20
150.6361110734521
 30
0.0
 10
89.95833331084375
 20
150.6361110734521
 30
0.0
 10
93.90944872733644
 20
146.6850010399211
 30
0.0
 10
93.90944872733644
 20
146.6850010399211
 30
0.0
 10
93.90944872733644
 20
146.6850010399211
 30
0.0
 10
87.62999782490783
 20
143.0161116136532
 30
0.0
 10
87.62999782490783
 20
143.0161116136532
 30
0.0
  0
SPLINE
  5
A2
330
70
100
AcDbEntity
  8
Layer 1
100
AcDbSpline
210
0.0
220
0.0
230
1.0
 70
    11
 71
     3
 72
    17
 73
    13
 74
     0
 42
0.0000000001
 43
0.0000000001
 40
0.0
 40
0.0
 40
0.0
 40
0.0
 40
1.0
 40
1.0
 40
1.0
 40
2.0
 40
2.0
 40
2.0
 40
3.0
 40
3.0
 40
3.0
 40
4.0
 40
4.0
 40
4.0
 40
4.0
 10
96.16722435136509
 20
139.9116660933926
 30
0.0
 10
96.16722435136509
 20
139.9116660933926
 30
0.0
 10
91.19305553275729
 20
139.9116660933926
 30
0.0
 10
91.19305553275729
 20
139.9116660933926
 30
0.0
 10
91.19305553275729
 20
139.9116660933926
 30
0.0
 10
88.44138779018621
 20
141.6755549818405
 30
0.0
 10
88.44138779018621
 20
141.6755549818405
 30
0.0
 10
88.44138779018621
 20
141.6755549818405
 30
0.0
 10
94.72083330965313
 20
145.3091671686355
 30
0.0
 10
94.72083330965313
 20
145.3091671686355
 30
0.0
 10
94.72083330965313
 20
145.3091671686355
 30
0.0
 10
96.16722435136509
 20
139.9116660933926
 30
0.0
 10
96.16722435136509
 20
139.9116660933926
 30
0.0
  0
SPLINE
  5
A3
330
70
100
AcDbEntity
  8
Layer 1
100
AcDbSpline
210
0.0
220
0.0
230
1.0
 70
    11
 71
     3
 72
    41
 73
    37
 74
     0
 42
0.0000000001
 43
0.0000000001
 40
0.0
 40
0.0
 40
0.0
 40
0.0
 40
1.0
 40
1.0
 40
1.0
 40
2.0
 40
2.0
 40
2.0
 40
3.0
 40
3.0
 40
3.0
 40
4.0
 40
4.0
 40
4.0
 40
5.0
 40
5.0
 40
5.0
 40
6.0
 40
6.0
 40
6.0
 40
7.0
 40
7.0
 40
7.0
 40
8.0
 40
8.0
 40
8.0
 40
9.0
 40
9.0
 40
9.0
 40
10.0
 40
10.0
 40
10.0
 40
11.0
 40
11.0
 40
11.0
 40
12.0
 40
12.0
 40
12.0
 40
12.0
 10
95.88499566965941
 20
146.8966671682387
 30
0.0
 10
95.88499566965941
 20
146.8966671682387
 30
0.0
 10
90.16999674768049
 20
152.6116687816984
 30
0.0
 10
90.16999674768049
 20
152.6116687816984
 30
0.0
 10
90.16999674768049
 20
152.6116687816984
 30
0.0
 10
82.37360570755601
 20
154.6930582083631
 30
0.0
 10
82.37360570755601
 20
154.6930582083631
 30
0.0
 10
82.37360570755601
 20
154.6930582083631
 30
0.0
 10
74.57721466743155
 20
152.6116687816984
 30
0.0
 10
74.57721466743155
 20
152.6116687816984
 30
0.0
 10
74.57721466743155
 20
152.6116687816984
 30
0.0
 10
68.86221574545263
 20
146.8966698597195
 30
0.0
 10
68.86221574545263
 20
146.8966698597195
 30
0.0
 10
68.86221574545263
 20
146.8966698597195
 30
0.0
 10
66.78082901026877
 20
139.1002815110759
 30
0.0
 10
66.78082901026877
 20
139.1002815110759
 30
0.0
 10
66.78082901026877
 20
139.1002815110759
 30
0.0
 10
68.86221574545263
 20
131.3038931624322
 30
0.0
 10
68.86221574545263
 20
131.3038931624322
 30
0.0
 10
68.86221574545263
 20
131.3038931624322
 30
0.0
 10
74.57721466743155
 20
125.5888942404533
 30
0.0
 10
74.57721466743155
 20
125.5888942404533
 30
0.0
 10
74.57721466743155
 20
125.5888942404533
 30
0.0
 10
82.37360570755601
 20
123.5075075052695
 30
0.0
 10
82.37360570755601
 20
123.5075075052695
 30
0.0
 10
82.37360570755601
 20
123.5075075052695
 30
0.0
 10
90.16999674768049
 20
125.5888942404533
 30
0.0
 10
90.16999674768049
 20
125.5888942404533
 30
0.0
 10
90.16999674768049
 20
125.5888942404533
 30
0.0
 10
95.88499566965941
 20
131.3038931624322
 30
0.0
 10
95.88499566965941
 20
131.3038931624322
 30
0.0
 10
95.88499566965941
 20
131.3038931624322
 30
0.0
 10
97.96638240484327
 20
139.1002815110759
 30
0.0
 10
97.96638240484327
 20
139.1002815110759
 30
0.0
 10
97.96638240484327
 20
139.1002815110759
 30
0.0
 10
95.88499566965941
 20
146.8966671682387
 30
0.0
 10
95.88499566965941
 20
146.8966671682387
 30
0.0
  0
HATCH
  5
A4
330
70
100
AcDbEntity
  8
Layer 1
 62
   250
420
  2301728
440
 33554687
100
AcDbHatch
 10
0.0
 20
0.0
 30
0.0
210
0.0
220
0.0
230
1.0
  2
SOLID
 70
     1
 71
     1
 91
       19
 92
        1
 93
        1
 72
     4
 94
        3
 73
     0
 74
     0
 95
       17
 96
       13
 40
0.0
 40
0.0
 40
0.0
 40
0.0
 40
1.0
 40
1.0
 40
1.0
 40
2.0
 40
2.0
 40
2.0
 40
3.0
 40
3.0
 40
3.0
 40
4.0
 40
4.0
 40
4.0
 40
4.0
 10
94.72083330965313
 20
132.9266677100273
 10
94.72083330965313
 20
132.9266677100273
 10
88.44138779018621
 20
136.5602798968224
 10
88.44138779018621
 20
136.5602798968224
 10
88.44138779018621
 20
136.5602798968224
 10
91.19305553275729
 20
138.3241687852703
 10
91.19305553275729
 20
138.3241687852703
 10
91.19305553275729
 20
138.3241687852703
 10
96.16722435136509
 20
138.3241687852703
 10
96.16722435136509
 20
138.3241687852703
 10
96.16722435136509
 20
138.3241687852703
 10
94.72083330965313
 20
132.9266677100273
 10
94.72083330965313
 20
132.9266677100273
 97
        0
 97
        1
330
91
 92
        1
 93
        1
 72
     4
 94
        3
 73
     0
 74
     0
 95
       17
 96
       13
 40
0.0
 40
0.0
 40
0.0
 40
0.0
 40
1.0
 40
1.0
 40
1.0
 40
2.0
 40
2.0
 40
2.0
 40
3.0
 40
3.0
 40
3.0
 40
4.0
 40
4.0
 40
4.0
 40
4.0
 10
68.68583223956953
 20
138.3241660937895
 10
68.68583223956953
 20
138.3241660937895
 10
73.66000105817734
 20
138.3241660937895
 10
73.66000105817734
 20
138.3241660937895
 10
73.66000105817734
 20
138.3241660937895
 10
76.41166880074843
 20
136.5602772053415
 10
76.41166880074843
 20
136.5602772053415
 10
76.41166880074843
 20
136.5602772053415
 10
70.13222328128151
 20
132.9266650185465
 10
70.13222328128151
 20
132.9266650185465
 10
70.13222328128151
 20
132.9266650185465
 10
68.68583223956953
 20
138.3241660937895
 10
68.68583223956953
 20
138.3241660937895
 97
        0
 97
        1
330
92
 92
        1
 93
        1
 72
     4
 94
        3
 73
     0
 74
     0
 95
       17
 96
       13
 40
0.0
 40
0.0
 40
0.0
 40
0.0
 40
1.0
 40
1.0
 40
1.0
 40
2.0
 40
2.0
 40
2.0
 40
3.0
 40
3.0
 40
3.0
 40
4.0
 40
4.0
 40
4.0
 40
4.0
 10
70.13222328128151
 20
145.3091671686355
 10
70.13222328128151
 20
145.3091671686355
 10
76.41166880074843
 20
141.6755549818405
 10
76.41166880074843
 20
141.6755549818405
 10
76.41166880074843
 20
141.6755549818405
 10
73.66000105817734
 20
139.9116660933926
 10
73.66000105817734
 20
139.9116660933926
 10
73.66000105817734
 20
139.9116660933926
 10
68.68583223956953
 20
139.9116660933926
 10
68.68583223956953
 20
139.9116660933926
 10
68.68583223956953
 20
139.9116660933926
 10
70.13222328128151
 20
145.3091671686355
 10
70.13222328128151
 20
145.3091671686355
 97
        0
 97
        1
330
93
 92
        1
 93
        1
 72
     4
 94
        3
 73
     0
 74
     0
 95
       17
 96
       13
 40
0.0
 40
0.0
 40
0.0
 40
0.0
 40
1.0
 40
1.0
 40
1.0
 40
2.0
 40
2.0
 40
2.0
 40
3.0
 40
3.0
 40
3.0
 40
4.0
 40
4.0
 40
4.0
 40
4.0
 10
83.99639102107448
 20
139.100278819595
 10
83.99639102107448
 20
139.100278819595
 10
86.88916772153673
 20
140.7936132290974
 10
86.88916772153673
 20
140.7936132290974
 10
86.88916772153673
 20
140.7936132290974
 10
89.49972112325495
 20
139.100278819595
 10
89.49972112325495
 20
139.100278819595
 10
89.49972112325495
 20
139.100278819595
 10
86.88916772153673
 20
137.4069444100927
 10
86.88916772153673
 20
137.4069444100927
 10
86.88916772153673
 20
137.4069444100927
 10
83.99639102107448
 20
139.100278819595
 10
83.99639102107448
 20
139.100278819595
 97
        0
 97
        1
330
94
 92
        1
 93
        1
 72
     4
 94
        3
 73
     0
 74
     0
 95
       17
 96
       13
 40
0.0
 40
0.0
 40
0.0
 40
0.0
 40
1.0
 40
1.0
 40
1.0
 40
2.0
 40
2.0
 40
2.0
 40
3.0
 40
3.0
 40
3.0
 40
4.0
 40
4.0
 40
4.0
 40
4.0
 10
87.45360893606303
 20
131.9388888559041
 10
87.45360893606303
 20
131.9388888559041
 10
87.62999782490783
 20
135.2197232650096
 10
87.62999782490783
 20
135.2197232650096
 10
87.62999782490783
 20
135.2197232650096
 10
93.90943796141305
 20
131.5861110782146
 10
93.90943796141305
 20
131.5861110782146
 10
93.90943796141305
 20
131.5861110782146
 10
89.95833331084375
 20
127.5997211137299
 10
89.95833331084375
 20
127.5997211137299
 10
89.95833331084375
 20
127.5997211137299
 10
87.45360893606303
 20
131.9388888559041
 10
87.45360893606303
 20
131.9388888559041
 97
        0
 97
        1
330
95
 92
        1
 93
        1
 72
     4
 94
        3
 73
     0
 74
     0
 95
       20
 96
       16
 40
0.0
 40
0.0
 40
0.0
 40
0.0
 40
1.0
 40
1.0
 40
1.0
 40
2.0
 40
2.0
 40
2.0
 40
3.0
 40
3.0
 40
3.0
 40
4.0
 40
4.0
 40
4.0
 40
5.0
 40
5.0
 40
5.0
 40
5.0
 10
83.18500105579609
 20
132.6444444112833
 10
83.18500105579609
 20
132.6444444112833
 10
86.11305768721198
 20
131.1627788215794
 10
86.11305768721198
 20
131.1627788215794
 10
86.11305768721198
 20
131.1627788215794
 10
88.6177820619927
 20
126.8588910103588
 10
88.6177820619927
 20
126.8588910103588
 10
88.6177820619927
 20
126.8588910103588
 10
83.22028098674973
 20
125.4124999686469
 10
83.22028098674973
 20
125.4124999686469
 10
83.22028098674973
 20
125.4124999686469
 10
83.22028098674973
 20
132.6444444112833
 10
83.22028098674973
 20
132.6444444112833
 10
83.22028098674973
 20
132.6444444112833
 10
83.18500105579609
 20
132.6444444112833
 10
83.18500105579609
 20
132.6444444112833
 97
        0
 97
        1
330
96
 92
        1
 93
        1
 72
     4
 94
        3
 73
     0
 74
     0
 95
       17
 96
       13
 40
0.0
 40
0.0
 40
0.0
 40
0.0
 40
1.0
 40
1.0
 40
1.0
 40
2.0
 40
2.0
 40
2.0
 40
3.0
 40
3.0
 40
3.0
 40
4.0
 40
4.0
 40
4.0
 40
4.0
 10
78.70472435573072
 20
131.1274988906258
 10
78.70472435573072
 20
131.1274988906258
 10
81.63278098714661
 20
132.6091644803297
 10
81.63278098714661
 20
132.6091644803297
 10
81.63278098714661
 20
132.6091644803297
 10
81.63278098714661
 20
125.3419401067396
 10
81.63278098714661
 20
125.3419401067396
 10
81.63278098714661
 20
125.3419401067396
 10
76.23527991190364
 20
126.7883311484516
 10
76.23527991190364
 20
126.7883311484516
 10
76.23527991190364
 20
126.7883311484516
 10
78.70472435573072
 20
131.1274988906258
 10
78.70472435573072
 20
131.1274988906258
 97
        0
 97
        1
330
97
 92
        1
 93
        1
 72
     4
 94
        3
 73
     0
 74
     0
 95
       17
 96
       13
 40
0.0
 40
0.0
 40
0.0
 40
0.0
 40
1.0
 40
1.0
 40
1.0
 40
2.0
 40
2.0
 40
2.0
 40
3.0
 40
3.0
 40
3.0
 40
4.0
 40
4.0
 40
4.0
 40
4.0
 10
77.18777883507318
 20
135.184443334056
 10
77.18777883507318
 20
135.184443334056
 10
77.36416772391797
 20
131.9036089249505
 10
77.36416772391797
 20
131.9036089249505
 10
77.36416772391797
 20
131.9036089249505
 10
74.85944334913725
 20
127.5997211137299
 10
74.85944334913725
 20
127.5997211137299
 10
74.85944334913725
 20
127.5997211137299
 10
70.90833331560626
 20
131.5508338387418
 10
70.90833331560626
 20
131.5508338387418
 10
70.90833331560626
 20
131.5508338387418
 10
77.18777883507318
 20
135.184443334056
 10
77.18777883507318
 20
135.184443334056
 97
        0
 97
        1
330
98
 92
        1
 93
        1
 72
     4
 94
        3
 73
     0
 74
     0
 95
       17
 96
       13
 40
0.0
 40
0.0
 40
0.0
 40
0.0
 40
1.0
 40
1.0
 40
1.0
 40
2.0
 40
2.0
 40
2.0
 40
3.0
 40
3.0
 40
3.0
 40
4.0
 40
4.0
 40
4.0
 40
4.0
 10
80.85666556986017
 20
139.100278819595
 10
80.85666556986017
 20
139.100278819595
 10
77.96388886939792
 20
137.4069444100927
 10
77.96388886939792
 20
137.4069444100927
 10
77.96388886939792
 20
137.4069444100927
 10
75.35333546767969
 20
139.100278819595
 10
75.35333546767969
 20
139.100278819595
 10
75.35333546767969
 20
139.100278819595
 10
77.96388886939792
 20
140.7936132290974
 10
77.96388886939792
 20
140.7936132290974
 10
77.96388886939792
 20
140.7936132290974
 10
80.85666556986017
 20
139.100278819595
 10
80.85666556986017
 20
139.100278819595
 97
        0
 97
        1
330
99
 92
        1
 93
        1
 72
     4
 94
        3
 73
     0
 74
     0
 95
       17
 96
       13
 40
0.0
 40
0.0
 40
0.0
 40
0.0
 40
1.0
 40
1.0
 40
1.0
 40
2.0
 40
2.0
 40
2.0
 40
3.0
 40
3.0
 40
3.0
 40
4.0
 40
4.0
 40
4.0
 40
4.0
 10
77.36416772391797
 20
146.2969433312778
 10
77.36416772391797
 20
146.2969433312778
 10
77.18777883507318
 20
143.0161089221724
 10
77.18777883507318
 20
143.0161089221724
 10
77.18777883507318
 20
143.0161089221724
 10
70.90833331560626
 20
146.6497211089675
 10
70.90833331560626
 20
146.6497211089675
 10
70.90833331560626
 20
146.6497211089675
 10
74.85944334913725
 20
150.6361110734521
 10
74.85944334913725
 20
150.6361110734521
 10
74.85944334913725
 20
150.6361110734521
 10
77.36416772391797
 20
146.2969433312778
 10
77.36416772391797
 20
146.2969433312778
 97
        0
 97
        1
330
9A
 92
        1
 93
        1
 72
     4
 94
        3
 73
     0
 74
     0
 95
       20
 96
       16
 40
0.0
 40
0.0
 40
0.0
 40
0.0
 40
1.0
 40
1.0
 40
1.0
 40
2.0
 40
2.0
 40
2.0
 40
3.0
 40
3.0
 40
3.0
 40
4.0
 40
4.0
 40
4.0
 40
5.0
 40
5.0
 40
5.0
 40
5.0
 10
81.63277560418491
 20
145.5913877758987
 10
81.63277560418491
 20
145.5913877758987
 10
78.70471897276903
 20
147.0730533656026
 10
78.70471897276903
 20
147.0730533656026
 10
78.70471897276903
 20
147.0730533656026
 10
76.1999945979883
 20
151.3769411768232
 10
76.1999945979883
 20
151.3769411768232
 10
76.1999945979883
 20
151.3769411768232
 10
81.59749567323128
 20
152.8233295270543
 10
81.59749567323128
 20
152.8233295270543
 10
81.59749567323128
 20
152.8233295270543
 10
81.63277560418491
 20
145.5913877758987
 10
81.63277560418491
 20
145.5913877758987
 10
81.63277560418491
 20
145.5913877758987
 10
81.63277560418491
 20
145.5913877758987
 10
81.63277560418491
 20
145.5913877758987
 97
        0
 97
        1
330
9B
 92
        1
 93
        1
 72
     4
 94
        3
 73
     0
 74
     0
 95
       17
 96
       13
 40
0.0
 40
0.0
 40
0.0
 40
0.0
 40
1.0
 40
1.0
 40
1.0
 40
2.0
 40
2.0
 40
2.0
 40
3.0
 40
3.0
 40
3.0
 40
4.0
 40
4.0
 40
4.0
 40
4.0
 10
86.11305768721198
 20
147.0730560570834
 10
86.11305768721198
 20
147.0730560570834
 10
83.18500105579609
 20
145.5913904673795
 10
83.18500105579609
 20
145.5913904673795
 10
83.18500105579609
 20
145.5913904673795
 10
83.18500105579609
 20
152.8586108037484
 10
83.18500105579609
 20
152.8586108037484
 10
83.18500105579609
 20
152.8586108037484
 10
88.58250213103906
 20
151.4122211077768
 10
88.58250213103906
 20
151.4122211077768
 10
88.58250213103906
 20
151.4122211077768
 10
86.11305768721198
 20
147.0730560570834
 10
86.11305768721198
 20
147.0730560570834
 97
        0
 97
        1
330
9C
 92
        1
 93
        1
 72
     4
 94
        3
 73
     0
 74
     0
 95
       17
 96
       13
 40
0.0
 40
0.0
 40
0.0
 40
0.0
 40
1.0
 40
1.0
 40
1.0
 40
2.0
 40
2.0
 40
2.0
 40
3.0
 40
3.0
 40
3.0
 40
4.0
 40
4.0
 40
4.0
 40
4.0
 10
83.18500105579609
 20
143.8274988874508
 10
83.18500105579609
 20
143.8274988874508
 10
85.93666879836717
 20
145.2386099982091
 10
85.93666879836717
 20
145.2386099982091
 10
85.93666879836717
 20
145.2386099982091
 10
86.07777775625834
 20
142.1341644779484
 10
86.07777775625834
 20
142.1341644779484
 10
86.07777775625834
 20
142.1341644779484
 10
83.18500105579609
 20
140.4408300684461
 10
83.18500105579609
 20
140.4408300684461
 10
83.18500105579609
 20
140.4408300684461
 10
83.18500105579609
 20
143.8274988874508
 10
83.18500105579609
 20
143.8274988874508
 97
        0
 97
        1
330
9D
 92
        1
 93
        1
 72
     4
 94
        3
 73
     0
 74
     0
 95
       17
 96
       13
 40
0.0
 40
0.0
 40
0.0
 40
0.0
 40
1.0
 40
1.0
 40
1.0
 40
2.0
 40
2.0
 40
2.0
 40
3.0
 40
3.0
 40
3.0
 40
4.0
 40
4.0
 40
4.0
 40
4.0
 10
78.88111324457551
 20
145.2386099982091
 10
78.88111324457551
 20
145.2386099982091
 10
81.63278098714661
 20
143.8274988874508
 10
81.63278098714661
 20
143.8274988874508
 10
81.63278098714661
 20
143.8274988874508
 10
81.63278098714661
 20
140.4761099993997
 10
81.63278098714661
 20
140.4761099993997
 10
81.63278098714661
 20
140.4761099993997
 10
78.74000428668435
 20
142.1694444089021
 10
78.74000428668435
 20
142.1694444089021
 10
78.74000428668435
 20
142.1694444089021
 10
78.88111324457551
 20
145.2386099982091
 10
78.88111324457551
 20
145.2386099982091
 97
        0
 97
        1
330
9E
 92
        1
 93
        1
 72
     4
 94
        3
 73
     0
 74
     0
 95
       17
 96
       13
 40
0.0
 40
0.0
 40
0.0
 40
0.0
 40
1.0
 40
1.0
 40
1.0
 40
2.0
 40
2.0
 40
2.0
 40
3.0
 40
3.0
 40
3.0
 40
4.0
 40
4.0
 40
4.0
 40
4.0
 10
78.88111324457551
 20
132.9972221889729
 10
78.88111324457551
 20
132.9972221889729
 10
78.74000428668435
 20
136.1016677092336
 10
78.74000428668435
 20
136.1016677092336
 10
78.74000428668435
 20
136.1016677092336
 10
81.63278098714661
 20
137.7950021187359
 10
81.63278098714661
 20
137.7950021187359
 10
81.63278098714661
 20
137.7950021187359
 10
81.63278098714661
 20
134.4436132306849
 10
81.63278098714661
 20
134.4436132306849
 10
81.63278098714661
 20
134.4436132306849
 10
78.88111324457551
 20
132.9972221889729
 10
78.88111324457551
 20
132.9972221889729
 97
        0
 97
        1
330
9F
 92
        1
 93
        1
 72
     4
 94
        3
 73
     0
 74
     0
 95
       17
 96
       13
 40
0.0
 40
0.0
 40
0.0
 40
0.0
 40
1.0
 40
1.0
 40
1.0
 40
2.0
 40
2.0
 40
2.0
 40
3.0
 40
3.0
 40
3.0
 40
4.0
 40
4.0
 40
4.0
 40
4.0
 10
85.93666879836717
 20
132.9972221889729
 10
85.93666879836717
 20
132.9972221889729
 10
83.18500105579609
 20
134.4083332997312
 10
83.18500105579609
 20
134.4083332997312
 10
83.18500105579609
 20
134.4083332997312
 10
83.18500105579609
 20
137.7597221877823
 10
83.18500105579609
 20
137.7597221877823
 10
83.18500105579609
 20
137.7597221877823
 10
86.07777775625834
 20
136.0663877782799
 10
86.07777775625834
 20
136.0663877782799
 10
86.07777775625834
 20
136.0663877782799
 10
85.93666879836717
 20
132.9972221889729
 10
85.93666879836717
 20
132.9972221889729
 97
        0
 97
        1
330
A0
 92
        1
 93
        1
 72
     4
 94
        3
 73
     0
 74
     0
 95
       17
 96
       13
 40
0.0
 40
0.0
 40
0.0
 40
0.0
 40
1.0
 40
1.0
 40
1.0
 40
2.0
 40
2.0
 40
2.0
 40
3.0
 40
3.0
 40
3.0
 40
4.0
 40
4.0
 40
4.0
 40
4.0
 10
87.62999782490783
 20
143.0161116136532
 10
87.62999782490783
 20
143.0161116136532
 10
87.45360893606303
 20
146.2969460227587
 10
87.45360893606303
 20
146.2969460227587
 10
87.45360893606303
 20
146.2969460227587
 10
89.95833331084375
 20
150.6361110734521
 10
89.95833331084375
 20
150.6361110734521
 10
89.95833331084375
 20
150.6361110734521
 10
93.90944872733644
 20
146.6850010399211
 10
93.90944872733644
 20
146.6850010399211
 10
93.90944872733644
 20
146.6850010399211
 10
87.62999782490783
 20
143.0161116136532
 10
87.62999782490783
 20
143.0161116136532
 97
        0
 97
        1
330
A1
 92
        1
 93
        1
 72
     4
 94
        3
 73
     0
 74
     0
 95
       17
 96
       13
 40
0.0
 40
0.0
 40
0.0
 40
0.0
 40
1.0
 40
1.0
 40
1.0
 40
2.0
 40
2.0
 40
2.0
 40
3.0
 40
3.0
 40
3.0
 40
4.0
 40
4.0
 40
4.0
 40
4.0
 10
96.16722435136509
 20
139.9116660933926
 10
96.16722435136509
 20
139.9116660933926
 10
91.19305553275729
 20
139.9116660933926
 10
91.19305553275729
 20
139.9116660933926
 10
91.19305553275729
 20
139.9116660933926
 10
88.44138779018621
 20
141.6755549818405
 10
88.44138779018621
 20
141.6755549818405
 10
88.44138779018621
 20
141.6755549818405
 10
94.72083330965313
 20
145.3091671686355
 10
94.72083330965313
 20
145.3091671686355
 10
94.72083330965313
 20
145.3091671686355
 10
96.16722435136509
 20
139.9116660933926
 10
96.16722435136509
 20
139.9116660933926
 97
        0
 97
        1
330
A2
 92
        1
 93
        1
 72
     4
 94
        3
 73
     0
 74
     0
 95
       41
 96
       37
 40
0.0
 40
0.0
 40
0.0
 40
0.0
 40
1.0
 40
1.0
 40
1.0
 40
2.0
 40
2.0
 40
2.0
 40
3.0
 40
3.0
 40
3.0
 40
4.0
 40
4.0
 40
4.0
 40
5.0
 40
5.0
 40
5.0
 40
6.0
 40
6.0
 40
6.0
 40
7.0
 40
7.0
 40
7.0
 40
8.0
 40
8.0
 40
8.0
 40
9.0
 40
9.0
 40
9.0
 40
10.0
 40
10.0
 40
10.0
 40
11.0
 40
11.0
 40
11.0
 40
12.0
 40
12.0
 40
12.0
 40
12.0
 10
95.88499566965941
 20
146.8966671682387
 10
95.88499566965941
 20
146.8966671682387
 10
90.16999674768049
 20
152.6116687816984
 10
90.16999674768049
 20
152.6116687816984
 10
90.16999674768049
 20
152.6116687816984
 10
82.37360570755601
 20
154.6930582083631
 10
82.37360570755601
 20
154.6930582083631
 10
82.37360570755601
 20
154.6930582083631
 10
74.57721466743155
 20
152.6116687816984
 10
74.57721466743155
 20
152.6116687816984
 10
74.57721466743155
 20
152.6116687816984
 10
68.86221574545263
 20
146.8966698597195
 10
68.86221574545263
 20
146.8966698597195
 10
68.86221574545263
 20
146.8966698597195
 10
66.78082901026877
 20
139.1002815110759
 10
66.78082901026877
 20
139.1002815110759
 10
66.78082901026877
 20
139.1002815110759
 10
68.86221574545263
 20
131.3038931624322
 10
68.86221574545263
 20
131.3038931624322
 10
68.86221574545263
 20
131.3038931624322
 10
74.57721466743155
 20
125.5888942404533
 10
74.57721466743155
 20
125.5888942404533
 10
74.57721466743155
 20
125.5888942404533
 10
82.37360570755601
 20
123.5075075052695
 10
82.37360570755601
 20
123.5075075052695
 10
82.37360570755601
 20
123.5075075052695
 10
90.16999674768049
 20
125.5888942404533
 10
90.16999674768049
 20
125.5888942404533
 10
90.16999674768049
 20
125.5888942404533
 10
95.88499566965941
 20
131.3038931624322
 10
95.88499566965941
 20
131.3038931624322
 10
95.88499566965941
 20
131.3038931624322
 10
97.96638240484327
 20
139.1002815110759
 10
97.96638240484327
 20
139.1002815110759
 10
97.96638240484327
 20
139.1002815110759
 10
95.88499566965941
 20
146.8966671682387
 10
95.88499566965941
 20
146.8966671682387
 97
        0
 97
        1
330
A3
 75
     2
 76
     1
 98
        1
 10
0.0
 20
0.0
450
        0
451
        0
460
0.0
461
0.0
452
        0
462
0.0
453
        0
470

  0
SPLINE
  5
A5
330
70
100
AcDbEntity
  8
Layer 1
100
AcDbSpline
210
0.0
220
0.0
230
1.0
 70
    11
 71
     3
 72
    14
 73
    10
 74
     0
 42
0.0000000001
 43
0.0000000001
 40
0.0
 40
0.0
 40
0.0
 40
0.0
 40
1.0
 40
1.0
 40
1.0
 40
2.0
 40
2.0
 40
2.0
 40
3.0
 40
3.0
 40
3.0
 40
3.0
 10
57.60861217330131
 20
54.22194873725832
 30
0.0
 10
57.60861217330131
 20
54.22194873725832
 30
0.0
 10
49.81222113317683
 20
54.22194873725832
 30
0.0
 10
49.81222113317683
 20
54.22194873725832
 30
0.0
 10
49.81222113317683
 20
54.22194873725832
 30
0.0
 10
65.40499783046406
 20
67.7333333164
 30
0.0
 10
65.40499783046406
 20
67.7333333164
 30
0.0
 10
65.40499783046406
 20
67.7333333164
 30
0.0
 10
57.60861217330131
 20
54.22194873725832
 30
0.0
 10
57.60861217330131
 20
54.22194873725832
 30
0.0
  0
SPLINE
  5
A6
330
70
100
AcDbEntity
  8
Layer 1
100
AcDbSpline
210
0.0
220
0.0
230
1.0
 70
    11
 71
     3
 72
    14
 73
    10
 74
     0
 42
0.0000000001
 43
0.0000000001
 40
0.0
 40
0.0
 40
0.0
 40
0.0
 40
1.0
 40
1.0
 40
1.0
 40
2.0
 40
2.0
 40
2.0
 40
3.0
 40
3.0
 40
3.0
 40
3.0
 10
32.42027830796888
 20
67.7333333164
 30
0.0
 10
32.42027830796888
 20
67.7333333164
 30
0.0
 10
48.01305769673697
 20
54.22194873725832
 30
0.0
 10
48.01305769673697
 20
54.22194873725832
 30
0.0
 10
48.01305769673697
 20
54.22194873725832
 30
0.0
 10
40.2166666566125
 20
54.22194873725832
 30
0.0
 10
40.2166666566125
 20
54.22194873725832
 30
0.0
 10
40.2166666566125
 20
54.22194873725832
 30
0.0
 10
32.42027830796888
 20
67.7333333164
 30
0.0
 10
32.42027830796888
 20
67.7333333164
 30
0.0
  0
SPLINE
  5
A7
330
70
100
AcDbEntity
  8
Layer 1
100
AcDbSpline
210
0.0
220
0.0
230
1.0
 70
    11
 71
     3
 72
    14
 73
    10
 74
     0
 42
0.0000000001
 43
0.0000000001
 40
0.0
 40
0.0
 40
0.0
 40
0.0
 40
1.0
 40
1.0
 40
1.0
 40
2.0
 40
2.0
 40
2.0
 40
3.0
 40
3.0
 40
3.0
 40
3.0
 10
40.2166666566125
 20
84.34916879876405
 30
0.0
 10
40.2166666566125
 20
84.34916879876405
 30
0.0
 10
48.04833224472891
 20
84.34916879876405
 30
0.0
 10
48.04833224472891
 20
84.34916879876405
 30
0.0
 10
48.04833224472891
 20
84.34916879876405
 30
0.0
 10
32.38499837701525
 20
70.80250428866873
 30
0.0
 10
32.38499837701525
 20
70.80250428866873
 30
0.0
 10
32.38499837701525
 20
70.80250428866873
 30
0.0
 10
40.2166666566125
 20
84.34916879876405
 30
0.0
 10
40.2166666566125
 20
84.34916879876405
 30
0.0
  0
SPLINE
  5
A8
330
70
100
AcDbEntity
  8
Layer 1
100
AcDbSpline
210
0.0
220
0.0
230
1.0
 70
    11
 71
     3
 72
    14
 73
    10
 74
     0
 42
0.0000000001
 43
0.0000000001
 40
0.0
 40
0.0
 40
0.0
 40
0.0
 40
1.0
 40
1.0
 40
1.0
 40
2.0
 40
2.0
 40
2.0
 40
3.0
 40
3.0
 40
3.0
 40
3.0
 10
65.44027776141772
 20
70.80250428866873
 30
0.0
 10
65.44027776141772
 20
70.80250428866873
 30
0.0
 10
49.77694658518489
 20
84.34916879876405
 30
0.0
 10
49.77694658518489
 20
84.34916879876405
 30
0.0
 10
49.77694658518489
 20
84.34916879876405
 30
0.0
 10
57.60861217330131
 20
84.34916879876405
 30
0.0
 10
57.60861217330131
 20
84.34916879876405
 30
0.0
 10
57.60861217330131
 20
84.34916879876405
 30
0.0
 10
65.44027776141772
 20
70.80250428866873
 30
0.0
 10
65.44027776141772
 20
70.80250428866873
 30
0.0
  0
SPLINE
  5
A9
330
70
100
AcDbEntity
  8
Layer 1
100
AcDbSpline
210
0.0
220
0.0
230
1.0
 70
    11
 71
     3
 72
    17
 73
    13
 74
     0
 42
0.0000000001
 43
0.0000000001
 40
0.0
 40
0.0
 40
0.0
 40
0.0
 40
1.0
 40
1.0
 40
1.0
 40
2.0
 40
2.0
 40
2.0
 40
3.0
 40
3.0
 40
3.0
 40
4.0
 40
4.0
 40
4.0
 40
4.0
 10
58.73749998531563
 20
64.02916665065937
 30
0.0
 10
58.73749998531563
 20
64.02916665065937
 30
0.0
 10
58.45527668657162
 20
64.52305338624012
 30
0.0
 10
58.45527668657162
 20
64.52305338624012
 30
0.0
 10
58.45527668657162
 20
64.52305338624012
 30
0.0
 10
56.16222113158933
 20
68.4741688027328
 30
0.0
 10
56.16222113158933
 20
68.4741688027328
 30
0.0
 10
56.16222113158933
 20
68.4741688027328
 30
0.0
 10
63.85277776181458
 20
68.4741688027328
 30
0.0
 10
63.85277776181458
 20
68.4741688027328
 30
0.0
 10
63.85277776181458
 20
68.4741688027328
 30
0.0
 10
58.73749998531563
 20
64.02916665065937
 30
0.0
 10
58.73749998531563
 20
64.02916665065937
 30
0.0
  0
SPLINE
  5
AA
330
70
100
AcDbEntity
  8
Layer 1
100
AcDbSpline
210
0.0
220
0.0
230
1.0
 70
    11
 71
     3
 72
    17
 73
    13
 74
     0
 42
0.0000000001
 43
0.0000000001
 40
0.0
 40
0.0
 40
0.0
 40
0.0
 40
1.0
 40
1.0
 40
1.0
 40
2.0
 40
2.0
 40
2.0
 40
3.0
 40
3.0
 40
3.0
 40
4.0
 40
4.0
 40
4.0
 40
4.0
 10
49.70638672327762
 20
58.80805984722289
 30
0.0
 10
49.70638672327762
 20
58.80805984722289
 30
0.0
 10
52.31694012499585
 20
63.35889102623385
 30
0.0
 10
52.31694012499585
 20
63.35889102623385
 30
0.0
 10
52.31694012499585
 20
63.35889102623385
 30
0.0
 10
57.96138456802919
 20
63.35889102623385
 30
0.0
 10
57.96138456802919
 20
63.35889102623385
 30
0.0
 10
57.96138456802919
 20
63.35889102623385
 30
0.0
 10
49.67110679232398
 20
56.19750644550467
 30
0.0
 10
49.67110679232398
 20
56.19750644550467
 30
0.0
 10
49.67110679232398
 20
56.19750644550467
 30
0.0
 10
49.70638672327762
 20
58.80805984722289
 30
0.0
 10
49.70638672327762
 20
58.80805984722289
 30
0.0
  0
SPLINE
  5
AB
330
70
100
AcDbEntity
  8
Layer 1
100
AcDbSpline
210
0.0
220
0.0
230
1.0
 70
    11
 71
     3
 72
    17
 73
    13
 74
     0
 42
0.0000000001
 43
0.0000000001
 40
0.0
 40
0.0
 40
0.0
 40
0.0
 40
1.0
 40
1.0
 40
1.0
 40
2.0
 40
2.0
 40
2.0
 40
3.0
 40
3.0
 40
3.0
 40
4.0
 40
4.0
 40
4.0
 40
4.0
 10
45.50833332195625
 20
63.35889102623385
 30
0.0
 10
45.50833332195625
 20
63.35889102623385
 30
0.0
 10
48.15416665462812
 20
58.80805984722289
 30
0.0
 10
48.15416665462812
 20
58.80805984722289
 30
0.0
 10
48.15416665462812
 20
58.80805984722289
 30
0.0
 10
48.15416665462812
 20
56.19750644550467
 30
0.0
 10
48.15416665462812
 20
56.19750644550467
 30
0.0
 10
48.15416665462812
 20
56.19750644550467
 30
0.0
 10
39.86388887892292
 20
63.35889102623385
 30
0.0
 10
39.86388887892292
 20
63.35889102623385
 30
0.0
 10
39.86388887892292
 20
63.35889102623385
 30
0.0
 10
45.50833332195625
 20
63.35889102623385
 30
0.0
 10
45.50833332195625
 20
63.35889102623385
 30
0.0
  0
SPLINE
  5
AC
330
70
100
AcDbEntity
  8
Layer 1
100
AcDbSpline
210
0.0
220
0.0
230
1.0
 70
    11
 71
     3
 72
    14
 73
    10
 74
     0
 42
0.0000000001
 43
0.0000000001
 40
0.0
 40
0.0
 40
0.0
 40
0.0
 40
1.0
 40
1.0
 40
1.0
 40
2.0
 40
2.0
 40
2.0
 40
3.0
 40
3.0
 40
3.0
 40
3.0
 10
41.62777776737083
 20
68.50944873368644
 30
0.0
 10
41.62777776737083
 20
68.50944873368644
 30
0.0
 10
39.05249891364454
 20
64.06444658161301
 30
0.0
 10
39.05249891364454
 20
64.06444658161301
 30
0.0
 10
39.05249891364454
 20
64.06444658161301
 30
0.0
 10
33.90194389767279
 20
68.50944873368644
 30
0.0
 10
33.90194389767279
 20
68.50944873368644
 30
0.0
 10
33.90194389767279
 20
68.50944873368644
 30
0.0
 10
41.62777776737083
 20
68.50944873368644
 30
0.0
 10
41.62777776737083
 20
68.50944873368644
 30
0.0
  0
SPLINE
  5
AD
330
70
100
AcDbEntity
  8
Layer 1
100
AcDbSpline
210
0.0
220
0.0
230
1.0
 70
    11
 71
     3
 72
    14
 73
    10
 74
     0
 42
0.0000000001
 43
0.0000000001
 40
0.0
 40
0.0
 40
0.0
 40
0.0
 40
1.0
 40
1.0
 40
1.0
 40
2.0
 40
2.0
 40
2.0
 40
3.0
 40
3.0
 40
3.0
 40
3.0
 10
39.05249891364454
 20
74.50667095440936
 30
0.0
 10
39.05249891364454
 20
74.50667095440936
 30
0.0
 10
41.62777776737083
 20
70.06166880233593
 30
0.0
 10
41.62777776737083
 20
70.06166880233593
 30
0.0
 10
41.62777776737083
 20
70.06166880233593
 30
0.0
 10
33.93722113714558
 20
70.06166880233593
 30
0.0
 10
33.93722113714558
 20
70.06166880233593
 30
0.0
 10
33.93722113714558
 20
70.06166880233593
 30
0.0
 10
39.05249891364454
 20
74.50667095440936
 30
0.0
 10
39.05249891364454
 20
74.50667095440936
 30
0.0
  0
SPLINE
  5
AE
330
70
100
AcDbEntity
  8
Layer 1
100
AcDbSpline
210
0.0
220
0.0
230
1.0
 70
    11
 71
     3
 72
    17
 73
    13
 74
     0
 42
0.0000000001
 43
0.0000000001
 40
0.0
 40
0.0
 40
0.0
 40
0.0
 40
1.0
 40
1.0
 40
1.0
 40
2.0
 40
2.0
 40
2.0
 40
3.0
 40
3.0
 40
3.0
 40
4.0
 40
4.0
 40
4.0
 40
4.0
 10
48.11888672367449
 20
79.72777775784584
 30
0.0
 10
48.11888672367449
 20
79.72777775784584
 30
0.0
 10
45.47305339100261
 20
75.17694657883488
 30
0.0
 10
45.47305339100261
 20
75.17694657883488
 30
0.0
 10
45.47305339100261
 20
75.17694657883488
 30
0.0
 10
39.82860894796928
 20
75.17694657883488
 30
0.0
 10
39.82860894796928
 20
75.17694657883488
 30
0.0
 10
39.82860894796928
 20
75.17694657883488
 30
0.0
 10
48.11888672367449
 20
82.33833115956407
 30
0.0
 10
48.11888672367449
 20
82.33833115956407
 30
0.0
 10
48.11888672367449
 20
82.33833115956407
 30
0.0
 10
48.11888672367449
 20
79.72777775784584
 30
0.0
 10
48.11888672367449
 20
79.72777775784584
 30
0.0
  0
SPLINE
  5
AF
330
70
100
AcDbEntity
  8
Layer 1
100
AcDbSpline
210
0.0
220
0.0
230
1.0
 70
    11
 71
     3
 72
    17
 73
    13
 74
     0
 42
0.0000000001
 43
0.0000000001
 40
0.0
 40
0.0
 40
0.0
 40
0.0
 40
1.0
 40
1.0
 40
1.0
 40
2.0
 40
2.0
 40
2.0
 40
3.0
 40
3.0
 40
3.0
 40
4.0
 40
4.0
 40
4.0
 40
4.0
 10
52.31694550795754
 20
75.17694657883488
 30
0.0
 10
52.31694550795754
 20
75.17694657883488
 30
0.0
 10
49.70639210623931
 20
79.72777775784584
 30
0.0
 10
49.70639210623931
 20
79.72777775784584
 30
0.0
 10
49.70639210623931
 20
79.72777775784584
 30
0.0
 10
49.70639210623931
 20
82.33833115956407
 30
0.0
 10
49.70639210623931
 20
82.33833115956407
 30
0.0
 10
49.70639210623931
 20
82.33833115956407
 30
0.0
 10
57.99666988194452
 20
75.17694657883488
 30
0.0
 10
57.99666988194452
 20
75.17694657883488
 30
0.0
 10
57.99666988194452
 20
75.17694657883488
 30
0.0
 10
52.31694550795754
 20
75.17694657883488
 30
0.0
 10
52.31694550795754
 20
75.17694657883488
 30
0.0
  0
SPLINE
  5
B0
330
70
100
AcDbEntity
  8
Layer 1
100
AcDbSpline
210
0.0
220
0.0
230
1.0
 70
    11
 71
     3
 72
    14
 73
    10
 74
     0
 42
0.0000000001
 43
0.0000000001
 40
0.0
 40
0.0
 40
0.0
 40
0.0
 40
1.0
 40
1.0
 40
1.0
 40
2.0
 40
2.0
 40
2.0
 40
3.0
 40
3.0
 40
3.0
 40
3.0
 10
58.73749998531563
 20
74.50667095440936
 30
0.0
 10
58.73749998531563
 20
74.50667095440936
 30
0.0
 10
63.88805769276822
 20
70.06166880233593
 30
0.0
 10
63.88805769276822
 20
70.06166880233593
 30
0.0
 10
63.88805769276822
 20
70.06166880233593
 30
0.0
 10
56.19750106254297
 20
70.06166880233593
 30
0.0
 10
56.19750106254297
 20
70.06166880233593
 30
0.0
 10
56.19750106254297
 20
70.06166880233593
 30
0.0
 10
58.73749998531563
 20
74.50667095440936
 30
0.0
 10
58.73749998531563
 20
74.50667095440936
 30
0.0
  0
SPLINE
  5
B1
330
70
100
AcDbEntity
  8
Layer 1
100
AcDbSpline
210
0.0
220
0.0
230
1.0
 70
    11
 71
     3
 72
    41
 73
    37
 74
     0
 42
0.0000000001
 43
0.0000000001
 40
0.0
 40
0.0
 40
0.0
 40
0.0
 40
1.0
 40
1.0
 40
1.0
 40
2.0
 40
2.0
 40
2.0
 40
3.0
 40
3.0
 40
3.0
 40
4.0
 40
4.0
 40
4.0
 40
5.0
 40
5.0
 40
5.0
 40
6.0
 40
6.0
 40
6.0
 40
7.0
 40
7.0
 40
7.0
 40
8.0
 40
8.0
 40
8.0
 40
9.0
 40
9.0
 40
9.0
 40
10.0
 40
10.0
 40
10.0
 40
11.0
 40
11.0
 40
11.0
 40
12.0
 40
12.0
 40
12.0
 40
12.0
 10
48.89500214096093
 20
60.60721790070107
 30
0.0
 10
48.89500214096093
 20
60.60721790070107
 30
0.0
 10
46.39027776618021
 20
64.94638025991358
 30
0.0
 10
46.39027776618021
 20
64.94638025991358
 30
0.0
 10
46.39027776618021
 20
64.94638025991358
 30
0.0
 10
41.38083439958046
 20
64.94638025991358
 30
0.0
 10
41.38083439958046
 20
64.94638025991358
 30
0.0
 10
41.38083439958046
 20
64.94638025991358
 30
0.0
 10
43.88555608288033
 20
69.2855426191261
 30
0.0
 10
43.88555608288033
 20
69.2855426191261
 30
0.0
 10
43.88555608288033
 20
69.2855426191261
 30
0.0
 10
41.38083439958046
 20
73.62470497833861
 30
0.0
 10
41.38083439958046
 20
73.62470497833861
 30
0.0
 10
41.38083439958046
 20
73.62470497833861
 30
0.0
 10
46.39027776618021
 20
73.62470497833861
 30
0.0
 10
46.39027776618021
 20
73.62470497833861
 30
0.0
 10
46.39027776618021
 20
73.62470497833861
 30
0.0
 10
48.89500214096093
 20
77.96386733755113
 30
0.0
 10
48.89500214096093
 20
77.96386733755113
 30
0.0
 10
48.89500214096093
 20
77.96386733755113
 30
0.0
 10
51.39972651574165
 20
73.62470497833861
 30
0.0
 10
51.39972651574165
 20
73.62470497833861
 30
0.0
 10
51.39972651574165
 20
73.62470497833861
 30
0.0
 10
56.40916988234139
 20
73.62470497833861
 30
0.0
 10
56.40916988234139
 20
73.62470497833861
 30
0.0
 10
56.40916988234139
 20
73.62470497833861
 30
0.0
 10
53.90444550756067
 20
69.2855426191261
 30
0.0
 10
53.90444550756067
 20
69.2855426191261
 30
0.0
 10
53.90444550756067
 20
69.2855426191261
 30
0.0
 10
56.40916988234139
 20
64.94638025991358
 30
0.0
 10
56.40916988234139
 20
64.94638025991358
 30
0.0
 10
56.40916988234139
 20
64.94638025991358
 30
0.0
 10
51.39972651574165
 20
64.94638025991358
 30
0.0
 10
51.39972651574165
 20
64.94638025991358
 30
0.0
 10
51.39972651574165
 20
64.94638025991358
 30
0.0
 10
48.89500214096093
 20
60.60721790070107
 30
0.0
 10
48.89500214096093
 20
60.60721790070107
 30
0.0
  0
SPLINE
  5
B2
330
70
100
AcDbEntity
  8
Layer 1
100
AcDbSpline
210
0.0
220
0.0
230
1.0
 70
    11
 71
     3
 72
    23
 73
    19
 74
     0
 42
0.0000000001
 43
0.0000000001
 40
0.0
 40
0.0
 40
0.0
 40
0.0
 40
1.0
 40
1.0
 40
1.0
 40
2.0
 40
2.0
 40
2.0
 40
3.0
 40
3.0
 40
3.0
 40
4.0
 40
4.0
 40
4.0
 40
5.0
 40
5.0
 40
5.0
 40
6.0
 40
6.0
 40
6.0
 40
6.0
 10
58.5258311655172
 20
85.93666879836717
 30
0.0
 10
58.5258311655172
 20
85.93666879836717
 30
0.0
 10
39.3347195209077
 20
85.93666879836717
 30
0.0
 10
39.3347195209077
 20
85.93666879836717
 30
0.0
 10
39.3347195209077
 20
85.93666879836717
 30
0.0
 10
29.73916235286252
 20
69.28555338504949
 30
0.0
 10
29.73916235286252
 20
69.28555338504949
 30
0.0
 10
29.73916235286252
 20
69.28555338504949
 30
0.0
 10
39.33471682942684
 20
52.6344379717318
 30
0.0
 10
39.33471682942684
 20
52.6344379717318
 30
0.0
 10
39.33471682942684
 20
52.6344379717318
 30
0.0
 10
58.5258311655172
 20
52.6344379717318
 30
0.0
 10
58.5258311655172
 20
52.6344379717318
 30
0.0
 10
58.5258311655172
 20
52.6344379717318
 30
0.0
 10
68.12138564208152
 20
69.28555338504949
 30
0.0
 10
68.12138564208152
 20
69.28555338504949
 30
0.0
 10
68.12138564208152
 20
69.28555338504949
 30
0.0
 10
58.5258311655172
 20
85.93666879836717
 30
0.0
 10
58.5258311655172
 20
85.93666879836717
 30
0.0
  0
HATCH
  5
B3
330
70
100
AcDbEntity
  8
Layer 1
 62
   250
420
  2301728
440
 33554687
100
AcDbHatch
 10
0.0
 20
0.0
 30
0.0
210
0.0
220
0.0
230
1.0
  2
SOLID
 70
     1
 71
     1
 91
       14
 92
        1
 93
        1
 72
     4
 94
        3
 73
     0
 74
     0
 95
       14
 96
       10
 40
0.0
 40
0.0
 40
0.0
 40
0.0
 40
1.0
 40
1.0
 40
1.0
 40
2.0
 40
2.0
 40
2.0
 40
3.0
 40
3.0
 40
3.0
 40
3.0
 10
57.60861217330131
 20
54.22194873725832
 10
57.60861217330131
 20
54.22194873725832
 10
49.81222113317683
 20
54.22194873725832
 10
49.81222113317683
 20
54.22194873725832
 10
49.81222113317683
 20
54.22194873725832
 10
65.40499783046406
 20
67.7333333164
 10
65.40499783046406
 20
67.7333333164
 10
65.40499783046406
 20
67.7333333164
 10
57.60861217330131
 20
54.22194873725832
 10
57.60861217330131
 20
54.22194873725832
 97
        0
 97
        1
330
A5
 92
        1
 93
        1
 72
     4
 94
        3
 73
     0
 74
     0
 95
       14
 96
       10
 40
0.0
 40
0.0
 40
0.0
 40
0.0
 40
1.0
 40
1.0
 40
1.0
 40
2.0
 40
2.0
 40
2.0
 40
3.0
 40
3.0
 40
3.0
 40
3.0
 10
32.42027830796888
 20
67.7333333164
 10
32.42027830796888
 20
67.7333333164
 10
48.01305769673697
 20
54.22194873725832
 10
48.01305769673697
 20
54.22194873725832
 10
48.01305769673697
 20
54.22194873725832
 10
40.2166666566125
 20
54.22194873725832
 10
40.2166666566125
 20
54.22194873725832
 10
40.2166666566125
 20
54.22194873725832
 10
32.42027830796888
 20
67.7333333164
 10
32.42027830796888
 20
67.7333333164
 97
        0
 97
        1
330
A6
 92
        1
 93
        1
 72
     4
 94
        3
 73
     0
 74
     0
 95
       14
 96
       10
 40
0.0
 40
0.0
 40
0.0
 40
0.0
 40
1.0
 40
1.0
 40
1.0
 40
2.0
 40
2.0
 40
2.0
 40
3.0
 40
3.0
 40
3.0
 40
3.0
 10
40.2166666566125
 20
84.34916879876405
 10
40.2166666566125
 20
84.34916879876405
 10
48.04833224472891
 20
84.34916879876405
 10
48.04833224472891
 20
84.34916879876405
 10
48.04833224472891
 20
84.34916879876405
 10
32.38499837701525
 20
70.80250428866873
 10
32.38499837701525
 20
70.80250428866873
 10
32.38499837701525
 20
70.80250428866873
 10
40.2166666566125
 20
84.34916879876405
 10
40.2166666566125
 20
84.34916879876405
 97
        0
 97
        1
330
A7
 92
        1
 93
        1
 72
     4
 94
        3
 73
     0
 74
     0
 95
       14
 96
       10
 40
0.0
 40
0.0
 40
0.0
 40
0.0
 40
1.0
 40
1.0
 40
1.0
 40
2.0
 40
2.0
 40
2.0
 40
3.0
 40
3.0
 40
3.0
 40
3.0
 10
65.44027776141772
 20
70.80250428866873
 10
65.44027776141772
 20
70.80250428866873
 10
49.77694658518489
 20
84.34916879876405
 10
49.77694658518489
 20
84.34916879876405
 10
49.77694658518489
 20
84.34916879876405
 10
57.60861217330131
 20
84.34916879876405
 10
57.60861217330131
 20
84.34916879876405
 10
57.60861217330131
 20
84.34916879876405
 10
65.44027776141772
 20
70.80250428866873
 10
65.44027776141772
 20
70.80250428866873
 97
        0
 97
        1
330
A8
 92
        1
 93
        1
 72
     4
 94
        3
 73
     0
 74
     0
 95
       17
 96
       13
 40
0.0
 40
0.0
 40
0.0
 40
0.0
 40
1.0
 40
1.0
 40
1.0
 40
2.0
 40
2.0
 40
2.0
 40
3.0
 40
3.0
 40
3.0
 40
4.0
 40
4.0
 40
4.0
 40
4.0
 10
58.73749998531563
 20
64.02916665065937
 10
58.73749998531563
 20
64.02916665065937
 10
58.45527668657162
 20
64.52305338624012
 10
58.45527668657162
 20
64.52305338624012
 10
58.45527668657162
 20
64.52305338624012
 10
56.16222113158933
 20
68.4741688027328
 10
56.16222113158933
 20
68.4741688027328
 10
56.16222113158933
 20
68.4741688027328
 10
63.85277776181458
 20
68.4741688027328
 10
63.85277776181458
 20
68.4741688027328
 10
63.85277776181458
 20
68.4741688027328
 10
58.73749998531563
 20
64.02916665065937
 10
58.73749998531563
 20
64.02916665065937
 97
        0
 97
        1
330
A9
 92
        1
 93
        1
 72
     4
 94
        3
 73
     0
 74
     0
 95
       17
 96
       13
 40
0.0
 40
0.0
 40
0.0
 40
0.0
 40
1.0
 40
1.0
 40
1.0
 40
2.0
 40
2.0
 40
2.0
 40
3.0
 40
3.0
 40
3.0
 40
4.0
 40
4.0
 40
4.0
 40
4.0
 10
49.70638672327762
 20
58.80805984722289
 10
49.70638672327762
 20
58.80805984722289
 10
52.31694012499585
 20
63.35889102623385
 10
52.31694012499585
 20
63.35889102623385
 10
52.31694012499585
 20
63.35889102623385
 10
57.96138456802919
 20
63.35889102623385
 10
57.96138456802919
 20
63.35889102623385
 10
57.96138456802919
 20
63.35889102623385
 10
49.67110679232398
 20
56.19750644550467
 10
49.67110679232398
 20
56.19750644550467
 10
49.67110679232398
 20
56.19750644550467
 10
49.70638672327762
 20
58.80805984722289
 10
49.70638672327762
 20
58.80805984722289
 97
        0
 97
        1
330
AA
 92
        1
 93
        1
 72
     4
 94
        3
 73
     0
 74
     0
 95
       17
 96
       13
 40
0.0
 40
0.0
 40
0.0
 40
0.0
 40
1.0
 40
1.0
 40
1.0
 40
2.0
 40
2.0
 40
2.0
 40
3.0
 40
3.0
 40
3.0
 40
4.0
 40
4.0
 40
4.0
 40
4.0
 10
45.50833332195625
 20
63.35889102623385
 10
45.50833332195625
 20
63.35889102623385
 10
48.15416665462812
 20
58.80805984722289
 10
48.15416665462812
 20
58.80805984722289
 10
48.15416665462812
 20
58.80805984722289
 10
48.15416665462812
 20
56.19750644550467
 10
48.15416665462812
 20
56.19750644550467
 10
48.15416665462812
 20
56.19750644550467
 10
39.86388887892292
 20
63.35889102623385
 10
39.86388887892292
 20
63.35889102623385
 10
39.86388887892292
 20
63.35889102623385
 10
45.50833332195625
 20
63.35889102623385
 10
45.50833332195625
 20
63.35889102623385
 97
        0
 97
        1
330
AB
 92
        1
 93
        1
 72
     4
 94
        3
 73
     0
 74
     0
 95
       14
 96
       10
 40
0.0
 40
0.0
 40
0.0
 40
0.0
 40
1.0
 40
1.0
 40
1.0
 40
2.0
 40
2.0
 40
2.0
 40
3.0
 40
3.0
 40
3.0
 40
3.0
 10
41.62777776737083
 20
68.50944873368644
 10
41.62777776737083
 20
68.50944873368644
 10
39.05249891364454
 20
64.06444658161301
 10
39.05249891364454
 20
64.06444658161301
 10
39.05249891364454
 20
64.06444658161301
 10
33.90194389767279
 20
68.50944873368644
 10
33.90194389767279
 20
68.50944873368644
 10
33.90194389767279
 20
68.50944873368644
 10
41.62777776737083
 20
68.50944873368644
 10
41.62777776737083
 20
68.50944873368644
 97
        0
 97
        1
330
AC
 92
        1
 93
        1
 72
     4
 94
        3
 73
     0
 74
     0
 95
       14
 96
       10
 40
0.0
 40
0.0
 40
0.0
 40
0.0
 40
1.0
 40
1.0
 40
1.0
 40
2.0
 40
2.0
 40
2.0
 40
3.0
 40
3.0
 40
3.0
 40
3.0
 10
39.05249891364454
 20
74.50667095440936
 10
39.05249891364454
 20
74.50667095440936
 10
41.62777776737083
 20
70.06166880233593
 10
41.62777776737083
 20
70.06166880233593
 10
41.62777776737083
 20
70.06166880233593
 10
33.93722113714558
 20
70.06166880233593
 10
33.93722113714558
 20
70.06166880233593
 10
33.93722113714558
 20
70.06166880233593
 10
39.05249891364454
 20
74.50667095440936
 10
39.05249891364454
 20
74.50667095440936
 97
        0
 97
        1
330
AD
 92
        1
 93
        1
 72
     4
 94
        3
 73
     0
 74
     0
 95
       17
 96
       13
 40
0.0
 40
0.0
 40
0.0
 40
0.0
 40
1.0
 40
1.0
 40
1.0
 40
2.0
 40
2.0
 40
2.0
 40
3.0
 40
3.0
 40
3.0
 40
4.0
 40
4.0
 40
4.0
 40
4.0
 10
48.11888672367449
 20
79.72777775784584
 10
48.11888672367449
 20
79.72777775784584
 10
45.47305339100261
 20
75.17694657883488
 10
45.47305339100261
 20
75.17694657883488
 10
45.47305339100261
 20
75.17694657883488
 10
39.82860894796928
 20
75.17694657883488
 10
39.82860894796928
 20
75.17694657883488
 10
39.82860894796928
 20
75.17694657883488
 10
48.11888672367449
 20
82.33833115956407
 10
48.11888672367449
 20
82.33833115956407
 10
48.11888672367449
 20
82.33833115956407
 10
48.11888672367449
 20
79.72777775784584
 10
48.11888672367449
 20
79.72777775784584
 97
        0
 97
        1
330
AE
 92
        1
 93
        1
 72
     4
 94
        3
 73
     0
 74
     0
 95
       17
 96
       13
 40
0.0
 40
0.0
 40
0.0
 40
0.0
 40
1.0
 40
1.0
 40
1.0
 40
2.0
 40
2.0
 40
2.0
 40
3.0
 40
3.0
 40
3.0
 40
4.0
 40
4.0
 40
4.0
 40
4.0
 10
52.31694550795754
 20
75.17694657883488
 10
52.31694550795754
 20
75.17694657883488
 10
49.70639210623931
 20
79.72777775784584
 10
49.70639210623931
 20
79.72777775784584
 10
49.70639210623931
 20
79.72777775784584
 10
49.70639210623931
 20
82.33833115956407
 10
49.70639210623931
 20
82.33833115956407
 10
49.70639210623931
 20
82.33833115956407
 10
57.99666988194452
 20
75.17694657883488
 10
57.99666988194452
 20
75.17694657883488
 10
57.99666988194452
 20
75.17694657883488
 10
52.31694550795754
 20
75.17694657883488
 10
52.31694550795754
 20
75.17694657883488
 97
        0
 97
        1
330
AF
 92
        1
 93
        1
 72
     4
 94
        3
 73
     0
 74
     0
 95
       14
 96
       10
 40
0.0
 40
0.0
 40
0.0
 40
0.0
 40
1.0
 40
1.0
 40
1.0
 40
2.0
 40
2.0
 40
2.0
 40
3.0
 40
3.0
 40
3.0
 40
3.0
 10
58.73749998531563
 20
74.50667095440936
 10
58.73749998531563
 20
74.50667095440936
 10
63.88805769276822
 20
70.06166880233593
 10
63.88805769276822
 20
70.06166880233593
 10
63.88805769276822
 20
70.06166880233593
 10
56.19750106254297
 20
70.06166880233593
 10
56.19750106254297
 20
70.06166880233593
 10
56.19750106254297
 20
70.06166880233593
 10
58.73749998531563
 20
74.50667095440936
 10
58.73749998531563
 20
74.50667095440936
 97
        0
 97
        1
330
B0
 92
        1
 93
        1
 72
     4
 94
        3
 73
     0
 74
     0
 95
       41
 96
       37
 40
0.0
 40
0.0
 40
0.0
 40
0.0
 40
1.0
 40
1.0
 40
1.0
 40
2.0
 40
2.0
 40
2.0
 40
3.0
 40
3.0
 40
3.0
 40
4.0
 40
4.0
 40
4.0
 40
5.0
 40
5.0
 40
5.0
 40
6.0
 40
6.0
 40
6.0
 40
7.0
 40
7.0
 40
7.0
 40
8.0
 40
8.0
 40
8.0
 40
9.0
 40
9.0
 40
9.0
 40
10.0
 40
10.0
 40
10.0
 40
11.0
 40
11.0
 40
11.0
 40
12.0
 40
12.0
 40
12.0
 40
12.0
 10
48.89500214096093
 20
60.60721790070107
 10
48.89500214096093
 20
60.60721790070107
 10
46.39027776618021
 20
64.94638025991358
 10
46.39027776618021
 20
64.94638025991358
 10
46.39027776618021
 20
64.94638025991358
 10
41.38083439958046
 20
64.94638025991358
 10
41.38083439958046
 20
64.94638025991358
 10
41.38083439958046
 20
64.94638025991358
 10
43.88555608288033
 20
69.2855426191261
 10
43.88555608288033
 20
69.2855426191261
 10
43.88555608288033
 20
69.2855426191261
 10
41.38083439958046
 20
73.62470497833861
 10
41.38083439958046
 20
73.62470497833861
 10
41.38083439958046
 20
73.62470497833861
 10
46.39027776618021
 20
73.62470497833861
 10
46.39027776618021
 20
73.62470497833861
 10
46.39027776618021
 20
73.62470497833861
 10
48.89500214096093
 20
77.96386733755113
 10
48.89500214096093
 20
77.96386733755113
 10
48.89500214096093
 20
77.96386733755113
 10
51.39972651574165
 20
73.62470497833861
 10
51.39972651574165
 20
73.62470497833861
 10
51.39972651574165
 20
73.62470497833861
 10
56.40916988234139
 20
73.62470497833861
 10
56.40916988234139
 20
73.62470497833861
 10
56.40916988234139
 20
73.62470497833861
 10
53.90444550756067
 20
69.2855426191261
 10
53.90444550756067
 20
69.2855426191261
 10
53.90444550756067
 20
69.2855426191261
 10
56.40916988234139
 20
64.94638025991358
 10
56.40916988234139
 20
64.94638025991358
 10
56.40916988234139
 20
64.94638025991358
 10
51.39972651574165
 20
64.94638025991358
 10
51.39972651574165
 20
64.94638025991358
 10
51.39972651574165
 20
64.94638025991358
 10
48.89500214096093
 20
60.60721790070107
 10
48.89500214096093
 20
60.60721790070107
 97
        0
 97
        1
330
B1
 92
        1
 93
        1
 72
     4
 94
        3
 73
     0
 74
     0
 95
       23
 96
       19
 40
0.0
 40
0.0
 40
0.0
 40
0.0
 40
1.0
 40
1.0
 40
1.0
 40
2.0
 40
2.0
 40
2.0
 40
3.0
 40
3.0
 40
3.0
 40
4.0
 40
4.0
 40
4.0
 40
5.0
 40
5.0
 40
5.0
 40
6.0
 40
6.0
 40
6.0
 40
6.0
 10
58.5258311655172
 20
85.93666879836717
 10
58.5258311655172
 20
85.93666879836717
 10
39.3347195209077
 20
85.93666879836717
 10
39.3347195209077
 20
85.93666879836717
 10
39.3347195209077
 20
85.93666879836717
 10
29.73916235286252
 20
69.28555338504949
 10
29.73916235286252
 20
69.28555338504949
 10
29.73916235286252
 20
69.28555338504949
 10
39.33471682942684
 20
52.6344379717318
 10
39.33471682942684
 20
52.6344379717318
 10
39.33471682942684
 20
52.6344379717318
 10
58.5258311655172
 20
52.6344379717318
 10
58.5258311655172
 20
52.6344379717318
 10
58.5258311655172
 20
52.6344379717318
 10
68.12138564208152
 20
69.28555338504949
 10
68.12138564208152
 20
69.28555338504949
 10
68.12138564208152
 20
69.28555338504949
 10
58.5258311655172
 20
85.93666879836717
 10
58.5258311655172
 20
85.93666879836717
 97
        0
 97
        1
330
B2
 75
     2
 76
     1
 98
        1
 10
0.0
 20
0.0
450
        0
451
        0
460
0.0
461
0.0
452
        0
462
0.0
453
        0
470

  0
SPLINE
  5
B4
330
70
100
AcDbEntity
  8
Layer 1
100
AcDbSpline
210
0.0
220
0.0
230
1.0
 70
    11
 71
     3
 72
    17
 73
    13
 74
     0
 42
0.0000000001
 43
0.0000000001
 40
0.0
 40
0.0
 40
0.0
 40
0.0
 40
1.0
 40
1.0
 40
1.0
 40
2.0
 40
2.0
 40
2.0
 40
3.0
 40
3.0
 40
3.0
 40
4.0
 40
4.0
 40
4.0
 40
4.0
 10
97.26083761538749
 20
40.14610679470522
 30
0.0
 10
97.26083761538749
 20
40.14610679470522
 30
0.0
 10
97.26083761538749
 20
45.68472221080104
 30
0.0
 10
97.26083761538749
 20
45.68472221080104
 30
0.0
 10
97.26083761538749
 20
45.68472221080104
 30
0.0
 10
102.9405619893744
 20
48.96555123694481
 30
0.0
 10
102.9405619893744
 20
48.96555123694481
 30
0.0
 10
102.9405619893744
 20
48.96555123694481
 30
0.0
 10
102.9405619893744
 20
43.42693582084899
 30
0.0
 10
102.9405619893744
 20
43.42693582084899
 30
0.0
 10
102.9405619893744
 20
43.42693582084899
 30
0.0
 10
97.26083761538749
 20
40.14610679470522
 30
0.0
 10
97.26083761538749
 20
40.14610679470522
 30
0.0
  0
SPLINE
  5
B5
330
70
100
AcDbEntity
  8
Layer 1
100
AcDbSpline
210
0.0
220
0.0
230
1.0
 70
    11
 71
     3
 72
    35
 73
    31
 74
     0
 42
0.0000000001
 43
0.0000000001
 40
0.0
 40
0.0
 40
0.0
 40
0.0
 40
1.0
 40
1.0
 40
1.0
 40
2.0
 40
2.0
 40
2.0
 40
3.0
 40
3.0
 40
3.0
 40
4.0
 40
4.0
 40
4.0
 40
5.0
 40
5.0
 40
5.0
 40
6.0
 40
6.0
 40
6.0
 40
7.0
 40
7.0
 40
7.0
 40
8.0
 40
8.0
 40
8.0
 40
9.0
 40
9.0
 40
9.0
 40
10.0
 40
10.0
 40
10.0
 40
10.0
 10
89.74666449104532
 20
39.26416235048127
 30
0.0
 10
89.74666449104532
 20
39.26416235048127
 30
0.0
 10
89.74666449104532
 20
46.63721575100888
 30
0.0
 10
89.74666449104532
 20
46.63721575100888
 30
0.0
 10
89.74666449104532
 20
46.63721575100888
 30
0.0
 10
82.47944550041692
 20
50.7999999873
 30
0.0
 10
82.47944550041692
 20
50.7999999873
 30
0.0
 10
82.47944550041692
 20
50.7999999873
 30
0.0
 10
82.47944550041692
 20
54.32777776419584
 30
0.0
 10
82.47944550041692
 20
54.32777776419584
 30
0.0
 10
82.47944550041692
 20
54.32777776419584
 30
0.0
 10
92.70999567045315
 20
48.43638457041044
 30
0.0
 10
92.70999567045315
 20
48.43638457041044
 30
0.0
 10
92.70999567045315
 20
48.43638457041044
 30
0.0
 10
102.940551223451
 20
54.32777776419584
 30
0.0
 10
102.940551223451
 20
54.32777776419584
 30
0.0
 10
102.940551223451
 20
54.32777776419584
 30
0.0
 10
102.940551223451
 20
50.7999999873
 30
0.0
 10
102.940551223451
 20
50.7999999873
 30
0.0
 10
102.940551223451
 20
50.7999999873
 30
0.0
 10
95.67332684986096
 20
46.60194658597863
 30
0.0
 10
95.67332684986096
 20
46.60194658597863
 30
0.0
 10
95.67332684986096
 20
46.60194658597863
 30
0.0
 10
95.67332684986096
 20
39.22889318545103
 30
0.0
 10
95.67332684986096
 20
39.22889318545103
 30
0.0
 10
95.67332684986096
 20
39.22889318545103
 30
0.0
 10
92.70999567045315
 20
37.50028422795675
 30
0.0
 10
92.70999567045315
 20
37.50028422795675
 30
0.0
 10
92.70999567045315
 20
37.50028422795675
 30
0.0
 10
89.74666449104532
 20
39.26416235048127
 30
0.0
 10
89.74666449104532
 20
39.26416235048127
 30
0.0
  0
SPLINE
  5
B6
330
70
100
AcDbEntity
  8
Layer 1
100
AcDbSpline
210
0.0
220
0.0
230
1.0
 70
    11
 71
     3
 72
    17
 73
    13
 74
     0
 42
0.0000000001
 43
0.0000000001
 40
0.0
 40
0.0
 40
0.0
 40
0.0
 40
1.0
 40
1.0
 40
1.0
 40
2.0
 40
2.0
 40
2.0
 40
3.0
 40
3.0
 40
3.0
 40
4.0
 40
4.0
 40
4.0
 40
4.0
 10
82.47944550041692
 20
49.00083116789844
 30
0.0
 10
82.47944550041692
 20
49.00083116789844
 30
0.0
 10
88.1591698744039
 20
45.72000214175468
 30
0.0
 10
88.1591698744039
 20
45.72000214175468
 30
0.0
 10
88.1591698744039
 20
45.72000214175468
 30
0.0
 10
88.1591698744039
 20
40.18138672565886
 30
0.0
 10
88.1591698744039
 20
40.18138672565886
 30
0.0
 10
88.1591698744039
 20
40.18138672565886
 30
0.0
 10
82.47944550041692
 20
43.46221575180263
 30
0.0
 10
82.47944550041692
 20
43.46221575180263
 30
0.0
 10
82.47944550041692
 20
43.46221575180263
 30
0.0
 10
82.47944550041692
 20
49.00083116789844
 30
0.0
 10
82.47944550041692
 20
49.00083116789844
 30
0.0
  0
SPLINE
  5
B7
330
70
100
AcDbEntity
  8
Layer 1
100
AcDbSpline
210
0.0
220
0.0
230
1.0
 70
    11
 71
     3
 72
    17
 73
    13
 74
     0
 42
0.0000000001
 43
0.0000000001
 40
0.0
 40
0.0
 40
0.0
 40
0.0
 40
1.0
 40
1.0
 40
1.0
 40
2.0
 40
2.0
 40
2.0
 40
3.0
 40
3.0
 40
3.0
 40
4.0
 40
4.0
 40
4.0
 40
4.0
 10
102.164446572088
 20
55.70360894400053
 30
0.0
 10
102.164446572088
 20
55.70360894400053
 30
0.0
 10
92.71000643637654
 20
50.27083332076562
 30
0.0
 10
92.71000643637654
 20
50.27083332076562
 30
0.0
 10
92.71000643637654
 20
50.27083332076562
 30
0.0
 10
83.25555553474167
 20
55.70360894400053
 30
0.0
 10
83.25555553474167
 20
55.70360894400053
 30
0.0
 10
83.25555553474167
 20
55.70360894400053
 30
0.0
 10
92.70999567045315
 20
61.13638456723544
 30
0.0
 10
92.70999567045315
 20
61.13638456723544
 30
0.0
 10
92.70999567045315
 20
61.13638456723544
 30
0.0
 10
102.164446572088
 20
55.70360894400053
 30
0.0
 10
102.164446572088
 20
55.70360894400053
 30
0.0
  0
SPLINE
  5
B8
330
70
100
AcDbEntity
  8
Layer 1
100
AcDbSpline
210
0.0
220
0.0
230
1.0
 70
    11
 71
     3
 72
    23
 73
    19
 74
     0
 42
0.0000000001
 43
0.0000000001
 40
0.0
 40
0.0
 40
0.0
 40
0.0
 40
1.0
 40
1.0
 40
1.0
 40
2.0
 40
2.0
 40
2.0
 40
3.0
 40
3.0
 40
3.0
 40
4.0
 40
4.0
 40
4.0
 40
5.0
 40
5.0
 40
5.0
 40
6.0
 40
6.0
 40
6.0
 40
6.0
 10
92.70999567045315
 20
62.97083331759062
 30
0.0
 10
92.70999567045315
 20
62.97083331759062
 30
0.0
 10
80.92722004880574
 20
56.16222651455102
 30
0.0
 10
80.92722004880574
 20
56.16222651455102
 30
0.0
 10
80.92722004880574
 20
56.16222651455102
 30
0.0
 10
80.92722004880574
 20
42.54500214254843
 30
0.0
 10
80.92722004880574
 20
42.54500214254843
 30
0.0
 10
80.92722004880574
 20
42.54500214254843
 30
0.0
 10
92.70999567045315
 20
35.73639533950883
 30
0.0
 10
92.70999567045315
 20
35.73639533950883
 30
0.0
 10
92.70999567045315
 20
35.73639533950883
 30
0.0
 10
104.4927712921005
 20
42.54500214254843
 30
0.0
 10
104.4927712921005
 20
42.54500214254843
 30
0.0
 10
104.4927712921005
 20
42.54500214254843
 30
0.0
 10
104.4927712921005
 20
56.16222651455102
 30
0.0
 10
104.4927712921005
 20
56.16222651455102
 30
0.0
 10
104.4927712921005
 20
56.16222651455102
 30
0.0
 10
92.70999567045315
 20
62.97083331759062
 30
0.0
 10
92.70999567045315
 20
62.97083331759062
 30
0.0
  0
HATCH
  5
B9
330
70
100
AcDbEntity
  8
Layer 1
 62
   250
420
  2301728
440
 33554687
100
AcDbHatch
 10
0.0
 20
0.0
 30
0.0
210
0.0
220
0.0
230
1.0
  2
SOLID
 70
     1
 71
     1
 91
        5
 92
        1
 93
        1
 72
     4
 94
        3
 73
     0
 74
     0
 95
       17
 96
       13
 40
0.0
 40
0.0
 40
0.0
 40
0.0
 40
1.0
 40
1.0
 40
1.0
 40
2.0
 40
2.0
 40
2.0
 40
3.0
 40
3.0
 40
3.0
 40
4.0
 40
4.0
 40
4.0
 40
4.0
 10
97.26083761538749
 20
40.14610679470522
 10
97.26083761538749
 20
40.14610679470522
 10
97.26083761538749
 20
45.68472221080104
 10
97.26083761538749
 20
45.68472221080104
 10
97.26083761538749
 20
45.68472221080104
 10
102.9405619893744
 20
48.96555123694481
 10
102.9405619893744
 20
48.96555123694481
 10
102.9405619893744
 20
48.96555123694481
 10
102.9405619893744
 20
43.42693582084899
 10
102.9405619893744
 20
43.42693582084899
 10
102.9405619893744
 20
43.42693582084899
 10
97.26083761538749
 20
40.14610679470522
 10
97.26083761538749
 20
40.14610679470522
 97
        0
 97
        1
330
B4
 92
        1
 93
        1
 72
     4
 94
        3
 73
     0
 74
     0
 95
       35
 96
       31
 40
0.0
 40
0.0
 40
0.0
 40
0.0
 40
1.0
 40
1.0
 40
1.0
 40
2.0
 40
2.0
 40
2.0
 40
3.0
 40
3.0
 40
3.0
 40
4.0
 40
4.0
 40
4.0
 40
5.0
 40
5.0
 40
5.0
 40
6.0
 40
6.0
 40
6.0
 40
7.0
 40
7.0
 40
7.0
 40
8.0
 40
8.0
 40
8.0
 40
9.0
 40
9.0
 40
9.0
 40
10.0
 40
10.0
 40
10.0
 40
10.0
 10
89.74666449104532
 20
39.26416235048127
 10
89.74666449104532
 20
39.26416235048127
 10
89.74666449104532
 20
46.63721575100888
 10
89.74666449104532
 20
46.63721575100888
 10
89.74666449104532
 20
46.63721575100888
 10
82.47944550041692
 20
50.7999999873
 10
82.47944550041692
 20
50.7999999873
 10
82.47944550041692
 20
50.7999999873
 10
82.47944550041692
 20
54.32777776419584
 10
82.47944550041692
 20
54.32777776419584
 10
82.47944550041692
 20
54.32777776419584
 10
92.70999567045315
 20
48.43638457041044
 10
92.70999567045315
 20
48.43638457041044
 10
92.70999567045315
 20
48.43638457041044
 10
102.940551223451
 20
54.32777776419584
 10
102.940551223451
 20
54.32777776419584
 10
102.940551223451
 20
54.32777776419584
 10
102.940551223451
 20
50.7999999873
 10
102.940551223451
 20
50.7999999873
 10
102.940551223451
 20
50.7999999873
 10
95.67332684986096
 20
46.60194658597863
 10
95.67332684986096
 20
46.60194658597863
 10
95.67332684986096
 20
46.60194658597863
 10
95.67332684986096
 20
39.22889318545103
 10
95.67332684986096
 20
39.22889318545103
 10
95.67332684986096
 20
39.22889318545103
 10
92.70999567045315
 20
37.50028422795675
 10
92.70999567045315
 20
37.50028422795675
 10
92.70999567045315
 20
37.50028422795675
 10
89.74666449104532
 20
39.26416235048127
 10
89.74666449104532
 20
39.26416235048127
 97
        0
 97
        1
330
B5
 92
        1
 93
        1
 72
     4
 94
        3
 73
     0
 74
     0
 95
       17
 96
       13
 40
0.0
 40
0.0
 40
0.0
 40
0.0
 40
1.0
 40
1.0
 40
1.0
 40
2.0
 40
2.0
 40
2.0
 40
3.0
 40
3.0
 40
3.0
 40
4.0
 40
4.0
 40
4.0
 40
4.0
 10
82.47944550041692
 20
49.00083116789844
 10
82.47944550041692
 20
49.00083116789844
 10
88.1591698744039
 20
45.72000214175468
 10
88.1591698744039
 20
45.72000214175468
 10
88.1591698744039
 20
45.72000214175468
 10
88.1591698744039
 20
40.18138672565886
 10
88.1591698744039
 20
40.18138672565886
 10
88.1591698744039
 20
40.18138672565886
 10
82.47944550041692
 20
43.46221575180263
 10
82.47944550041692
 20
43.46221575180263
 10
82.47944550041692
 20
43.46221575180263
 10
82.47944550041692
 20
49.00083116789844
 10
82.47944550041692
 20
49.00083116789844
 97
        0
 97
        1
330
B6
 92
        1
 93
        1
 72
     4
 94
        3
 73
     0
 74
     0
 95
       17
 96
       13
 40
0.0
 40
0.0
 40
0.0
 40
0.0
 40
1.0
 40
1.0
 40
1.0
 40
2.0
 40
2.0
 40
2.0
 40
3.0
 40
3.0
 40
3.0
 40
4.0
 40
4.0
 40
4.0
 40
4.0
 10
102.164446572088
 20
55.70360894400053
 10
102.164446572088
 20
55.70360894400053
 10
92.71000643637654
 20
50.27083332076562
 10
92.71000643637654
 20
50.27083332076562
 10
92.71000643637654
 20
50.27083332076562
 10
83.25555553474167
 20
55.70360894400053
 10
83.25555553474167
 20
55.70360894400053
 10
83.25555553474167
 20
55.70360894400053
 10
92.70999567045315
 20
61.13638456723544
 10
92.70999567045315
 20
61.13638456723544
 10
92.70999567045315
 20
61.13638456723544
 10
102.164446572088
 20
55.70360894400053
 10
102.164446572088
 20
55.70360894400053
 97
        0
 97
        1
330
B7
 92
        1
 93
        1
 72
     4
 94
        3
 73
     0
 74
     0
 95
       23
 96
       19
 40
0.0
 40
0.0
 40
0.0
 40
0.0
 40
1.0
 40
1.0
 40
1.0
 40
2.0
 40
2.0
 40
2.0
 40
3.0
 40
3.0
 40
3.0
 40
4.0
 40
4.0
 40
4.0
 40
5.0
 40
5.0
 40
5.0
 40
6.0
 40
6.0
 40
6.0
 40
6.0
 10
92.70999567045315
 20
62.97083331759062
 10
92.70999567045315
 20
62.97083331759062
 10
80.92722004880574
 20
56.16222651455102
 10
80.92722004880574
 20
56.16222651455102
 10
80.92722004880574
 20
56.16222651455102
 10
80.92722004880574
 20
42.54500214254843
 10
80.92722004880574
 20
42.54500214254843
 10
80.92722004880574
 20
42.54500214254843
 10
92.70999567045315
 20
35.73639533950883
 10
92.70999567045315
 20
35.73639533950883
 10
92.70999567045315
 20
35.73639533950883
 10
104.4927712921005
 20
42.54500214254843
 10
104.4927712921005
 20
42.54500214254843
 10
104.4927712921005
 20
42.54500214254843
 10
104.4927712921005
 20
56.16222651455102
 10
104.4927712921005
 20
56.16222651455102
 10
104.4927712921005
 20
56.16222651455102
 10
92.70999567045315
 20
62.97083331759062
 10
92.70999567045315
 20
62.97083331759062
 97
        0
 97
        1
330
B8
 75
     2
 76
     1
 98
        1
 10
0.0
 20
0.0
450
        0
451
        0
460
0.0
461
0.0
452
        0
462
0.0
453
        0
470

  0
SPLINE
  5
BA
330
70
100
AcDbEntity
  8
Layer 1
100
AcDbSpline
210
0.0
220
0.0
230
1.0
 70
    11
 71
     3
 72
    17
 73
    13
 74
     0
 42
0.0000000001
 43
0.0000000001
 40
0.0
 40
0.0
 40
0.0
 40
0.0
 40
1.0
 40
1.0
 40
1.0
 40
2.0
 40
2.0
 40
2.0
 40
3.0
 40
3.0
 40
3.0
 40
4.0
 40
4.0
 40
4.0
 40
4.0
 10
135.9605533683807
 20
48.01305769673697
 30
0.0
 10
135.9605533683807
 20
48.01305769673697
 30
0.0
 10
135.9605533683807
 20
53.55167311283278
 30
0.0
 10
135.9605533683807
 20
53.55167311283278
 30
0.0
 10
135.9605533683807
 20
53.55167311283278
 30
0.0
 10
141.6402777423677
 20
56.83250213897656
 30
0.0
 10
141.6402777423677
 20
56.83250213897656
 30
0.0
 10
141.6402777423677
 20
56.83250213897656
 30
0.0
 10
141.6402777423677
 20
51.29388672288074
 30
0.0
 10
141.6402777423677
 20
51.29388672288074
 30
0.0
 10
141.6402777423677
 20
51.29388672288074
 30
0.0
 10
135.9605533683807
 20
48.01305769673697
 30
0.0
 10
135.9605533683807
 20
48.01305769673697
 30
0.0
  0
SPLINE
  5
BB
330
70
100
AcDbEntity
  8
Layer 1
100
AcDbSpline
210
0.0
220
0.0
230
1.0
 70
    11
 71
     3
 72
    35
 73
    31
 74
     0
 42
0.0000000001
 43
0.0000000001
 40
0.0
 40
0.0
 40
0.0
 40
0.0
 40
1.0
 40
1.0
 40
1.0
 40
2.0
 40
2.0
 40
2.0
 40
3.0
 40
3.0
 40
3.0
 40
4.0
 40
4.0
 40
4.0
 40
5.0
 40
5.0
 40
5.0
 40
6.0
 40
6.0
 40
6.0
 40
7.0
 40
7.0
 40
7.0
 40
8.0
 40
8.0
 40
8.0
 40
9.0
 40
9.0
 40
9.0
 40
10.0
 40
10.0
 40
10.0
 40
10.0
 10
128.446391009962
 20
47.09583332155937
 30
0.0
 10
128.446391009962
 20
47.09583332155937
 30
0.0
 10
128.446391009962
 20
54.46888672208699
 30
0.0
 10
128.446391009962
 20
54.46888672208699
 30
0.0
 10
128.446391009962
 20
54.46888672208699
 30
0.0
 10
121.1791666363718
 20
58.66694012340835
 30
0.0
 10
121.1791666363718
 20
58.66694012340835
 30
0.0
 10
121.1791666363718
 20
58.66694012340835
 30
0.0
 10
121.1791666363718
 20
62.19471790030419
 30
0.0
 10
121.1791666363718
 20
62.19471790030419
 30
0.0
 10
121.1791666363718
 20
62.19471790030419
 30
0.0
 10
131.4097221893698
 20
56.30332470651879
 30
0.0
 10
131.4097221893698
 20
56.30332470651879
 30
0.0
 10
131.4097221893698
 20
56.30332470651879
 30
0.0
 10
141.6402777423677
 20
62.19471790030419
 30
0.0
 10
141.6402777423677
 20
62.19471790030419
 30
0.0
 10
141.6402777423677
 20
62.19471790030419
 30
0.0
 10
141.6402777423677
 20
58.66694012340835
 30
0.0
 10
141.6402777423677
 20
58.66694012340835
 30
0.0
 10
141.6402777423677
 20
58.66694012340835
 30
0.0
 10
134.4083332997312
 20
54.46888672208699
 30
0.0
 10
134.4083332997312
 20
54.46888672208699
 30
0.0
 10
134.4083332997312
 20
54.46888672208699
 30
0.0
 10
134.4083332997312
 20
47.09583332155937
 30
0.0
 10
134.4083332997312
 20
47.09583332155937
 30
0.0
 10
134.4083332997312
 20
47.09583332155937
 30
0.0
 10
131.4450021203234
 20
45.36722436406509
 30
0.0
 10
131.4450021203234
 20
45.36722436406509
 30
0.0
 10
131.4450021203234
 20
45.36722436406509
 30
0.0
 10
128.446391009962
 20
47.09583332155937
 30
0.0
 10
128.446391009962
 20
47.09583332155937
 30
0.0
  0
SPLINE
  5
BC
330
70
100
AcDbEntity
  8
Layer 1
100
AcDbSpline
210
0.0
220
0.0
230
1.0
 70
    11
 71
     3
 72
    17
 73
    13
 74
     0
 42
0.0000000001
 43
0.0000000001
 40
0.0
 40
0.0
 40
0.0
 40
0.0
 40
1.0
 40
1.0
 40
1.0
 40
2.0
 40
2.0
 40
2.0
 40
3.0
 40
3.0
 40
3.0
 40
4.0
 40
4.0
 40
4.0
 40
4.0
 10
121.1791666363718
 20
56.83250213897656
 30
0.0
 10
121.1791666363718
 20
56.83250213897656
 30
0.0
 10
126.8588910103588
 20
53.55167311283278
 30
0.0
 10
126.8588910103588
 20
53.55167311283278
 30
0.0
 10
126.8588910103588
 20
53.55167311283278
 30
0.0
 10
126.8588910103588
 20
48.01305769673697
 30
0.0
 10
126.8588910103588
 20
48.01305769673697
 30
0.0
 10
126.8588910103588
 20
48.01305769673697
 30
0.0
 10
121.1791666363718
 20
51.29388672288074
 30
0.0
 10
121.1791666363718
 20
51.29388672288074
 30
0.0
 10
121.1791666363718
 20
51.29388672288074
 30
0.0
 10
121.1791666363718
 20
56.83250213897656
 30
0.0
 10
121.1791666363718
 20
56.83250213897656
 30
0.0
  0
SPLINE
  5
BD
330
70
100
AcDbEntity
  8
Layer 1
100
AcDbSpline
210
0.0
220
0.0
230
1.0
 70
    11
 71
     3
 72
    17
 73
    13
 74
     0
 42
0.0000000001
 43
0.0000000001
 40
0.0
 40
0.0
 40
0.0
 40
0.0
 40
1.0
 40
1.0
 40
1.0
 40
2.0
 40
2.0
 40
2.0
 40
3.0
 40
3.0
 40
3.0
 40
4.0
 40
4.0
 40
4.0
 40
4.0
 10
140.8641623250812
 20
63.53527991507863
 30
0.0
 10
140.8641623250812
 20
63.53527991507863
 30
0.0
 10
131.4097221893698
 20
58.10250429184374
 30
0.0
 10
131.4097221893698
 20
58.10250429184374
 30
0.0
 10
131.4097221893698
 20
58.10250429184374
 30
0.0
 10
121.9552820536583
 20
63.53527991507863
 30
0.0
 10
121.9552820536583
 20
63.53527991507863
 30
0.0
 10
121.9552820536583
 20
63.53527991507863
 30
0.0
 10
131.4097221893698
 20
68.96805553831355
 30
0.0
 10
131.4097221893698
 20
68.96805553831355
 30
0.0
 10
131.4097221893698
 20
68.96805553831355
 30
0.0
 10
140.8641623250812
 20
63.53527991507863
 30
0.0
 10
140.8641623250812
 20
63.53527991507863
 30
0.0
  0
SPLINE
  5
BE
330
70
100
AcDbEntity
  8
Layer 1
100
AcDbSpline
210
0.0
220
0.0
230
1.0
 70
    11
 71
     3
 72
    23
 73
    19
 74
     0
 42
0.0000000001
 43
0.0000000001
 40
0.0
 40
0.0
 40
0.0
 40
0.0
 40
1.0
 40
1.0
 40
1.0
 40
2.0
 40
2.0
 40
2.0
 40
3.0
 40
3.0
 40
3.0
 40
4.0
 40
4.0
 40
4.0
 40
5.0
 40
5.0
 40
5.0
 40
6.0
 40
6.0
 40
6.0
 40
6.0
 10
131.4097221893698
 20
70.80250428866873
 30
0.0
 10
131.4097221893698
 20
70.80250428866873
 30
0.0
 10
119.6269465677224
 20
63.99389748562914
 30
0.0
 10
119.6269465677224
 20
63.99389748562914
 30
0.0
 10
119.6269465677224
 20
63.99389748562914
 30
0.0
 10
119.6269465677224
 20
50.37667311362653
 30
0.0
 10
119.6269465677224
 20
50.37667311362653
 30
0.0
 10
119.6269465677224
 20
50.37667311362653
 30
0.0
 10
131.4097221893698
 20
43.56806631058693
 30
0.0
 10
131.4097221893698
 20
43.56806631058693
 30
0.0
 10
131.4097221893698
 20
43.56806631058693
 30
0.0
 10
143.1924978110172
 20
50.37667311362653
 30
0.0
 10
143.1924978110172
 20
50.37667311362653
 30
0.0
 10
143.1924978110172
 20
50.37667311362653
 30
0.0
 10
143.1924978110172
 20
63.99389748562914
 30
0.0
 10
143.1924978110172
 20
63.99389748562914
 30
0.0
 10
143.1924978110172
 20
63.99389748562914
 30
0.0
 10
131.4097221893698
 20
70.80250428866873
 30
0.0
 10
131.4097221893698
 20
70.80250428866873
 30
0.0
  0
HATCH
  5
BF
330
70
100
AcDbEntity
  8
Layer 1
 62
   250
420
  2301728
440
 33554687
100
AcDbHatch
 10
0.0
 20
0.0
 30
0.0
210
0.0
220
0.0
230
1.0
  2
SOLID
 70
     1
 71
     1
 91
        5
 92
        1
 93
        1
 72
     4
 94
        3
 73
     0
 74
     0
 95
       17
 96
       13
 40
0.0
 40
0.0
 40
0.0
 40
0.0
 40
1.0
 40
1.0
 40
1.0
 40
2.0
 40
2.0
 40
2.0
 40
3.0
 40
3.0
 40
3.0
 40
4.0
 40
4.0
 40
4.0
 40
4.0
 10
135.9605533683807
 20
48.01305769673697
 10
135.9605533683807
 20
48.01305769673697
 10
135.9605533683807
 20
53.55167311283278
 10
135.9605533683807
 20
53.55167311283278
 10
135.9605533683807
 20
53.55167311283278
 10
141.6402777423677
 20
56.83250213897656
 10
141.6402777423677
 20
56.83250213897656
 10
141.6402777423677
 20
56.83250213897656
 10
141.6402777423677
 20
51.29388672288074
 10
141.6402777423677
 20
51.29388672288074
 10
141.6402777423677
 20
51.29388672288074
 10
135.9605533683807
 20
48.01305769673697
 10
135.9605533683807
 20
48.01305769673697
 97
        0
 97
        1
330
BA
 92
        1
 93
        1
 72
     4
 94
        3
 73
     0
 74
     0
 95
       35
 96
       31
 40
0.0
 40
0.0
 40
0.0
 40
0.0
 40
1.0
 40
1.0
 40
1.0
 40
2.0
 40
2.0
 40
2.0
 40
3.0
 40
3.0
 40
3.0
 40
4.0
 40
4.0
 40
4.0
 40
5.0
 40
5.0
 40
5.0
 40
6.0
 40
6.0
 40
6.0
 40
7.0
 40
7.0
 40
7.0
 40
8.0
 40
8.0
 40
8.0
 40
9.0
 40
9.0
 40
9.0
 40
10.0
 40
10.0
 40
10.0
 40
10.0
 10
128.446391009962
 20
47.09583332155937
 10
128.446391009962
 20
47.09583332155937
 10
128.446391009962
 20
54.46888672208699
 10
128.446391009962
 20
54.46888672208699
 10
128.446391009962
 20
54.46888672208699
 10
121.1791666363718
 20
58.66694012340835
 10
121.1791666363718
 20
58.66694012340835
 10
121.1791666363718
 20
58.66694012340835
 10
121.1791666363718
 20
62.19471790030419
 10
121.1791666363718
 20
62.19471790030419
 10
121.1791666363718
 20
62.19471790030419
 10
131.4097221893698
 20
56.30332470651879
 10
131.4097221893698
 20
56.30332470651879
 10
131.4097221893698
 20
56.30332470651879
 10
141.6402777423677
 20
62.19471790030419
 10
141.6402777423677
 20
62.19471790030419
 10
141.6402777423677
 20
62.19471790030419
 10
141.6402777423677
 20
58.66694012340835
 10
141.6402777423677
 20
58.66694012340835
 10
141.6402777423677
 20
58.66694012340835
 10
134.4083332997312
 20
54.46888672208699
 10
134.4083332997312
 20
54.46888672208699
 10
134.4083332997312
 20
54.46888672208699
 10
134.4083332997312
 20
47.09583332155937
 10
134.4083332997312
 20
47.09583332155937
 10
134.4083332997312
 20
47.09583332155937
 10
131.4450021203234
 20
45.36722436406509
 10
131.4450021203234
 20
45.36722436406509
 10
131.4450021203234
 20
45.36722436406509
 10
128.446391009962
 20
47.09583332155937
 10
128.446391009962
 20
47.09583332155937
 97
        0
 97
        1
330
BB
 92
        1
 93
        1
 72
     4
 94
        3
 73
     0
 74
     0
 95
       17
 96
       13
 40
0.0
 40
0.0
 40
0.0
 40
0.0
 40
1.0
 40
1.0
 40
1.0
 40
2.0
 40
2.0
 40
2.0
 40
3.0
 40
3.0
 40
3.0
 40
4.0
 40
4.0
 40
4.0
 40
4.0
 10
121.1791666363718
 20
56.83250213897656
 10
121.1791666363718
 20
56.83250213897656
 10
126.8588910103588
 20
53.55167311283278
 10
126.8588910103588
 20
53.55167311283278
 10
126.8588910103588
 20
53.55167311283278
 10
126.8588910103588
 20
48.01305769673697
 10
126.8588910103588
 20
48.01305769673697
 10
126.8588910103588
 20
48.01305769673697
 10
121.1791666363718
 20
51.29388672288074
 10
121.1791666363718
 20
51.29388672288074
 10
121.1791666363718
 20
51.29388672288074
 10
121.1791666363718
 20
56.83250213897656
 10
121.1791666363718
 20
56.83250213897656
 97
        0
 97
        1
330
BC
 92
        1
 93
        1
 72
     4
 94
        3
 73
     0
 74
     0
 95
       17
 96
       13
 40
0.0
 40
0.0
 40
0.0
 40
0.0
 40
1.0
 40
1.0
 40
1.0
 40
2.0
 40
2.0
 40
2.0
 40
3.0
 40
3.0
 40
3.0
 40
4.0
 40
4.0
 40
4.0
 40
4.0
 10
140.8641623250812
 20
63.53527991507863
 10
140.8641623250812
 20
63.53527991507863
 10
131.4097221893698
 20
58.10250429184374
 10
131.4097221893698
 20
58.10250429184374
 10
131.4097221893698
 20
58.10250429184374
 10
121.9552820536583
 20
63.53527991507863
 10
121.9552820536583
 20
63.53527991507863
 10
121.9552820536583
 20
63.53527991507863
 10
131.4097221893698
 20
68.96805553831355
 10
131.4097221893698
 20
68.96805553831355
 10
131.4097221893698
 20
68.96805553831355
 10
140.8641623250812
 20
63.53527991507863
 10
140.8641623250812
 20
63.53527991507863
 97
        0
 97
        1
330
BD
 92
        1
 93
        1
 72
     4
 94
        3
 73
     0
 74
     0
 95
       23
 96
       19
 40
0.0
 40
0.0
 40
0.0
 40
0.0
 40
1.0
 40
1.0
 40
1.0
 40
2.0
 40
2.0
 40
2.0
 40
3.0
 40
3.0
 40
3.0
 40
4.0
 40
4.0
 40
4.0
 40
5.0
 40
5.0
 40
5.0
 40
6.0
 40
6.0
 40
6.0
 40
6.0
 10
131.4097221893698
 20
70.80250428866873
 10
131.4097221893698
 20
70.80250428866873
 10
119.6269465677224
 20
63.99389748562914
 10
119.6269465677224
 20
63.99389748562914
 10
119.6269465677224
 20
63.99389748562914
 10
119.6269465677224
 20
50.37667311362653
 10
119.6269465677224
 20
50.37667311362653
 10
119.6269465677224
 20
50.37667311362653
 10
131.4097221893698
 20
43.56806631058693
 10
131.4097221893698
 20
43.56806631058693
 10
131.4097221893698
 20
43.56806631058693
 10
143.1924978110172
 20
50.37667311362653
 10
143.1924978110172
 20
50.37667311362653
 10
143.1924978110172
 20
50.37667311362653
 10
143.1924978110172
 20
63.99389748562914
 10
143.1924978110172
 20
63.99389748562914
 10
143.1924978110172
 20
63.99389748562914
 10
131.4097221893698
 20
70.80250428866873
 10
131.4097221893698
 20
70.80250428866873
 97
        0
 97
        1
330
BE
 75
     2
 76
     1
 98
        1
 10
0.0
 20
0.0
450
        0
451
        0
460
0.0
461
0.0
452
        0
462
0.0
453
        0
470

  0
ENDSEC
  0
SECTION
  2
OBJECTS
  0
DICTIONARY
  5
C
330
0
100
AcDbDictionary
281
     1
  3
ACAD_COLOR
350
63
  3
ACAD_DETAILVIEWSTYLE
350
6A
  3
ACAD_GROUP
350
D
  3
ACAD_LAYOUT
350
62
  3
ACAD_MATERIAL
350
10
  3
ACAD_MLEADERSTYLE
350
66
  3
ACAD_MLINESTYLE
350
5F
  3
ACAD_PLOTSETTINGS
350
61
  3
ACAD_PLOTSTYLENAME
350
E
  3
ACAD_SCALELIST
350
42
  3
ACAD_SECTIONVIEWSTYLE
350
68
  3
ACAD_TABLESTYLE
350
64
  3
ACAD_VISUALSTYLE
350
29
  3
ACDB_RECOMPOSE_DATA
350
C8
  3
AcDbVariableDictionary
350
C0
  0
DICTIONARY
  5
63
102
{ACAD_REACTORS
330
C
102
}
330
C
100
AcDbDictionary
281
     1
  0
DICTIONARY
  5
6A
102
{ACAD_REACTORS
330
C
102
}
330
C
100
AcDbDictionary
281
     1
  3
Imperial24
350
6B
  0
DICTIONARY
  5
D
102
{ACAD_REACTORS
330
C
102
}
330
C
100
AcDbDictionary
281
     1
  0
DICTIONARY
  5
62
102
{ACAD_REACTORS
330
C
102
}
330
C
100
AcDbDictionary
281
     1
  3
Layout1
350
6F
  3
Layout2
350
77
  3
Model
350
73
  0
DICTIONARY
  5
10
102
{ACAD_REACTORS
330
C
102
}
330
C
100
AcDbDictionary
281
     1
  3
ByBlock
350
19
  3
ByLayer
350
11
  3
Global
350
21
  0
DICTIONARY
  5
66
102
{ACAD_REACTORS
330
C
102
}
330
C
100
AcDbDictionary
281
     1
  3
Standard
350
67
  0
DICTIONARY
  5
5F
102
{ACAD_REACTORS
330
C
102
}
330
C
100
AcDbDictionary
281
     1
  3
Standard
350
60
  0
DICTIONARY
  5
61
102
{ACAD_REACTORS
330
C
102
}
330
C
100
AcDbDictionary
281
     1
  0
ACDBDICTIONARYWDFLT
  5
E
102
{ACAD_REACTORS
330
C
102
}
330
C
100
AcDbDictionary
281
     1
  3
Normal
350
F
100
AcDbDictionaryWithDefault
340
F
  0
DICTIONARY
  5
42
102
{ACAD_REACTORS
330
C
102
}
330
C
100
AcDbDictionary
281
     1
  3
A0
350
43
  3
A1
350
44
  3
A2
350
45
  3
A3
350
46
  3
A4
350
47
  3
A5
350
48
  3
A6
350
49
  3
A7
350
4A
  3
A8
350
4B
  3
A9
350
4C
  3
B0
350
4D
  3
B1
350
4E
  3
B2
350
4F
  3
B3
350
50
  3
B4
350
51
  3
B5
350
52
  3
B6
350
53
  0
DICTIONARY
  5
68
102
{ACAD_REACTORS
330
C
102
}
330
C
100
AcDbDictionary
281
     1
  3
Imperial24
350
69
  0
DICTIONARY
  5
64
102
{ACAD_REACTORS
330
C
102
}
330
C
100
AcDbDictionary
281
     1
  3
Standard
350
65
  0
DICTIONARY
  5
29
102
{ACAD_REACTORS
330
C
102
}
330
C
100
AcDbDictionary
281
     1
  3
2dWireframe
350
2F
  3
Basic
350
2E
  3
Brighten
350
35
  3
ColorChange
350
39
  3
Conceptual
350
32
  3
Dim
350
34
  3
EdgeColorOff
350
41
  3
Facepattern
350
38
  3
Flat
350
2A
  3
FlatWithEdges
350
2B
  3
Gouraud
350
2C
  3
GouraudWithEdges
350
2D
  3
Hidden
350
31
  3
JitterOff
350
3F
  3
Linepattern
350
37
  3
OverhangOff
350
40
  3
Realistic
350
33
  3
Shaded
350
3E
  3
Shaded with edges
350
3D
  3
Shades of Gray
350
3A
  3
Sketchy
350
3B
  3
Thicken
350
36
  3
Wireframe
350
30
  3
X-Ray
350
3C
  0
XRECORD
  5
C8
102
{ACAD_REACTORS
330
C
102
}
330
C
100
AcDbXrecord
280
     1
 90
        1
330
65
  0
DICTIONARY
  5
C0
102
{ACAD_REACTORS
330
C
102
}
330
C
100
AcDbDictionary
281
     1
  3
CANNOSCALE
350
C5
  3
CMLEADERSTYLE
350
C2
  3
CTABLESTYLE
350
C1
  3
CVIEWDETAILSTYLE
350
C3
  3
CVIEWSECTIONSTYLE
350
C4
  0
ACDBDETAILVIEWSTYLE
  5
6B
102
{ACAD_REACTORS
330
6A
102
}
330
6A
100
AcDbModelDocViewStyle
 70
     0
  3
Imperial24
290
     1
300
Imperial24
 90
        0
100
AcDbDetailViewStyle
 70
     0
 71
     0
 90
        3
 71
     1
340
55
 62
   256
 40
0.24
340
0
 62
   256
 40
0.24
300

 40
0.36
280
     3
 71
     2
340
5D
 90
       25
 62
   256
 71
     3
340
55
 62
   256
 40
0.24
 90
        1
 40
0.75
 90
        1
300
%<\AcVar ViewType \f "%tc1">% %<\AcVar ViewDetailId>%\PSCALE %<\AcVar ViewScale \f "%sn">%
 71
     4
340
5D
 90
       25
 62
   256
340
5D
 90
       25
 62
   256
280
     0
  0
LAYOUT
  5
6F
102
{ACAD_REACTORS
330
62
102
}
330
62
100
AcDbPlotSettings
  1

  2

  4

  6

 40
0.0
 41
0.0
 42
0.0
 43
0.0
 44
0.0
 45
0.0
 46
0.0
 47
0.0
 48
0.0
 49
0.0
140
0.0
141
0.0
142
1.0
143
1.0
 70
   688
 72
     0
 73
     0
 74
     5
  7

 75
    16
147
1.0
 76
     0
 77
     2
 78
   300
148
0.0
149
0.0
100
AcDbLayout
  1
Layout1
 70
     1
 71
     1
 10
0.0
 20
0.0
 11
12.0
 21
9.0
 12
0.0
 22
0.0
 32
0.0
 14
0.0
 24
0.0
 34
0.0
 15
0.0
 25
0.0
 35
0.0
146
0.0
 13
0.0
 23
0.0
 33
0.0
 16
1.0
 26
0.0
 36
0.0
 17
0.0
 27
1.0
 37
0.0
 76
     0
330
6C
  0
LAYOUT
  5
77
102
{ACAD_REACTORS
330
62
102
}
330
62
100
AcDbPlotSettings
  1

  2

  4

  6

 40
0.0
 41
0.0
 42
0.0
 43
0.0
 44
0.0
 45
0.0
 46
0.0
 47
0.0
 48
0.0
 49
0.0
140
0.0
141
0.0
142
1.0
143
1.0
 70
   688
 72
     0
 73
     0
 74
     5
  7

 75
    16
147
1.0
 76
     0
 77
     2
 78
   300
148
0.0
149
0.0
100
AcDbLayout
  1
Layout2
 70
     1
 71
     2
 10
0.0
 20
0.0
 11
12.0
 21
9.0
 12
0.0
 22
0.0
 32
0.0
 14
0.0
 24
0.0
 34
0.0
 15
0.0
 25
0.0
 35
0.0
146
0.0
 13
0.0
 23
0.0
 33
0.0
 16
1.0
 26
0.0
 36
0.0
 17
0.0
 27
1.0
 37
0.0
 76
     0
330
74
  0
LAYOUT
  5
73
102
{ACAD_REACTORS
330
62
102
}
330
62
100
AcDbPlotSettings
  1

  2

  4

  6

 40
0.0
 41
0.0
 42
0.0
 43
0.0
 44
0.0
 45
0.0
 46
0.0
 47
0.0
 48
0.0
 49
0.0
140
0.0
141
0.0
142
1.0
143
1.0
 70
  1712
 72
     0
 73
     0
 74
     0
  7

 75
     0
147
1.0
 76
     0
 77
     2
 78
   300
148
0.0
149
0.0
100
AcDbLayout
  1
Model
 70
     1
 71
     0
 10
0.0
 20
0.0
 11
12.0
 21
9.0
 12
0.0
 22
0.0
 32
0.0
 14
0.0
 24
0.0
 34
0.0
 15
0.0
 25
0.0
 35
0.0
146
0.0
 13
0.0
 23
0.0
 33
0.0
 16
1.0
 26
0.0
 36
0.0
 17
0.0
 27
1.0
 37
0.0
 76
     0
330
70
  0
MATERIAL
  5
19
102
{ACAD_XDICTIONARY
360
1A
102
}
102
{ACAD_REACTORS
330
10
102
}
330
10
100
AcDbMaterial
  1
ByBlock
 72
     0
 43
0.0208333333333333
 43
0.0
 43
0.0
 43
0.0
 43
0.0
 43
0.0208333333333333
 43
0.0
 43
0.0
 43
0.0
 43
0.0
 43
1.0
 43
0.0
 43
0.0
 43
0.0
 43
0.0
 43
1.0
 77
     0
 47
0.0208333333333333
 47
0.0
 47
0.0
 47
0.0
 47
0.0
 47
0.0208333333333333
 47
0.0
 47
0.0
 47
0.0
 47
0.0
 47
1.0
 47
0.0
 47
0.0
 47
0.0
 47
0.0
 47
1.0
171
     0
 49
0.0208333333333333
 49
0.0
 49
0.0
 49
0.0
 49
0.0
 49
0.0208333333333333
 49
0.0
 49
0.0
 49
0.0
 49
0.0
 49
1.0
 49
0.0
 49
0.0
 49
0.0
 49
0.0
 49
1.0
175
     0
142
0.0208333333333333
142
0.0
142
0.0
142
0.0
142
0.0
142
0.0208333333333333
142
0.0
142
0.0
142
0.0
142
0.0
142
1.0
142
0.0
142
0.0
142
0.0
142
0.0
142
1.0
179
     0
144
0.0208333333333333
144
0.0
144
0.0
144
0.0
144
0.0
144
0.0208333333333333
144
0.0
144
0.0
144
0.0
144
0.0
144
1.0
144
0.0
144
0.0
144
0.0
144
0.0
144
1.0
147
0.0208333333333333
147
0.0
147
0.0
147
0.0
147
0.0
147
0.0208333333333333
147
0.0
147
0.0
147
0.0
147
0.0
147
1.0
147
0.0
147
0.0
147
0.0
147
0.0
147
1.0
  0
MATERIAL
  5
11
102
{ACAD_XDICTIONARY
360
12
102
}
102
{ACAD_REACTORS
330
10
102
}
330
10
100
AcDbMaterial
  1
ByLayer
 72
     0
 43
0.0208333333333333
 43
0.0
 43
0.0
 43
0.0
 43
0.0
 43
0.0208333333333333
 43
0.0
 43
0.0
 43
0.0
 43
0.0
 43
1.0
 43
0.0
 43
0.0
 43
0.0
 43
0.0
 43
1.0
 77
     0
 47
0.0208333333333333
 47
0.0
 47
0.0
 47
0.0
 47
0.0
 47
0.0208333333333333
 47
0.0
 47
0.0
 47
0.0
 47
0.0
 47
1.0
 47
0.0
 47
0.0
 47
0.0
 47
0.0
 47
1.0
171
     0
 49
0.0208333333333333
 49
0.0
 49
0.0
 49
0.0
 49
0.0
 49
0.0208333333333333
 49
0.0
 49
0.0
 49
0.0
 49
0.0
 49
1.0
 49
0.0
 49
0.0
 49
0.0
 49
0.0
 49
1.0
175
     0
142
0.0208333333333333
142
0.0
142
0.0
142
0.0
142
0.0
142
0.0208333333333333
142
0.0
142
0.0
142
0.0
142
0.0
142
1.0
142
0.0
142
0.0
142
0.0
142
0.0
142
1.0
179
     0
144
0.0208333333333333
144
0.0
144
0.0
144
0.0
144
0.0
144
0.0208333333333333
144
0.0
144
0.0
144
0.0
144
0.0
144
1.0
144
0.0
144
0.0
144
0.0
144
0.0
144
1.0
147
0.0208333333333333
147
0.0
147
0.0
147
0.0
147
0.0
147
0.0208333333333333
147
0.0
147
0.0
147
0.0
147
0.0
147
1.0
147
0.0
147
0.0
147
0.0
147
0.0
147
1.0
  0
MATERIAL
  5
21
102
{ACAD_XDICTIONARY
360
22
102
}
102
{ACAD_REACTORS
330
10
102
}
330
10
100
AcDbMaterial
  1
Global
 72
     0
 43
0.0208333333333333
 43
0.0
 43
0.0
 43
0.0
 43
0.0
 43
0.0208333333333333
 43
0.0
 43
0.0
 43
0.0
 43
0.0
 43
1.0
 43
0.0
 43
0.0
 43
0.0
 43
0.0
 43
1.0
 77
     0
 47
0.0208333333333333
 47
0.0
 47
0.0
 47
0.0
 47
0.0
 47
0.0208333333333333
 47
0.0
 47
0.0
 47
0.0
 47
0.0
 47
1.0
 47
0.0
 47
0.0
 47
0.0
 47
0.0
 47
1.0
171
     0
 49
0.0208333333333333
 49
0.0
 49
0.0
 49
0.0
 49
0.0
 49
0.0208333333333333
 49
0.0
 49
0.0
 49
0.0
 49
0.0
 49
1.0
 49
0.0
 49
0.0
 49
0.0
 49
0.0
 49
1.0
175
     0
142
0.0208333333333333
142
0.0
142
0.0
142
0.0
142
0.0
142
0.0208333333333333
142
0.0
142
0.0
142
0.0
142
0.0
142
1.0
142
0.0
142
0.0
142
0.0
142
0.0
142
1.0
179
     0
144
0.0208333333333333
144
0.0
144
0.0
144
0.0
144
0.0
144
0.0208333333333333
144
0.0
144
0.0
144
0.0
144
0.0
144
1.0
144
0.0
144
0.0
144
0.0
144
0.0
144
1.0
147
0.0208333333333333
147
0.0
147
0.0
147
0.0
147
0.0
147
0.0208333333333333
147
0.0
147
0.0
147
0.0
147
0.0
147
1.0
147
0.0
147
0.0
147
0.0
147
0.0
147
1.0
  0
MLEADERSTYLE
  5
67
102
{ACAD_REACTORS
330
66
102
}
330
66
100
AcDbMLeaderStyle
179
     2
170
     2
171
     1
172
     0
 90
        2
 40
0.0
 41
0.0
173
     1
 91
-1056964608
340
5B
 92
       -2
290
     1
 42
0.09
291
     1
 43
0.36
  3
Standard
 44
0.18
300

342
55
174
     1
178
     6
175
     1
176
     0
 93
-1056964608
 45
0.18
292
     0
297
     0
 46
0.18
 94
-1056964608
 47
1.0
 49
1.0
140
1.0
293
     1
141
0.0
294
     1
177
     0
142
1.0
295
     1
296
     0
143
0.125
271
     0
272
     9
273
     9
298
     1
  0
MLINESTYLE
  5
60
102
{ACAD_REACTORS
330
5F
102
}
330
5F
100
AcDbMlineStyle
  2
STANDARD
 70
     0
  3

 62
   256
 51
90.0
 52
90.0
 71
     2
 49
0.5
 62
   256
  6
BYLAYER
 49
-0.5
 62
   256
  6
BYLAYER
  0
ACDBPLACEHOLDER
  5
F
102
{ACAD_REACTORS
330
E
102
}
330
E
  0
SCALE
  5
43
102
{ACAD_REACTORS
330
42
102
}
330
42
100
AcDbScale
 70
     0
300
1:1
140
1.0
141
1.0
290
     1
  0
SCALE
  5
44
102
{ACAD_REACTORS
330
42
102
}
330
42
100
AcDbScale
 70
     0
300
1/128" = 1'-0"
140
0.0078125
141
12.0
290
     0
  0
SCALE
  5
45
102
{ACAD_REACTORS
330
42
102
}
330
42
100
AcDbScale
 70
     0
300
1/64" = 1'-0"
140
0.015625
141
12.0
290
     0
  0
SCALE
  5
46
102
{ACAD_REACTORS
330
42
102
}
330
42
100
AcDbScale
 70
     0
300
1/32" = 1'-0"
140
0.03125
141
12.0
290
     0
  0
SCALE
  5
47
102
{ACAD_REACTORS
330
42
102
}
330
42
100
AcDbScale
 70
     0
300
1/16" = 1'-0"
140
0.0625
141
12.0
290
     0
  0
SCALE
  5
48
102
{ACAD_REACTORS
330
42
102
}
330
42
100
AcDbScale
 70
     0
300
3/32" = 1'-0"
140
0.09375
141
12.0
290
     0
  0
SCALE
  5
49
102
{ACAD_REACTORS
330
42
102
}
330
42
100
AcDbScale
 70
     0
300
1/8" = 1'-0"
140
0.125
141
12.0
290
     0
  0
SCALE
  5
4A
102
{ACAD_REACTORS
330
42
102
}
330
42
100
AcDbScale
 70
     0
300
3/16" = 1'-0"
140
0.1875
141
12.0
290
     0
  0
SCALE
  5
4B
102
{ACAD_REACTORS
330
42
102
}
330
42
100
AcDbScale
 70
     0
300
1/4" = 1'-0"
140
0.25
141
12.0
290
     0
  0
SCALE
  5
4C
102
{ACAD_REACTORS
330
42
102
}
330
42
100
AcDbScale
 70
     0
300
3/8" = 1'-0"
140
0.375
141
12.0
290
     0
  0
SCALE
  5
4D
102
{ACAD_REACTORS
330
42
102
}
330
42
100
AcDbScale
 70
     0
300
1/2" = 1'-0"
140
0.5
141
12.0
290
     0
  0
SCALE
  5
4E
102
{ACAD_REACTORS
330
42
102
}
330
42
100
AcDbScale
 70
     0
300
3/4" = 1'-0"
140
0.75
141
12.0
290
     0
  0
SCALE
  5
4F
102
{ACAD_REACTORS
330
42
102
}
330
42
100
AcDbScale
 70
     0
300
1" = 1'-0"
140
1.0
141
12.0
290
     0
  0
SCALE
  5
50
102
{ACAD_REACTORS
330
42
102
}
330
42
100
AcDbScale
 70
     0
300
1-1/2" = 1'-0"
140
1.5
141
12.0
290
     0
  0
SCALE
  5
51
102
{ACAD_REACTORS
330
42
102
}
330
42
100
AcDbScale
 70
     0
300
3" = 1'-0"
140
3.0
141
12.0
290
     0
  0
SCALE
  5
52
102
{ACAD_REACTORS
330
42
102
}
330
42
100
AcDbScale
 70
     0
300
6" = 1'-0"
140
6.0
141
12.0
290
     0
  0
SCALE
  5
53
102
{ACAD_REACTORS
330
42
102
}
330
42
100
AcDbScale
 70
     0
300
1'-0" = 1'-0"
140
12.0
141
12.0
290
     0
  0
ACDBSECTIONVIEWSTYLE
  5
69
102
{ACAD_REACTORS
330
68
102
}
330
68
100
AcDbModelDocViewStyle
 70
     0
  3
Imperial24
290
     1
300
Imperial24
 90
        0
100
AcDbSectionViewStyle
 70
     0
 71
     0
 90
       78
 71
     1
340
55
 62
   256
 40
0.24
340
0
340
0
 62
   256
 40
0.24
300
I, O, Q, S, X, Z
 40
0.48
 90
        3
 40
0.18
 90
        1
 71
     2
340
5D
 90
       25
 62
   256
340
5D
 90
       50
 62
   256
 40
0.24
 40
0.0
 40
0.24
 71
     3
340
55
 62
   256
 40
0.24
 90
        1
 40
0.75
 90
        1
300
%<\AcVar ViewType \f "%tc1">% %<\AcVar ViewSectionStartId>%-%<\AcVar ViewSectionEndId>%\PSCALE %<\AcVar ViewScale \f "%sn">%
 71
     4
 62
   256
 62
   257
300
ANSI31
 40
1.0
 90
        0
290
     0
290
     0
 90
        6
 40
0.0
 40
1.570796326794896
 40
0.2617993877991494
 40
1.308996938995747
 40
-0.2617993877991494
 40
1.832595714594046
  0
TABLESTYLE
  5
65
102
{ACAD_XDICTIONARY
360
C6
102
}
102
{ACAD_REACTORS
330
64
102
}
330
64
100
AcDbTableStyle
280
     0
  3
Standard
 70
     0
 71
     0
 40
0.06
 41
0.06
280
     0
281
     0
  7
Standard
140
0.18
170
     2
 62
     0
 63
     7
283
     0
 90
      512
 91
        0
  1

274
    -2
284
     1
 64
     0
275
    -2
285
     1
 65
     0
276
    -2
286
     1
 66
     0
277
    -2
287
     1
 67
     0
278
    -2
288
     1
 68
     0
279
    -2
289
     1
 69
     0
  7
Standard
140
0.25
170
     5
 62
     0
 63
     7
283
     0
 90
      512
 91
        0
  1

274
    -2
284
     1
 64
     0
275
    -2
285
     1
 65
     0
276
    -2
286
     1
 66
     0
277
    -2
287
     1
 67
     0
278
    -2
288
     1
 68
     0
279
    -2
289
     1
 69
     0
  7
Standard
140
0.18
170
     5
 62
     0
 63
     7
283
     0
 90
      512
 91
        0
  1

274
    -2
284
     1
 64
     0
275
    -2
285
     1
 65
     0
276
    -2
286
     1
 66
     0
277
    -2
287
     1
 67
     0
278
    -2
288
     1
 68
     0
279
    -2
289
     1
 69
     0
  0
VISUALSTYLE
  5
2F
102
{ACAD_REACTORS
330
29
102
}
330
29
100
AcDbVisualStyle
  2
2dWireframe
 70
     4
177
     3
291
     0
 70
    58
 90
        0
176
     1
 90
        2
176
     1
 90
        0
176
     1
 90
        0
176
     1
 40
0.6
176
     1
 40
30.0
176
     1
 62
     7
420
 16777215
176
     1
 90
        1
176
     1
 90
        4
176
     1
 62
     7
176
     1
 62
   257
176
     1
 90
        1
176
     1
 90
        1
176
     1
 40
1.0
176
     1
 90
        0
176
     1
 62
   257
176
     1
 40
1.0
176
     1
 90
        1
176
     1
 90
        6
176
     1
 90
        2
176
     1
 62
     7
176
     1
 90
        5
176
     1
 90
        0
176
     1
 90
        0
176
     1
290
     0
176
     1
 90
        1
176
     1
 40
0.0
176
     1
 90
        0
176
     1
290
     1
176
     1
290
     1
176
     1
290
     0
176
     1
290
     0
176
     1
290
     0
176
     1
290
     0
176
     1
290
     0
176
     1
290
     0
176
     1
290
     0
176
     1
 90
       50
176
     1
 40
0.0
176
     1
 40
1.0
176
     1
 90
        0
176
     1
 62
    18
420
        0
176
     1
 90
       50
176
     1
 90
        3
176
     1
 62
     5
420
      255
176
     1
290
     0
176
     1
 90
       50
176
     1
 90
       50
176
     1
 90
       50
176
     1
290
     0
176
     1
 90
       50
176
     1
 62
   256
176
     0
 40
1.0
176
     0
 90
        2
176
     1
  1
strokes_ogs.tif
176
     1
290
     0
176
     1
 40
1.0
176
     1
 40
1.0
176
     1
  0
VISUALSTYLE
  5
2E
102
{ACAD_REACTORS
330
29
102
}
330
29
100
AcDbVisualStyle
  2
Basic
 70
     7
177
     3
291
     1
 70
    58
 90
        1
176
     1
 90
        0
176
     1
 90
        1
176
     1
 90
        0
176
     1
 40
0.6
176
     1
 40
30.0
176
     1
 62
     7
420
 16777215
176
     1
 90
        0
176
     1
 90
        4
176
     1
 62
     7
176
     1
 62
   257
176
     1
 90
        1
176
     1
 90
        1
176
     1
 40
1.0
176
     1
 90
        8
176
     1
 62
     7
176
     1
 40
1.0
176
     1
 90
        1
176
     1
 90
        6
176
     1
 90
        2
176
     1
 62
     7
176
     1
 90
        5
176
     1
 90
        0
176
     1
 90
        0
176
     1
290
     0
176
     1
 90
        1
176
     1
 40
0.0
176
     1
 90
        0
176
     1
290
     0
176
     1
290
     1
176
     1
290
     1
176
     1
290
     0
176
     1
290
     0
176
     1
290
     0
176
     1
290
     0
176
     1
290
     0
176
     1
290
     0
176
     1
 90
       50
176
     1
 40
0.0
176
     1
 40
1.0
176
     1
 90
        0
176
     1
 62
    18
420
        0
176
     1
 90
       50
176
     1
 90
        3
176
     1
 62
     5
420
      255
176
     1
290
     0
176
     1
 90
       50
176
     1
 90
       50
176
     1
 90
       50
176
     1
290
     0
176
     1
 90
       50
176
     1
 62
   256
176
     0
 40
1.0
176
     0
 90
        2
176
     1
  1
strokes_ogs.tif
176
     1
290
     0
176
     1
 40
1.0
176
     1
 40
1.0
176
     1
  0
VISUALSTYLE
  5
35
102
{ACAD_REACTORS
330
29
102
}
330
29
100
AcDbVisualStyle
  2
Brighten
 70
    12
177
     3
291
     1
 70
    58
 90
        2
176
     1
 90
        2
176
     1
 90
        0
176
     1
 90
        0
176
     1
 40
0.6
176
     1
 40
30.0
176
     1
 62
     7
420
 16777215
176
     1
 90
        1
176
     1
 90
        4
176
     1
 62
     7
176
     1
 62
   257
176
     1
 90
        1
176
     1
 90
        1
176
     1
 40
1.0
176
     1
 90
        8
176
     1
 62
     7
176
     1
 40
1.0
176
     1
 90
        1
176
     1
 90
        6
176
     1
 90
        2
176
     1
 62
     7
176
     1
 90
        5
176
     1
 90
        0
176
     1
 90
        0
176
     1
290
     0
176
     1
 90
        1
176
     1
 40
50.0
176
     1
 90
        0
176
     1
290
     0
176
     1
290
     1
176
     1
290
     1
176
     1
290
     0
176
     1
290
     0
176
     1
290
     0
176
     1
290
     0
176
     1
290
     0
176
     1
290
     0
176
     1
 90
       50
176
     1
 40
0.0
176
     1
 40
1.0
176
     1
 90
        0
176
     1
 62
    18
420
        0
176
     1
 90
       50
176
     1
 90
        3
176
     1
 62
     5
420
      255
176
     1
290
     0
176
     1
 90
       50
176
     1
 90
       50
176
     1
 90
       50
176
     1
290
     0
176
     1
 90
       50
176
     1
 62
   256
176
     0
 40
1.0
176
     0
 90
        2
176
     1
  1
strokes_ogs.tif
176
     1
290
     0
176
     1
 40
1.0
176
     1
 40
1.0
176
     1
  0
VISUALSTYLE
  5
39
102
{ACAD_REACTORS
330
29
102
}
330
29
100
AcDbVisualStyle
  2
ColorChange
 70
    16
177
     3
291
     1
 70
    58
 90
        2
176
     1
 90
        2
176
     1
 90
        3
176
     1
 90
        0
176
     1
 40
0.6
176
     1
 40
30.0
176
     1
 62
     8
420
  8421504
176
     1
 90
        1
176
     1
 90
        4
176
     1
 62
     7
176
     1
 62
   257
176
     1
 90
        1
176
     1
 90
        1
176
     1
 40
1.0
176
     1
 90
        8
176
     1
 62
     8
420
  8421504
176
     1
 40
1.0
176
     1
 90
        1
176
     1
 90
        6
176
     1
 90
        2
176
     1
 62
     7
176
     1
 90
        5
176
     1
 90
        0
176
     1
 90
        0
176
     1
290
     0
176
     1
 90
        1
176
     1
 40
0.0
176
     1
 90
        0
176
     1
290
     0
176
     1
290
     1
176
     1
290
     1
176
     1
290
     0
176
     1
290
     0
176
     1
290
     0
176
     1
290
     0
176
     1
290
     0
176
     1
290
     0
176
     1
 90
       50
176
     1
 40
0.0
176
     1
 40
1.0
176
     1
 90
        0
176
     1
 62
    18
420
        0
176
     1
 90
       50
176
     1
 90
        3
176
     1
 62
     5
420
      255
176
     1
290
     0
176
     1
 90
       50
176
     1
 90
       50
176
     1
 90
       50
176
     1
290
     0
176
     1
 90
       50
176
     1
 62
   256
176
     0
 40
1.0
176
     0
 90
        2
176
     1
  1
strokes_ogs.tif
176
     1
290
     0
176
     1
 40
1.0
176
     1
 40
1.0
176
     1
  0
VISUALSTYLE
  5
32
102
{ACAD_REACTORS
330
29
102
}
330
29
100
AcDbVisualStyle
  2
Conceptual
 70
     9
177
     3
291
     0
 70
    58
 90
        3
176
     1
 90
        2
176
     1
 90
        0
176
     1
 90
        0
176
     1
 40
0.6
176
     1
 40
30.0
176
     1
 62
     7
420
 16777215
176
     1
 90
        2
176
     1
 90
        2
176
     1
 62
     7
176
     1
 62
   257
176
     1
 90
        1
176
     1
 90
        1
176
     1
 40
179.0
176
     1
 90
        8
176
     1
 62
     7
176
     1
 40
1.0
176
     1
 90
        1
176
     1
 90
        6
176
     1
 90
        2
176
     1
 62
     7
176
     1
 90
        3
176
     1
 90
        0
176
     1
 90
        0
176
     1
290
     0
176
     1
 90
        1
176
     1
 40
0.0
176
     1
 90
        0
176
     1
290
     0
176
     1
290
     1
176
     1
290
     1
176
     1
290
     0
176
     1
290
     0
176
     1
290
     0
176
     1
290
     0
176
     1
290
     0
176
     1
290
     0
176
     1
 90
       50
176
     1
 40
0.0
176
     1
 40
1.0
176
     1
 90
        0
176
     1
 62
    18
420
        0
176
     1
 90
       50
176
     1
 90
        3
176
     1
 62
     5
420
      255
176
     1
290
     0
176
     1
 90
       50
176
     1
 90
       50
176
     1
 90
       50
176
     1
290
     0
176
     1
 90
       50
176
     1
 62
   256
176
     0
 40
1.0
176
     0
 90
        2
176
     1
  1
strokes_ogs.tif
176
     1
290
     0
176
     1
 40
1.0
176
     1
 40
1.0
176
     1
  0
VISUALSTYLE
  5
34
102
{ACAD_REACTORS
330
29
102
}
330
29
100
AcDbVisualStyle
  2
Dim
 70
    11
177
     3
291
     1
 70
    58
 90
        2
176
     1
 90
        2
176
     1
 90
        0
176
     1
 90
        0
176
     1
 40
0.6
176
     1
 40
30.0
176
     1
 62
     7
420
 16777215
176
     1
 90
        1
176
     1
 90
        4
176
     1
 62
     7
176
     1
 62
   257
176
     1
 90
        1
176
     1
 90
        1
176
     1
 40
1.0
176
     1
 90
        8
176
     1
 62
     7
176
     1
 40
1.0
176
     1
 90
        1
176
     1
 90
        6
176
     1
 90
        2
176
     1
 62
     7
176
     1
 90
        5
176
     1
 90
        0
176
     1
 90
        0
176
     1
290
     0
176
     1
 90
        1
176
     1
 40
-50.0
176
     1
 90
        0
176
     1
290
     0
176
     1
290
     1
176
     1
290
     1
176
     1
290
     0
176
     1
290
     0
176
     1
290
     0
176
     1
290
     0
176
     1
290
     0
176
     1
290
     0
176
     1
 90
       50
176
     1
 40
0.0
176
     1
 40
1.0
176
     1
 90
        0
176
     1
 62
    18
420
        0
176
     1
 90
       50
176
     1
 90
        3
176
     1
 62
     5
420
      255
176
     1
290
     0
176
     1
 90
       50
176
     1
 90
       50
176
     1
 90
       50
176
     1
290
     0
176
     1
 90
       50
176
     1
 62
   256
176
     0
 40
1.0
176
     0
 90
        2
176
     1
  1
strokes_ogs.tif
176
     1
290
     0
176
     1
 40
1.0
176
     1
 40
1.0
176
     1
  0
VISUALSTYLE
  5
41
102
{ACAD_REACTORS
330
29
102
}
330
29
100
AcDbVisualStyle
  2
EdgeColorOff
 70
    22
177
     3
291
     1
 70
    58
 90
        2
176
     0
 90
        2
176
     0
 90
        0
176
     0
 90
        0
176
     0
 40
0.6
176
     0
 40
30.0
176
     0
 62
     7
420
 16777215
176
     0
 90
        1
176
     0
 90
        4
176
     0
 62
     7
176
     0
 62
   257
176
     0
 90
        1
176
     0
 90
        1
176
     0
 40
1.0
176
     0
 90
        8
176
     2
 62
     7
176
     0
 40
1.0
176
     0
 90
        1
176
     0
 90
        6
176
     0
 90
        2
176
     0
 62
     7
176
     0
 90
        5
176
     0
 90
        0
176
     0
 90
        0
176
     0
290
     0
176
     0
 90
        1
176
     0
 40
0.0
176
     0
 90
        0
176
     0
290
     0
176
     0
290
     1
176
     0
290
     1
176
     0
290
     0
176
     0
290
     0
176
     0
290
     0
176
     0
290
     0
176
     0
290
     0
176
     0
290
     0
176
     0
 90
       50
176
     0
 40
0.0
176
     0
 40
1.0
176
     0
 90
        0
176
     0
 62
    18
420
        0
176
     0
 90
       50
176
     0
 90
        3
176
     0
 62
     5
420
      255
176
     0
290
     0
176
     0
 90
       50
176
     0
 90
       50
176
     0
 90
       50
176
     0
290
     0
176
     0
 90
       50
176
     0
 62
   256
176
     0
 40
1.0
176
     0
 90
        2
176
     0
  1
strokes_ogs.tif
176
     0
290
     0
176
     0
 40
1.0
176
     0
 40
1.0
176
     0
  0
VISUALSTYLE
  5
38
102
{ACAD_REACTORS
330
29
102
}
330
29
100
AcDbVisualStyle
  2
Facepattern
 70
    15
177
     3
291
     1
 70
    58
 90
        2
176
     1
 90
        2
176
     1
 90
        0
176
     1
 90
        0
176
     1
 40
0.6
176
     1
 40
30.0
176
     1
 62
     7
420
 16777215
176
     1
 90
        1
176
     1
 90
        4
176
     1
 62
     7
176
     1
 62
   257
176
     1
 90
        1
176
     1
 90
        1
176
     1
 40
1.0
176
     1
 90
        8
176
     1
 62
     7
176
     1
 40
1.0
176
     1
 90
        1
176
     1
 90
        6
176
     1
 90
        2
176
     1
 62
     7
176
     1
 90
        5
176
     1
 90
        0
176
     1
 90
        0
176
     1
290
     0
176
     1
 90
        1
176
     1
 40
0.0
176
     1
 90
        0
176
     1
290
     0
176
     1
290
     1
176
     1
290
     1
176
     1
290
     0
176
     1
290
     0
176
     1
290
     0
176
     1
290
     0
176
     1
290
     0
176
     1
290
     0
176
     1
 90
       50
176
     1
 40
0.0
176
     1
 40
1.0
176
     1
 90
        0
176
     1
 62
    18
420
        0
176
     1
 90
       50
176
     1
 90
        3
176
     1
 62
     5
420
      255
176
     1
290
     0
176
     1
 90
       50
176
     1
 90
       50
176
     1
 90
       50
176
     1
290
     0
176
     1
 90
       50
176
     1
 62
   256
176
     0
 40
1.0
176
     0
 90
        2
176
     1
  1
strokes_ogs.tif
176
     1
290
     0
176
     1
 40
1.0
176
     1
 40
1.0
176
     1
  0
VISUALSTYLE
  5
2A
102
{ACAD_REACTORS
330
29
102
}
330
29
100
AcDbVisualStyle
  2
Flat
 70
     0
177
     3
291
     1
 70
    58
 90
        2
176
     1
 90
        1
176
     1
 90
        1
176
     1
 90
        2
176
     1
 40
0.6
176
     1
 40
30.0
176
     1
 62
     7
420
 16777215
176
     1
 90
        0
176
     1
 90
        0
176
     1
 62
     7
176
     1
 62
   257
176
     1
 90
        1
176
     1
 90
        1
176
     1
 40
1.0
176
     1
 90
        8
176
     1
 62
     7
176
     1
 40
1.0
176
     1
 90
        1
176
     1
 90
        6
176
     1
 90
        2
176
     1
 62
     7
176
     1
 90
        5
176
     1
 90
        0
176
     1
 90
        0
176
     1
290
     0
176
     1
 90
       13
176
     1
 40
0.0
176
     1
 90
        0
176
     1
290
     0
176
     1
290
     1
176
     1
290
     1
176
     1
290
     0
176
     1
290
     0
176
     1
290
     0
176
     1
290
     0
176
     1
290
     0
176
     1
290
     0
176
     1
 90
       50
176
     1
 40
0.0
176
     1
 40
1.0
176
     1
 90
        0
176
     1
 62
    18
420
        0
176
     1
 90
       50
176
     1
 90
        3
176
     1
 62
     5
420
      255
176
     1
290
     0
176
     1
 90
       50
176
     1
 90
       50
176
     1
 90
       50
176
     1
290
     0
176
     1
 90
       50
176
     1
 62
   256
176
     0
 40
1.0
176
     0
 90
        2
176
     1
  1
strokes_ogs.tif
176
     1
290
     0
176
     1
 40
1.0
176
     1
 40
1.0
176
     1
  0
VISUALSTYLE
  5
2B
102
{ACAD_REACTORS
330
29
102
}
330
29
100
AcDbVisualStyle
  2
FlatWithEdges
 70
     1
177
     3
291
     1
 70
    58
 90
        2
176
     1
 90
        1
176
     1
 90
        1
176
     1
 90
        2
176
     1
 40
0.6
176
     1
 40
30.0
176
     1
 62
     7
420
 16777215
176
     1
 90
        1
176
     1
 90
        0
176
     1
 62
     7
176
     1
 62
   257
176
     1
 90
        1
176
     1
 90
        1
176
     1
 40
1.0
176
     1
 90
        0
176
     1
 62
   257
176
     1
 40
1.0
176
     1
 90
        1
176
     1
 90
        6
176
     1
 90
        2
176
     1
 62
     7
176
     1
 90
        5
176
     1
 90
        0
176
     1
 90
        0
176
     1
290
     0
176
     1
 90
       13
176
     1
 40
0.0
176
     1
 90
        0
176
     1
290
     0
176
     1
290
     1
176
     1
290
     1
176
     1
290
     0
176
     1
290
     0
176
     1
290
     0
176
     1
290
     0
176
     1
290
     0
176
     1
290
     0
176
     1
 90
       50
176
     1
 40
0.0
176
     1
 40
1.0
176
     1
 90
        0
176
     1
 62
    18
420
        0
176
     1
 90
       50
176
     1
 90
        3
176
     1
 62
     5
420
      255
176
     1
290
     0
176
     1
 90
       50
176
     1
 90
       50
176
     1
 90
       50
176
     1
290
     0
176
     1
 90
       50
176
     1
 62
   256
176
     0
 40
1.0
176
     0
 90
        2
176
     1
  1
strokes_ogs.tif
176
     1
290
     0
176
     1
 40
1.0
176
     1
 40
1.0
176
     1
  0
VISUALSTYLE
  5
2C
102
{ACAD_REACTORS
330
29
102
}
330
29
100
AcDbVisualStyle
  2
Gouraud
 70
     2
177
     3
291
     1
 70
    58
 90
        2
176
     1
 90
        2
176
     1
 90
        1
176
     1
 90
        2
176
     1
 40
0.6
176
     1
 40
30.0
176
     1
 62
     7
420
 16777215
176
     1
 90
        0
176
     1
 90
        0
176
     1
 62
     7
176
     1
 62
   257
176
     1
 90
        1
176
     1
 90
        1
176
     1
 40
1.0
176
     1
 90
        0
176
     1
 62
     7
176
     1
 40
1.0
176
     1
 90
        1
176
     1
 90
        6
176
     1
 90
        2
176
     1
 62
     7
176
     1
 90
        5
176
     1
 90
        0
176
     1
 90
        0
176
     1
290
     0
176
     1
 90
       13
176
     1
 40
0.0
176
     1
 90
        0
176
     1
290
     0
176
     1
290
     1
176
     1
290
     1
176
     1
290
     0
176
     1
290
     0
176
     1
290
     0
176
     1
290
     0
176
     1
290
     0
176
     1
290
     0
176
     1
 90
       50
176
     1
 40
0.0
176
     1
 40
1.0
176
     1
 90
        0
176
     1
 62
    18
420
        0
176
     1
 90
       50
176
     1
 90
        3
176
     1
 62
     5
420
      255
176
     1
290
     0
176
     1
 90
       50
176
     1
 90
       50
176
     1
 90
       50
176
     1
290
     0
176
     1
 90
       50
176
     1
 62
   256
176
     0
 40
1.0
176
     0
 90
        2
176
     1
  1
strokes_ogs.tif
176
     1
290
     0
176
     1
 40
1.0
176
     1
 40
1.0
176
     1
  0
VISUALSTYLE
  5
2D
102
{ACAD_REACTORS
330
29
102
}
330
29
100
AcDbVisualStyle
  2
GouraudWithEdges
 70
     3
177
     3
291
     1
 70
    58
 90
        2
176
     1
 90
        2
176
     1
 90
        1
176
     1
 90
        2
176
     1
 40
0.6
176
     1
 40
30.0
176
     1
 62
     7
420
 16777215
176
     1
 90
        1
176
     1
 90
        0
176
     1
 62
     7
176
     1
 62
   257
176
     1
 90
        1
176
     1
 90
        1
176
     1
 40
1.0
176
     1
 90
        0
176
     1
 62
   257
176
     1
 40
1.0
176
     1
 90
        1
176
     1
 90
        6
176
     1
 90
        2
176
     1
 62
     7
176
     1
 90
        5
176
     1
 90
        0
176
     1
 90
        0
176
     1
290
     0
176
     1
 90
       13
176
     1
 40
0.0
176
     1
 90
        0
176
     1
290
     0
176
     1
290
     1
176
     1
290
     1
176
     1
290
     0
176
     1
290
     0
176
     1
290
     0
176
     1
290
     0
176
     1
290
     0
176
     1
290
     0
176
     1
 90
       50
176
     1
 40
0.0
176
     1
 40
1.0
176
     1
 90
        0
176
     1
 62
    18
420
        0
176
     1
 90
       50
176
     1
 90
        3
176
     1
 62
     5
420
      255
176
     1
290
     0
176
     1
 90
       50
176
     1
 90
       50
176
     1
 90
       50
176
     1
290
     0
176
     1
 90
       50
176
     1
 62
   256
176
     0
 40
1.0
176
     0
 90
        2
176
     1
  1
strokes_ogs.tif
176
     1
290
     0
176
     1
 40
1.0
176
     1
 40
1.0
176
     1
  0
VISUALSTYLE
  5
31
102
{ACAD_REACTORS
330
29
102
}
330
29
100
AcDbVisualStyle
  2
Hidden
 70
     6
177
     3
291
     0
 70
    58
 90
        1
176
     1
 90
        2
176
     1
 90
        2
176
     1
 90
        0
176
     1
 40
0.6
176
     1
 40
30.0
176
     1
 62
     7
420
 16777215
176
     1
 90
        2
176
     1
 90
        2
176
     1
 62
     7
176
     1
 62
   257
176
     1
 90
        2
176
     1
 90
        1
176
     1
 40
40.0
176
     1
 90
        0
176
     1
 62
   257
176
     1
 40
1.0
176
     1
 90
        1
176
     1
 90
        6
176
     1
 90
        2
176
     1
 62
     7
176
     1
 90
        3
176
     1
 90
        0
176
     1
 90
        0
176
     1
290
     0
176
     1
 90
        1
176
     1
 40
0.0
176
     1
 90
        0
176
     1
290
     0
176
     1
290
     1
176
     1
290
     1
176
     1
290
     0
176
     1
290
     0
176
     1
290
     0
176
     1
290
     0
176
     1
290
     0
176
     1
290
     0
176
     1
 90
       50
176
     1
 40
0.0
176
     1
 40
1.0
176
     1
 90
        0
176
     1
 62
    18
420
        0
176
     1
 90
       50
176
     1
 90
        3
176
     1
 62
     5
420
      255
176
     1
290
     0
176
     1
 90
       50
176
     1
 90
       50
176
     1
 90
       50
176
     1
290
     0
176
     1
 90
       50
176
     1
 62
   256
176
     0
 40
1.0
176
     0
 90
        2
176
     1
  1
strokes_ogs.tif
176
     1
290
     0
176
     1
 40
1.0
176
     1
 40
1.0
176
     1
  0
VISUALSTYLE
  5
3F
102
{ACAD_REACTORS
330
29
102
}
330
29
100
AcDbVisualStyle
  2
JitterOff
 70
    20
177
     3
291
     1
 70
    58
 90
        2
176
     0
 90
        2
176
     0
 90
        0
176
     0
 90
        0
176
     0
 40
0.6
176
     0
 40
30.0
176
     0
 62
     7
420
 16777215
176
     0
 90
        1
176
     0
 90
        4
176
     0
 62
     7
176
     0
 62
   257
176
     0
 90
        1
176
     0
 90
        1
176
     0
 40
1.0
176
     0
 90
       10
176
     2
 62
     7
176
     0
 40
1.0
176
     0
 90
        1
176
     0
 90
        6
176
     0
 90
        2
176
     0
 62
     7
176
     0
 90
        5
176
     0
 90
        0
176
     0
 90
        0
176
     0
290
     0
176
     0
 90
        1
176
     0
 40
0.0
176
     0
 90
        0
176
     0
290
     0
176
     0
290
     1
176
     0
290
     1
176
     0
290
     0
176
     0
290
     0
176
     0
290
     0
176
     0
290
     0
176
     0
290
     0
176
     0
290
     0
176
     0
 90
       50
176
     0
 40
0.0
176
     0
 40
1.0
176
     0
 90
        0
176
     0
 62
    18
420
        0
176
     0
 90
       50
176
     0
 90
        3
176
     0
 62
     5
420
      255
176
     0
290
     0
176
     0
 90
       50
176
     0
 90
       50
176
     0
 90
       50
176
     0
290
     0
176
     0
 90
       50
176
     0
 62
   256
176
     0
 40
1.0
176
     0
 90
        2
176
     0
  1
strokes_ogs.tif
176
     0
290
     0
176
     0
 40
1.0
176
     0
 40
1.0
176
     0
  0
VISUALSTYLE
  5
37
102
{ACAD_REACTORS
330
29
102
}
330
29
100
AcDbVisualStyle
  2
Linepattern
 70
    14
177
     3
291
     1
 70
    58
 90
        2
176
     1
 90
        2
176
     1
 90
        0
176
     1
 90
        0
176
     1
 40
0.6
176
     1
 40
30.0
176
     1
 62
     7
420
 16777215
176
     1
 90
        1
176
     1
 90
        4
176
     1
 62
     7
176
     1
 62
   257
176
     1
 90
        7
176
     1
 90
        7
176
     1
 40
1.0
176
     1
 90
        8
176
     1
 62
     7
176
     1
 40
1.0
176
     1
 90
        1
176
     1
 90
        6
176
     1
 90
        2
176
     1
 62
     7
176
     1
 90
        5
176
     1
 90
        0
176
     1
 90
        0
176
     1
290
     0
176
     1
 90
        1
176
     1
 40
0.0
176
     1
 90
        0
176
     1
290
     0
176
     1
290
     1
176
     1
290
     1
176
     1
290
     0
176
     1
290
     0
176
     1
290
     0
176
     1
290
     0
176
     1
290
     0
176
     1
290
     0
176
     1
 90
       50
176
     1
 40
0.0
176
     1
 40
1.0
176
     1
 90
        0
176
     1
 62
    18
420
        0
176
     1
 90
       50
176
     1
 90
        3
176
     1
 62
     5
420
      255
176
     1
290
     0
176
     1
 90
       50
176
     1
 90
       50
176
     1
 90
       50
176
     1
290
     0
176
     1
 90
       50
176
     1
 62
   256
176
     0
 40
1.0
176
     0
 90
        2
176
     1
  1
strokes_ogs.tif
176
     1
290
     0
176
     1
 40
1.0
176
     1
 40
1.0
176
     1
  0
VISUALSTYLE
  5
40
102
{ACAD_REACTORS
330
29
102
}
330
29
100
AcDbVisualStyle
  2
OverhangOff
 70
    21
177
     3
291
     1
 70
    58
 90
        2
176
     0
 90
        2
176
     0
 90
        0
176
     0
 90
        0
176
     0
 40
0.6
176
     0
 40
30.0
176
     0
 62
     7
420
 16777215
176
     0
 90
        1
176
     0
 90
        4
176
     0
 62
     7
176
     0
 62
   257
176
     0
 90
        1
176
     0
 90
        1
176
     0
 40
1.0
176
     0
 90
        9
176
     2
 62
     7
176
     0
 40
1.0
176
     0
 90
        1
176
     0
 90
        6
176
     0
 90
        2
176
     0
 62
     7
176
     0
 90
        5
176
     0
 90
        0
176
     0
 90
        0
176
     0
290
     0
176
     0
 90
        1
176
     0
 40
0.0
176
     0
 90
        0
176
     0
290
     0
176
     0
290
     1
176
     0
290
     1
176
     0
290
     0
176
     0
290
     0
176
     0
290
     0
176
     0
290
     0
176
     0
290
     0
176
     0
290
     0
176
     0
 90
       50
176
     0
 40
0.0
176
     0
 40
1.0
176
     0
 90
        0
176
     0
 62
    18
420
        0
176
     0
 90
       50
176
     0
 90
        3
176
     0
 62
     5
420
      255
176
     0
290
     0
176
     0
 90
       50
176
     0
 90
       50
176
     0
 90
       50
176
     0
290
     0
176
     0
 90
       50
176
     0
 62
   256
176
     0
 40
1.0
176
     0
 90
        2
176
     0
  1
strokes_ogs.tif
176
     0
290
     0
176
     0
 40
1.0
176
     0
 40
1.0
176
     0
  0
VISUALSTYLE
  5
33
102
{ACAD_REACTORS
330
29
102
}
330
29
100
AcDbVisualStyle
  2
Realistic
 70
     8
177
     3
291
     0
 70
    58
 90
        2
176
     1
 90
        3
176
     1
 90
        0
176
     1
 90
        2
176
     1
 40
0.6
176
     1
 40
30.0
176
     1
 62
     7
420
 16777215
176
     1
 90
        0
176
     1
 90
        0
176
     1
 62
     7
176
     1
 62
   257
176
     1
 90
        1
176
     1
 90
        1
176
     1
 40
1.0
176
     1
 90
        8
176
     1
 62
   257
176
     1
 40
1.0
176
     1
 90
        1
176
     1
 90
        6
176
     1
 90
        2
176
     1
 62
     7
176
     1
 90
        3
176
     1
 90
        0
176
     1
 90
        0
176
     1
290
     0
176
     1
 90
       13
176
     1
 40
0.0
176
     1
 90
        0
176
     1
290
     0
176
     1
290
     1
176
     1
290
     1
176
     1
290
     0
176
     1
290
     0
176
     1
290
     0
176
     1
290
     0
176
     1
290
     0
176
     1
290
     0
176
     1
 90
       50
176
     1
 40
0.0
176
     1
 40
1.0
176
     1
 90
        0
176
     1
 62
    18
420
        0
176
     1
 90
       50
176
     1
 90
        3
176
     1
 62
     5
420
      255
176
     1
290
     0
176
     1
 90
       50
176
     1
 90
       50
176
     1
 90
       50
176
     1
290
     0
176
     1
 90
       50
176
     1
 62
   256
176
     0
 40
1.0
176
     0
 90
        2
176
     1
  1
strokes_ogs.tif
176
     1
290
     0
176
     1
 40
1.0
176
     1
 40
1.0
176
     1
  0
VISUALSTYLE
  5
3E
102
{ACAD_REACTORS
330
29
102
}
330
29
100
AcDbVisualStyle
  2
Shaded
 70
    27
177
     3
291
     0
 70
    58
 90
        2
176
     1
 90
        2
176
     1
 90
        1
176
     1
 90
        2
176
     1
 40
0.6
176
     1
 40
30.0
176
     1
 62
     7
420
 16777215
176
     1
 90
        0
176
     1
 90
        4
176
     1
 62
     7
176
     1
 62
   257
176
     1
 90
        1
176
     1
 90
        1
176
     1
 40
1.0
176
     1
 90
        8
176
     1
 62
   257
176
     1
 40
1.0
176
     1
 90
        1
176
     1
 90
        6
176
     1
 90
        2
176
     1
 62
     8
420
  7895160
176
     1
 90
        3
176
     1
 90
        0
176
     1
 90
        0
176
     1
290
     0
176
     1
 90
        5
176
     1
 40
0.0
176
     1
 90
        0
176
     1
290
     0
176
     1
290
     1
176
     1
290
     1
176
     1
290
     0
176
     1
290
     0
176
     1
290
     0
176
     1
290
     0
176
     1
290
     0
176
     1
290
     0
176
     1
 90
       50
176
     1
 40
0.0
176
     1
 40
1.0
176
     1
 90
        0
176
     1
 62
    18
420
        0
176
     1
 90
       50
176
     1
 90
        3
176
     1
 62
     5
420
      255
176
     1
290
     0
176
     1
 90
       50
176
     1
 90
       50
176
     1
 90
       50
176
     1
290
     0
176
     1
 90
       50
176
     1
 62
   256
176
     0
 40
1.0
176
     0
 90
        2
176
     1
  1
strokes_ogs.tif
176
     1
290
     0
176
     1
 40
1.0
176
     1
 40
1.0
176
     1
  0
VISUALSTYLE
  5
3D
102
{ACAD_REACTORS
330
29
102
}
330
29
100
AcDbVisualStyle
  2
Shaded with edges
 70
    26
177
     3
291
     0
 70
    58
 90
        2
176
     1
 90
        2
176
     1
 90
        1
176
     1
 90
        2
176
     1
 40
0.6
176
     1
 40
30.0
176
     1
 62
     7
420
 16777215
176
     1
 90
        1
176
     1
 90
        2
176
     1
 62
     7
176
     1
 62
   257
176
     1
 90
        2
176
     1
 90
        1
176
     1
 40
1.0
176
     1
 90
        8
176
     1
 62
   257
176
     1
 40
1.0
176
     1
 90
        1
176
     1
 90
        6
176
     1
 90
        2
176
     1
 62
     7
176
     1
 90
        3
176
     1
 90
        0
176
     1
 90
        0
176
     1
290
     0
176
     1
 90
        5
176
     1
 40
0.0
176
     1
 90
        0
176
     1
290
     0
176
     1
290
     1
176
     1
290
     1
176
     1
290
     0
176
     1
290
     0
176
     1
290
     0
176
     1
290
     0
176
     1
290
     0
176
     1
290
     0
176
     1
 90
       50
176
     1
 40
0.0
176
     1
 40
1.0
176
     1
 90
        0
176
     1
 62
    18
420
        0
176
     1
 90
       50
176
     1
 90
        3
176
     1
 62
     5
420
      255
176
     1
290
     0
176
     1
 90
       50
176
     1
 90
       50
176
     1
 90
       50
176
     1
290
     0
176
     1
 90
       50
176
     1
 62
   256
176
     0
 40
1.0
176
     0
 90
        2
176
     1
  1
strokes_ogs.tif
176
     1
290
     0
176
     1
 40
1.0
176
     1
 40
1.0
176
     1
  0
VISUALSTYLE
  5
3A
102
{ACAD_REACTORS
330
29
102
}
330
29
100
AcDbVisualStyle
  2
Shades of Gray
 70
    23
177
     3
291
     0
 70
    58
 90
        2
176
     1
 90
        2
176
     1
 90
        3
176
     1
 90
        0
176
     1
 40
0.6
176
     1
 40
30.0
176
     1
 62
     7
420
 16777215
176
     1
 90
        2
176
     1
 90
        2
176
     1
 62
     7
176
     1
 62
     7
176
     1
 90
        1
176
     1
 90
        1
176
     1
 40
40.0
176
     1
 90
        8
176
     1
 62
     7
176
     1
 40
1.0
176
     1
 90
        1
176
     1
 90
        6
176
     1
 90
        2
176
     1
 62
     7
176
     1
 90
        3
176
     1
 90
        0
176
     1
 90
        0
176
     1
290
     0
176
     1
 90
        1
176
     1
 40
0.0
176
     1
 90
        0
176
     1
290
     0
176
     1
290
     1
176
     1
290
     1
176
     1
290
     0
176
     1
290
     0
176
     1
290
     0
176
     1
290
     0
176
     1
290
     0
176
     1
290
     0
176
     1
 90
       50
176
     1
 40
0.0
176
     1
 40
1.0
176
     1
 90
        0
176
     1
 62
    18
420
        0
176
     1
 90
       50
176
     1
 90
        3
176
     1
 62
     5
420
      255
176
     1
290
     0
176
     1
 90
       50
176
     1
 90
       50
176
     1
 90
       50
176
     1
290
     0
176
     1
 90
       50
176
     1
 62
   256
176
     0
 40
1.0
176
     0
 90
        2
176
     1
  1
strokes_ogs.tif
176
     1
290
     0
176
     1
 40
1.0
176
     1
 40
1.0
176
     1
  0
VISUALSTYLE
  5
3B
102
{ACAD_REACTORS
330
29
102
}
330
29
100
AcDbVisualStyle
  2
Sketchy
 70
    24
177
     3
291
     0
 70
    58
 90
        1
176
     1
 90
        2
176
     1
 90
        2
176
     1
 90
        0
176
     1
 40
0.6
176
     1
 40
30.0
176
     1
 62
     7
420
 16777215
176
     1
 90
        2
176
     1
 90
        2
176
     1
 62
     7
176
     1
 62
     7
176
     1
 90
        1
176
     1
 90
        1
176
     1
 40
40.0
176
     1
 90
       11
176
     1
 62
     7
176
     1
 40
1.0
176
     1
 90
        1
176
     1
 90
        6
176
     1
 90
        2
176
     1
 62
     7
176
     1
 90
        6
176
     1
 90
        0
176
     1
 90
        0
176
     1
290
     0
176
     1
 90
        1
176
     1
 40
0.0
176
     1
 90
        0
176
     1
290
     0
176
     1
290
     1
176
     1
290
     1
176
     1
290
     0
176
     1
290
     0
176
     1
290
     0
176
     1
290
     0
176
     1
290
     0
176
     1
290
     0
176
     1
 90
       50
176
     1
 40
0.0
176
     1
 40
1.0
176
     1
 90
        0
176
     1
 62
    18
420
        0
176
     1
 90
       50
176
     1
 90
        3
176
     1
 62
     5
420
      255
176
     1
290
     0
176
     1
 90
       50
176
     1
 90
       50
176
     1
 90
       50
176
     1
290
     0
176
     1
 90
       50
176
     1
 62
   256
176
     0
 40
1.0
176
     0
 90
        2
176
     1
  1
strokes_ogs.tif
176
     1
290
     0
176
     1
 40
1.0
176
     1
 40
1.0
176
     1
  0
VISUALSTYLE
  5
36
102
{ACAD_REACTORS
330
29
102
}
330
29
100
AcDbVisualStyle
  2
Thicken
 70
    13
177
     3
291
     1
 70
    58
 90
        2
176
     1
 90
        2
176
     1
 90
        0
176
     1
 90
        0
176
     1
 40
0.6
176
     1
 40
30.0
176
     1
 62
     7
420
 16777215
176
     1
 90
        1
176
     1
 90
        4
176
     1
 62
     7
176
     1
 62
   257
176
     1
 90
        1
176
     1
 90
        1
176
     1
 40
1.0
176
     1
 90
       12
176
     1
 62
     7
176
     1
 40
1.0
176
     1
 90
        1
176
     1
 90
        6
176
     1
 90
        2
176
     1
 62
     7
176
     1
 90
        5
176
     1
 90
        0
176
     1
 90
        0
176
     1
290
     0
176
     1
 90
        1
176
     1
 40
0.0
176
     1
 90
        0
176
     1
290
     0
176
     1
290
     1
176
     1
290
     1
176
     1
290
     0
176
     1
290
     0
176
     1
290
     0
176
     1
290
     0
176
     1
290
     0
176
     1
290
     0
176
     1
 90
       50
176
     1
 40
0.0
176
     1
 40
1.0
176
     1
 90
        0
176
     1
 62
    18
420
        0
176
     1
 90
       50
176
     1
 90
        3
176
     1
 62
     5
420
      255
176
     1
290
     0
176
     1
 90
       50
176
     1
 90
       50
176
     1
 90
       50
176
     1
290
     0
176
     1
 90
       50
176
     1
 62
   256
176
     0
 40
1.0
176
     0
 90
        2
176
     1
  1
strokes_ogs.tif
176
     1
290
     0
176
     1
 40
1.0
176
     1
 40
1.0
176
     1
  0
VISUALSTYLE
  5
30
102
{ACAD_REACTORS
330
29
102
}
330
29
100
AcDbVisualStyle
  2
Wireframe
 70
     5
177
     3
291
     0
 70
    58
 90
        0
176
     1
 90
        2
176
     1
 90
        0
176
     1
 90
        0
176
     1
 40
0.6
176
     1
 40
30.0
176
     1
 62
     7
420
 16777215
176
     1
 90
        1
176
     1
 90
        4
176
     1
 62
     7
176
     1
 62
   257
176
     1
 90
        1
176
     1
 90
        1
176
     1
 40
1.0
176
     1
 90
        0
176
     1
 62
   257
176
     1
 40
1.0
176
     1
 90
        1
176
     1
 90
        6
176
     1
 90
        2
176
     1
 62
     7
176
     1
 90
        3
176
     1
 90
        0
176
     1
 90
        0
176
     1
290
     0
176
     1
 90
        1
176
     1
 40
0.0
176
     1
 90
        0
176
     1
290
     0
176
     1
290
     1
176
     1
290
     1
176
     1
290
     0
176
     1
290
     0
176
     1
290
     0
176
     1
290
     0
176
     1
290
     0
176
     1
290
     0
176
     1
 90
       50
176
     1
 40
0.0
176
     1
 40
1.0
176
     1
 90
        0
176
     1
 62
    18
420
        0
176
     1
 90
       50
176
     1
 90
        3
176
     1
 62
     5
420
      255
176
     1
290
     0
176
     1
 90
       50
176
     1
 90
       50
176
     1
 90
       50
176
     1
290
     0
176
     1
 90
       50
176
     1
 62
   256
176
     0
 40
1.0
176
     0
 90
        2
176
     1
  1
strokes_ogs.tif
176
     1
290
     0
176
     1
 40
1.0
176
     1
 40
1.0
176
     1
  0
VISUALSTYLE
  5
3C
102
{ACAD_REACTORS
330
29
102
}
330
29
100
AcDbVisualStyle
  2
X-Ray
 70
    25
177
     3
291
     0
 70
    58
 90
        2
176
     1
 90
        2
176
     1
 90
        1
176
     1
 90
        1
176
     1
 40
0.5
176
     1
 40
30.0
176
     1
 62
     7
420
 16777215
176
     1
 90
        1
176
     1
 90
        0
176
     1
 62
     7
176
     1
 62
   257
176
     1
 90
        1
176
     1
 90
        1
176
     1
 40
1.0
176
     1
 90
        8
176
     1
 62
     7
176
     1
 40
1.0
176
     1
 90
        1
176
     1
 90
        6
176
     1
 90
        2
176
     1
 62
     7
176
     1
 90
        3
176
     1
 90
        0
176
     1
 90
        0
176
     1
290
     0
176
     1
 90
       13
176
     1
 40
0.0
176
     1
 90
        0
176
     1
290
     0
176
     1
290
     1
176
     1
290
     1
176
     1
290
     0
176
     1
290
     0
176
     1
290
     0
176
     1
290
     0
176
     1
290
     0
176
     1
290
     0
176
     1
 90
       50
176
     1
 40
0.0
176
     1
 40
1.0
176
     1
 90
        0
176
     1
 62
    18
420
        0
176
     1
 90
       50
176
     1
 90
        3
176
     1
 62
     5
420
      255
176
     1
290
     0
176
     1
 90
       50
176
     1
 90
       50
176
     1
 90
       50
176
     1
290
     0
176
     1
 90
       50
176
     1
 62
   256
176
     0
 40
1.0
176
     0
 90
        2
176
     1
  1
strokes_ogs.tif
176
     1
290
     0
176
     1
 40
1.0
176
     1
 40
1.0
176
     1
  0
DICTIONARYVAR
  5
C5
102
{ACAD_REACTORS
330
C0
102
}
330
C0
100
DictionaryVariables
280
     0
  1
1:1
  0
DICTIONARYVAR
  5
C2
102
{ACAD_REACTORS
330
C0
102
}
330
C0
100
DictionaryVariables
280
     0
  1
STANDARD
  0
DICTIONARYVAR
  5
C1
102
{ACAD_REACTORS
330
C0
102
}
330
C0
100
DictionaryVariables
280
     0
  1
STANDARD
  0
DICTIONARYVAR
  5
C3
102
{ACAD_REACTORS
330
C0
102
}
330
C0
100
DictionaryVariables
280
     0
  1
Imperial24
  0
DICTIONARYVAR
  5
C4
102
{ACAD_REACTORS
330
C0
102
}
330
C0
100
DictionaryVariables
280
     0
  1
Imperial24
  0
DICTIONARY
  5
1A
330
19
100
AcDbDictionary
280
     1
281
     1
  3
BUMPTILE
360
1C
  3
DIFFUSETILE
360
1B
  3
OPACITYTILE
360
1F
  3
REFLECTIONTILE
360
1E
  3
REFRACTIONTILE
360
20
  3
SPECULARTILE
360
1D
  0
DICTIONARY
  5
12
330
11
100
AcDbDictionary
280
     1
281
     1
  3
BUMPTILE
360
14
  3
DIFFUSETILE
360
13
  3
OPACITYTILE
360
17
  3
REFLECTIONTILE
360
16
  3
REFRACTIONTILE
360
18
  3
SPECULARTILE
360
15
  0
DICTIONARY
  5
22
330
21
100
AcDbDictionary
280
     1
281
     1
  3
BUMPTILE
360
24
  3
DIFFUSETILE
360
23
  3
OPACITYTILE
360
27
  3
REFLECTIONTILE
360
26
  3
REFRACTIONTILE
360
28
  3
SPECULARTILE
360
25
  0
DICTIONARY
  5
C6
330
65
100
AcDbDictionary
280
     1
281
     1
  3
ACAD_ROUNDTRIP_2008_TABLESTYLE_CELLSTYLEMAP
360
C7
  0
XRECORD
  5
1C
102
{ACAD_REACTORS
330
1A
102
}
330
1A
100
AcDbXrecord
280
     1
270
     1
271
     1
  0
XRECORD
  5
1B
102
{ACAD_REACTORS
330
1A
102
}
330
1A
100
AcDbXrecord
280
     1
270
     1
271
     1
  0
XRECORD
  5
1F
102
{ACAD_REACTORS
330
1A
102
}
330
1A
100
AcDbXrecord
280
     1
270
     1
271
     1
  0
XRECORD
  5
1E
102
{ACAD_REACTORS
330
1A
102
}
330
1A
100
AcDbXrecord
280
     1
270
     1
271
     1
  0
XRECORD
  5
20
102
{ACAD_REACTORS
330
1A
102
}
330
1A
100
AcDbXrecord
280
     1
270
     1
271
     1
  0
XRECORD
  5
1D
102
{ACAD_REACTORS
330
1A
102
}
330
1A
100
AcDbXrecord
280
     1
270
     1
271
     1
  0
XRECORD
  5
14
102
{ACAD_REACTORS
330
12
102
}
330
12
100
AcDbXrecord
280
     1
270
     1
271
     1
  0
XRECORD
  5
13
102
{ACAD_REACTORS
330
12
102
}
330
12
100
AcDbXrecord
280
     1
270
     1
271
     1
  0
XRECORD
  5
17
102
{ACAD_REACTORS
330
12
102
}
330
12
100
AcDbXrecord
280
     1
270
     1
271
     1
  0
XRECORD
  5
16
102
{ACAD_REACTORS
330
12
102
}
330
12
100
AcDbXrecord
280
     1
270
     1
271
     1
  0
XRECORD
  5
18
102
{ACAD_REACTORS
330
12
102
}
330
12
100
AcDbXrecord
280
     1
270
     1
271
     1
  0
XRECORD
  5
15
102
{ACAD_REACTORS
330
12
102
}
330
12
100
AcDbXrecord
280
     1
270
     1
271
     1
  0
XRECORD
  5
24
102
{ACAD_REACTORS
330
22
102
}
330
22
100
AcDbXrecord
280
     1
270
     1
271
     1
  0
XRECORD
  5
23
102
{ACAD_REACTORS
330
22
102
}
330
22
100
AcDbXrecord
280
     1
270
     1
271
     1
  0
XRECORD
  5
27
102
{ACAD_REACTORS
330
22
102
}
330
22
100
AcDbXrecord
280
     1
270
     1
271
     1
  0
XRECORD
  5
26
102
{ACAD_REACTORS
330
22
102
}
330
22
100
AcDbXrecord
280
     1
270
     1
271
     1
  0
XRECORD
  5
28
102
{ACAD_REACTORS
330
22
102
}
330
22
100
AcDbXrecord
280
     1
270
     1
271
     1
  0
XRECORD
  5
25
102
{ACAD_REACTORS
330
22
102
}
330
22
100
AcDbXrecord
280
     1
270
     1
271
     1
  0
CELLSTYLEMAP
  5
C7
102
{ACAD_REACTORS
330
C6
102
}
330
C6
100
AcDbCellStyleMap
 90
        3
300
CELLSTYLE
  1
TABLEFORMAT_BEGIN
 90
        5
170
     1
 91
        0
 92
    32768
 62
   257
 93
        1
300
CONTENTFORMAT
  1
CONTENTFORMAT_BEGIN
 90
        0
 91
        0
 92
      512
 93
        0
300

 40
0.0
140
1.0
 94
        5
 62
     0
340
55
144
0.25
309
CONTENTFORMAT_END
171
     0
 94
        0
309
TABLEFORMAT_END
  1
CELLSTYLE_BEGIN
 90
        1
 91
        1
300
_TITLE
309
CELLSTYLE_END
300
CELLSTYLE
  1
TABLEFORMAT_BEGIN
 90
        5
170
     1
 91
        0
 92
        0
 62
   257
 93
        1
300
CONTENTFORMAT
  1
CONTENTFORMAT_BEGIN
 90
        0
 91
        0
 92
      512
 93
        0
300

 40
0.0
140
1.0
 94
        5
 62
     0
340
55
144
0.18
309
CONTENTFORMAT_END
171
     0
 94
        0
309
TABLEFORMAT_END
  1
CELLSTYLE_BEGIN
 90
        2
 91
        1
300
_HEADER
309
CELLSTYLE_END
300
CELLSTYLE
  1
TABLEFORMAT_BEGIN
 90
        5
170
     1
 91
        0
 92
        0
 62
   257
 93
        1
300
CONTENTFORMAT
  1
CONTENTFORMAT_BEGIN
 90
        0
 91
        0
 92
      512
 93
        0
300

 40
0.0
140
1.0
 94
        2
 62
     0
340
55
144
0.18
309
CONTENTFORMAT_END
171
     0
 94
        0
309
TABLEFORMAT_END
  1
CELLSTYLE_BEGIN
 90
        3
 91
        2
300
_DATA
309
CELLSTYLE_END
  0
ENDSEC
  0
EOF
